<svg width="65" height="75" viewBox="0 0 65 75" xmlns="http://www.w3.org/2000/svg">
  <title>
    Group 10 Copy 3
  </title>
  <g fill="none" fill-rule="evenodd">
    <path fill="#00B46F" d="M48.75 28.31L65 37.867v18.75l-16.25 9.19-16.25-9.19v-18.75"/>
    <path fill="#2294D9" d="M32.5 0l16.25 9.56v18.75L32.5 37.5l-16.25-9.19V9.56"/>
    <path fill="#2294D9" d="M48.75 9.56L65 19.117v18.75l-16.25 9.19-16.25-9.19v-18.75"/>
    <path fill="#F85551" d="M16.25 9.56l16.25 9.558v18.75l-16.25 9.19L0 37.87v-18.75"/>
    <path fill="#F85551" d="M16.25 28.31l16.25 9.558v18.75l-16.25 9.19L0 56.62v-18.75"/>
    <path fill="#00B46F" d="M32.5 37.5l16.25 9.56v18.75L32.5 75l-16.25-9.19V47.06"/>
    <g>
      <path d="M48.75 9.56L32.5 19.117l-16.25-9.56L32.5 0l16.25 9.56zM65 19.117l-16.25 9.558-16.25-9.558 16.25-9.56L65 19.12z" fill="#30B2E9"/>
      <path fill="#00AB64" d="M32.5 56.25V37.5l-16.25 9.56v18.75"/>
      <path fill="#00CE8E" d="M48.75 47.06L32.5 56.25l-16.25-9.19L32.5 37.5"/>
      <path d="M32.5 56.25l-16.25-9.19L32.5 37.5v18.75z" fill="#00C783"/>
      <path d="M32.5 19.118l-16.25-9.56L32.5 0v19.118z" fill="#2CAEE7"/>
      <path fill="#FB716C" d="M32.5 19.118l-16.25 9.558L0 19.118l16.25-9.56"/>
      <path fill="#1F8ED6" d="M65 37.868l-16.25 9.19L32.5 37.5l16.25-8.824"/>
      <path d="M16 65.65L0 56.46l16-9.56v18.75z" fill="#F64743"/>
      <path fill="#F96560" d="M16.25 28.676V9.56l16.25 9.558V37.5"/>
      <path fill="#B71D1D" d="M32.5 37.5V19.118l-16.25 9.558V47.06"/>
      <path d="M32.5 37.5l-16.25-8.824 16.25-9.558V37.5z" fill="#B21A1A"/>
      <path d="M65 56.618l-16.25-9.56L65 37.87v18.75z" fill-opacity=".2" fill="#10161A" style="mix-blend-mode:soft-light"/>
      <path d="M48.75 65.81V47.06L32.5 56.25V75l16.25-9.19zM65 56.617v-18.75l-16.25 9.19v18.75L65 56.62z" fill="#007233"/>
      <path d="M65 56.618l-16.25-9.56L65 37.87v18.75z" fill="#00682C"/>
      <path fill="#0759BA" d="M65 37.868v-18.75l-16.25 9.558V47.06"/>
      <path d="M65 37.868l-16.25-9.192L65 19.118v18.75z" fill="#0860BF"/>
      <path d="M0 19.118l16.25 9.19 16.25-9.19-15.88 9.742-.37 18.137c0 .002 0 0 0 0l-.37-18.137L0 19.118z" fill="#FEBCB7" opacity=".78"/>
      <path fill="#4EDCF8" opacity=".78" d="M32.5 19.118l16.25 9.19L65 19.12 49.12 28.86l-.37 18.2-.37-18.2"/>
      <path d="M16.25 47.06L32.5 55.88l16.25-8.823-15.88 9.374-.37 18.563-.37-18.563-15.88-9.375z" fill="#00F3C9" opacity=".78"/>
    </g>
  </g>
</svg>
