<svg xmlns="http://www.w3.org/2000/svg" fill="none" viewBox="0 0 16 16">
  <path fill="#5f6b7c" d="M13.5 1.749a.75.75 0 0 1 .75.75v11a.75.75 0 0 1-.75.75h-11a.75.75 0 0 1-.75-.75v-11a.75.75 0 0 1 .75-.75zm-10.25 11h9.5v-9.5h-9.5zm3.5-8.499A.75.75 0 0 1 7.5 5v6a.75.75 0 0 1-.75.75H5a.75.75 0 0 1-.75-.75V5A.75.75 0 0 1 5 4.25zM11 8.5a.75.75 0 0 1 .75.75V11a.75.75 0 0 1-.75.75H9.25A.75.75 0 0 1 8.5 11V9.25a.75.75 0 0 1 .75-.75zm0-4.25a.75.75 0 0 1 .75.75v1.75a.75.75 0 0 1-.75.75H9.25a.75.75 0 0 1-.75-.75V5a.75.75 0 0 1 .75-.75z"/>
</svg>
