<svg xmlns="http://www.w3.org/2000/svg" fill="none" viewBox="0 0 16 16">
  <path fill="#5f6b7c" d="M4.75 8q.002-.657.08-1.25H2.643a5.5 5.5 0 0 0 0 2.5h2.185A10 10 0 0 1 4.75 8m-1.513 2.75a5.5 5.5 0 0 0 3.108 2.496 8.9 8.9 0 0 1-1.2-2.496zm7.618 0a8.9 8.9 0 0 1-1.2 2.496 5.5 5.5 0 0 0 3.108-2.496zm-4.13 0c.195.53.428.98.66 1.352.217.347.433.624.615.835a6.6 6.6 0 0 0 .614-.835c.233-.372.466-.822.66-1.352zm3.16-7.647a9 9 0 0 1 .97 2.147h1.908a5.5 5.5 0 0 0-3.109-2.497q.116.164.232.35M8 3.063c-.182.21-.398.488-.614.834a7.3 7.3 0 0 0-.66 1.353h2.548a7.3 7.3 0 0 0-.66-1.353A7 7 0 0 0 8 3.063m-1.655-.31A5.5 5.5 0 0 0 3.237 5.25h1.909a8.9 8.9 0 0 1 1.199-2.497M6.25 8c0 .444.035.86.094 1.25h3.312a8.4 8.4 0 0 0 0-2.5H6.344c-.059.39-.094.806-.094 1.25m5 0q-.002.657-.08 1.25h2.186a5.5 5.5 0 0 0 0-2.5h-2.185c.05.395.079.812.079 1.25M15 8A7 7 0 1 1 1 8a7 7 0 0 1 14 0"/>
</svg>
