<svg width="314" height="194" viewBox="0 0 314 194" xmlns="http://www.w3.org/2000/svg" xmlns:xlink="http://www.w3.org/1999/xlink">
    <title>
        INPUTS
    </title>
    <defs>
        <rect id="input-groups-a" x="6" y="5" width="301" height="31" rx="3"/>
        <mask id="input-groups-w" x="0" y="0" width="301" height="31" fill="#fff">
            <use xlink:href="#input-groups-a"/>
        </mask>
        <circle id="input-groups-b" cx="7" cy="6" r="4"/>
        <mask id="input-groups-x" x="0" y="0" width="8" height="8" fill="#fff">
            <use xlink:href="#input-groups-b"/>
        </mask>
        <circle id="input-groups-c" cx="7" cy="35" r="4"/>
        <mask id="input-groups-y" x="0" y="0" width="8" height="8" fill="#fff">
            <use xlink:href="#input-groups-c"/>
        </mask>
        <circle id="input-groups-d" cx="306" cy="35" r="4"/>
        <mask id="input-groups-z" x="0" y="0" width="8" height="8" fill="#fff">
            <use xlink:href="#input-groups-d"/>
        </mask>
        <circle id="input-groups-e" cx="306" cy="6" r="4"/>
        <mask id="input-groups-A" x="0" y="0" width="8" height="8" fill="#fff">
            <use xlink:href="#input-groups-e"/>
        </mask>
        <rect id="input-groups-f" x="6" y="5" width="301" height="31" rx="3"/>
        <mask id="input-groups-B" x="0" y="0" width="301" height="31" fill="#fff">
            <use xlink:href="#input-groups-f"/>
        </mask>
        <mask id="input-groups-C" x="-2" y="-2" width="305" height="35">
            <path fill="#fff" d="M4 3h305v35H4z"/>
            <use xlink:href="#input-groups-f"/>
        </mask>
        <circle id="input-groups-g" cx="7" cy="6" r="4"/>
        <mask id="input-groups-D" x="0" y="0" width="8" height="8" fill="#fff">
            <use xlink:href="#input-groups-g"/>
        </mask>
        <circle id="input-groups-h" cx="7" cy="35" r="4"/>
        <mask id="input-groups-E" x="0" y="0" width="8" height="8" fill="#fff">
            <use xlink:href="#input-groups-h"/>
        </mask>
        <circle id="input-groups-i" cx="306" cy="35" r="4"/>
        <mask id="input-groups-F" x="0" y="0" width="8" height="8" fill="#fff">
            <use xlink:href="#input-groups-i"/>
        </mask>
        <circle id="input-groups-j" cx="306" cy="6" r="4"/>
        <mask id="input-groups-G" x="0" y="0" width="8" height="8" fill="#fff">
            <use xlink:href="#input-groups-j"/>
        </mask>
        <rect id="input-groups-k" x="6" y="5" width="301" height="31" rx="3"/>
        <mask id="input-groups-H" x="0" y="0" width="301" height="31" fill="#fff">
            <use xlink:href="#input-groups-k"/>
        </mask>
        <mask id="input-groups-I" x="-2" y="-2" width="305" height="35">
            <path fill="#fff" d="M4 3h305v35H4z"/>
            <use xlink:href="#input-groups-k"/>
        </mask>
        <path d="M298.56 25.44l-2.67-2.68A6.94 6.94 0 0 0 297 19c0-3.87-3.13-7-7-7s-7 3.13-7 7 3.13 7 7 7c1.39 0 2.68-.42 3.76-1.11l2.68 2.67a1.498 1.498 0 1 0 2.12-2.12zM290 24c-2.76 0-5-2.24-5-5s2.24-5 5-5 5 2.24 5 5-2.24 5-5 5z" id="input-groups-l"/>
        <mask id="input-groups-J" x="0" y="0" width="16" height="16" fill="#fff">
            <use xlink:href="#input-groups-l"/>
        </mask>
        <circle id="input-groups-m" cx="7" cy="6" r="4"/>
        <mask id="input-groups-K" x="0" y="0" width="8" height="8" fill="#fff">
            <use xlink:href="#input-groups-m"/>
        </mask>
        <circle id="input-groups-n" cx="7" cy="35" r="4"/>
        <mask id="input-groups-L" x="0" y="0" width="8" height="8" fill="#fff">
            <use xlink:href="#input-groups-n"/>
        </mask>
        <circle id="input-groups-o" cx="306" cy="35" r="4"/>
        <mask id="input-groups-M" x="0" y="0" width="8" height="8" fill="#fff">
            <use xlink:href="#input-groups-o"/>
        </mask>
        <circle id="input-groups-p" cx="306" cy="6" r="4"/>
        <mask id="input-groups-N" x="0" y="0" width="8" height="8" fill="#fff">
            <use xlink:href="#input-groups-p"/>
        </mask>
        <rect id="input-groups-q" x="6" y="5" width="301" height="31" rx="3"/>
        <mask id="input-groups-O" x="0" y="0" width="301" height="31" fill="#fff">
            <use xlink:href="#input-groups-q"/>
        </mask>
        <circle id="input-groups-r" cx="7" cy="6" r="4"/>
        <mask id="input-groups-P" x="0" y="0" width="8" height="8" fill="#fff">
            <use xlink:href="#input-groups-r"/>
        </mask>
        <circle id="input-groups-s" cx="7" cy="35" r="4"/>
        <mask id="input-groups-Q" x="0" y="0" width="8" height="8" fill="#fff">
            <use xlink:href="#input-groups-s"/>
        </mask>
        <circle id="input-groups-t" cx="306" cy="35" r="4"/>
        <mask id="input-groups-R" x="0" y="0" width="8" height="8" fill="#fff">
            <use xlink:href="#input-groups-t"/>
        </mask>
        <circle id="input-groups-u" cx="306" cy="6" r="4"/>
        <mask id="input-groups-S" x="0" y="0" width="8" height="8" fill="#fff">
            <use xlink:href="#input-groups-u"/>
        </mask>
        <path d="M292.42 20l3.29-3.29a1.003 1.003 0 0 0-1.42-1.42L291 18.58l-3.29-3.29a1.003 1.003 0 0 0-1.42 1.42l3.29 3.29-3.29 3.29a1.003 1.003 0 0 0 1.42 1.42l3.29-3.29 3.29 3.29a1.003 1.003 0 0 0 1.42-1.42L292.42 20z" id="input-groups-v"/>
        <mask id="input-groups-T" x="0" y="0" width="10" height="10" fill="#fff">
            <use xlink:href="#input-groups-v"/>
        </mask>
    </defs>
    <g fill="none" fill-rule="evenodd" opacity=".1">
        <g stroke="#FFF">
            <g>
                <g opacity=".8">
                    <g>
                        <g>
                            <use mask="url(#input-groups-w)" stroke-width="4" opacity=".4" xlink:href="#input-groups-a"/>
                            <path d="M7 0v42M306 0v42M0 6h314M0 6h314M0 35h314" stroke-opacity=".5" stroke-width="2"/>
                            <use mask="url(#input-groups-x)" stroke-width="2" opacity=".4" xlink:href="#input-groups-b"/>
                            <use mask="url(#input-groups-y)" stroke-width="2" opacity=".4" xlink:href="#input-groups-c"/>
                            <use mask="url(#input-groups-z)" stroke-width="2" opacity=".4" xlink:href="#input-groups-d"/>
                            <use mask="url(#input-groups-A)" stroke-width="2" opacity=".4" xlink:href="#input-groups-e"/>
                            <path d="M18.5 20.5H71" stroke-width="3" stroke-linecap="square"/>
                        </g>
                        <g transform="translate(0 50)">
                            <g opacity=".4" stroke-width="4">
                                <use mask="url(#input-groups-B)" xlink:href="#input-groups-f"/>
                                <use mask="url(#input-groups-C)" xlink:href="#input-groups-f"/>
                            </g>
                            <path d="M7 0v42M306 0v42M0 6h314M0 35h314" stroke-opacity=".5" stroke-width="2"/>
                            <use mask="url(#input-groups-D)" stroke-width="2" opacity=".4" xlink:href="#input-groups-g"/>
                            <use mask="url(#input-groups-E)" stroke-width="2" opacity=".4" xlink:href="#input-groups-h"/>
                            <use mask="url(#input-groups-F)" stroke-width="2" opacity=".4" xlink:href="#input-groups-i"/>
                            <use mask="url(#input-groups-G)" stroke-width="2" opacity=".4" xlink:href="#input-groups-j"/>
                            <path d="M18.5 20.5H71" stroke-width="3" stroke-linecap="square"/>
                        </g>
                        <g transform="translate(0 101)">
                            <g opacity=".4" stroke-width="4">
                                <use mask="url(#input-groups-H)" xlink:href="#input-groups-k"/>
                                <use mask="url(#input-groups-I)" xlink:href="#input-groups-k"/>
                            </g>
                            <path d="M306 0v42M7 0v42M0 6h314M0 35h314" stroke-opacity=".5" stroke-width="2"/>
                            <use mask="url(#input-groups-J)" stroke-width="4" xlink:href="#input-groups-l"/>
                            <use mask="url(#input-groups-K)" stroke-width="2" opacity=".4" xlink:href="#input-groups-m"/>
                            <use mask="url(#input-groups-L)" stroke-width="2" opacity=".4" xlink:href="#input-groups-n"/>
                            <use mask="url(#input-groups-M)" stroke-width="2" opacity=".4" xlink:href="#input-groups-o"/>
                            <use mask="url(#input-groups-N)" stroke-width="2" opacity=".4" xlink:href="#input-groups-p"/>
                            <path d="M18.5 20.5H111" stroke-width="3" stroke-linecap="square"/>
                        </g>
                        <g transform="translate(0 152)">
                            <use mask="url(#input-groups-O)" stroke-width="4" opacity=".4" xlink:href="#input-groups-q"/>
                            <path d="M306 0v42M0 6h314M7 0v42M0 35h314" stroke-opacity=".5" stroke-width="2"/>
                            <use mask="url(#input-groups-P)" stroke-width="2" opacity=".4" xlink:href="#input-groups-r"/>
                            <use mask="url(#input-groups-Q)" stroke-width="2" opacity=".4" xlink:href="#input-groups-s"/>
                            <use mask="url(#input-groups-R)" stroke-width="2" opacity=".4" xlink:href="#input-groups-t"/>
                            <use mask="url(#input-groups-S)" stroke-width="2" opacity=".4" xlink:href="#input-groups-u"/>
                            <use mask="url(#input-groups-T)" stroke-width="4" xlink:href="#input-groups-v"/>
                            <path d="M18.5 20.5H111" stroke-width="3" stroke-linecap="square"/>
                        </g>
                    </g>
                </g>
            </g>
        </g>
    </g>
</svg>
