<svg width="70" height="70" viewBox="0 0 70 70" xmlns="http://www.w3.org/2000/svg" xmlns:xlink="http://www.w3.org/1999/xlink">
    <title>
        Artboard 2
    </title>
    <defs>
        <linearGradient x1="21.157%" y1="6.442%" x2="88.553%" y2="94.548%" id="f">
            <stop stop-color="#FEFFFF" offset="0%"/>
            <stop stop-color="#ECF6FD" offset="100%"/>
        </linearGradient>
        <ellipse id="a" cx="31" cy="30" rx="31" ry="30"/>
        <mask id="e" x="0" y="0" width="62" height="60" fill="#fff">
            <use xlink:href="#a"/>
        </mask>
        <ellipse id="b" cx="31" cy="30" rx="24" ry="23"/>
        <mask id="g" x="0" y="0" width="48" height="46" fill="#fff">
            <use xlink:href="#b"/>
        </mask>
        <ellipse id="c" cx="31" cy="30" rx="16" ry="15"/>
        <mask id="h" x="0" y="0" width="32" height="30" fill="#fff">
            <use xlink:href="#c"/>
        </mask>
        <path d="M31 35.6l-1.148 1.418c-.349.431-.734.351-.863-.197l-.188-.797c-.127-.54-.63-.79-1.14-.549l-.74.35c-.502.237-.814-.002-.692-.552l.176-.8c.12-.542-.225-.985-.789-.989l-.818-.006c-.556-.004-.733-.355-.384-.798l.505-.643c.343-.437.224-.986-.281-1.234l-.735-.36c-.499-.245-.506-.638 0-.886l.735-.36c.498-.245.63-.79.281-1.234l-.505-.643c-.344-.437-.18-.794.384-.798l.818-.006c.556-.004.91-.44.79-.99l-.177-.799c-.12-.542.183-.793.692-.552l.74.35c.502.237 1.01 0 1.14-.55l.188-.796c.127-.54.509-.635.863-.197l.515.636c.35.432.911.438 1.266 0l.515-.636c.349-.431.734-.351.863.197l.188.797c.127.54.63.79 1.14.549l.74-.35c.502-.237.814.002.692.552l-.176.8c-.12.542.225.985.789.989l.818.006c.556.004.733.355.384.798l-.505.643c-.343.437-.224.986.281 1.234l.735.36c.499.245.506.638 0 .886l-.735.36c-.498.245-.63.79-.281 1.234l.505.643c.344.437.18.794-.384.798l-.818.006c-.556.004-.91.44-.79.99l.177.799c.12.542-.183.793-.692.552l-.74-.35c-.502-.237-1.01 0-1.14.55l-.188.796c-.127.54-.509.635-.863.197L31 35.6z" id="d"/>
        <mask id="i" x="0" y="0" width="16" height="16" fill="#fff">
            <use xlink:href="#d"/>
        </mask>
        <circle id="j" cx="36.5" cy="17.5" r="3.5"/>
        <filter x="-50%" y="-50%" width="200%" height="200%" filterUnits="objectBoundingBox" id="k">
            <feOffset dx="-1" dy="-2" in="SourceAlpha" result="shadowOffsetInner1"/>
            <feComposite in="shadowOffsetInner1" in2="SourceAlpha" operator="arithmetic" k2="-1" k3="1" result="shadowInnerInner1"/>
            <feColorMatrix values="0 0 0 0 0.815686275 0 0 0 0 0.898039216 0 0 0 0 0.949019608 0 0 0 1 0" in="shadowInnerInner1"/>
        </filter>
        <circle id="l" cx="10.5" cy="38.5" r="3.5"/>
        <filter x="-50%" y="-50%" width="200%" height="200%" filterUnits="objectBoundingBox" id="m">
            <feOffset dx="-1" dy="-2" in="SourceAlpha" result="shadowOffsetInner1"/>
            <feComposite in="shadowOffsetInner1" in2="SourceAlpha" operator="arithmetic" k2="-1" k3="1" result="shadowInnerInner1"/>
            <feColorMatrix values="0 0 0 0 0.815686275 0 0 0 0 0.898039216 0 0 0 0 0.949019608 0 0 0 1 0" in="shadowInnerInner1"/>
        </filter>
        <circle id="n" cx="53.5" cy="49.5" r="3.5"/>
        <filter x="-50%" y="-50%" width="200%" height="200%" filterUnits="objectBoundingBox" id="o">
            <feOffset dx="-1" dy="-2" in="SourceAlpha" result="shadowOffsetInner1"/>
            <feComposite in="shadowOffsetInner1" in2="SourceAlpha" operator="arithmetic" k2="-1" k3="1" result="shadowInnerInner1"/>
            <feColorMatrix values="0 0 0 0 0.815686275 0 0 0 0 0.898039216 0 0 0 0 0.949019608 0 0 0 1 0" in="shadowInnerInner1"/>
        </filter>
    </defs>
    <g fill="none" fill-rule="evenodd">
        <g>
            <g transform="translate(4 5)">
                <use stroke="#137CBD" mask="url(#e)" stroke-width="4" fill="url(#f)" xlink:href="#a"/>
                <use stroke="#137CBD" mask="url(#g)" stroke-width="4" xlink:href="#b"/>
                <use stroke="#137CBD" mask="url(#h)" stroke-width="4" xlink:href="#c"/>
                <use stroke="#137CBD" mask="url(#i)" stroke-width="3" fill="#137CBD" xlink:href="#d"/>
                <g>
                    <use fill="#FFF" xlink:href="#j"/>
                    <use fill="#000" filter="url(#k)" xlink:href="#j"/>
                    <use stroke="#137CBD" stroke-width="2" xlink:href="#j"/>
                </g>
                <g>
                    <use fill="#FFF" xlink:href="#l"/>
                    <use fill="#000" filter="url(#m)" xlink:href="#l"/>
                    <use stroke="#137CBD" stroke-width="2" xlink:href="#l"/>
                </g>
                <g>
                    <use fill="#FFF" xlink:href="#n"/>
                    <use fill="#000" filter="url(#o)" xlink:href="#n"/>
                    <use stroke="#137CBD" stroke-width="2" xlink:href="#n"/>
                </g>
            </g>
        </g>
    </g>
</svg>
