<svg width="62" height="62" viewBox="0 0 62 62" xmlns="http://www.w3.org/2000/svg">
    <title>
        Slice
    </title>
    <defs>
        <linearGradient x1="23.048%" y1="6.442%" x2="86.026%" y2="94.548%" id="a">
            <stop stop-color="#FEFFFF" offset="0%"/>
            <stop stop-color="#ECF6FD" offset="100%"/>
        </linearGradient>
    </defs>
    <g fill="none" fill-rule="evenodd">
        <g>
            <g>
                <g>
                    <g>
                        <g>
                            <g fill="#FFF" transform="translate(33 15)">
                                <circle cx="3.5" cy="3.5" r="3.5"/>
                            </g>
                            <g stroke-width="2" stroke="#137CBD" transform="translate(33 15)">
                                <circle cx="3.5" cy="3.5" r="3.5"/>
                            </g>
                        </g>
                        <g>
                            <g fill="#FFF" transform="translate(7 36)">
                                <circle cx="3.5" cy="3.5" r="3.5"/>
                            </g>
                            <g stroke-width="2" stroke="#137CBD" transform="translate(7 36)">
                                <circle cx="3.5" cy="3.5" r="3.5"/>
                            </g>
                        </g>
                        <g>
                            <g fill="#FFF" transform="translate(50 47)">
                                <circle cx="3.5" cy="3.5" r="3.5"/>
                            </g>
                            <g stroke-width="2" stroke="#137CBD" transform="translate(50 47)">
                                <circle cx="3.5" cy="3.5" r="3.5"/>
                            </g>
                        </g>
                    </g>
                </g>
            </g>
        </g>
        <ellipse stroke="#137CBD" stroke-width="2" fill="url(#a)" cx="31" cy="31" rx="30" ry="29"/>
        <ellipse stroke="#137CBD" stroke-width="2" cx="31" cy="31" rx="23" ry="22"/>
        <ellipse stroke="#137CBD" stroke-width="2" cx="31" cy="31" rx="15" ry="14"/>
        <path d="M31 36.6l-1.148 1.418c-.349.431-.734.351-.863-.197l-.188-.797c-.127-.54-.63-.79-1.14-.549l-.74.35c-.502.237-.814-.002-.692-.552l.176-.8c.12-.542-.225-.985-.789-.989l-.818-.006c-.556-.004-.733-.355-.384-.798l.505-.643c.343-.437.224-.986-.281-1.234l-.735-.36c-.499-.245-.506-.638 0-.886l.735-.36c.498-.245.63-.79.281-1.234l-.505-.643c-.344-.437-.18-.794.384-.798l.818-.006c.556-.004.91-.44.79-.99l-.177-.799c-.12-.542.183-.793.692-.552l.74.35c.502.237 1.01 0 1.14-.55l.188-.796c.127-.54.509-.635.863-.197l.515.636c.35.432.911.438 1.266 0l.515-.636c.349-.431.734-.351.863.197l.188.797c.127.54.63.79 1.14.549l.74-.35c.502-.237.814.002.692.552l-.176.8c-.12.542.225.985.789.989l.818.006c.556.004.733.355.384.798l-.505.643c-.343.437-.224.986.281 1.234l.735.36c.499.245.506.638 0 .886l-.735.36c-.498.245-.63.79-.281 1.234l.505.643c.344.437.18.794-.384.798l-.818.006c-.556.004-.91.44-.79.99l.177.799c.12.542-.183.793-.692.552l-.74-.35c-.502-.237-1.01 0-1.14.55l-.188.796c-.127.54-.509.635-.863.197L31 36.6z" fill="#137CBD"/>
        <circle stroke="#137CBD" stroke-width="2" fill="#FFF" cx="36.5" cy="18.5" r="3.5"/>
        <circle stroke="#137CBD" stroke-width="2" fill="#FFF" cx="10.5" cy="39.5" r="3.5"/>
        <circle stroke="#137CBD" stroke-width="2" fill="#FFF" cx="53.5" cy="50.5" r="3.5"/>
    </g>
</svg>
