<svg width="70" height="70" viewBox="0 0 70 70" xmlns="http://www.w3.org/2000/svg">
    <title>
        Artboard 2 Copy
    </title>
    <defs>
        <linearGradient x1="21.157%" y1="6.442%" x2="90.979%" y2="97.719%" id="a">
            <stop stop-color="#E8F5FD" offset="0%"/>
            <stop stop-color="#D8EEFC" offset="100%"/>
        </linearGradient>
    </defs>
    <g fill="none" fill-rule="evenodd">
        <g stroke="#137CBD" stroke-width="2" fill="url(#a)">
            <g>
                <path d="M18.658 33.5c.473-.276 1.25-.27 1.71 0l11.96 7c.472.276.854.945.854 1.5v14c0 .552-.394 1.23-.855 1.5l-11.958 7c-.473.276-1.25.27-1.71 0l-11.96-7c-.472-.276-.854-.945-.854-1.5V42c0-.552.394-1.23.855-1.5l11.958-7zM49.648 33.5c.473-.276 1.25-.27 1.71 0l11.96 7c.472.276.854.945.854 1.5v14c0 .552-.394 1.23-.855 1.5l-11.958 7c-.473.276-1.25.27-1.71 0l-11.96-7c-.472-.276-.854-.945-.854-1.5V42c0-.552.394-1.23.855-1.5l11.958-7zM34.13 5.988c.476-.27 1.254-.266 1.723 0l12.387 7.024c.475.27.86.933.86 1.489v13.998c0 .553-.391 1.223-.86 1.49l-12.387 7.023c-.476.27-1.253.266-1.723 0l-12.386-7.024c-.476-.27-.861-.933-.861-1.489V14.501c0-.553.392-1.223.861-1.49L34.13 5.989z"/>
            </g>
        </g>
    </g>
</svg>
