<svg width="65" height="76" xmlns="http://www.w3.org/2000/svg"><g fill="none" fill-rule="evenodd"><path d="M31.472 2.034L2.503 18.713A3 3 0 0 0 1 21.313v33.374a3 3 0 0 0 1.503 2.6l28.969 16.68a3 3 0 0 0 3.029-.02l28.03-16.644A3 3 0 0 0 64 54.723V21.277a3 3 0 0 0-1.468-2.58L34.5 2.054a3 3 0 0 0-3.029-.02z" stroke="#5C7080" stroke-width="2"/><path d="M31.987 20.57L17 29v17.83a2 2 0 0 0 1.02 1.743L33 57l15-9V29l-14.003-8.402a2 2 0 0 0-2.01-.028z" stroke="#5C7080" stroke-width="2"/><path fill="#5C7080" d="M.396 21.602l.97-1.749 26.238 14.545-.97 1.749z"/><path fill="#5C7080" d="M23.396 34.602l.97-1.749 26.238 14.545-.97 1.749z"/><path fill="#5C7080" d="M33 20l-16 9v19l16-9zM63 20l-16 9v20l16-9z"/><path fill="#5C7080" d="M63 39l-16 9v19l16-9z"/><path fill="#5C7080" d="M49 47l-16 9v19l16-9z"/></g></svg>
