<svg width="168" height="77" viewBox="0 0 168 77" xmlns="http://www.w3.org/2000/svg" xmlns:xlink="http://www.w3.org/1999/xlink">
    <title>
        CHECKBOXES
    </title>
    <defs>
        <path id="checkboxes-a" d="M0 .977h16v16H0z"/>
        <mask id="checkboxes-f" x="0" y="0" width="16" height="16" fill="#fff">
            <use xlink:href="#checkboxes-a"/>
        </mask>
        <path id="checkboxes-b" d="M0 30.977h16v16H0z"/>
        <mask id="checkboxes-g" x="0" y="0" width="16" height="16" fill="#fff">
            <use xlink:href="#checkboxes-b"/>
        </mask>
        <path d="M12 36c-.28 0-.53.11-.71.29L7 40.58l-2.29-2.29a1.003 1.003 0 0 0-1.42 1.42l3 3c.18.18.43.29.71.29.28 0 .53-.11.71-.29l5-5A1.003 1.003 0 0 0 12 36z" id="checkboxes-c"/>
        <mask id="checkboxes-h" x="0" y="0" width="10" height="7" fill="#fff">
            <use xlink:href="#checkboxes-c"/>
        </mask>
        <path id="checkboxes-d" d="M0 60.977h16v16H0z"/>
        <mask id="checkboxes-i" x="0" y="0" width="16" height="16" fill="#fff">
            <use xlink:href="#checkboxes-d"/>
        </mask>
        <path d="M11 68H5c-.55 0-1 .45-1 1s.45 1 1 1h6c.55 0 1-.45 1-1s-.45-1-1-1z" id="checkboxes-e"/>
        <mask id="checkboxes-j" x="0" y="0" width="8" height="2" fill="#fff">
            <use xlink:href="#checkboxes-e"/>
        </mask>
    </defs>
    <g fill="none" fill-rule="evenodd" opacity=".1">
        <g stroke="#FFF">
            <g>
                <g>
                    <use mask="url(#checkboxes-f)" stroke-width="4" xlink:href="#checkboxes-a"/>
                    <path d="M26.5 8.5H76" stroke-width="3" stroke-linecap="square"/>
                    <use mask="url(#checkboxes-g)" stroke-width="4" xlink:href="#checkboxes-b"/>
                    <use mask="url(#checkboxes-h)" stroke-width="4" xlink:href="#checkboxes-c"/>
                    <path d="M26.5 38.5H132" stroke-width="3" stroke-linecap="square"/>
                    <use mask="url(#checkboxes-i)" stroke-width="4" xlink:href="#checkboxes-d"/>
                    <use mask="url(#checkboxes-j)" stroke-width="4" xlink:href="#checkboxes-e"/>
                    <path d="M26.5 68.5H166" stroke-width="3" stroke-linecap="square"/>
                </g>
            </g>
        </g>
    </g>
</svg>
