<svg width="215" height="154" viewBox="0 0 215 154" xmlns="http://www.w3.org/2000/svg" xmlns:xlink="http://www.w3.org/1999/xlink">
    <title>
        TIME SELECTIONS
    </title>
    <defs>
        <rect id="time-selections-a" x="7" y="16" width="201" height="31" rx="3"/>
        <mask id="time-selections-M" x="0" y="0" width="201" height="31" fill="#fff">
            <use xlink:href="#time-selections-a"/>
        </mask>
        <circle id="time-selections-b" cx="8" cy="17" r="4"/>
        <mask id="time-selections-N" x="0" y="0" width="8" height="8" fill="#fff">
            <use xlink:href="#time-selections-b"/>
        </mask>
        <circle id="time-selections-c" cx="8" cy="46" r="4"/>
        <mask id="time-selections-O" x="0" y="0" width="8" height="8" fill="#fff">
            <use xlink:href="#time-selections-c"/>
        </mask>
        <circle id="time-selections-d" cx="207" cy="46" r="4"/>
        <mask id="time-selections-P" x="0" y="0" width="8" height="8" fill="#fff">
            <use xlink:href="#time-selections-d"/>
        </mask>
        <circle id="time-selections-e" cx="207" cy="17" r="4"/>
        <mask id="time-selections-Q" x="0" y="0" width="8" height="8" fill="#fff">
            <use xlink:href="#time-selections-e"/>
        </mask>
        <path id="time-selections-f" d="M46 28h3v3h-3z"/>
        <mask id="time-selections-R" x="0" y="0" width="3" height="3" fill="#fff">
            <use xlink:href="#time-selections-f"/>
        </mask>
        <path id="time-selections-g" d="M46 34h3v3h-3z"/>
        <mask id="time-selections-S" x="0" y="0" width="3" height="3" fill="#fff">
            <use xlink:href="#time-selections-g"/>
        </mask>
        <path id="time-selections-h" d="M83 28h3v3h-3z"/>
        <mask id="time-selections-T" x="0" y="0" width="3" height="3" fill="#fff">
            <use xlink:href="#time-selections-h"/>
        </mask>
        <path id="time-selections-i" d="M83 34h3v3h-3z"/>
        <mask id="time-selections-U" x="0" y="0" width="3" height="3" fill="#fff">
            <use xlink:href="#time-selections-i"/>
        </mask>
        <path id="time-selections-j" d="M121 28h3v3h-3z"/>
        <mask id="time-selections-V" x="0" y="0" width="3" height="3" fill="#fff">
            <use xlink:href="#time-selections-j"/>
        </mask>
        <path id="time-selections-k" d="M121 34h3v3h-3z"/>
        <mask id="time-selections-W" x="0" y="0" width="3" height="3" fill="#fff">
            <use xlink:href="#time-selections-k"/>
        </mask>
        <path id="time-selections-l" d="M159 28h3v3h-3z"/>
        <mask id="time-selections-X" x="0" y="0" width="3" height="3" fill="#fff">
            <use xlink:href="#time-selections-l"/>
        </mask>
        <path id="time-selections-m" d="M159 34h3v3h-3z"/>
        <mask id="time-selections-Y" x="0" y="0" width="3" height="3" fill="#fff">
            <use xlink:href="#time-selections-m"/>
        </mask>
        <path d="M34 58c-.28 0-.53.11-.71.29L30 61.58l-3.29-3.29a1.003 1.003 0 0 0-1.42 1.42l4 4c.18.18.43.29.71.29.28 0 .53-.11.71-.29l4-4A1.003 1.003 0 0 0 34 58z" id="time-selections-n"/>
        <mask id="time-selections-Z" x="0" y="0" width="10" height="6" fill="#fff">
            <use xlink:href="#time-selections-n"/>
        </mask>
        <path d="M72 58c-.28 0-.53.11-.71.29L68 61.58l-3.29-3.29a1.003 1.003 0 0 0-1.42 1.42l4 4c.18.18.43.29.71.29.28 0 .53-.11.71-.29l4-4A1.003 1.003 0 0 0 72 58z" id="time-selections-o"/>
        <mask id="time-selections-aa" x="0" y="0" width="10" height="6" fill="#fff">
            <use xlink:href="#time-selections-o"/>
        </mask>
        <path d="M110 58c-.28 0-.53.11-.71.29L106 61.58l-3.29-3.29a1.003 1.003 0 0 0-1.42 1.42l4 4c.18.18.43.29.71.29.28 0 .53-.11.71-.29l4-4A1.003 1.003 0 0 0 110 58z" id="time-selections-p"/>
        <mask id="time-selections-ab" x="0" y="0" width="10" height="6" fill="#fff">
            <use xlink:href="#time-selections-p"/>
        </mask>
        <path d="M147 58c-.28 0-.53.11-.71.29L143 61.58l-3.29-3.29a1.003 1.003 0 0 0-1.42 1.42l4 4c.18.18.43.29.71.29.28 0 .53-.11.71-.29l4-4A1.003 1.003 0 0 0 147 58z" id="time-selections-q"/>
        <mask id="time-selections-ac" x="0" y="0" width="10" height="6" fill="#fff">
            <use xlink:href="#time-selections-q"/>
        </mask>
        <path d="M185 58c-.28 0-.53.11-.71.29L181 61.58l-3.29-3.29a1.003 1.003 0 0 0-1.42 1.42l4 4c.18.18.43.29.71.29.28 0 .53-.11.71-.29l4-4A1.003 1.003 0 0 0 185 58z" id="time-selections-r"/>
        <mask id="time-selections-ad" x="0" y="0" width="10" height="6" fill="#fff">
            <use xlink:href="#time-selections-r"/>
        </mask>
        <path d="M33.29.29L30 3.58 26.71.29a1.003 1.003 0 0 0-1.42 1.42l4 4c.18.18.43.29.71.29.28 0 .53-.11.71-.29l4-4A1.003 1.003 0 0 0 33.29.29z" id="time-selections-s"/>
        <mask id="time-selections-ae" x="0" y="0" width="10" height="6" fill="#fff">
            <use xlink:href="#time-selections-s"/>
        </mask>
        <path d="M71.29.29L68 3.58 64.71.29a1.003 1.003 0 0 0-1.42 1.42l4 4c.18.18.43.29.71.29.28 0 .53-.11.71-.29l4-4A1.003 1.003 0 0 0 71.29.29z" id="time-selections-t"/>
        <mask id="time-selections-af" x="0" y="0" width="10" height="6" fill="#fff">
            <use xlink:href="#time-selections-t"/>
        </mask>
        <path d="M109.29.29L106 3.58 102.71.29a1.003 1.003 0 0 0-1.42 1.42l4 4c.18.18.43.29.71.29.28 0 .53-.11.71-.29l4-4a1.003 1.003 0 0 0-1.42-1.42z" id="time-selections-u"/>
        <mask id="time-selections-ag" x="0" y="0" width="10" height="6" fill="#fff">
            <use xlink:href="#time-selections-u"/>
        </mask>
        <path d="M146.29.29L143 3.58 139.71.29a1.003 1.003 0 0 0-1.42 1.42l4 4c.18.18.43.29.71.29.28 0 .53-.11.71-.29l4-4a1.003 1.003 0 0 0-1.42-1.42z" id="time-selections-v"/>
        <mask id="time-selections-ah" x="0" y="0" width="10" height="6" fill="#fff">
            <use xlink:href="#time-selections-v"/>
        </mask>
        <path d="M184.29.29L181 3.58 177.71.29a1.003 1.003 0 0 0-1.42 1.42l4 4c.18.18.43.29.71.29.28 0 .53-.11.71-.29l4-4a1.003 1.003 0 0 0-1.42-1.42z" id="time-selections-w"/>
        <mask id="time-selections-ai" x="0" y="0" width="10" height="6" fill="#fff">
            <use xlink:href="#time-selections-w"/>
        </mask>
        <rect id="time-selections-x" x="7" y="16" width="121" height="31" rx="3"/>
        <mask id="time-selections-aj" x="0" y="0" width="121" height="31" fill="#fff">
            <use xlink:href="#time-selections-x"/>
        </mask>
        <circle id="time-selections-y" cx="8" cy="17" r="4"/>
        <mask id="time-selections-ak" x="0" y="0" width="8" height="8" fill="#fff">
            <use xlink:href="#time-selections-y"/>
        </mask>
        <circle id="time-selections-z" cx="8" cy="46" r="4"/>
        <mask id="time-selections-al" x="0" y="0" width="8" height="8" fill="#fff">
            <use xlink:href="#time-selections-z"/>
        </mask>
        <circle id="time-selections-A" cx="127" cy="46" r="4"/>
        <mask id="time-selections-am" x="0" y="0" width="8" height="8" fill="#fff">
            <use xlink:href="#time-selections-A"/>
        </mask>
        <circle id="time-selections-B" cx="127" cy="17" r="4"/>
        <mask id="time-selections-an" x="0" y="0" width="8" height="8" fill="#fff">
            <use xlink:href="#time-selections-B"/>
        </mask>
        <path id="time-selections-C" d="M46 28h3v3h-3z"/>
        <mask id="time-selections-ao" x="0" y="0" width="3" height="3" fill="#fff">
            <use xlink:href="#time-selections-C"/>
        </mask>
        <path id="time-selections-D" d="M46 34h3v3h-3z"/>
        <mask id="time-selections-ap" x="0" y="0" width="3" height="3" fill="#fff">
            <use xlink:href="#time-selections-D"/>
        </mask>
        <path id="time-selections-E" d="M83 28h3v3h-3z"/>
        <mask id="time-selections-aq" x="0" y="0" width="3" height="3" fill="#fff">
            <use xlink:href="#time-selections-E"/>
        </mask>
        <path id="time-selections-F" d="M83 34h3v3h-3z"/>
        <mask id="time-selections-ar" x="0" y="0" width="3" height="3" fill="#fff">
            <use xlink:href="#time-selections-F"/>
        </mask>
        <path d="M34 58c-.28 0-.53.11-.71.29L30 61.58l-3.29-3.29a1.003 1.003 0 0 0-1.42 1.42l4 4c.18.18.43.29.71.29.28 0 .53-.11.71-.29l4-4A1.003 1.003 0 0 0 34 58z" id="time-selections-G"/>
        <mask id="time-selections-as" x="0" y="0" width="10" height="6" fill="#fff">
            <use xlink:href="#time-selections-G"/>
        </mask>
        <path d="M72 58c-.28 0-.53.11-.71.29L68 61.58l-3.29-3.29a1.003 1.003 0 0 0-1.42 1.42l4 4c.18.18.43.29.71.29.28 0 .53-.11.71-.29l4-4A1.003 1.003 0 0 0 72 58z" id="time-selections-H"/>
        <mask id="time-selections-at" x="0" y="0" width="10" height="6" fill="#fff">
            <use xlink:href="#time-selections-H"/>
        </mask>
        <path d="M110 58c-.28 0-.53.11-.71.29L106 61.58l-3.29-3.29a1.003 1.003 0 0 0-1.42 1.42l4 4c.18.18.43.29.71.29.28 0 .53-.11.71-.29l4-4A1.003 1.003 0 0 0 110 58z" id="time-selections-I"/>
        <mask id="time-selections-au" x="0" y="0" width="10" height="6" fill="#fff">
            <use xlink:href="#time-selections-I"/>
        </mask>
        <path d="M33.29.29L30 3.58 26.71.29a1.003 1.003 0 0 0-1.42 1.42l4 4c.18.18.43.29.71.29.28 0 .53-.11.71-.29l4-4A1.003 1.003 0 0 0 33.29.29z" id="time-selections-J"/>
        <mask id="time-selections-av" x="0" y="0" width="10" height="6" fill="#fff">
            <use xlink:href="#time-selections-J"/>
        </mask>
        <path d="M71.29.29L68 3.58 64.71.29a1.003 1.003 0 0 0-1.42 1.42l4 4c.18.18.43.29.71.29.28 0 .53-.11.71-.29l4-4A1.003 1.003 0 0 0 71.29.29z" id="time-selections-K"/>
        <mask id="time-selections-aw" x="0" y="0" width="10" height="6" fill="#fff">
            <use xlink:href="#time-selections-K"/>
        </mask>
        <path d="M109.29.29L106 3.58 102.71.29a1.003 1.003 0 0 0-1.42 1.42l4 4c.18.18.43.29.71.29.28 0 .53-.11.71-.29l4-4a1.003 1.003 0 0 0-1.42-1.42z" id="time-selections-L"/>
        <mask id="time-selections-ax" x="0" y="0" width="10" height="6" fill="#fff">
            <use xlink:href="#time-selections-L"/>
        </mask>
    </defs>
    <g fill="none" fill-rule="evenodd" opacity=".1">
        <g stroke="#FFF">
            <g>
                <g opacity=".8">
                    <g>
                        <use mask="url(#time-selections-M)" stroke-width="4" opacity=".4" xlink:href="#time-selections-a"/>
                        <path d="M1 17h214M0 46h214M8 11v42M207 11v42" stroke-opacity=".5" stroke-width="2"/>
                        <use mask="url(#time-selections-N)" stroke-width="2" opacity=".4" xlink:href="#time-selections-b"/>
                        <use mask="url(#time-selections-O)" stroke-width="2" opacity=".4" xlink:href="#time-selections-c"/>
                        <use mask="url(#time-selections-P)" stroke-width="2" opacity=".4" xlink:href="#time-selections-d"/>
                        <use mask="url(#time-selections-Q)" stroke-width="2" opacity=".4" xlink:href="#time-selections-e"/>
                        <path d="M23 32h15" stroke-width="2" stroke-linecap="square"/>
                        <use mask="url(#time-selections-R)" stroke-width="6" stroke-linecap="square" xlink:href="#time-selections-f"/>
                        <use mask="url(#time-selections-S)" stroke-width="6" stroke-linecap="square" xlink:href="#time-selections-g"/>
                        <path d="M60 32h15" stroke-width="2" stroke-linecap="square"/>
                        <use mask="url(#time-selections-T)" stroke-width="6" stroke-linecap="square" xlink:href="#time-selections-h"/>
                        <use mask="url(#time-selections-U)" stroke-width="6" stroke-linecap="square" xlink:href="#time-selections-i"/>
                        <path d="M98 32h15" stroke-width="2" stroke-linecap="square"/>
                        <use mask="url(#time-selections-V)" stroke-width="6" stroke-linecap="square" xlink:href="#time-selections-j"/>
                        <use mask="url(#time-selections-W)" stroke-width="6" stroke-linecap="square" xlink:href="#time-selections-k"/>
                        <path d="M136 32h15" stroke-width="2" stroke-linecap="square"/>
                        <use mask="url(#time-selections-X)" stroke-width="6" stroke-linecap="square" xlink:href="#time-selections-l"/>
                        <use mask="url(#time-selections-Y)" stroke-width="6" stroke-linecap="square" xlink:href="#time-selections-m"/>
                        <path d="M174 32h15" stroke-width="2" stroke-linecap="square"/>
                        <use mask="url(#time-selections-Z)" stroke-width="4" xlink:href="#time-selections-n"/>
                        <use mask="url(#time-selections-aa)" stroke-width="4" xlink:href="#time-selections-o"/>
                        <use mask="url(#time-selections-ab)" stroke-width="4" xlink:href="#time-selections-p"/>
                        <use mask="url(#time-selections-ac)" stroke-width="4" xlink:href="#time-selections-q"/>
                        <use mask="url(#time-selections-ad)" stroke-width="4" xlink:href="#time-selections-r"/>
                        <use mask="url(#time-selections-ae)" stroke-width="4" transform="rotate(-180 30 3)" xlink:href="#time-selections-s"/>
                        <use mask="url(#time-selections-af)" stroke-width="4" transform="rotate(-180 68 3)" xlink:href="#time-selections-t"/>
                        <use mask="url(#time-selections-ag)" stroke-width="4" transform="rotate(-180 106 3)" xlink:href="#time-selections-u"/>
                        <use mask="url(#time-selections-ah)" stroke-width="4" transform="rotate(-180 143 3)" xlink:href="#time-selections-v"/>
                        <use mask="url(#time-selections-ai)" stroke-width="4" transform="rotate(-180 181 3)" xlink:href="#time-selections-w"/>
                    </g>
                    <g transform="translate(0 90)">
                        <use mask="url(#time-selections-aj)" stroke-width="4" opacity=".4" xlink:href="#time-selections-x"/>
                        <path d="M1 17h134M0 46h134M8 11v42M127 11v42" stroke-opacity=".5" stroke-width="2"/>
                        <use mask="url(#time-selections-ak)" stroke-width="2" opacity=".4" xlink:href="#time-selections-y"/>
                        <use mask="url(#time-selections-al)" stroke-width="2" opacity=".4" xlink:href="#time-selections-z"/>
                        <use mask="url(#time-selections-am)" stroke-width="2" opacity=".4" xlink:href="#time-selections-A"/>
                        <use mask="url(#time-selections-an)" stroke-width="2" opacity=".4" xlink:href="#time-selections-B"/>
                        <path d="M23 32h15" stroke-width="2" stroke-linecap="square"/>
                        <use mask="url(#time-selections-ao)" stroke-width="6" stroke-linecap="square" xlink:href="#time-selections-C"/>
                        <use mask="url(#time-selections-ap)" stroke-width="6" stroke-linecap="square" xlink:href="#time-selections-D"/>
                        <path d="M60 32h15" stroke-width="2" stroke-linecap="square"/>
                        <use mask="url(#time-selections-aq)" stroke-width="6" stroke-linecap="square" xlink:href="#time-selections-E"/>
                        <use mask="url(#time-selections-ar)" stroke-width="6" stroke-linecap="square" xlink:href="#time-selections-F"/>
                        <path d="M98 32h15" stroke-width="2" stroke-linecap="square"/>
                        <use mask="url(#time-selections-as)" stroke-width="4" xlink:href="#time-selections-G"/>
                        <use mask="url(#time-selections-at)" stroke-width="4" xlink:href="#time-selections-H"/>
                        <use mask="url(#time-selections-au)" stroke-width="4" xlink:href="#time-selections-I"/>
                        <use mask="url(#time-selections-av)" stroke-width="4" transform="rotate(-180 30 3)" xlink:href="#time-selections-J"/>
                        <use mask="url(#time-selections-aw)" stroke-width="4" transform="rotate(-180 68 3)" xlink:href="#time-selections-K"/>
                        <use mask="url(#time-selections-ax)" stroke-width="4" transform="rotate(-180 106 3)" xlink:href="#time-selections-L"/>
                    </g>
                </g>
            </g>
        </g>
    </g>
</svg>
