<svg width="70" height="70" viewBox="0 0 70 70" xmlns="http://www.w3.org/2000/svg">
    <title>
        system
    </title>
    <defs>
        <linearGradient x1="24.815%" y1="6.442%" x2="83.664%" y2="94.548%" id="a">
            <stop stop-color="#FEFFFF" offset="0%"/>
            <stop stop-color="#ECF6FD" offset="100%"/>
        </linearGradient>
    </defs>
    <g fill="none" fill-rule="evenodd">
        <g>
            <g transform="translate(4 5)">
                <ellipse fill="url(#a)" cx="31" cy="30" rx="30" ry="29"/>
                <path d="M31 60c17.113 0 31-13.424 31-30S48.113 0 31 0 0 13.424 0 30s13.887 30 31 30zm0-2C14.976 58 2 45.456 2 30S14.976 2 31 2s29 12.544 29 28-12.976 28-29 28z" fill="#137CBD"/>
                <path d="M31 53c13.245 0 24-10.287 24-23S44.245 7 31 7 7 17.287 7 30s10.755 23 24 23zm0-2C18.84 51 9 41.588 9 30S18.84 9 31 9s22 9.412 22 21-9.84 21-22 21z" fill="#137CBD"/>
                <path d="M31 45c8.822 0 16-6.7 16-15s-7.178-15-16-15-16 6.7-16 15 7.178 15 16 15zm0-2c-7.747 0-14-5.836-14-13s6.253-13 14-13 14 5.836 14 13-6.253 13-14 13z" fill="#137CBD"/>
                <path d="M31 35.6l-1.148 1.418c-.349.431-.734.351-.863-.197l-.188-.797c-.127-.54-.63-.79-1.14-.549l-.74.35c-.502.237-.814-.002-.692-.552l.176-.8c.12-.542-.225-.985-.789-.989l-.818-.006c-.556-.004-.733-.355-.384-.798l.505-.643c.343-.437.224-.986-.281-1.234l-.735-.36c-.499-.245-.506-.638 0-.886l.735-.36c.498-.245.63-.79.281-1.234l-.505-.643c-.344-.437-.18-.794.384-.798l.818-.006c.556-.004.91-.44.79-.99l-.177-.799c-.12-.542.183-.793.692-.552l.74.35c.502.237 1.01 0 1.14-.55l.188-.796c.127-.54.509-.635.863-.197l.515.636c.35.432.911.438 1.266 0l.515-.636c.349-.431.734-.351.863.197l.188.797c.127.54.63.79 1.14.549l.74-.35c.502-.237.814.002.692.552l-.176.8c-.12.542.225.985.789.989l.818.006c.556.004.733.355.384.798l-.505.643c-.343.437-.224.986.281 1.234l.735.36c.499.245.506.638 0 .886l-.735.36c-.498.245-.63.79-.281 1.234l.505.643c.344.437.18.794-.384.798l-.818.006c-.556.004-.91.44-.79.99l.177.799c.12.542-.183.793-.692.552l-.74-.35c-.502-.237-1.01 0-1.14.55l-.188.796c-.127.54-.509.635-.863.197L31 35.6z" fill="#137CBD"/>
                <circle stroke="#137CBD" stroke-width="2" fill="#FFF" cx="36.5" cy="17.5" r="3.5"/>
                <circle stroke="#137CBD" stroke-width="2" fill="#FFF" cx="10.5" cy="38.5" r="3.5"/>
                <circle stroke="#137CBD" stroke-width="2" fill="#FFF" cx="53.5" cy="49.5" r="3.5"/>
            </g>
        </g>
    </g>
</svg>
