<?xml version="1.0" encoding="utf-8"?>
<!-- Generator: Adobe Illustrator 18.1.0, SVG Export Plug-In . SVG Version: 6.00 Build 0)  -->
<svg version="1.1" id="Layer_1" xmlns="http://www.w3.org/2000/svg" xmlns:xlink="http://www.w3.org/1999/xlink" x="0px" y="0px"
	 viewBox="0 0 20 20" enable-background="new 0 0 20 20" xml:space="preserve">
<g id="add_to_folder_1_">
	<g>
		<path fill-rule="evenodd" clip-rule="evenodd" d="M13,11h5c0.55,0,1-0.45,1-1c0-0.55-0.45-1-1-1h-2.59l4.29-4.29
			C19.89,4.53,20,4.28,20,4c0-0.55-0.45-1-1-1c-0.28,0-0.53,0.11-0.71,0.29L14,7.59V5c0-0.55-0.45-1-1-1s-1,0.45-1,1v5
			C12,10.55,12.45,11,13,11z M10,4H9.41L7.71,2.29v0C7.53,2.11,7.28,2,7,2H1C0.45,2,0,2.45,0,3v3h10V4z M10,11V7H0v10
			c0,0.55,0.45,1,1,1h18c0.55,0,1-0.45,1-1v-4h-8C10.9,13,10,12.1,10,11z"/>
	</g>
</g>
</svg>
