<svg xmlns="http://www.w3.org/2000/svg" viewBox="0 0 20 20">
  <path d="M2.296 12.163a4.5 4.5 0 0 0-1.792.98A10 10 0 0 1 0 10C0 4.477 4.477 0 10 0a10 10 0 0 1 3.143.504 4.5 4.5 0 0 0-.98 1.792 8 8 0 0 0-9.867 9.867M18 10c0-.75-.103-1.475-.296-2.163a4.5 4.5 0 0 0 1.792-.98C19.823 7.847 20 8.903 20 10c0 5.523-4.477 10-10 10a10 10 0 0 1-3.142-.504 4.5 4.5 0 0 0 .98-1.792A8 8 0 0 0 18 10M19 3.5a2.5 2.5 0 1 1-5 0 2.5 2.5 0 0 1 5 0M6 16.5a2.5 2.5 0 1 1-5 0 2.5 2.5 0 0 1 5 0"/>
  <path d="M10 4a1 1 0 0 0-1 1v3a1 1 0 0 0 2 0V5a1 1 0 0 0-1-1M11 10a1 1 0 0 1 1-1h3a1 1 0 0 1 0 2h-3a1 1 0 0 1-1-1M4 10a1 1 0 0 1 1-1h3a1 1 0 0 1 0 2H5a1 1 0 0 1-1-1M9 12a1 1 0 0 1 2 0v3a1 1 0 0 1-2 0z"/>
</svg>
