<svg xmlns="http://www.w3.org/2000/svg" viewBox="0 0 20 20">
  <path d="M2.01 10.758a8 8 0 0 0 1.01 3.204l.02.035q.05.087.084.178c.163.44.054.951-.33 1.239-.435.328-1.059.242-1.342-.224a10 10 0 0 1-.221-.383 10 10 0 1 1 17.48.106c-.269.474-.89.58-1.335.267-.392-.275-.518-.783-.37-1.228a1 1 0 0 1 .078-.18l.019-.036A8.026 8.026 0 1 0 2.01 10.758m4.272.772a1.5 1.5 0 0 1 .091.32c.07.425-.052.87-.402 1.128-.44.325-1.068.235-1.316-.252a6 6 0 1 1 10.734-.09c-.24.492-.867.593-1.312.275-.354-.253-.483-.695-.42-1.122a1.5 1.5 0 0 1 .085-.321 4.021 4.021 0 0 0-5.87-4.878 4.02 4.02 0 0 0-1.59 4.94m4.712 2.583A1 1 0 0 0 11 14v-4a1 1 0 1 0-2 0v4q0 .057.006.113l-3.753 4.223a1 1 0 0 0 1.494 1.328L10 16.005l3.252 3.66a1 1 0 1 0 1.495-1.33z"/>
</svg>
