<svg width="20" height="20" viewBox="0 0 20 20" fill="none" xmlns="http://www.w3.org/2000/svg">
<path d="M1.1 1C0.49248 1 0 1.49249 0 2.1V12.9C0 13.5075 0.492487 14 1.1 14H3C3.55228 14 4 13.5523 4 13C4 12.4477 3.55228 12 3 12H2V3H13V12H9C8.44772 12 8 12.4477 8 13C8 13.5523 8.44772 14 9 14H13.9C14.5075 14 15 13.5075 15 12.9V2.1C15 1.49248 14.5075 1 13.9 1H1.1Z" fill="#111418"/>
<path d="M6.1 19C5.49248 19 5 18.5075 5 17.9V7.1C5 6.49249 5.49249 6 6.1 6H11C11.5523 6 12 6.44771 12 7C12 7.55229 11.5523 8 11 8H7V17H18V8H17C16.4477 8 16 7.55229 16 7C16 6.44771 16.4477 6 17 6H18.9C19.5075 6 20 6.49249 20 7.1V17.9C20 18.5075 19.5075 19 18.9 19H6.1Z" fill="#111418"/>
</svg>
