<svg width="20" height="20" viewBox="0 0 20 20" fill="none" xmlns="http://www.w3.org/2000/svg">
<path fill-rule="evenodd" clip-rule="evenodd" d="M5 4.66375C5 2.09125 7.24138 0 10 0C12.7586 0 14.9909 2.09125 15 4.66375C15 5.58405 14.3644 7.03491 13.5465 8.52101C13.54 8.53286 13.5334 8.5447 13.5269 8.55654C13.2129 9.12523 12.8727 9.69849 12.5318 10.2486C11.2713 12.2825 10 14 10 14C10 14 8.72871 12.2825 7.4682 10.2486C7.43974 10.2027 7.41129 10.1566 7.38285 10.1104C7.06356 9.59128 6.74682 9.05388 6.45353 8.52102C5.63558 7.03491 5 5.58405 5 4.66375ZM7.5 5C7.5 6.38 8.62 7.5 10 7.5C11.38 7.5 12.5 6.38 12.5 5C12.5 3.62 11.38 2.5 10 2.5C8.62 2.5 7.5 3.62 7.5 5ZM17.4747 12.77L13.8725 10.9325C14.2154 10.3761 14.5612 9.79024 14.8833 9.20293L19.4533 11.5341C19.7178 11.669 19.9086 11.9145 19.9742 12.2041C20.0398 12.4936 19.9732 12.7974 19.7927 13.0331L14.7547 19.6084C14.5654 19.8554 14.272 20.0002 13.9609 20.0002H5.37896C5.0444 20.0002 4.73199 19.8329 4.54658 19.5544L0.168749 12.9791C0.0106239 12.7416 -0.0385205 12.4478 0.0336857 12.1718C0.105892 11.8958 0.292572 11.6637 0.546737 11.5341L5.11671 9.20293C5.43881 9.79024 5.78461 10.3761 6.12751 10.9325L2.45586 12.8054L5.91454 18.0002H13.4673L17.4747 12.77Z" fill="black"/>
</svg>
