<svg width="20" height="21" viewBox="0 0 20 21" fill="none" xmlns="http://www.w3.org/2000/svg">
<path fill-rule="evenodd" clip-rule="evenodd" d="M5 4.66375C5 2.09125 7.24138 0 10 0C12.7586 0 14.9909 2.09125 15 4.66375C15 5.55091 14.4094 6.93109 13.6341 8.3606C13.634 8.36084 13.6339 8.36107 13.6337 8.36131C13.32 8.93975 12.9761 9.52625 12.6288 10.0914C11.3374 12.1932 10 14 10 14C10 14 8.67065 12.2041 7.38285 10.1104C7.04648 9.5635 6.71293 8.99631 6.40666 8.43551C5.61143 6.97943 5 5.5664 5 4.66375ZM7.5 5C7.5 6.38 8.62 7.5 10 7.5C11.38 7.5 12.5 6.38 12.5 5C12.5 3.62 11.38 2.5 10 2.5C8.62 2.5 7.5 3.62 7.5 5ZM17.4846 12.6581L13.9576 10.7938C14.3 10.2342 14.643 9.64746 14.9603 9.06159L19.4474 11.4334C19.705 11.5695 19.8905 11.8113 19.9552 12.0954C20.0199 12.3795 19.9574 12.6777 19.7842 12.912L14.8078 19.6421C14.6192 19.8971 14.3209 20.0476 14.0037 20.0476H5.5267C5.18635 20.0476 4.86937 19.8745 4.68539 19.5882L0.361078 12.858C0.209746 12.6225 0.164071 12.3343 0.235155 12.0635C0.306238 11.7928 0.48757 11.5642 0.735074 11.4334L5.0804 9.13653C5.40014 9.72293 5.74451 10.3089 6.08702 10.8667L2.63218 12.6928L6.0728 18.0476H13.4995L17.4846 12.6581Z" fill="black"/>
</svg>
