<svg xmlns="http://www.w3.org/2000/svg" viewBox="0 0 20 20">
  <path d="M19 0a1 1 0 0 1 .993.883L20 1v18a1 1 0 0 1-.883.993L19 20h-4a1 1 0 0 1-.117-1.993L15 18h3V2h-3a1 1 0 0 1-.993-.883L14 1a1 1 0 0 1 .883-.993L15 0zM5 0a1 1 0 0 1 .117 1.993L5 2H2v16h3a1 1 0 0 1 .993.883L6 19a1 1 0 0 1-.883.993L5 20H1a1 1 0 0 1-.993-.883L0 19V1A1 1 0 0 1 .883.007L1 0zm2.012 6q.965 0 1.68.797.715.796.715 2.145a4.47 4.47 0 0 1-.965 2.814Q7.476 13 5.395 13.767v-.581l.26-.104a3.87 3.87 0 0 0 1.624-1.285q.686-.949.686-1.971 0-.221-.07-.326-.035-.07-.093-.07t-.186.093q-.372.268-.93.268-.675 0-1.18-.541A1.82 1.82 0 0 1 5 7.965q0-.79.581-1.378A1.93 1.93 0 0 1 7.011 6m5.593 0q.965 0 1.68.797.715.796.715 2.145a4.47 4.47 0 0 1-.965 2.814q-.966 1.245-3.047 2.011v-.581l.26-.104a3.87 3.87 0 0 0 1.624-1.285q.686-.949.686-1.971 0-.221-.07-.326-.034-.07-.093-.07-.057 0-.186.093-.372.268-.93.268-.675 0-1.18-.541a1.82 1.82 0 0 1-.506-1.285q0-.79.581-1.378A1.93 1.93 0 0 1 12.604 6"/>
</svg>
