<svg xmlns="http://www.w3.org/2000/svg" viewBox="0 0 20 20">
  <path d="M19.992 1.104A1.25 1.25 0 0 0 18.75 0H15c-.47 0-1 .359-1 1s.5 1 1.023 1h3L18 18h-3c-.5 0-1 .359-1 1 0 .69.5 1 1 1h3.75l.146-.008A1.25 1.25 0 0 0 20 18.75V1.25zM6 1c0-.69-.5-1-1-1H1.25l-.146.008A1.25 1.25 0 0 0 0 1.25v17.5l.008.146A1.25 1.25 0 0 0 1.25 20H5c.5 0 1-.359 1-1s-.5-1-1-1H2V2h3c.5 0 1-.359 1-1"/>
  <path d="M5.434 7.325q-.333.058-.684.058v.88h1.68v4.825h1.221V6.25h-.908q-.06.312-.254.528-.186.215-.46.351a2 2 0 0 1-.595.196M14.327 6.586q-.441-.329-1.147-.329-.705 0-1.157.33a2.24 2.24 0 0 0-.695.827 3.8 3.8 0 0 0-.339 1.1q-.085.602-.085 1.166t.085 1.166q.095.6.339 1.11.253.498.695.827.452.32 1.157.32t1.147-.32q.451-.33.696-.828.254-.507.338-1.11a7.6 7.6 0 0 0 .094-1.165 7.6 7.6 0 0 0-.094-1.166 3.5 3.5 0 0 0-.338-1.1 2.1 2.1 0 0 0-.696-.828m-.564 5.426a.88.88 0 0 1-.583.197.9.9 0 0 1-.592-.197 1.5 1.5 0 0 1-.367-.546 3.5 3.5 0 0 1-.188-.808 8 8 0 0 1-.057-.978q0-.518.057-.969.056-.46.188-.808.14-.348.367-.546a.86.86 0 0 1 .592-.206.85.85 0 0 1 .583.206q.235.198.367.546.141.348.197.808.056.452.056.969t-.056.978a3.2 3.2 0 0 1-.197.808q-.132.339-.367.546M8.853 11.807h1.358v1.319H8.853z"/>
</svg>
