<svg xmlns="http://www.w3.org/2000/svg" viewBox="0 0 20 20">
  <path d="M19 0a1 1 0 0 1 .993.883L20 1v18a1 1 0 0 1-.883.993L19 20h-4a1 1 0 0 1-.117-1.993L15 18h3V2h-3a1 1 0 0 1-.993-.883L14 1a1 1 0 0 1 .883-.993L15 0zM5 0a1 1 0 0 1 .117 1.993L5 2H2v16h3a1 1 0 0 1 .993.883L6 19a1 1 0 0 1-.883.993L5 20H1a1 1 0 0 1-.993-.883L0 19V1A1 1 0 0 1 .883.007L1 0zm8.995 6.09q.48 0 .85.14t.625.39.39.595.135.755q0 .43-.19.795a1.64 1.64 0 0 1-.57.615v.02l.101.05q.102.058.209.155.16.145.29.355a2.1 2.1 0 0 1 .3 1.09q0 .47-.16.85a1.9 1.9 0 0 1-1.12 1.065 2.4 2.4 0 0 1-.85.145q-.8 0-1.37-.38a1.7 1.7 0 0 1-.73-1.08q-.02-.1.08-.13l.87-.2.041-.003q.057.006.079.073.11.3.36.51t.67.21q.48 0 .74-.285t.26-.725q0-.52-.3-.815t-.81-.295h-.29l-.044-.006q-.056-.02-.056-.094V9.1l.006-.044q.02-.056.094-.056h.27l.145-.008a.93.93 0 0 0 .575-.262q.27-.27.27-.72 0-.41-.24-.665t-.67-.255q-.38 0-.6.19t-.31.51q-.03.09-.12.07l-.85-.2-.042-.015q-.053-.03-.038-.105a1.68 1.68 0 0 1 .645-1.035q.255-.195.6-.305t.755-.11m-7.99.11.044.006q.056.02.056.094v6.6l-.006.044q-.02.056-.094.056h-.92l-.044-.006q-.056-.02-.056-.094V7.54h-.02l-1.04.73-.04.02q-.07.024-.07-.08V7.19l.008-.051a.2.2 0 0 1 .062-.089l1.09-.79.051-.033a.3.3 0 0 1 .129-.027zm3.34-.11q.48 0 .85.15t.625.405.39.6.135.745q0 .46-.17.845a3.2 3.2 0 0 1-.47.745l-1.98 2.4V12h2.52l.044.006q.056.02.056.094v.8l-.006.044q-.02.056-.094.056h-3.82l-.044-.006q-.056-.02-.056-.094v-.75l.006-.05a.17.17 0 0 1 .044-.08l2.4-2.99.124-.167q.116-.166.196-.333.12-.25.12-.54a.92.92 0 0 0-.235-.64q-.235-.26-.665-.26-.41 0-.64.23t-.28.62q-.02.1-.11.08l-.88-.18-.043-.015q-.052-.03-.037-.105.03-.3.17-.59a1.8 1.8 0 0 1 .39-.525q.25-.236.615-.375a2.4 2.4 0 0 1 .845-.14"/>
</svg>
