<svg xmlns="http://www.w3.org/2000/svg" viewBox="0 0 20 20">
  <path d="M12.298 6.818a6.5 6.5 0 0 0-1.672-.207q-1.586 0-2.472 1.036-.884 1.037-.884 2.817 0 2.842 2.266 2.842 2.39 0 2.614-3.574zm6.544-2.592Q20 6.256 20 8.916q0 1.743-.556 3.189c-.374.963-.894 1.713-1.569 2.25a3.64 3.64 0 0 1-2.333.803q-.978 0-1.696-.512a2.5 2.5 0 0 1-.967-1.39h-.148q-.607.952-1.498 1.427-.893.476-2.007.475-2.019.001-3.175-1.279-1.16-1.28-1.159-3.463 0-2.514 1.537-4.08 1.532-1.566 4.122-1.567.941 0 2.086.164 1.146.165 2.037.458l-.272 5.67v.294q0 1.95 1.289 1.951.977 0 1.553-1.245.576-1.244.577-3.171-.001-2.085-.868-3.664a5.95 5.95 0 0 0-2.463-2.433q-1.597-.853-3.667-.853-2.636 0-4.588 1.072a7.2 7.2 0 0 0-2.978 3.069Q2.229 8.073 2.23 10.708q0 3.538 1.92 5.438 1.918 1.904 5.509 1.902 2.739 0 5.71-1.096v2.001Q12.769 20 9.709 20q-4.584 0-7.144-2.432Q0 15.134 0 10.781q0-3.183 1.388-5.665 1.386-2.48 3.845-3.798Q7.691.001 10.799 0q2.688 0 4.786 1.098a7.87 7.87 0 0 1 3.257 3.128"/>
</svg>
