<svg width="20" height="20" viewBox="0 0 20 20" fill="none" xmlns="http://www.w3.org/2000/svg">
<path d="M2 15H4V15.5C4 15.7761 4.22386 16 4.5 16C4.77614 16 5 15.7761 5 15.5V4.5C5 4.22386 4.77614 4 4.5 4C4.22386 4 4 4.22386 4 4.5V5H2V15Z" fill="#111418"/>
<path d="M18 5L16 5L16 4.5C16 4.22386 15.7761 4 15.5 4C15.2239 4 15 4.22386 15 4.5L15 15.5C15 15.7761 15.2239 16 15.5 16C15.7761 16 16 15.7761 16 15.5L16 15L18 15L18 5Z" fill="#111418"/>
<path d="M5 8L6.78885 8.89443C6.92771 8.96385 7.08082 9 7.23607 9H12.7639C12.9192 9 13.0723 8.96385 13.2111 8.89443L15 8V12L13.2111 11.1056C13.0723 11.0361 12.9192 11 12.7639 11H7.23607C7.08082 11 6.92771 11.0361 6.78885 11.1056L5 12V8Z" fill="#111418"/>
<path d="M0 9H2V11H0V9Z" fill="#111418"/>
<path d="M0 8H1V12H0V8Z" fill="#111418"/>
<path d="M19 8H20V12H19V8Z" fill="#111418"/>
<path d="M20 11L18 11L18 9L20 9L20 11Z" fill="#111418"/>
<path d="M8 9C8 8.44772 8.44772 8 9 8H11C11.5523 8 12 8.44772 12 9V11C12 11.5523 11.5523 12 11 12H9C8.44772 12 8 11.5523 8 11V9Z" fill="#111418"/>
</svg>
