<svg xmlns="http://www.w3.org/2000/svg" viewBox="0 0 20 20">
  <path d="M9.754 20a8.5 8.5 0 0 1-3.417-.693 8.9 8.9 0 0 1-2.772-1.872 8.9 8.9 0 0 1-1.872-2.772A8.5 8.5 0 0 1 1 11.246q0-.413.28-.693a.94.94 0 0 1 .693-.28q.413 0 .693.28t.28.693q0 2.845 1.981 4.827 1.98 1.982 4.827 1.982t4.826-1.982 1.982-4.827q.001-2.845-1.982-4.826-1.984-1.98-4.826-1.982h-.146l.826.827a.9.9 0 0 1 .28.68q-.012.39-.28.681a1 1 0 0 1-1.07.24.9.9 0 0 1-.316-.216L6.544 4.147a.93.93 0 0 1-.292-.68q0-.39.292-.681L9.048.28A.9.9 0 0 1 9.741 0a.994.994 0 0 1 .973.985.9.9 0 0 1-.28.681l-.826.827h.146a8.5 8.5 0 0 1 3.416.693 8.9 8.9 0 0 1 2.772 1.872 8.9 8.9 0 0 1 1.872 2.772 8.5 8.5 0 0 1 .693 3.416 8.5 8.5 0 0 1-.693 3.417 8.9 8.9 0 0 1-1.872 2.772 8.9 8.9 0 0 1-2.772 1.872A8.5 8.5 0 0 1 9.754 20"/>
  <path d="M11.5 9.5v3h1v-3zM11 8h2a1 1 0 0 1 1 1v4a1 1 0 0 1-1 1h-2a1 1 0 0 1-1-1V9a1 1 0 0 1 1-1M9 9v4.25a.75.75 0 1 1-1.5 0V9.5h-.75a.75.75 0 0 1 0-1.5H8a1 1 0 0 1 1 1"/>
</svg>
