<svg xmlns="http://www.w3.org/2000/svg" viewBox="0 0 20 20">
  <path d="M8.011 5.48Q7.365 5 6.331 5 5.3 5 4.639 5.48A3.3 3.3 0 0 0 3.62 6.69a5.6 5.6 0 0 0-.496 1.607A12 12 0 0 0 3 10q0 .825.124 1.703.138.88.496 1.621.371.729 1.018 1.209.66.467 1.694.467 1.032 0 1.68-.467.66-.48 1.018-1.209a5.2 5.2 0 0 0 .496-1.62q.137-.88.137-1.704 0-.825-.137-1.703A5 5 0 0 0 9.03 6.69a3.1 3.1 0 0 0-1.019-1.21m-.826 7.927q-.345.288-.853.288-.524 0-.868-.288-.33-.303-.537-.797a5 5 0 0 1-.275-1.181A12 12 0 0 1 4.57 10q0-.755.083-1.415.083-.673.275-1.181.207-.509.537-.797.345-.302.868-.302.51 0 .853.302.345.288.537.797.207.508.29 1.181.082.66.082 1.415 0 .756-.083 1.429a4.6 4.6 0 0 1-.289 1.18q-.192.495-.537.798m5.817-6.836A6 6 0 0 1 12 6.657v1.286h2.463V15h1.79V5H14.92a1.54 1.54 0 0 1-.372.771q-.273.315-.673.515a3 3 0 0 1-.874.285"/>
</svg>
