<?xml version="1.0" encoding="UTF-8"?>
<svg width="20px" height="20px" viewBox="0 0 20 20" version="1.1" xmlns="http://www.w3.org/2000/svg" xmlns:xlink="http://www.w3.org/1999/xlink">
    <title>bp3-data-connection</title>
    <defs>
        <path d="M0.75,11.9 C1.72993856,12.6068639 3.22603449,13.169199 5.01937599,13.4808629 C5.00637707,13.6527037 5,13.8256071 5,14 C5,16.5462868 6.35949702,18.7750357 8.39221125,19.9999446 L8.2497562,20 C4.2108994,20 0.910553171,18.9279337 0.755683428,17.5977773 L0.75,17.5 L0.75,11.9 Z M12,8 C15.315,8 18,10.685 18,14 C18,17.315 15.315,20 12,20 C8.685,20 6,17.315 6,14 C6,10.685 8.685,8 12,8 Z M13.0195312,8.99891493 L9,15.0197483 L11.5067998,15.0197483 L11,19.0521557 L15.0052807,13.0026042 L12.3895399,13.0026042 L13.0195312,8.99891493 Z M15.7495124,4.4 L15.7493829,8.08798119 C14.6654613,7.3990373 13.3792154,7 11.9997725,7 C8.72548663,7 5.97628407,9.24822181 5.21155487,12.2852279 C2.67601421,11.908775 0.877523507,11.0759683 0.756504577,10.1045918 L0.75,10 L0.75,4.4 C2.27495043,5.5 5.04986022,6.25 8.2497562,6.25 C11.4496522,6.25 14.224562,5.5 15.7495124,4.4 Z M8.2497562,0 C12.3871217,0 15.7495124,1.125 15.7495124,2.5 C15.7495124,3.875 12.3871217,5 8.2497562,5 C4.0998911,5 0.75,3.875 0.75,2.5 C0.75,1.125 4.0998911,0 8.2497562,0 Z" id="path-1"></path>
    </defs>
    <g id="bp3-data-connection" stroke="none" stroke-width="1" fill="none" fill-rule="evenodd">
        <g id="🎨-color" transform="translate(1.000000, 0.000000)">
            <mask id="mask-2" fill="white">
                <use xlink:href="#path-1"></use>
            </mask>
            <use id="Mask" fill="#394B59" fill-rule="nonzero" xlink:href="#path-1"></use>
            <g id="Group" mask="url(#mask-2)">
                <g transform="translate(-1.000000, 0.000000)" id="🎨-color">
                    <rect id="Rectangle" fill="#5C7080" x="0" y="0" width="20" height="20"></rect>
                </g>
            </g>
        </g>
    </g>
</svg>