<svg viewBox="0 0 20 20" xmlns="http://www.w3.org/2000/svg">
<path d="M9.61994 5.17372C9.21791 5.69765 9 6.3396 9 7V9H13C13.5523 9 14 9.44772 14 10V11C14 11.5523 13.5523 12 13 12H9V13.3768C9 14.3637 8.81295 15.2436 8.46574 16H17V17.5V19H3V16H3.5C4.21517 16 4.83426 15.7834 5.25383 15.4107C5.64156 15.0663 6 14.4658 6 13.3768V12.0002L4 12C3.44772 12 3 11.5523 3 11V10C3 9.44772 3.44772 9 4 9H6V7C6 5.67919 6.43582 4.3953 7.23988 3.34743C8.04394 2.29957 9.17129 1.5463 10.4471 1.20445C11.7229 0.862598 13.0758 0.951274 14.2961 1.45673C15.5164 1.96218 16.3396 2.85615 17 4L14.5981 5.5C14.2679 4.92808 13.7582 4.48109 13.148 4.22836C12.5379 3.97564 11.8614 3.9313 11.2235 4.10223C10.5856 4.27315 10.022 4.64979 9.61994 5.17372Z" fill="#5F6B7C"/>
</svg>
