<svg viewBox="0 0 20 20" xmlns="http://www.w3.org/2000/svg">
<path d="M8.9999 6C8.9999 5.20435 9.31597 4.44129 9.87858 3.87868C10.4412 3.31607 11.2043 3 11.9999 3C12.7956 3 13.5586 3.31607 14.1212 3.87868L16.2425 1.75736C15.1173 0.632141 13.5912 0 11.9999 0C10.4086 0 8.88248 0.632142 7.75726 1.75736C6.63205 2.88258 5.9999 4.4087 5.9999 6L6 9H4C3.44772 9 3 9.44771 3 10V11C3 11.5523 3.44771 12 4 12H6V14.5C6 15.5501 5.64632 16.1408 5.28801 16.4758C4.89686 16.8415 4.39566 17 4 17H3V20H18V17H8.5092C8.82325 16.2813 9 15.445 9 14.5V12H13C13.5523 12 14 11.5523 14 11V10C14 9.44772 13.5523 9 13 9H9L8.9999 6Z"/>
</svg>
