<?xml version="1.0" encoding="utf-8"?>
<!-- Generator: Adobe Illustrator 17.1.0, SVG Export Plug-In . SVG Version: 6.00 Build 0)  -->
<!DOCTYPE svg PUBLIC "-//W3C//DTD SVG 1.1//EN" "http://www.w3.org/Graphics/SVG/1.1/DTD/svg11.dtd">
<svg version="1.1" id="Layer_1" xmlns:sketch="http://www.bohemiancoding.com/sketch/ns"
	 xmlns="http://www.w3.org/2000/svg" xmlns:xlink="http://www.w3.org/1999/xlink" x="0px" y="0px" viewBox="-1 -1 20 20"
	 enable-background="new -1 -1 20 20" xml:space="preserve">
<title>Shape</title>
<desc>Created with Sketch.</desc>
<g id="Page-1" sketch:type="MSPage">
	<g id="Artboard-1" transform="translate(-1.000000, -1.000000)" sketch:type="MSArtboardGroup">
		<path id="Shape" sketch:type="MSShapeGroup" d="M15,5c0.6,0,1-0.4,1-1V2c0-0.5-0.4-1-1-1s-1,0.5-1,1v2C14,4.6,14.4,5,15,5L15,5z
			 M5,5c0.6,0,1-0.4,1-1V2c0-0.5-0.4-1-1-1S4,1.5,4,2v2C4,4.6,4.4,5,5,5L5,5z M18,3h-1v1c0,1.1-0.9,2-2,2s-2-0.9-2-2V3H7v1
			c0,1.1-0.9,2-2,2S3,5.1,3,4V3H2C1.5,3,1,3.5,1,4v14c0,0.5,0.5,1,1,1h16c0.5,0,1-0.5,1-1V4C19,3.5,18.5,3,18,3L18,3z M7,17H3v-4h4
			V17L7,17z M7,12H3V8h4V12L7,12z M12,17H8v-4h4V17L12,17z M12,12H8V8h4V12L12,12z M17,17h-4v-4h4V17L17,17z M17,12h-4V8h4V12L17,12
			z"/>
	</g>
</g>
</svg>
