<svg xmlns="http://www.w3.org/2000/svg" viewBox="0 0 20 20">
  <path d="M7 9a1 1 0 0 1 1-1h6.586a1 1 0 0 1 .707.293l1.414 1.414a1 1 0 0 1 .293.707V19a1 1 0 0 1-1 1H8a1 1 0 0 1-1-1zm2.5 2a.5.5 0 0 0 0 1h5a.5.5 0 0 0 0-1zm0 3a.5.5 0 0 0 0 1h5a.5.5 0 0 0 0-1zm0 3a.5.5 0 0 0 0 1h5a.5.5 0 0 0 0-1zM12 1.943c0-.534-.45-.972-1-.972h-.78A1.99 1.99 0 0 0 8.5 0c-.74 0-1.38.389-1.72.971H6c-.55 0-1 .438-1 .972V3h7z"/>
  <path d="M13 4H4.04V2H3a1 1 0 0 0-1 1v14a1 1 0 0 0 1 1h3V8a1 1 0 0 1 1-1h8V3a1 1 0 0 0-1-1h-1z"/>
</svg>
