<svg width="20" height="20" viewBox="0 0 20 20" xmlns="http://www.w3.org/2000/svg">
<path fill-rule="evenodd" clip-rule="evenodd" d="M10 20C15.5228 20 20 15.5228 20 10C20 4.47715 15.5228 0 10 0C4.47715 0 0 4.47715 0 10C0 15.5228 4.47715 20 10 20ZM14.7 6.71L11.41 10L14.71 13.29C14.89 13.47 15 13.72 15 14C15 14.55 14.55 15 14 15C13.72 15 13.47 14.89 13.29 14.7L10 11.41L6.71 14.71C6.53 14.89 6.28 15 6 15C5.45 15 5 14.55 5 14C5 13.72 5.11 13.47 5.3 13.29L8.59 10L5.29 6.71C5.11 6.53 5 6.28 5 6C5 5.45 5.45 5 6 5C6.28 5 6.53 5.11 6.71 5.29L10 8.59L13.29 5.29C13.47 5.11 13.72 5 14 5C14.55 5 15 5.45 15 6C15 6.28 14.89 6.53 14.7 6.71Z"/>
</svg>
