<svg xmlns="http://www.w3.org/2000/svg" viewBox="0 0 20 20">
  <path d="M3 1a1 1 0 0 1 1-1h9l6 6v13a1 1 0 0 1-1 1h-3.708c.4-.44.708-1.042.708-1.75q0-.13-.012-.25H17V7h-5V2H5v11.72l-.04.035c-.164.141-.32.308-.458.497a2.7 2.7 0 0 0-.546-.605A2.8 2.8 0 0 0 3 13.142zM2 14c-.518 0-.982.158-1.34.463A1.93 1.93 0 0 0 0 15.75v2.5c0 .492.26.933.613 1.238C.97 19.797 1.46 20 2 20c1.015 0 2-.702 2-1.75a.5.5 0 0 0-1 0c0 .333-.358.75-1 .75a1.13 1.13 0 0 1-.734-.27c-.19-.163-.266-.347-.266-.48v-2.5c.047-.254.16-.4.308-.526C1.463 15.092 1.69 15 2 15c.334 0 .55.081.69.196.139.113.26.304.317.638a.5.5 0 0 0 .986-.168c-.086-.51-.3-.943-.67-1.244C2.957 14.122 2.494 14 2 14"/>
  <path d="M5.613 14.512A2.13 2.13 0 0 1 7 14c1.015 0 2 .702 2 1.75a.5.5 0 0 1-1 0c0-.333-.358-.75-1-.75-.289 0-.549.11-.734.27-.19.163-.266.347-.266.48 0 .121.049.229.25.366.221.15.533.27.925.416l.03.01c.353.132.776.29 1.107.516.362.245.688.623.688 1.192 0 .492-.26.933-.613 1.238A2.13 2.13 0 0 1 7 20c-1.015 0-2-.702-2-1.75a.5.5 0 0 1 1 0c0 .333.358.75 1 .75.289 0 .549-.11.734-.27.19-.163.266-.347.266-.48 0-.121-.049-.229-.25-.366-.288-.195-.632-.306-.955-.427-.353-.131-.776-.289-1.107-.515C5.326 16.697 5 16.32 5 15.75c0-.492.26-.933.613-1.238M12 14c-.54 0-1.03.203-1.387.512-.353.305-.613.746-.613 1.238 0 .57.326.947.688 1.192.331.226.754.384 1.107.515.323.12.667.232.955.427.201.137.25.245.25.366 0 .133-.076.317-.266.48A1.13 1.13 0 0 1 12 19c-.642 0-1-.417-1-.75a.5.5 0 0 0-1 0c0 1.048.985 1.75 2 1.75.54 0 1.03-.203 1.387-.512.353-.305.613-.746.613-1.238 0-.57-.326-.947-.688-1.192-.331-.226-.754-.384-1.107-.515l-.03-.011c-.392-.146-.704-.266-.925-.416-.201-.137-.25-.245-.25-.366 0-.133.076-.317.266-.48.185-.16.445-.27.734-.27.642 0 1 .417 1 .75a.5.5 0 0 0 1 0c0-1.048-.985-1.75-2-1.75"/>
</svg>
