<?xml version="1.0" encoding="UTF-8"?>
<svg width="20px" height="20px" viewBox="0 0 16 16" version="1.1" xmlns="http://www.w3.org/2000/svg" xmlns:xlink="http://www.w3.org/1999/xlink">
    <g id="cubes">
        <g>
            <path
                fillRule="evenodd"
                clipRule="evenodd"
                d="M5.56597 1.38968L3.12908 2.91274L0.6922 1.38968L2.93388 0.108724C3.05484 0.0396052 3.20333 0.0396052 3.32429 0.108724L5.56597 1.38968Z"
            />
            <path
                fillRule="evenodd"
                clipRule="evenodd"
                d="M5.86107 1.66919C5.8755 1.71038 5.88318 1.75426 5.88318 1.79925V4.49014C5.88318 4.63133 5.80753 4.7617 5.68494 4.83175L3.32581 6.17983V3.25373L5.86107 1.66919Z"
            />
            <path
                fillRule="evenodd"
                clipRule="evenodd"
                d="M0.397112 1.66919L2.93238 3.25373V6.17983L0.57324 4.83175C0.450654 4.7617 0.375 4.63133 0.375 4.49014V1.79925C0.375 1.75426 0.38268 1.71038 0.397112 1.66919Z"
            />
            <path
                fillRule="evenodd"
                clipRule="evenodd"
                d="M16.0578 1.38968L13.6209 2.91274L11.184 1.38968L13.4257 0.108724C13.5467 0.0396052 13.6952 0.0396052 13.8161 0.108724L16.0578 1.38968Z"
            />
            <path
                fillRule="evenodd"
                clipRule="evenodd"
                d="M16.3529 1.66919C16.3673 1.71038 16.375 1.75426 16.375 1.79925V4.49014C16.375 4.63133 16.2994 4.7617 16.1768 4.83175L13.8176 6.17983V3.25373L16.3529 1.66919Z"
            />
            <path
                fillRule="evenodd"
                clipRule="evenodd"
                d="M10.8889 1.66919L13.4242 3.25373V6.17983L11.065 4.83175C10.9424 4.7617 10.8668 4.63133 10.8668 4.49014V1.79925C10.8668 1.75426 10.8745 1.71038 10.8889 1.66919Z"
            />
            <path
                fillRule="evenodd"
                clipRule="evenodd"
                d="M8.375 10.0038L12.4034 7.48601L8.59065 5.30727C8.45702 5.23091 8.29297 5.23091 8.15934 5.30727L4.34655 7.48601L8.375 10.0038ZM9.06446 11.199L13.3061 8.54792V13.3796C13.3061 13.5356 13.2226 13.6796 13.0871 13.757L9.06446 16.0557V11.199ZM3.44385 13.3796V8.54792L7.68553 11.199V16.0557L3.66286 13.757C3.52743 13.6796 3.44385 13.5356 3.44385 13.3796Z"
            />
        </g>
    </g>
</svg>
