<svg xmlns="http://www.w3.org/2000/svg" viewBox="0 0 20 20">
  <path d="m9.707 6.408 4.894-2.293c.367-.172.794-.15 1.142.06l3.662 2.205c.369.223.595.624.595 1.058v5.037c0 .48-.276.916-.707 1.118l-4.894 2.292c-.367.172-.794.15-1.142-.06L9.595 13.62A1.23 1.23 0 0 1 9 12.562V7.525c0-.48.276-.915.707-1.117"/>
  <path d="M.812 2.098 4.923.139a1.43 1.43 0 0 1 1.365.072l3.031 1.857c.423.26.681.718.681 1.213v1.885l-.717.336A2.23 2.23 0 0 0 8 7.525v1.562l-1.19-.729a2.43 2.43 0 0 0-2.317-.122L1.71 9.563.68 8.932A1.42 1.42 0 0 1 0 7.719V3.382c0-.548.316-1.048.812-1.284"/>
  <path d="M8 10.26v2.302c0 .782.408 1.51 1.08 1.914l.92.555v1.587c0 .548-.316 1.048-.812 1.284l-4.111 1.959a1.43 1.43 0 0 1-1.365-.072L.681 17.932A1.42 1.42 0 0 1 0 16.719v-4.337c0-.548.316-1.048.812-1.284l4.111-1.959a1.43 1.43 0 0 1 1.365.072z"/>
</svg>
