<svg xmlns="http://www.w3.org/2000/svg" viewBox="0 0 20 20">
    <path d="M13.809 2.2 10.638.48a1.35 1.35 0 0 0-1.276 0L1.953 4.5l6.014 3.542zM7.237 8.773 1.136 5.18A1.2 1.2 0 0 0 1 5.726v8.35c0 .438.247.843.648 1.06l7.714 4.186q.068.037.138.065v-5.543l-3.168 1.101a1 1 0 0 1-1.274-1.27l1.345-3.893a1 1 0 0 1 .254-.43zM10.5 13.463v5.924q.07-.028.138-.065l7.714-4.186c.4-.217.648-.622.648-1.06v-8.35c0-.193-.048-.38-.136-.546l-.154.09-.58.58a1 1 0 0 1-.068.077l-7.415 7.415a1 1 0 0 1-.147.121"/>
    <path d="m8.067 9.355 2.575 2.575 6.709-6.709-2.576-2.575zM6 14.002l3.935-1.367-2.573-2.574zM18.221-.004c-.49 0-.969.161-1.29.491l-1.45 1.454 2.57 2.574L19.5 3.06c.32-.33.499-.792.499-1.282 0-.98-.8-1.783-1.779-1.783"/>
</svg>
