<svg width="20" height="20" viewBox="0 0 20 20" fill="none" xmlns="http://www.w3.org/2000/svg">
<path fill-rule="evenodd" clip-rule="evenodd" d="M10.1095 1.40572C10.2897 1.50871 13.125 3.125 13.125 3.125C13.125 3.125 10.625 5 10.625 5.625L10 9.375L9.52314 9.8288L2.2029 5.25364L8.93677 1.40572C9.30011 1.19809 9.74617 1.19809 10.1095 1.40572ZM17.7963 8.26637V14.5674C17.7963 14.9916 17.569 15.3832 17.2008 15.5936L10.1141 19.6431V10.8533C10.1141 10.8533 11.2199 11.8656 11.875 11.8749C12.5301 11.8842 15.1027 10.8275 15.0518 10.8533C16.2336 10.2624 17.169 8.82781 17.7963 8.26637ZM1.31642 6.09321L8.93219 10.8531V19.6429L1.8455 15.5933C1.47726 15.3829 1.25 14.9913 1.25 14.5672V6.48391C1.25 6.34877 1.27307 6.21694 1.31642 6.09321Z" fill="#5F6B7C"/>
<path d="M18.7426 1.81451C18.8882 1.96614 19.1637 2.25307 19.4336 2.53395C20.1247 3.2532 19.3194 4.02669 19.3194 4.02669C19.3194 4.02669 19.3194 4.02669 19.3194 4.02669L14.6422 8.51879C14.5408 8.61616 14.42 8.69107 14.2877 8.73862L11.4577 9.75581C11.295 9.81431 11.1397 9.65266 11.2048 9.49241L12.3353 6.70576C12.3882 6.5755 12.4679 6.45785 12.5693 6.36047L17.2465 1.86837C17.2465 1.86837 17.2465 1.86837 17.2465 1.86837C17.2465 1.86837 18.0518 1.09489 18.7426 1.81451Z" fill="#5F6B7C"/>
</svg>
