<svg xmlns="http://www.w3.org/2000/svg" viewBox="0 0 20 20">
  <path d="m9.70708 6.4075 4.89372-2.29272c.367-.17195.7947-.14961 1.1421.05966l3.6618 2.20576c.3692.2224.5953.62404.5953 1.05758v5.03752c0 .4793-.2758.9152-.7071 1.1172l-4.8937 2.2927c-.367.172-.7947.1496-1.1421-.0596l-3.66183-2.2058C9.22607 13.3974 9 12.9958 9 12.5622V7.52474c0-.47936.27584-.9152.70708-1.11724Z"/>
  <path d="M.81242 2.09789 4.92335.13924c.43745-.20843.95113-.18148 1.36421.07157L9.31949 2.0681C9.74236 2.32714 10 2.78637 10 3.28106v1.8849l-.71717.336C8.49727 5.86999 8 6.6607 8 7.52474V9.0871l-1.19008-.72902c-.70176-.42988-1.57384-.47555-2.3167-.12161L1.70999 9.56254.68051 8.9319C.25765 8.67286 0 8.21363 0 7.71894V3.38242c0-.54838.316-1.04801.81242-1.28453Z"/>
  <path d="M8 10.2598v2.3024c0 .7817.40755 1.5096 1.07928 1.9142L10 15.031v1.5866c0 .5484-.316 1.048-.81242 1.2845l-4.11093 1.9587c-.43745.2084-.95113.1814-1.36421-.0716L.68051 17.9319C.25765 17.6729 0 17.2136 0 16.7189v-4.3365c0-.5484.316-1.048.81242-1.2845l4.11093-1.95866c.43745-.20843.95113-.18148 1.36421.07157L8 10.2598Z"/>
</svg>
