<svg xmlns="http://www.w3.org/2000/svg" viewBox="0 0 20 20">
  <path d="M8 3c-1.292 0-2.303.369-2.832 1.305-.234.415-.32.859-.353 1.245-.032.384-.017.781-.001 1.12.034.758.055 1.255-.08 1.644a.85.85 0 0 1-.253.385c-.124.108-.34.235-.724.33a1 1 0 0 0 0 1.941c.384.096.6.223.724.331.12.103.198.225.254.386.134.388.113.885.079 1.643-.016.339-.031.736.001 1.12.033.386.119.83.353 1.245C5.697 16.63 6.708 17 8 17a1 1 0 1 0 0-2c-.933 0-1.066-.244-1.089-.286l-.001-.003c-.04-.069-.082-.196-.102-.43a7 7 0 0 1 .003-.86l.007-.145c.03-.613.073-1.475-.193-2.244A2.9 2.9 0 0 0 6.01 10c.293-.314.489-.668.615-1.032.266-.769.223-1.63.193-2.244l-.007-.144a7 7 0 0 1-.003-.86c.02-.235.063-.362.102-.432l.001-.002C6.934 5.244 7.067 5 8 5a1 1 0 0 0 0-2M12 3c1.293 0 2.303.369 2.832 1.305.234.415.32.859.353 1.245.032.384.017.781.002 1.12-.035.758-.056 1.255.078 1.644.056.16.134.282.254.385.124.108.34.235.723.33a1 1 0 0 1 0 1.941c-.383.096-.599.223-.723.331a.85.85 0 0 0-.254.386c-.134.388-.113.885-.079 1.643.016.339.031.736-.001 1.12-.033.386-.119.83-.353 1.245C14.302 16.63 13.292 17 12 17a1 1 0 1 1 0-2c.933 0 1.066-.244 1.088-.286l.002-.003c.04-.069.082-.196.102-.43.02-.238.012-.513-.004-.86l-.006-.145c-.03-.613-.073-1.475.193-2.244.127-.364.322-.718.615-1.032a2.9 2.9 0 0 1-.615-1.032c-.266-.769-.223-1.63-.193-2.244l.006-.144c.016-.349.024-.623.004-.86-.02-.235-.063-.362-.102-.432l-.002-.002C13.067 5.244 12.934 5 12 5a1 1 0 1 1 0-2"/>
</svg>
