<svg xmlns="http://www.w3.org/2000/svg" viewBox="0 0 20 20">
  <path d="M1 4.1v5.4c0 1.293 3.145 2.358 7.179 2.487l.404-.404A2 2 0 0 1 10 11c.548 0 1.052.217 1.417.583l.272.272q.16-.017.318-.038c.037-.462.218-.906.56-1.25.389-.387.906-.567 1.433-.567a4.96 4.96 0 0 1 2.268.546c.47-.318.732-.672.732-1.046V4.1C15.51 5.23 12.49 6 9 6c-3.48 0-6.5-.77-8-1.9M1 11.1c1.24.934 3.516 1.622 6.233 1.832l-.65.65A2.003 2.003 0 0 0 8.1 16.998c.15.74.465 1.42.904 2.003H9c-4.42 0-8-1.12-8-2.5z"/>
  <path d="M9 5c4.42 0 8-1.12 8-2.5S13.42 0 9 0 1 1.12 1 2.5 4.59 5 9 5M14 11c2.2 0 4 1.8 4 4v.59l.29-.29c.18-.19.43-.3.71-.3a1.003 1.003 0 0 1 .71 1.71l-2 2c-.18.18-.43.29-.71.29s-.53-.11-.71-.29l-2-2a1.003 1.003 0 0 1 1.42-1.42l.29.3V15c0-1.1-.9-2-2-2-.6 0-1-.4-1-1s.4-1 1-1M8 16c.28 0 .53-.11.71-.29l.29-.3V16c0 2.2 1.8 4 4 4 .6 0 1-.4 1-1s-.4-1-1-1c-1.1 0-2-.9-2-2v-.59l.29.29c.18.19.43.3.71.3a1.003 1.003 0 0 0 .71-1.71l-2-2A1 1 0 0 0 10 12c-.28 0-.53.11-.71.29l-2 2A1.003 1.003 0 0 0 8 16"/>
</svg>
