<svg xmlns="http://www.w3.org/2000/svg" viewBox="0 0 20 20">
  <path d="M2 9.5V4.1C3.5 5.23 6.52 6 10 6c3.49 0 6.51-.77 8-1.9v5.4a1 1 0 0 1-.016.159 6.002 6.002 0 0 0-10.87 2.173C4.12 11.47 2 10.562 2 9.5m5 3.406V13a6.005 6.005 0 0 0 5.017 5.92c-.644.052-1.32.08-2.017.08-4.42 0-8-1.12-8-2.5v-5.4c1.047.789 2.835 1.402 5.003 1.701z"/>
  <path d="M18 2.5C18 3.88 14.42 5 10 5 5.59 5 2 3.88 2 2.5S5.58 0 10 0s8 1.12 8 2.5m-2.243 14.672A5.003 5.003 0 0 1 8 13v-.078a5.002 5.002 0 0 1 9.67-1.71 5 5 0 0 1-.498 4.545l2.534 2.534a1 1 0 1 1-1.415 1.415zM13 16a3 3 0 1 0 0-6 3 3 0 0 0 0 6"/>
</svg>
