<svg xmlns="http://www.w3.org/2000/svg" viewBox="0 0 20 20">
  <path d="M2 9.5V4.1C3.5 5.23 6.52 6 10 6c3.49 0 6.51-.77 8-1.9v5.4a1 1 0 0 1-.016.159 6.002 6.002 0 0 0-10.87 2.173C4.12 11.47 2 10.562 2 9.5M7 12.906l.003-.105C4.835 12.502 3.047 11.889 2 11.1v5.4c0 1.38 3.58 2.5 8 2.5.697 0 1.373-.028 2.017-.08A6.005 6.005 0 0 1 7 13v-.094"/>
  <path d="M18 2.5C18 3.88 14.42 5 10 5 5.59 5 2 3.88 2 2.5S5.58 0 10 0s8 1.12 8 2.5M15.757 17.172l2.534 2.534a1 1 0 1 0 1.415-1.415l-2.534-2.534c.523-.79.828-1.738.828-2.757a5 5 0 0 0-.33-1.788A5.002 5.002 0 0 0 8 12.922V13q0 .473.085.92a5.002 5.002 0 0 0 7.672 3.252M13 16a3 3 0 1 0 0-6 3 3 0 0 0 0 6"/>
</svg>
