<?xml version="1.0" encoding="UTF-8"?>
<svg width="20px" height="20px" viewBox="0 0 20 20" version="1.1" xmlns="http://www.w3.org/2000/svg" xmlns:xlink="http://www.w3.org/1999/xlink">
    <title>bp3-icon-drawer-app-header</title>
    <defs>
        <path d="M19,0 C19.5522847,0 20,0.44771525 20,1 L20,19 C20,19.5522847 19.5522847,20 19,20 L1,20 C0.44771525,20 0,19.5522847 0,19 L0,1 C0,0.44771525 0.44771525,0 1,0 L19,0 Z M8,6 C8,5.44771525 7.55228475,5 7,5 C6.44771525,5 6,5.44771525 6,6 L6,6 L6,14 C6,14.5522847 6.44771525,15 7,15 C7.55228475,15 8,14.5522847 8,14 L8,14 L8,11 L12,11 L12,14 C12,14.5522847 12.4477153,15 13,15 C13.5522847,15 14,14.5522847 14,14 L14,14 L14,6 C14,5.44771525 13.5522847,5 13,5 C12.4477153,5 12,5.44771525 12,6 L12,6 L12,9 L8,9 Z" id="path-1"></path>
    </defs>
    <g id="bp3-icon-drawer-app-header" stroke="none" stroke-width="1" fill="none" fill-rule="evenodd">
        <mask id="mask-2" fill="white">
            <use xlink:href="#path-1"></use>
        </mask>
        <g id="bp3-icon-app-header" fill-rule="nonzero"></g>
        <g id="20-Light-/-Icon-/-Default" mask="url(#mask-2)" fill="#5C7080">
            <rect id="Rectangle" x="0" y="0" width="20" height="20"></rect>
        </g>
    </g>
</svg>