<svg xmlns="http://www.w3.org/2000/svg" viewBox="0 0 20 20">
  <path d="M16.943 1.571q-.459.087-.943.086v1.286h2.317V10H20V0h-1.253q-.08.458-.35.771-.255.315-.633.515a2.7 2.7 0 0 1-.821.285M12.833 20q-.612 0-1.242-.29l-.168-.083c-.3-.146-.487-.238-.804-.556v.712H8.55V7h2.07v3.295l-.054 1.485a5.2 5.2 0 0 1 1.206-.797 3.2 3.2 0 0 1 1.35-.308q.828.001 1.476.326.648.308 1.098.906.45.58.684 1.412.234.833.234 1.865 0 1.14-.324 2.046a4.6 4.6 0 0 1-.828 1.503q-.522.615-1.206.941T12.833 20m-.432-1.72q.882 0 1.476-.76.594-.78.594-2.3 0-1.34-.45-2.082t-1.458-.742q-.936 0-1.944.995v4.147q.468.416.918.579.468.163.864.163M2.61 20q-1.17 0-1.89-.706Q0 18.569 0 17.393q0-.707.288-1.25.306-.561.936-.96.648-.397 1.62-.67.99-.271 2.358-.416a2.9 2.9 0 0 0-.108-.652 1.3 1.3 0 0 0-.27-.56 1.1 1.1 0 0 0-.486-.381 1.8 1.8 0 0 0-.756-.145q-.648 0-1.278.254a9 9 0 0 0-1.206.615l-.756-1.394a9 9 0 0 1 1.656-.815 5.6 5.6 0 0 1 1.98-.344q1.656 0 2.466.996.828.978.828 2.843v5.268h-2.07v-.87a5 5 0 0 1-1.134.744A3.1 3.1 0 0 1 2.61 20m.666-1.63q.54 0 .972-.253.45-.254.954-.724V15.4q-.9.108-1.512.29-.612.181-.99.416-.378.218-.54.507a1.24 1.24 0 0 0-.162.616q0 .597.36.869.36.27.918.271"/>
</svg>
