<svg xmlns="http://www.w3.org/2000/svg" viewBox="0 0 20 20">
  <path d="M19.16 9.804A1 1 0 0 0 18.18 9H16V5a1 1 0 0 0-1-1h-3.5a1 1 0 0 0-.8.4L9.76 6 8.139 8.766A1 1 0 0 0 8 9.272V12a1 1 0 0 0 1 1h9.78a1 1 0 0 0 .98-1.196zM10 9l1.76-3H14v3zM4.25.5c-.555-.278-1.413.044-1.592.639L0 10c0 1.94.952 2.595 2.501 2.912a.95.95 0 0 0 .857-.27L6 10H2l2-7.006L9 5l.372-.557a.998.998 0 0 0-.383-1.449zM3 17a3 3 0 0 1 3-3h11a3 3 0 1 1 0 6H6a3 3 0 0 1-3-3m2 0a1 1 0 0 1 1-1h11a1 1 0 1 1 0 2H6a1 1 0 0 1-1-1"/>
</svg>
