<svg width="20" height="20" viewBox="0 0 20 20" fill="none" xmlns="http://www.w3.org/2000/svg">
    <path fill-rule="evenodd" clip-rule="evenodd"
        d="M19.1608 9.80389C19.0673 9.33646 18.6569 9 18.1802 9H16V5C16 4.44772 15.5523 4 15 4H11.5C11.1852 4 10.8888 4.1482 10.7 4.4L9.76084 6L8.13756 8.7656C8.04747 8.91908 7.99997 9.09383 7.99997 9.2718V12C7.99997 12.5523 8.44769 13 8.99997 13H18.7802C19.4112 13 19.8845 12.4227 19.7608 11.8039L19.1608 9.80389ZM10 9L11.76 6H14V9H10Z"
        fill="#5F6B7C" />
    <path
        d="M4.25 0.499998C3.69475 0.222371 2.83675 0.544171 2.65837 1.13878L0 10C0 11.9397 0.952021 12.595 2.50106 12.9117C2.81315 12.9754 3.13307 12.8669 3.35832 12.6417L6 10H2L4 2.99435L9 5L9.37165 4.44253C9.7053 3.94206 9.5267 3.26335 8.98871 2.99435L4.25 0.499998Z"
        fill="#5F6B7C" />
    <path fill-rule="evenodd" clip-rule="evenodd"
        d="M3 17C3 15.3431 4.34315 14 6 14H17C18.6569 14 20 15.3431 20 17C20 18.6569 18.6569 20 17 20H6C4.34315 20 3 18.6569 3 17ZM5 17C5 16.4477 5.44772 16 6 16H17C17.5523 16 18 16.4477 18 17C18 17.5523 17.5523 18 17 18H6C5.44772 18 5 17.5523 5 17Z"
        fill="#5F6B7C" />
</svg>
