<svg width="20" height="20" viewBox="0 0 20 20" fill="none" xmlns="http://www.w3.org/2000/svg">
<path fill-rule="evenodd" clip-rule="evenodd" d="M10 0C4.47715 0 0 4.47715 0 10C0 15.5228 4.47715 20 10 20H20V10C20 4.47715 15.5228 0 10 0ZM8 11C8.55228 11 9 11.4477 9 12V16.3709C9 16.7186 9.28187 17.0005 9.62956 17.0005C9.8582 17.0005 10.0689 16.8765 10.1799 16.6767L13.92 9.94441C13.9725 9.85002 14 9.74383 14 9.63585C14 9.28495 13.7155 9.00049 13.3646 9.00049H12C11.4477 9.00049 11 8.55277 11 8.00049V3.62956C11 3.28186 10.7181 3 10.3704 3C10.1418 3 9.93114 3.12396 9.8201 3.32382L6.07996 10.0561C6.02752 10.1505 6 10.2567 6 10.3646C6 10.7155 6.28446 11 6.63536 11H8Z" fill="#111418"/>
</svg>
