<svg width="20" height="20" viewBox="0 0 20 20" fill="none" xmlns="http://www.w3.org/2000/svg">
<path d="M10 0C15.523 0 20 4.477 20 10V20H10C4.477 20 0 15.523 0 10C0 4.477 4.477 0 10 0ZM8 11C8.26522 11 8.51957 11.1054 8.70711 11.2929C8.89464 11.4804 9 11.7348 9 12V16.37C9.00005 16.5094 9.04636 16.6449 9.13166 16.7552C9.21696 16.8655 9.33644 16.9444 9.47137 16.9795C9.60631 17.0146 9.74908 17.0039 9.87731 16.9492C10.0055 16.8944 10.112 16.7987 10.18 16.677L13.92 9.944C13.9738 9.84733 14.0015 9.73826 14.0002 9.62761C13.9989 9.51696 13.9687 9.40856 13.9127 9.31317C13.8566 9.21777 13.7765 9.13869 13.6805 9.08376C13.5844 9.02883 13.4757 8.99996 13.365 9H12C11.7348 9 11.4804 8.89464 11.2929 8.70711C11.1054 8.51957 11 8.26522 11 8V3.63C10.9997 3.49066 10.9533 3.35534 10.8679 3.24522C10.7825 3.1351 10.663 3.05639 10.5281 3.02141C10.3933 2.98644 10.2506 2.99716 10.1225 3.05191C9.99432 3.10667 9.88796 3.20235 9.82 3.324L6.08 10.056C6.02615 10.1527 5.9985 10.2617 5.99979 10.3724C6.00108 10.483 6.03126 10.5914 6.08734 10.6868C6.14343 10.7822 6.22347 10.8613 6.31953 10.9162C6.41559 10.9712 6.52434 11 6.635 11H8Z" fill="black"/>
</svg>
