<?xml version="1.0" encoding="utf-8"?>
<!-- Generator: Adobe Illustrator 17.1.0, SVG Export Plug-In . SVG Version: 6.00 Build 0)  -->
<!DOCTYPE svg PUBLIC "-//W3C//DTD SVG 1.1//EN" "http://www.w3.org/Graphics/SVG/1.1/DTD/svg11.dtd">
<svg version="1.1" id="Layer_1" xmlns:sketch="http://www.bohemiancoding.com/sketch/ns"
	 xmlns="http://www.w3.org/2000/svg" xmlns:xlink="http://www.w3.org/1999/xlink" x="0px" y="0px" viewBox="0 0 16 16"
	 enable-background="new 0 0 16 16" xml:space="preserve">
<title>Shape</title>
<desc>Created with Sketch.</desc>
<g id="Page-1" sketch:type="MSPage">
	<g id="Artboard-1" transform="translate(0.000000, -4.000000)" sketch:type="MSArtboardGroup">
		<path id="Shape" sketch:type="MSShapeGroup" d="M8.02,10.38c-0.88,0-1.6,0.72-1.6,1.6c0,0.88,0.72,1.6,1.6,1.6s1.6-0.72,1.6-1.6
			S8.9,10.38,8.02,10.38L8.02,10.38z M16.01,11.95v-0.02v-0.01V11.9v-0.02l0,0c-0.02-0.13-0.08-0.26-0.17-0.35
			c-0.51-0.64-1.12-1.21-1.74-1.73c-1.33-1.12-2.86-2.06-4.53-2.44C8.61,7.15,7.62,7.14,6.65,7.33C5.76,7.5,4.9,7.85,4.1,8.28
			c-1.26,0.68-2.4,1.61-3.4,2.66c-0.18,0.19-0.36,0.39-0.53,0.6c-0.22,0.28-0.22,0.62,0,0.9c0.51,0.64,1.12,1.21,1.74,1.73
			c1.33,1.12,2.86,2.06,4.53,2.44c0.97,0.22,1.95,0.22,2.93,0.04c0.89-0.17,1.74-0.52,2.54-0.95c1.26-0.68,2.4-1.61,3.4-2.66
			c0.18-0.19,0.37-0.39,0.54-0.6c0.09-0.1,0.14-0.22,0.17-0.35l0,0v-0.02v-0.02v-0.01v-0.02v-0.03L16.01,11.95L16.01,11.95z
			 M8.02,15.18c-1.77,0-3.2-1.43-3.2-3.2s1.43-3.2,3.2-3.2s3.2,1.43,3.2,3.2S9.78,15.18,8.02,15.18L8.02,15.18z"/>
	</g>
</g>
</svg>
