<svg xmlns="http://www.w3.org/2000/svg" viewBox="0 0 20 20">
  <path d="M14.724 2.724a.5.5 0 0 0 .61.075l3.98-2.387c.178-.108.381.095.274.274l-2.387 3.98a.5.5 0 0 0 .075.61l.37.37a.5.5 0 0 1 0 .708L15.17 8.83a.5.5 0 0 0-.143.409l.947 8.522a.5.5 0 0 1-.144.409l-.575.575a.5.5 0 0 1-.577.094l-5.389-2.694a.2.2 0 0 0-.289.178v2.868a.5.5 0 0 1-.724.447l-2.934-1.467a.5.5 0 0 1-.267-.546l.404-2.02a.2.2 0 0 0-.055-.18l-.848-.85a.2.2 0 0 0-.181-.054l-2.02.404a.5.5 0 0 1-.546-.266L.362 11.724A.5.5 0 0 1 .809 11h1.914a.2.2 0 0 0 .19-.263L1.097 5.293a.5.5 0 0 1 .12-.511l.612-.612a.5.5 0 0 1 .409-.143l8.522.947a.5.5 0 0 0 .409-.144l2.476-2.476a.5.5 0 0 1 .708 0z"/>
</svg>
