<svg xmlns="http://www.w3.org/2000/svg" viewBox="0 0 20 20">
  <path d="M1 6.648q.514 0 1-.085t.871-.284q.4-.199.672-.512.285-.312.371-.767h1.329v9.947H3.457v-7.02H1zm13.965-1.635q1.032 0 1.677.478.66.465 1.018 1.204.371.724.495 1.6.137.875.137 1.696 0 .82-.137 1.696a5.2 5.2 0 0 1-.495 1.614 3.23 3.23 0 0 1-1.018 1.203q-.646.465-1.677.465-1.03 0-1.691-.465-.646-.479-1.018-1.203a5.7 5.7 0 0 1-.495-1.614 12 12 0 0 1-.123-1.696q0-.821.123-1.696a5.5 5.5 0 0 1 .495-1.6 3.26 3.26 0 0 1 1.018-1.204q.66-.478 1.691-.478m0 8.657q.509 0 .853-.287.343-.3.536-.794a4.6 4.6 0 0 0 .288-1.176q.084-.67.083-1.422 0-.753-.083-1.409a4.6 4.6 0 0 0-.288-1.176q-.193-.506-.536-.793-.345-.3-.853-.301-.522 0-.866.3-.33.288-.537.794-.193.506-.274 1.176-.083.657-.083 1.409 0 .751.082 1.422.083.671.275 1.176.207.493.537.794.344.287.866.287m-5.104-.588H7.875V15h1.986z"/>
</svg>
