<svg xmlns="http://www.w3.org/2000/svg" viewBox="0 0 20 20">
  <path d="M14.425 7.953a4 4 0 0 1 .562 2.045 4 4 0 0 1-.583 2.08L18 15.671V12.98c0-.248.097-.496.29-.689.379-.379 1.047-.38 1.426 0a.94.94 0 0 1 .283.696l-.001 5.049a.96.96 0 0 1-.276.69.96.96 0 0 1-.69.273h-5.059a.97.97 0 0 1-.689-.289 1.026 1.026 0 0 1 0-1.417.97.97 0 0 1 .69-.29h2.702l-3.634-3.573a3.998 3.998 0 0 1-5.924-2.431H1a1 1 0 0 1 0-2h6.12a3.998 3.998 0 0 1 5.96-2.409L16.665 3l-2.694-.001a.97.97 0 0 1-.689-.29 1.035 1.035 0 0 1 0-1.425.94.94 0 0 1 .696-.283l5.05.001c.248 0 .497.083.69.276a.95.95 0 0 1 .272.69l.001 5.052a.97.97 0 0 1-.29.689 1.03 1.03 0 0 1-1.419 0 .97.97 0 0 1-.29-.69V4.323z"/>
</svg>
