<svg width="20" height="20" viewBox="0 0 20 20" fill="none" xmlns="http://www.w3.org/2000/svg">
<path fill-rule="evenodd" clip-rule="evenodd" d="M10.9333 2.64102C10.7848 2.25483 10.4138 2 10 2C9.58622 2 9.21519 2.25483 9.06665 2.64102L4.07482 15.6198C4.0266 15.737 4 15.8654 4 16C4 16.5523 4.44772 17 5 17C5.43402 17 5.80346 16.7235 5.94178 16.337L7.22526 13H12.7747L14.0583 16.3373C14.1967 16.7236 14.5661 17 15 17C15.5523 17 16 16.5523 16 16C16 15.8653 15.9734 15.7368 15.9251 15.6195L10.9333 2.64102ZM12.0055 11L10 5.78568L7.99449 11H12.0055Z" fill="black"/>
</svg>
