<svg xmlns="http://www.w3.org/2000/svg" viewBox="0 0 20 20">
  <path d="M9.754 20a8.5 8.5 0 0 1-3.417-.693 8.9 8.9 0 0 1-2.772-1.872 8.9 8.9 0 0 1-1.872-2.772A8.5 8.5 0 0 1 1 11.246q0-1.823.693-3.416a8.9 8.9 0 0 1 1.872-2.772 8.9 8.9 0 0 1 2.772-1.872 8.5 8.5 0 0 1 3.417-.693h.145l-.826-.827a.9.9 0 0 1-.28-.68q.012-.39.28-.682A1 1 0 0 1 9.766 0a.9.9 0 0 1 .693.28l2.504 2.505a.93.93 0 0 1 .292.68q0 .39-.292.681L10.46 6.651a.9.9 0 0 1-.693.28 1 1 0 0 1-.693-.305 1.03 1.03 0 0 1-.28-.68.9.9 0 0 1 .28-.681l.826-.827h-.145q-2.846 0-4.827 1.982Q2.945 8.4 2.945 11.246t1.982 4.827q1.982 1.982 4.827 1.982t4.826-1.982 1.982-4.827a.94.94 0 0 1 .28-.693.94.94 0 0 1 .693-.28q.413 0 .692.28a.94.94 0 0 1 .28.693 8.5 8.5 0 0 1-.693 3.417 8.9 8.9 0 0 1-1.872 2.772 8.9 8.9 0 0 1-2.772 1.872A8.5 8.5 0 0 1 9.754 20"/>
  <path d="M11.5 9.5v3h1v-3zM11 8a1 1 0 0 0-1 1v4a1 1 0 0 0 1 1h2a1 1 0 0 0 1-1V9a1 1 0 0 0-1-1zM9 9a1 1 0 0 0-1-1H6.75a.75.75 0 0 0 0 1.5h.75v3.75a.75.75 0 0 0 1.5 0z"/>
</svg>
