<svg width="20" height="20" viewBox="0 0 20 20" fill="none" xmlns="http://www.w3.org/2000/svg">
<path fill-rule="evenodd" clip-rule="evenodd" d="M2.19637 2H0V4H2C2.31735 4 2.61886 4.13867 2.8254 4.37963L6.31818 8.45455L4.4453 9.70313C4.1671 9.8886 4 10.2008 4 10.5352V18C4 18.5 4.5 19 5 19H19C19.5 19 20 18.5 20 18V7.1C20 7.06629 19.9986 7.03294 19.9959 7H20V3C20 3 20 2 19 2H11C10.5 2 10 2.5 10 3V6L8.11961 7.25359L4.46337 3.03513C3.89355 2.37769 3.06638 2 2.19637 2ZM18 4V6H12V4H18Z" fill="black"/>
</svg>
