<svg width="20" height="20" viewBox="0 0 20 20" fill="none" xmlns="http://www.w3.org/2000/svg">
<path d="M8 13C8 12.4477 7.55229 12 7 12H4.94188C4.42169 12 4 11.5783 4 11.0581C4 10.8892 4.04545 10.7233 4.13159 10.5779L10.1095 0.490197C10.2972 0.173444 10.6369 0 11 0C11.5523 0 12 0.447715 12 1V7C12 7.55228 12.4477 8 13 8H15.0581C15.5783 8 16 8.42169 16 8.94188C16 9.11085 15.9545 9.2767 15.8684 9.42206L9.89049 19.5098C9.70278 19.8266 9.36307 20 9 20C8.44772 20 8 19.5523 8 19V13Z" fill="#111418"/>
</svg>
