<svg xmlns="http://www.w3.org/2000/svg" viewBox="0 0 20 20">
  <path d="M15.555 7c-2.375 0-4.305 1.867-4.305 4.164 0 2.305 4.305 8.836 4.305 8.836s4.304-6.531 4.304-8.836C19.852 8.867 17.93 7 15.555 7m0 6.25a1.954 1.954 0 1 1 .001-3.908 1.954 1.954 0 0 1-.001 3.908"/>
  <path d="M0 7.5C0 3.356 3.356 0 7.5 0a7.5 7.5 0 0 1 7.359 6.044 5.4 5.4 0 0 0-1.804.566A5.63 5.63 0 0 0 7.5 1.875 5.63 5.63 0 0 0 1.875 7.5 5.63 5.63 0 0 0 7.5 13.125c1.07 0 2.072-.3 2.924-.82.14.525.352 1.078.58 1.608l.078.178A7.5 7.5 0 0 1 7.5 15 7.5 7.5 0 0 1 0 7.5"/>
  <path d="M8.438 3.937v3.179l1.603 1.593A.94.94 0 0 1 8.71 10.04L6.833 8.167a.94.94 0 0 1-.271-.666V3.937A.94.94 0 0 1 7.5 3a.94.94 0 0 1 .938.937"/>
</svg>
