<svg xmlns="http://www.w3.org/2000/svg" viewBox="0 0 20 20">
<path d="M12.75 7L12.748 6.99C12.832 6.99667 12.916 7 13 7C13 7.755 13.26 8.539 13.86 9.14C13.9013 9.18 13.943 9.21867 13.985 9.256C14.0232 10.1718 13.9915 11.0891 13.89 12H17.72C17.89 11.36 18 10.69 18 10C18 9.75333 17.9867 9.50933 17.96 9.268C18.2901 8.99027 18.5546 8.64283 18.7344 8.25067C18.9143 7.85852 19.005 7.43139 19 7C19.176 7 19.3513 6.98367 19.526 6.951C19.834 7.912 20 8.937 20 10C20 15.52 15.52 20 10 20C4.48 20 0 15.52 0 10C0 4.48 4.48 0 10 0C11.06 0 12.084 0.165 13.043 0.472C13.0143 0.648667 13 0.824667 13 1C11.951 1 11.12 1.5 10.602 2.204C10.4258 2.07824 10.2164 2.00728 10 2C8.93 2 7.75 4.05 7.25 7H12.75ZM12.89 12C12.96 11.36 13 10.69 13 10C13 9.31 12.96 8.64 12.88 8H7.11C6.96464 9.32937 6.96464 10.6706 7.11 12H12.89ZM6.24 7C6.55 5.01 7.16 3.34 7.96 2.27C6.76281 2.59017 5.65638 3.18409 4.72795 4.00493C3.79951 4.82577 3.07447 5.85108 2.61 7H6.24ZM2 10C2 10.69 2.11 11.36 2.28 12H6.11C5.96464 10.6706 5.96464 9.32937 6.11 8H2.28C2.11 8.64 2 9.31 2 10ZM6.24 13H2.61C3.55 15.31 5.51 17.08 7.96 17.73C7.16 16.66 6.55 14.99 6.24 13ZM10 18C11.07 18 12.25 15.95 12.75 13H7.25C7.75 15.95 8.93 18 10 18ZM13.76 13C13.44 14.99 12.83 16.66 12.04 17.73C13.2372 17.4098 14.3436 16.8159 15.2721 15.9951C16.2005 15.1742 16.9255 14.1489 17.39 13H13.76Z"/>
<path d="M13 5C12.4 5 12 4.6 12 4C12 3.5 12.4 3 13 3H15V1C15 0.4 15.4 0 16 0C16.5 0 17 0.4 17 1V3H19C19.5 3 20 3.4 20 4C20 4.6 19.5 5 19 5H17V7C17 7.6 16.5 8 16 8C15.4 8 15 7.6 15 7V5H13Z"/>
</svg>
