<svg width="20" height="20" viewBox="0 0 20 20" fill="none" xmlns="http://www.w3.org/2000/svg">
<path fill-rule="evenodd" clip-rule="evenodd" d="M12.75 7L12.7484 6.9903C12.8324 6.9968 12.9164 7 13 7C13 7.7545 13.2602 8.53866 13.8608 9.13921C13.9013 9.17968 13.9426 9.2186 13.9846 9.25601C13.9947 9.50104 14 9.7492 14 10C14 10.69 13.96 11.36 13.89 12H17.72C17.89 11.36 18 10.69 18 10C18 9.75343 17.986 9.50942 17.9601 9.26842C18.5763 8.74559 19 7.96496 19 7C19.1755 7 19.3517 6.98341 19.5261 6.9511C19.8338 7.91244 20 8.93693 20 10C20 15.52 15.52 20 10 20C4.48 20 0 15.52 0 10C0 4.48 4.48 0 10 0C11.0609 0 12.0835 0.165495 13.0431 0.472058C13.014 0.647857 13 0.824729 13 1C11.9515 1 11.1206 1.50027 10.6016 2.20416C10.4006 2.0705 10.1984 2 10 2C8.93 2 7.75 4.05 7.25 7H12.75ZM12.89 12C12.96 11.36 13 10.69 13 10C13 9.31 12.96 8.64 12.88 8H7.11C7.04 8.64 7 9.31 7 10C7 10.69 7.04 11.36 7.11 12H12.89ZM6.24 7C6.55 5.01 7.16 3.34 7.96 2.27C5.51 2.92 3.55 4.69 2.61 7H6.24ZM2 10C2 9.31 2.11 8.64 2.28 8H6.11C6.04 8.64 6 9.31 6 10C6 10.69 6.04 11.36 6.11 12H2.28C2.11 11.36 2 10.69 2 10ZM6.24 13H2.61C3.55 15.31 5.51 17.08 7.96 17.73C7.16 16.66 6.55 14.99 6.24 13ZM10 18C8.93 18 7.75 15.95 7.25 13H12.75C12.25 15.95 11.07 18 10 18ZM13.76 13C13.44 14.99 12.83 16.66 12.04 17.73C14.49 17.08 16.45 15.31 17.39 13H13.76Z" fill="#111418"/>
<path d="M13 5C12.4 5 12 4.6 12 4C12 3.5 12.4 3 13 3H15V1C15 0.4 15.4 0 16 0C16.5 0 17 0.4 17 1V3H19C19.5 3 20 3.4 20 4C20 4.6 19.5 5 19 5H17V7C17 7.6 16.5 8 16 8C15.4 8 15 7.6 15 7V5H13Z" fill="#111418"/>
</svg>
