<svg xmlns="http://www.w3.org/2000/svg" viewBox="0 0 20 20">
  <path d="M2 11v5a1 1 0 1 1-2 0V3a1 1 0 0 1 2 0v6h7V3a1 1 0 1 1 2 0v13a1 1 0 1 1-2 0v-5zm14.033 6.96c.16-.19.34-.38.558-.55.21-.18.449-.36.708-.53.25-.18.498-.36.748-.56.249-.2.488-.41.727-.63.23-.22.439-.47.628-.74.18-.27.329-.56.438-.88.11-.32.16-.67.16-1.07 0-.32-.05-.65-.14-1s-.249-.68-.468-.97c-.22-.3-.508-.55-.867-.74-.359-.2-.807-.29-1.346-.29-.488 0-.926.1-1.295.29q-.557.27-.947.78c-.26.33-.449.73-.578 1.2-.13.46-.2.96-.2 1.5h1.426c.01-.35.04-.67.09-.97s.139-.56.249-.78.259-.39.448-.52c.19-.13.429-.19.708-.19q.463 0 .747.18c.19.12.34.26.449.43.11.17.18.36.219.56q.06.3.06.57c-.01.38-.1.72-.26 1.02-.149.3-.368.57-.627.83-.26.25-.538.49-.847.71-.31.22-.608.45-.887.68-.598.45-1.057.98-1.406 1.58-.349.61-.518 1.32-.528 2.13h5.97v-1.43h-4.266c.06-.21.17-.42.33-.61"/>
</svg>
