<svg xmlns="http://www.w3.org/2000/svg" viewBox="0 0 20 20">
  <path d="M2 11v5a1 1 0 1 1-2 0V3a1 1 0 0 1 2 0v6h7V3a1 1 0 1 1 2 0v13a1 1 0 1 1-2 0v-5zm16.458 3.64c.487.11.865.38 1.134.82s.408.968.408 1.608q0 .69-.239 1.229-.239.542-.656.919c-.27.25-.588.44-.956.58s-.746.209-1.154.209c-.498 0-.925-.08-1.294-.24a2.54 2.54 0 0 1-.925-.68 3 3 0 0 1-.567-1.058q-.195-.63-.209-1.379h1.383c-.02.58.11 1.07.378 1.459.279.39.677.58 1.224.58q.702 0 1.164-.45c.309-.3.468-.72.468-1.27 0-.369-.07-.668-.2-.888-.128-.22-.298-.39-.507-.5a2 2 0 0 0-.706-.21 5.4 5.4 0 0 0-.806-.03v-1.168c.219.01.448 0 .677-.05s.428-.13.607-.24.318-.27.428-.47.159-.45.159-.739q.002-.614-.368-.989c-.25-.25-.568-.37-.956-.37-.239 0-.448.06-.627.17q-.268.165-.447.45c-.12.19-.2.4-.26.63-.049.23-.079.469-.069.719H14.16c.01-.47.09-.9.23-1.3.138-.399.327-.748.566-1.038q.359-.45.866-.69c.338-.17.726-.25 1.154-.25.328 0 .657.05.975.16q.478.165.866.48c.259.21.468.47.617.8.15.32.229.699.229 1.118 0 .48-.09.91-.289 1.27a1.7 1.7 0 0 1-.915.788z"/>
</svg>
