<svg width="20" height="20" viewBox="0 0 20 20" fill="none" xmlns="http://www.w3.org/2000/svg">
<path fill-rule="evenodd" clip-rule="evenodd" d="M2 11V16C2 16.5523 1.55228 17 1 17C0.447715 17 0 16.5523 0 16V11V9V3C0 2.44772 0.447715 2 1 2C1.55228 2 2 2.44772 2 3V9H9V3C9 2.44772 9.44771 2 10 2C10.5523 2 11 2.44772 11 3V9V11V16C11 16.5523 10.5523 17 10 17C9.44771 17 9 16.5523 9 16V11H2ZM17.74 10C17.69 10.31 17.57 10.57 17.4 10.77C17.23 10.98 17.02 11.16 16.76 11.28C16.51 11.41 16.24 11.51 15.93 11.57C15.63 11.62 15.32 11.65 15 11.65V12.89H17.5V20H19V10H17.74Z" fill="black"/>
</svg>
