<svg width="20" height="20" viewBox="0 0 20 20" fill="none" xmlns="http://www.w3.org/2000/svg">
<g clip-path="url(#clip0_2236_3)">
<path d="M6 1C6 0.447716 6.44772 0 7 0V0C7.55228 0 8 0.447715 8 1V19C8 19.5523 7.55228 20 7 20V20C6.44772 20 6 19.5523 6 19V1Z" fill="#111418"/>
<path d="M12 1C12 0.447716 12.4477 0 13 0V0C13.5523 0 14 0.447715 14 1V19C14 19.5523 13.5523 20 13 20V20C12.4477 20 12 19.5523 12 19V1Z" fill="#111418"/>
<path d="M0 5C0 4.44772 0.447715 4 1 4H19C19.5523 4 20 4.44772 20 5V5C20 5.55228 19.5523 6 19 6H1C0.447715 6 0 5.55228 0 5V5Z" fill="#111418"/>
<rect x="2" width="2" height="9" rx="1" fill="#111418"/>
<rect x="16" width="2" height="9" rx="1" fill="#111418"/>
<rect y="8" width="5" height="2" rx="1" fill="#111418"/>
<rect x="15" y="8" width="5" height="2" rx="1" fill="#111418"/>
<rect width="5" height="2" rx="1" fill="#111418"/>
<rect x="15" width="5" height="2" rx="1" fill="#111418"/>
<path fill-rule="evenodd" clip-rule="evenodd" d="M13.9191 5.39404L7.91913 19.394L6.08084 18.6062L12.0808 4.6062L13.9191 5.39404Z" fill="#111418"/>
<path fill-rule="evenodd" clip-rule="evenodd" d="M7.91913 4.6062L13.9191 18.6062L12.0808 19.394L6.08084 5.39404L7.91913 4.6062Z" fill="#111418"/>
<path fill-rule="evenodd" clip-rule="evenodd" d="M13 2H7V0H13V2Z" fill="#111418"/>
</g>
<defs>
<clipPath id="clip0_2236_3">
<rect width="20" height="20" fill="white"/>
</clipPath>
</defs>
</svg>
