<svg xmlns="http://www.w3.org/2000/svg" viewBox="0 0 20 20">
  <path d="M20 10c0 5.51-4.49 10-10 10-1.17 0-2.32-.2-3.42-.6a1 1 0 0 1-.6-1.28c.19-.52.76-.79 1.28-.6.88.32 1.8.48 2.74.48 4.41 0 8-3.59 8-8s-3.59-8-8-8c-.94 0-1.86.16-2.74.48a1 1 0 0 1-1.28-.6A1 1 0 0 1 6.58.6C7.68.2 8.83 0 10 0c5.51 0 10 4.49 10 10"/>
  <path d="m15.71 9.29-4-4a1.003 1.003 0 0 0-1.42 1.42L12.59 9H1a1 1 0 0 0 0 2h11.59l-2.29 2.29c-.19.18-.3.43-.3.71a1.003 1.003 0 0 0 1.71.71l4-4c.18-.18.29-.43.29-.71s-.11-.53-.29-.71"/>
</svg>
