<svg width="20" height="20" viewBox="0 0 20 20" fill="none" xmlns="http://www.w3.org/2000/svg">
<path d="M20 10C20 15.51 15.51 20 10 20C8.83 20 7.68 19.8 6.58 19.4C6.06 19.21 5.79 18.64 5.98 18.12C6.17 17.6 6.74 17.33 7.26 17.52C8.14 17.84 9.06 18 10 18C14.41 18 18 14.41 18 10C18 5.59 14.41 2 10 2C9.06 2 8.14 2.16 7.26 2.48C6.74 2.67 6.17 2.4 5.98 1.88C5.79 1.36 6.06 0.79 6.58 0.6C7.68 0.2 8.83 0 10 0C15.51 0 20 4.49 20 10Z" fill="#111418"/>
<path d="M15.71 9.29L11.71 5.29C11.53 5.11 11.28 5 11 5C10.45 5 10 5.45 10 6C10 6.28 10.11 6.53 10.29 6.71L12.59 9H1C0.447715 9 0 9.44772 0 10C0 10.5523 0.447715 11 1 11H12.59L10.3 13.29C10.11 13.47 10 13.72 10 14C10 14.55 10.45 15 11 15C11.28 15 11.53 14.89 11.71 14.71L15.71 10.71C15.89 10.53 16 10.28 16 10C16 9.72 15.89 9.47 15.71 9.29Z" fill="#111418"/>
</svg>
