<svg width="20" height="20" viewBox="0 0 20 20" fill="none" xmlns="http://www.w3.org/2000/svg">
<path d="M10.0001 17C13.8661 17 17.0001 13.866 17.0001 10C17.0001 6.13401 13.8661 3 10.0001 3C6.88149 3 4.23918 5.03943 3.33413 7.85736C3.30708 7.9416 3.22934 8 3.14086 8H1.47361C1.3453 8 1.25016 7.88058 1.28205 7.75629C2.27896 3.87134 5.80422 1 10.0001 1C14.9707 1 19.0001 5.02944 19.0001 10C19.0001 14.9706 14.9707 19 10.0001 19C5.80422 19 2.27896 16.1287 1.28205 12.2437C1.25016 12.1194 1.3453 12 1.47361 12H3.14086C3.22934 12 3.30708 12.0584 3.33413 12.1426C4.23918 14.9606 6.88149 17 10.0001 17Z" fill="#111418"/>
<path d="M14.0005 9.99432C14.0005 9.72052 13.8834 9.48584 13.7078 9.30983C11.8206 7.42308 10.8185 6.41777 10.7015 6.29391C10.5259 6.10812 10.2787 6 10.0056 6C9.46911 6 9.01597 6.4508 9.01597 6.98861C9.01597 7.26241 9.13699 7.51714 9.3081 7.69375C9.42218 7.81149 9.92699 8.24617 10.8225 8.99779H0.975375C0.438919 8.99779 0 9.45651 0 9.99432C0 10.5321 0.438919 11.0015 0.975375 11.0015H10.8225C9.93247 11.7436 9.42765 12.1745 9.3081 12.2941C9.12877 12.4736 9.01597 12.741 9.01597 13.0148C9.01597 13.5526 9.46189 14 10.0137 14C10.2868 14 10.5277 13.88 10.7062 13.7164C10.8252 13.6074 11.829 12.5981 13.7176 10.6886C13.8932 10.5126 14.0005 10.2681 14.0005 9.99432Z" fill="#111418"/>
</svg>
