<svg xmlns="http://www.w3.org/2000/svg" viewBox="0 0 20 20">
  <path d="M10 9c-.55 0-1 .45-1 1s.45 1 1 1 1-.45 1-1-.46-1-1-1m4.992.975v-.044a.4.4 0 0 0-.106-.225 7.7 7.7 0 0 0-1.087-1.125c-.831-.731-1.78-1.343-2.824-1.587a4.15 4.15 0 0 0-1.819-.025c-.562.112-1.093.337-1.593.619-.78.443-1.5 1.05-2.124 1.73a7 7 0 0 0-.331.395.46.46 0 0 0 0 .58c.318.42.7.788 1.087 1.126.83.731 1.78 1.343 2.824 1.587q.91.214 1.83.025c.557-.112 1.088-.337 1.594-.619.78-.443 1.5-1.05 2.118-1.73.113-.126.231-.257.337-.395a.44.44 0 0 0 .107-.225V10c-.013-.012-.013-.019-.013-.025M10 12c-1.107 0-2-.893-2-2s.893-2 2-2 2 .893 2 2-.893 2-2 2M7 1a1 1 0 0 0-1-1H1a1 1 0 0 0-1 1v5a1 1 0 0 0 2 0V2h4a1 1 0 0 0 1-1m6 0a1 1 0 0 1 1-1h5a1 1 0 0 1 1 1v5a1 1 0 1 1-2 0V2h-4a1 1 0 0 1-1-1m0 18a1 1 0 0 0 1 1h5a1 1 0 0 0 1-1v-5a1 1 0 1 0-2 0v4h-4a1 1 0 0 0-1 1m-6 0a1 1 0 0 1-1 1H1a1 1 0 0 1-1-1v-5a1 1 0 1 1 2 0v4h4a1 1 0 0 1 1 1"/>
</svg>
