<?xml version="1.0" encoding="utf-8"?>
<svg version="1.1" id="Layer_1" xmlns="http://www.w3.org/2000/svg" xmlns:xlink="http://www.w3.org/1999/xlink" x="0px" y="0px"
	 viewBox="0 0 20 20" style="enable-background:new 0 0 20 20;" xml:space="preserve">
<path fill-rule="evenodd" clip-rule="evenodd" d="M19.5,9.1l-9-5C10.3,4,10.2,4,10,4S9.7,4,9.5,4.1l-9,5C0.2,9.3,0,9.6,0,10s0.2,0.7,0.5,0.9l9,5
	C9.7,16,9.8,16,10,16s0.3,0,0.5-0.1l9-5c0.3-0.2,0.5-0.5,0.5-0.9S19.8,9.3,19.5,9.1z M17.6,10.7l-7.2,4c-0.2,0.1-0.2,0.1-0.4,0.1
	s-0.2,0-0.4-0.1l-7.2-4C2.2,10.6,2,10.3,2,10s0.2-0.6,0.4-0.7l7.2-4C9.8,5.2,9.8,5.2,10,5.2s0.2,0,0.4,0.1l7.2,4
	C17.8,9.4,18,9.7,18,10S17.8,10.6,17.6,10.7z"/>
</svg>
