<svg xmlns="http://www.w3.org/2000/svg" viewBox="0 0 20 20">
  <path d="M8.143 14.644 7.028 17.43c.919.368 1.922.57 2.972.57s2.053-.202 2.972-.57l-1.115-2.786A5 5 0 0 1 10 15a5 5 0 0 1-1.857-.356m-2.787-2.787A5 5 0 0 1 5 10c0-.656.126-1.283.356-1.857L2.57 7.028A8 8 0 0 0 2 10c0 1.05.202 2.053.57 2.972zm2.787-6.5A5 5 0 0 1 10 5c.656 0 1.283.126 1.857.356l1.115-2.786A8 8 0 0 0 10 2c-1.05 0-2.053.202-2.972.57zm6.5 2.786c.23.574.357 1.2.357 1.857 0 .656-.126 1.283-.356 1.857l2.786 1.115c.368-.919.57-1.922.57-2.972s-.202-2.053-.57-2.972zM10 13a3 3 0 1 0 0-6 3 3 0 0 0 0 6m0 7C4.477 20 0 15.523 0 10S4.477 0 10 0s10 4.477 10 10-4.477 10-10 10"/>
</svg>
