<svg xmlns="http://www.w3.org/2000/svg" viewBox="0 0 20 20">
  <path d="M9.988 2h-7.99A1 1 0 0 0 1 3v13h1.74a.52.52 0 0 0 .412-.21c2.325-3.051 4.623-1.437 5.684-.008.1.134.254.218.42.218h.488c.154 0 .301-.074.399-.194 2.576-3.142 4.762-1.491 5.687-.058a.53.53 0 0 0 .444.252h2.496a.5.5 0 0 0 .353-.854L17.978 14c3.495-3 1.997-5.667-.999-7V5l1.145-1.146A.5.5 0 0 0 17.771 3H14.19a.5.5 0 0 0-.353.854L14.982 5v2h-3.995V3a1 1 0 0 0-.999-1m-6.99 2h2.995v5H2.997zM8.99 4H6.992v5H8.99z"/>
  <path d="M5.993 19a2 2 0 0 0 1.998-2 1.999 1.999 0 1 0-3.995 0c0 1.105.894 2 1.997 2m0-1a1 1 0 1 0 0-1.999 1 1 0 0 0 0 1.999M12.984 19a2 2 0 0 0 1.998-2 1.999 1.999 0 1 0-3.995 0c0 1.105.894 2 1.997 2m0-1a1 1 0 1 0 0-1.999 1 1 0 0 0 0 1.999"/>
</svg>
