<svg xmlns="http://www.w3.org/2000/svg" viewBox="0 0 20 20">
  <path d="M9.988 2a1 1 0 0 1 .999 1v4h3.995V5l-1.145-1.146A.5.5 0 0 1 14.19 3h3.581a.5.5 0 0 1 .353.854L16.979 5v2c2.996 1.333 4.494 4 .999 7l1.145 1.146a.5.5 0 0 1-.353.854h-2.496a.53.53 0 0 1-.444-.252c-.925-1.433-3.111-3.084-5.687.058a.52.52 0 0 1-.399.194h-.488a.53.53 0 0 1-.42-.218c-1.061-1.429-3.359-3.043-5.684.008a.52.52 0 0 1-.412.21H1V3a1 1 0 0 1 .998-1zm-6.99 2-.001 5h2.996V4zM8.99 4H6.992v5H8.99z"/>
  <path d="M5.993 19a2 2 0 0 1-1.997-2 1.999 1.999 0 1 1 3.995 0 2 2 0 0 1-1.998 2m0-1a1.001 1.001 0 1 0 .063-2.001A1.001 1.001 0 0 0 5.993 18m6.991 1a2 2 0 0 1-1.997-2 1.999 1.999 0 1 1 3.995 0 2 2 0 0 1-1.998 2m0-1a1.001 1.001 0 0 0 .392-1.932 1.001 1.001 0 0 0-1.079 1.628 1 1 0 0 0 .687.304"/>
</svg>
