<svg xmlns="http://www.w3.org/2000/svg" viewBox="0 0 20 20">
  <path d="M17 6a1 1 0 1 0 0-2 1 1 0 0 0 0 2m0 2a3 3 0 0 1-2.73-1.754 4 4 0 0 0-.617.264c-.884.465-1.92 1.418-2.605 3.49.685 2.072 1.721 3.025 2.605 3.49q.315.164.617.264a3 3 0 1 1-.165 2.034 6.3 6.3 0 0 1-1.383-.528c-.983-.518-1.948-1.364-2.722-2.705-.774 1.34-1.739 2.187-2.722 2.705a6.3 6.3 0 0 1-1.383.528A3 3 0 0 1 0 15a3 3 0 0 1 5.73-1.246q.302-.1.617-.264c.884-.465 1.92-1.418 2.605-3.49-.685-2.072-1.721-3.025-2.605-3.49a4 4 0 0 0-.617-.264 3 3 0 1 1 .165-2.034c.433.11.904.276 1.383.528.983.518 1.948 1.364 2.722 2.705.774-1.34 1.739-2.187 2.722-2.705a6.3 6.3 0 0 1 1.383-.528A3 3 0 0 1 20 5a3 3 0 0 1-3 3M4 5a1 1 0 1 0-2 0 1 1 0 0 0 2 0m12 10a1 1 0 1 0 2 0 1 1 0 0 0-2 0M3 14a1 1 0 1 0 0 2 1 1 0 0 0 0-2"/>
</svg>
