<svg xmlns="http://www.w3.org/2000/svg" viewBox="0 0 20 20">
  <path d="M3 2a1 1 0 1 0 0 2 1 1 0 0 0 0-2m0 4a3 3 0 1 1 2.838-3.976c.633.042 1.491.158 2.347.476 1.402.523 2.868 1.625 3.296 3.807.259 1.318 1.085 1.966 2.032 2.318q.353.132.722.21a3 3 0 1 1 0 2.33c-.238.052-.482.12-.722.21-.947.352-1.773 1-2.032 2.318-.429 2.182-1.894 3.284-3.296 3.807-.856.318-1.714.434-2.347.476a3.001 3.001 0 1 1-.019-2.004 6.2 6.2 0 0 0 1.668-.347c.947-.352 1.773-1 2.032-2.318.323-1.644 1.234-2.675 2.264-3.307-1.03-.632-1.941-1.663-2.264-3.307-.259-1.318-1.085-1.966-2.032-2.318a6.2 6.2 0 0 0-1.667-.347A3 3 0 0 1 3 6m13 4a1 1 0 1 0 2 0 1 1 0 0 0-2 0M2 17a1 1 0 1 0 2 0 1 1 0 0 0-2 0"/>
</svg>
