<svg width="20" height="20" viewBox="0 0 20 20" fill="none" xmlns="http://www.w3.org/2000/svg">
<path fill-rule="evenodd" clip-rule="evenodd" d="M12 4C12 4.6 12.4 5 13 5H15V7C15 7.6 15.4 8 16 8C16.5 8 17 7.6 17 7V5H19C19.5 5 20 4.6 20 4C20 3.4 19.5 3 19 3H17V1C17 0.4 16.5 0 16 0C15.4 0 15 0.4 15 1V3H13C12.4 3 12 3.5 12 4Z" fill="black"/>
<path d="M15.7956 9.99361C14.7451 12.8624 12.8222 15.307 10 17.3677V2.65153C10 1.5 10 2 10 0C6 2.85714 3 4.28571 1 4.28571C1 10.9524 4 16.1905 10 20C14.6339 17.0578 17.4784 13.2635 18.5335 8.61707C17.9688 9.49072 16.9724 10 16 10C15.9321 10 15.8639 9.99789 15.7956 9.99361Z" fill="black"/>
</svg>
