<svg xmlns="http://www.w3.org/2000/svg" viewBox="0 0 20 20">
  <path d="M17 3H19C19.5523 3 20 3.44772 20 4C20 4.55228 19.5523 5 19 5H17V7C17 7.55228 16.5523 8 16 8C15.4477 8 15 7.55228 15 7V5H13C12.4477 5 12 4.55228 12 4C12 3.44772 12.4477 3 13 3H15V1C15 0.447715 15.4477 0 16 0C16.5523 0 17 0.447715 17 1V3ZM15.7482 8.98431L10.5 11.9C10.3 12 10.2 12 10 12C9.8 12 9.7 12 9.5 11.9L0.5 6.9C0.2 6.7 0 6.4 0 6C0 5.6 0.2 5.3 0.5 5.1L9.5 0.1C9.7 0 9.8 0 10 0C10.2 0 10.3 0 10.5 0.1L13.92 2H13C11.8954 2 11 2.89543 11 4C11 5.10457 11.8954 6 13 6H14V7C14 8.0193 14.7625 8.86051 15.7482 8.98431ZM17.8182 7.83434C17.9349 7.58039 18 7.2978 18 7V6H19C19.3526 6 19.6839 5.90875 19.9716 5.74857C19.9902 5.82746 20 5.91127 20 6C20 6.4 19.8 6.7 19.5 6.9L17.8182 7.83434ZM19 9C19.6 9 20 9.4 20 10C20 10.4 19.8 10.7 19.5 10.9L10.5 15.9C10.3 16 10.2 16 10 16C9.8 16 9.7 16 9.5 15.9L0.5 10.9C0.2 10.7 0 10.4 0 10C0 9.4 0.4 9 1 9C1.2 9 1.3 9 1.5 9.1L10 13.9L18.5 9.1C18.7 9 18.8 9 19 9ZM19 13C19.6 13 20 13.4 20 14C20 14.4 19.8 14.7 19.5 14.9L10.5 19.9C10.3 20 10.2 20 10 20C9.8 20 9.7 20 9.5 19.9L0.5 14.9C0.2 14.7 0 14.4 0 14C0 13.4 0.4 13 1 13C1.2 13 1.3 13 1.5 13.2L10 17.9L18.5 13.1C18.7 13 18.8 13 19 13Z" />
</svg>
