<svg xmlns="http://www.w3.org/2000/svg" viewBox="0 0 20 20">
  <path d="M12 18c0 1.1-.9 2-2 2s-2-.9-2-2zM10 0c.476 0 .914.168 1.258.448Q10.133 1.093 10 2.5q-.2 2.1 1.6 2.9Q10 7.2 10 8v1.2a2.8 2.8 0 0 0 2.8 2.8H16v2c0 .51.388.935.884.993L17 15c.55 0 1 .45 1 1s-.45 1-1 1H3c-.55 0-1-.45-1-1s.45-1 1-1 1-.45 1-1V8c0-2.61 1.67-4.81 4-5.63V2c0-1.1.9-2 2-2"/>
  <path d="M18 9.25v-.395a.75.75 0 0 0-.75-.75h-2.812L17.834 3.9A.75.75 0 0 0 18 3.43v-.68a.75.75 0 0 0-.75-.75h-4.5a.75.75 0 0 0-.75.75v.184c0 .414.336.75.75.75h2.813L12.22 7.831a1 1 0 0 0-.221.627v.792c0 .414.336.75.75.75h4.5a.75.75 0 0 0 .75-.75"/>
</svg>
