<svg xmlns="http://www.w3.org/2000/svg" viewBox="0 0 20 20">
  <path d="M2.39 5.75c-.17.21-.38.39-.63.52s-.52.23-.83.29c-.3.05-.61.08-.93.08v1.24h2.49V15h1.49V4.98H2.73c-.05.31-.17.57-.34.77m17.2 4.71c-.27-.44-.65-.71-1.14-.82v-.02c.42-.16.72-.43.92-.79s.29-.79.29-1.27c0-.42-.08-.8-.23-1.12-.15-.33-.36-.59-.62-.8q-.39-.315-.87-.48c-.32-.11-.65-.16-.98-.16-.43 0-.82.08-1.16.25q-.51.24-.87.69c-.24.29-.43.64-.57 1.04s-.22.83-.23 1.3h1.39c-.01-.25.02-.49.07-.72.06-.23.14-.44.26-.63q.18-.285.45-.45c.18-.11.39-.17.63-.17.39 0 .71.12.96.37s.37.58.37.99c0 .29-.05.54-.16.74s-.25.36-.43.47-.38.19-.61.24-.46.06-.68.05v1.17q.42-.015.81.03c.26.03.5.1.71.21s.38.28.51.5.2.52.2.89c0 .55-.16.97-.47 1.27q-.465.45-1.17.45c-.55 0-.95-.19-1.23-.58-.27-.39-.4-.88-.38-1.46h-1.39q.015.75.21 1.38c.13.41.32.77.57 1.06s.56.52.93.68.8.24 1.3.24c.41 0 .79-.07 1.16-.21s.69-.33.96-.58c.28-.25.5-.56.66-.92a3 3 0 0 0 .24-1.23c0-.64-.14-1.17-.41-1.61M8.58 12.41c.21-.18.45-.36.7-.53.25-.18.5-.36.75-.56s.49-.41.73-.63c.23-.22.44-.47.63-.74.18-.27.33-.56.44-.88s.16-.67.16-1.07c0-.32-.05-.65-.14-1s-.25-.68-.47-.97c-.22-.3-.51-.55-.87-.74-.36-.2-.81-.29-1.35-.29-.49 0-.93.1-1.3.29-.37.18-.69.44-.95.78-.26.33-.45.73-.58 1.2-.13.46-.2.96-.2 1.5h1.43c.01-.35.04-.67.09-.97s.14-.56.25-.78.26-.39.45-.52.43-.19.71-.19q.465 0 .75.18c.19.12.34.26.45.43s.18.36.22.56q.06.3.06.57c-.01.38-.1.72-.26 1.02-.15.3-.37.57-.63.83-.26.25-.54.49-.85.71s-.61.45-.89.68c-.6.45-1.06.98-1.41 1.58-.35.61-.52 1.32-.53 2.13h6.01v-1.43H7.69c.06-.21.17-.42.33-.61s.34-.38.56-.55"/>
</svg>
