<svg width="20" height="20" viewBox="0 0 20 20" fill="none" xmlns="http://www.w3.org/2000/svg">
<path d="M2 10C2 10.2652 2.10536 10.5196 2.29289 10.7071C2.48043 10.8946 2.73478 11 3 11C3.26522 11 3.51957 10.8946 3.70711 10.7071C3.89464 10.5196 4 10.2652 4 10C4 9.73478 3.89464 9.48043 3.70711 9.29289C3.51957 9.10536 3.26522 9 3 9C2.73478 9 2.48043 9.10536 2.29289 9.29289C2.10536 9.48043 2 9.73478 2 10ZM5.83 9H14.17C14.4059 8.33251 14.8702 7.76991 15.4808 7.41164C16.0914 7.05337 16.809 6.92251 17.5068 7.04219C18.2046 7.16186 18.8375 7.52437 19.2939 8.06563C19.7502 8.60689 20.0005 9.29205 20.0005 10C20.0005 10.708 19.7502 11.3931 19.2939 11.9344C18.8375 12.4756 18.2046 12.8381 17.5068 12.9578C16.809 13.0775 16.0914 12.9466 15.4808 12.5884C14.8702 12.2301 14.4059 11.6675 14.17 11H5.83C5.59409 11.6675 5.1298 12.2301 4.51919 12.5884C3.90858 12.9466 3.19098 13.0775 2.49321 12.9578C1.79545 12.8381 1.16246 12.4756 0.706126 11.9344C0.249796 11.3931 -0.000488281 10.708 -0.000488281 10C-0.000488281 9.29205 0.249796 8.60689 0.706126 8.06563C1.16246 7.52437 1.79545 7.16186 2.49321 7.04219C3.19098 6.92251 3.90858 7.05337 4.51919 7.41164C5.1298 7.76991 5.59409 8.33251 5.83 9ZM17 9C16.7348 9 16.4804 9.10536 16.2929 9.29289C16.1054 9.48043 16 9.73478 16 10C16 10.2652 16.1054 10.5196 16.2929 10.7071C16.4804 10.8946 16.7348 11 17 11C17.2652 11 17.5196 10.8946 17.7071 10.7071C17.8946 10.5196 18 10.2652 18 10C18 9.73478 17.8946 9.48043 17.7071 9.29289C17.5196 9.10536 17.2652 9 17 9Z" fill="black"/>
</svg>
