<svg width="20" height="20" viewBox="0 0 20 20" fill="none" xmlns="http://www.w3.org/2000/svg">
<path fill-rule="evenodd" clip-rule="evenodd" d="M4 1H18C18.55 1 19 1.45 19 2V15C19 15.55 18.55 16 18 16H10V14H17V4H5V10H3V2C3 1.45 3.45 1 4 1ZM6.5 6H13.5C13.78 6 14 5.78 14 5.5C14 5.22 13.78 5 13.5 5H6.5C6.22 5 6 5.22 6 5.5C6 5.78 6.22 6 6.5 6ZM6.5 8H9.5C9.78 8 10 7.78 10 7.5C10 7.22 9.78 7 9.5 7H6.5C6.22 7 6 7.22 6 7.5C6 7.78 6.22 8 6.5 8ZM11.5 10H6.5C6.22 10 6 9.78 6 9.5C6 9.22 6.22 9 6.5 9H11.5C11.78 9 12 9.22 12 9.5C12 9.78 11.78 10 11.5 10ZM7 17C7 17.55 7.45 18 8 18C8.55 18 9 17.55 9 17V12C9 11.45 8.55 11 8 11H3C2.45 11 2 11.45 2 12C2 12.55 2.45 13 3 13H5.59L0.3 18.29C0.11 18.47 0 18.72 0 19C0 19.55 0.45 20 1 20C1.28 20 1.53 19.89 1.71 19.71L7 14.41V17Z" fill="black"/>
</svg>
