<svg xmlns="http://www.w3.org/2000/svg" viewBox="0 0 20 20">
  <path d="M12 1c.55 0 1 .45 1 1v2H6V2c0-.55.45-1 1-1h.78a1.98 1.98 0 0 1 3.44 0z"/>
  <path d="M14 2h2c.55 0 1 .45 1 1v16c0 .55-.45 1-1 1H3c-.55 0-1-.45-1-1V3c0-.55.45-1 1-1h2v3h9zm-.069 12.492c-.387.531-.68.856-.857.983a.8.8 0 0 1-.44.118c-.199 0-.398-.118-.596-.364-.325-.412-.765-1.563-1.32-3.442.492-.836.9-1.387 1.246-1.643a1.25 1.25 0 0 1 .774-.285c.105 0 .293.039.555.108.272.069.502.108.712.108a.98.98 0 0 0 .711-.285q.283-.28.283-.738c0-.324-.094-.57-.283-.757s-.46-.285-.816-.285c-.314 0-.617.068-.9.216s-.638.463-1.068.954c-.324.364-.806 1.004-1.434 1.909A9.2 9.2 0 0 0 9.2 8l-3.389.58-.063.354a3.4 3.4 0 0 1 .638-.068 1.01 1.01 0 0 1 .838.423c.345.442.837 1.77 1.454 4.002-.492.63-.816 1.043-1.004 1.24-.293.315-.545.522-.733.61a1.05 1.05 0 0 1-.502.108c-.147 0-.377-.078-.702-.226a1.5 1.5 0 0 0-.596-.148 1.15 1.15 0 0 0-.817.315 1.04 1.04 0 0 0-.324.787.98.98 0 0 0 .293.738c.199.187.461.285.796.285a2.2 2.2 0 0 0 .91-.197c.283-.128.638-.413 1.067-.846.43-.432 1.026-1.111 1.78-2.045.293.885.543 1.534.753 1.937s.461.698.733.876q.41.265 1.036.265.597.001 1.225-.422c.565-.355 1.12-.984 1.685-1.88l-.346-.196"/>
</svg>
