<svg xmlns="http://www.w3.org/2000/svg" viewBox="0 0 20 20">
  <path d="M12 1c.55 0 1 .45 1 1v2H6V2c0-.55.45-1 1-1h.78a1.98 1.98 0 0 1 3.44 0z"/>
  <path d="M14 2h2c.55 0 1 .45 1 1v16c0 .55-.45 1-1 1H3c-.55 0-1-.45-1-1V3c0-.55.45-1 1-1h2v3h9zm-.068 12.492.346.196c-.565.896-1.12 1.525-1.685 1.88q-.628.424-1.225.422-.627 0-1.036-.265c-.272-.178-.523-.473-.733-.876s-.46-1.052-.753-1.937c-.754.934-1.35 1.613-1.78 2.045-.429.433-.784.718-1.067.846a2.2 2.2 0 0 1-.91.197c-.335 0-.597-.098-.796-.285A.98.98 0 0 1 4 15.977c0-.315.105-.58.324-.787a1.15 1.15 0 0 1 .817-.315q.267 0 .596.148c.325.148.555.226.702.226.188 0 .355-.03.502-.108.188-.088.44-.295.733-.61.188-.197.512-.61 1.004-1.24-.617-2.232-1.109-3.56-1.454-4.002a1.01 1.01 0 0 0-.838-.423c-.178 0-.387.02-.638.068l.063-.354L9.2 8a9.2 9.2 0 0 1 1.298 3.089c.628-.905 1.11-1.545 1.434-1.909.43-.491.785-.806 1.068-.954s.586-.216.9-.216c.356 0 .628.098.816.285.189.187.283.433.283.757q0 .457-.283.738a.98.98 0 0 1-.711.285c-.21 0-.44-.039-.712-.108-.262-.069-.45-.108-.555-.108-.272 0-.534.098-.774.285-.346.256-.754.807-1.246 1.643.555 1.879.995 3.03 1.32 3.442.198.246.397.364.596.364a.8.8 0 0 0 .44-.118c.177-.127.47-.452.857-.983"/>
</svg>
