<svg xmlns="http://www.w3.org/2000/svg" viewBox="0 0 20 20">
  <path d="M19.845 15.51c-.08-.08-4.206-2.5-4.346-2.57a.9.9 0 0 0-.4-.1c-.189 0-.419.13-.709.4-.28.27-1.168 1.49-1.428 1.76s-.48.4-.65.4c-.08 0-.19-.02-.319-.07-.13-.05-1.449-.73-4.196-3.15s-3.107-4-3.127-4.44c0-.17.13-.39.4-.65.28-.25.57-.51.89-.74q.476-.36.878-.78c.27-.28.4-.52.4-.71 0-.13-.03-.27-.1-.4C7.068 4.32 4.57.19 4.48.1c-.19-.18-.92-.1-1.289.1C.205 1.82-.045 4 .005 4.86c.05.89.61 5.58 5.195 9.93 5.694 5.41 9.65 5.2 9.91 5.2.869 0 3.516-.48 4.645-3.19.16-.38.31-1.07.09-1.29M11 2c-.6 0-1-.4-1-1s.4-1 1-1c5 0 9 4 9 9 0 .6-.4 1-1 1s-1-.4-1-1c0-3.9-3.1-7-7-7"/>
  <path d="M11 6c-.6 0-1-.4-1-1s.4-1 1-1c2.8 0 5 2.2 5 5 0 .6-.4 1-1 1s-1-.4-1-1c0-1.7-1.3-3-3-3"/>
</svg>
