<?xml version="1.0" encoding="utf-8"?>
<!-- Generator: Adobe Illustrator 17.1.0, SVG Export Plug-In . SVG Version: 6.00 Build 0)  -->
<!DOCTYPE svg PUBLIC "-//W3C//DTD SVG 1.1//EN" "http://www.w3.org/Graphics/SVG/1.1/DTD/svg11.dtd">
<svg version="1.1" id="Layer_1" xmlns="http://www.w3.org/2000/svg" xmlns:xlink="http://www.w3.org/1999/xlink" x="0px" y="0px"
	 viewBox="0 0 20 20" enable-background="new 0 0 20 20" xml:space="preserve">
<g id="sort_aphabetical">
	<g>
		<path fill-rule="evenodd" clip-rule="evenodd" d="M19,12.99c-0.28,0-0.53,0.11-0.71,0.29L16,15.58V1.99c0-0.55-0.45-1-1-1
			s-1,0.45-1,1v13.59l-2.29-2.29c-0.18-0.18-0.43-0.29-0.71-0.29c-0.55,0-1,0.45-1,1c0,0.28,0.11,0.53,0.29,0.71l4,4
			c0.18,0.18,0.43,0.29,0.71,0.29s0.53-0.11,0.71-0.29l4-4c0.18-0.18,0.29-0.43,0.29-0.71C20,13.44,19.55,12.99,19,12.99z
			 M7.86,12.07V11H0.45v1.21h5.24l-5.68,5.65v1.14H8v-1.21H2.18L7.86,12.07z M2.3,6.88h3.34L6.43,9H8L4.77,0.99H3.21L0,9h1.51
			L2.3,6.88z M3.97,2.37H4l1.25,3.44H2.7L3.97,2.37z"/>
	</g>
</g>
</svg>
