<?xml version="1.0" encoding="utf-8"?>
<!-- Generator: Adobe Illustrator 18.1.0, SVG Export Plug-In . SVG Version: 6.00 Build 0)  -->
<svg version="1.1" id="Layer_1" xmlns="http://www.w3.org/2000/svg" xmlns:xlink="http://www.w3.org/1999/xlink" x="0px" y="0px"
	 viewBox="0 0 20 20" enable-background="new 0 0 20 20" xml:space="preserve">
<g id="sort_alphabetical_desc">
	<g>
		<path fill-rule="evenodd" clip-rule="evenodd" d="M10,3.98C10,3.99,10,3.99,10,3.98C10,4,10,4,10,4V3.98z M7.86,2.06V1H0.45v1.21
			h5.24L0.01,7.86V9H8V7.79H2.18L7.86,2.06z M19,12.99c-0.28,0-0.53,0.11-0.71,0.29L16,15.58V2c0-0.55-0.45-1-1-1
			c-0.55,0-1,0.45-1,1v13.58l-2.29-2.29c-0.18-0.18-0.43-0.29-0.71-0.29c-0.55,0-1,0.45-1,1c0,0.28,0.11,0.53,0.29,0.71l4,4
			c0.18,0.18,0.43,0.29,0.71,0.29c0.28,0,0.53-0.11,0.71-0.29l4-4c0.18-0.18,0.29-0.43,0.29-0.71C20,13.44,19.55,12.99,19,12.99z
			 M3.21,11L0,19h1.51l0.79-2.12h3.34L6.43,19H8l-3.22-8H3.21z M2.7,15.82l1.27-3.44H4l1.25,3.44H2.7z"/>
	</g>
</g>
</svg>
