<?xml version="1.0" encoding="utf-8"?>
<!-- Generator: Adobe Illustrator 17.1.0, SVG Export Plug-In . SVG Version: 6.00 Build 0)  -->
<!DOCTYPE svg PUBLIC "-//W3C//DTD SVG 1.1//EN" "http://www.w3.org/Graphics/SVG/1.1/DTD/svg11.dtd">
<svg version="1.1" id="Layer_1" xmlns="http://www.w3.org/2000/svg" xmlns:xlink="http://www.w3.org/1999/xlink" x="0px" y="0px"
	 viewBox="0 0 20 20" enable-background="new 0 0 20 20" xml:space="preserve">
<path d="M19.71,10.79L9.21,0.29C9.03,0.11,8.78,0,8.5,0H1C0.45,0,0,0.45,0,1v7.5c0,0.28,0.11,0.53,0.29,0.71l10.5,10.5
	C10.97,19.89,11.22,20,11.5,20s0.53-0.11,0.71-0.29l7.5-7.5C19.89,12.03,20,11.78,20,11.5C20,11.22,19.89,10.97,19.71,10.79z M5,7
	C3.9,7,3,6.1,3,5c0-1.1,0.9-2,2-2s2,0.9,2,2C7,6.1,6.1,7,5,7z"/>
</svg>
