<?xml version="1.0" encoding="utf-8"?>
<!-- Generator: Adobe Illustrator 17.1.0, SVG Export Plug-In . SVG Version: 6.00 Build 0)  -->
<!DOCTYPE svg PUBLIC "-//W3C//DTD SVG 1.1//EN" "http://www.w3.org/Graphics/SVG/1.1/DTD/svg11.dtd">
<svg version="1.1" id="Layer_1" xmlns="http://www.w3.org/2000/svg" xmlns:xlink="http://www.w3.org/1999/xlink" x="0px" y="0px"
	 viewBox="0 0 20 20" enable-background="new 0 0 20 20" xml:space="preserve">
<g id="sort_numerical_2_">
	<g>
		<path d="M2.73,9h1.26V0.99H3.05C3.01,1.24,2.93,1.44,2.8,1.61c-0.13,0.17-0.29,0.3-0.47,0.41C2.14,2.13,1.93,2.21,1.7,2.25
			C1.47,2.3,1.24,2.32,1,2.32v1.03h1.73V9z M18,13.01c-0.28,0-0.53,0.11-0.71,0.29L15,15.59V2.01c0-0.55-0.45-1-1-1s-1,0.45-1,1
			V15.6l-2.29-2.29c-0.18-0.18-0.43-0.29-0.71-0.29c-0.55,0-1,0.45-1,1c0,0.28,0.11,0.53,0.29,0.71l4,4
			c0.18,0.18,0.43,0.29,0.71,0.29s0.53-0.11,0.71-0.29l4-4C18.89,14.55,19,14.3,19,14.02C19,13.45,18.55,13.01,18,13.01z
			 M5.38,12.19c-0.22-0.36-0.53-0.65-0.93-0.86c-0.39-0.21-0.89-0.31-1.5-0.31c-0.47,0-0.88,0.07-1.25,0.2s-0.68,0.32-0.93,0.55
			c-0.25,0.24-0.45,0.52-0.58,0.83c-0.13,0.32-0.2,0.66-0.2,1.04c0,0.39,0.07,0.75,0.2,1.07s0.31,0.59,0.55,0.81s0.52,0.4,0.85,0.52
			c0.33,0.12,0.7,0.19,1.11,0.19c0.39,0,0.75-0.08,1.08-0.24s0.58-0.39,0.77-0.69l0.02,0.02c-0.02,0.26-0.06,0.54-0.1,0.84
			c-0.05,0.3-0.13,0.59-0.25,0.86s-0.3,0.49-0.52,0.67c-0.22,0.18-0.53,0.27-0.9,0.27s-0.66-0.1-0.88-0.29s-0.34-0.45-0.37-0.76
			h-1.4c0.02,0.31,0.1,0.6,0.25,0.86s0.34,0.48,0.57,0.66s0.5,0.33,0.8,0.43C2.08,18.95,2.4,19,2.75,19c0.61,0,1.11-0.12,1.53-0.36
			c0.41-0.24,0.75-0.55,1-0.94c0.25-0.38,0.44-0.81,0.55-1.28C5.94,15.95,6,15.49,6,15.03c0-0.56-0.05-1.08-0.13-1.57
			C5.76,12.98,5.6,12.55,5.38,12.19z M4.35,14.24c-0.07,0.19-0.16,0.37-0.29,0.52c-0.13,0.15-0.29,0.27-0.48,0.36
			s-0.43,0.13-0.69,0.13c-0.25,0-0.47-0.05-0.66-0.14s-0.34-0.21-0.47-0.36c-0.12-0.15-0.21-0.32-0.28-0.51
			c-0.06-0.19-0.09-0.4-0.09-0.61c0-0.2,0.03-0.4,0.09-0.59c0.06-0.19,0.15-0.36,0.28-0.5c0.12-0.15,0.28-0.26,0.47-0.35
			c0.19-0.08,0.41-0.13,0.66-0.13c0.26,0,0.49,0.04,0.69,0.13c0.2,0.09,0.36,0.2,0.48,0.35c0.13,0.14,0.22,0.31,0.29,0.5
			s0.1,0.39,0.1,0.59C4.45,13.84,4.42,14.04,4.35,14.24z"/>
	</g>
</g>
</svg>
