<?xml version="1.0" encoding="utf-8"?>
<!-- Generator: Adobe Illustrator 18.0.0, SVG Export Plug-In . SVG Version: 6.00 Build 0)  -->
<svg version="1.1" id="Layer_1" xmlns="http://www.w3.org/2000/svg" xmlns:xlink="http://www.w3.org/1999/xlink" x="0px" y="0px"
	 viewBox="0 0 20 20" enable-background="new 0 0 20 20" xml:space="preserve">
<g id="italics_1_">
	<g>
		<path fill-rule="evenodd" clip-rule="evenodd" d="M15,0H9C8.45,0,8,0.45,8,1c0,0.55,0.45,1,1,1h2L7,18H5c-0.55,0-1,0.45-1,1
			c0,0.55,0.45,1,1,1h6c0.55,0,1-0.45,1-1c0-0.55-0.45-1-1-1H9l4-16h2c0.55,0,1-0.45,1-1C16,0.45,15.55,0,15,0z"/>
	</g>
</g>
</svg>
