<?xml version="1.0" encoding="utf-8"?>
<!-- Generator: Adobe Illustrator 17.1.0, SVG Export Plug-In . SVG Version: 6.00 Build 0)  -->
<!DOCTYPE svg PUBLIC "-//W3C//DTD SVG 1.1//EN" "http://www.w3.org/Graphics/SVG/1.1/DTD/svg11.dtd">
<svg version="1.1" id="Layer_1" xmlns="http://www.w3.org/2000/svg" xmlns:xlink="http://www.w3.org/1999/xlink" x="0px" y="0px"
	 viewBox="0 0 20 20" enable-background="new 0 0 20 20" xml:space="preserve">
<g id="people_2_">
	<g>
		<path fill-rule="evenodd" clip-rule="evenodd" d="M11.54,13.92c-1.48-0.65-1.28-1.05-1.33-1.59c-0.01-0.07-0.01-0.15-0.01-0.23
			c0.51-0.45,0.92-1.07,1.19-1.78c0,0,0.01-0.04,0.02-0.05c0.06-0.15,0.11-0.32,0.15-0.48c0.34-0.07,0.54-0.44,0.61-0.78
			c0.08-0.14,0.23-0.48,0.2-0.87c-0.05-0.5-0.25-0.73-0.47-0.82c0-0.03,0-0.06,0-0.09c0-0.63-0.06-1.55-0.17-2.15
			c-0.02-0.17-0.06-0.33-0.11-0.5c-0.22-0.73-0.67-1.39-1.29-1.86C9.69,2.25,8.8,2,8.01,2S6.33,2.25,5.7,2.73
			C5.09,3.2,4.63,3.86,4.41,4.59C4.37,4.76,4.33,4.92,4.3,5.09C4.19,5.69,4.13,6.6,4.13,7.23c0,0.03,0,0.05,0,0.08
			C3.9,7.4,3.69,7.63,3.64,8.14C3.6,8.53,3.76,8.87,3.84,9.01c0.08,0.35,0.28,0.72,0.63,0.78c0.04,0.17,0.09,0.33,0.15,0.48
			c0,0.01,0.01,0.02,0.01,0.03l0.01,0.01c0.27,0.72,0.7,1.35,1.22,1.8c0,0.07-0.01,0.14-0.01,0.21c-0.05,0.54,0.1,0.94-1.38,1.59
			c-1.48,0.65-3.7,1.35-4.16,2.4C-0.15,17.38,0.03,18,0.03,18h15.94c0,0,0.18-0.62-0.27-1.67C15.24,15.27,13.02,14.58,11.54,13.92z
			 M19.77,16.75c-0.34-0.79-2.01-1.31-3.12-1.8c-1.11-0.49-0.96-0.79-1-1.2c-0.01-0.06-0.01-0.12-0.01-0.18
			c0.38-0.34,0.69-0.8,0.89-1.33c0,0,0.01-0.03,0.01-0.04c0.04-0.12,0.08-0.24,0.11-0.36c0.25-0.05,0.4-0.33,0.46-0.59
			c0.06-0.1,0.18-0.36,0.15-0.65c-0.04-0.37-0.19-0.55-0.35-0.62c0-0.02,0-0.04,0-0.06c0-0.48-0.04-1.16-0.13-1.61
			c-0.02-0.12-0.05-0.25-0.08-0.37c-0.16-0.55-0.51-1.05-0.96-1.39C15.27,6.19,14.6,6,14.01,6c-0.38,0-0.78,0.11-1.15,0.26
			c0.02,0.35,0.04,0.69,0.04,0.97c0,0.03,0,0.06,0,0.09c0.23,0.1,0.43,0.33,0.47,0.82c0.04,0.39-0.12,0.73-0.2,0.87
			c-0.08,0.34-0.27,0.71-0.61,0.78c-0.04,0.16-0.09,0.33-0.15,0.48c0,0.01-0.02,0.05-0.02,0.05c-0.24,0.62-0.6,1.15-1.02,1.58
			c0.03,0.1,0.06,0.21,0.1,0.31c0,0.01,0.01,0.02,0.01,0.02l0,0.01c0.21,0.54,0.52,1.01,0.91,1.35c0,0.05-0.01,0.11-0.01,0.16
			c0,0.03,0,0.06-0.01,0.09c0.06,0.03,0.1,0.05,0.17,0.08c1.48,0.65,3.7,1.35,4.16,2.4c0.46,1.05,0.27,1.67,0.27,1.67h3
			C19.98,18,20.11,17.54,19.77,16.75z"/>
	</g>
</g>
</svg>
