<?xml version="1.0" encoding="utf-8"?>
<!-- Generator: Adobe Illustrator 18.0.0, SVG Export Plug-In . SVG Version: 6.00 Build 0)  -->
<svg version="1.1" id="Layer_1" xmlns="http://www.w3.org/2000/svg" xmlns:xlink="http://www.w3.org/1999/xlink" x="0px" y="0px"
	 viewBox="0 0 20 20" enable-background="new 0 0 20 20" xml:space="preserve">
<g id="linkedin">
	<g>
		<path fill-rule="evenodd" clip-rule="evenodd" d="M0.5,18.99h3.9V6.77H0.5V18.99z M15.05,6.65c-2.23,0-3.63,1.2-3.89,2.04V6.77
			H6.78c0.06,1.02,0,12.22,0,12.22h4.38v-6.61c0-0.37-0.02-0.73,0.1-1c0.3-0.73,0.95-1.5,2.11-1.5c1.52,0,2.21,1.13,2.21,2.78v6.32
			H20v-6.79C20,8.41,17.82,6.65,15.05,6.65z M2.38,1C0.94,1,0,1.91,0,3.12c0,1.18,0.91,2.12,2.33,2.12h0.03
			c1.47,0,2.38-0.94,2.38-2.12C4.7,1.91,3.82,1,2.38,1z"/>
	</g>
</g>
</svg>
