<?xml version="1.0" encoding="utf-8"?>
<!-- Generator: Adobe Illustrator 18.0.0, SVG Export Plug-In . SVG Version: 6.00 Build 0)  -->
<svg version="1.1" id="Layer_1" xmlns="http://www.w3.org/2000/svg" xmlns:xlink="http://www.w3.org/1999/xlink" x="0px" y="0px"
	 viewBox="0 0 20 20" enable-background="new 0 0 20 20" xml:space="preserve">
<g id="instagram_4_">
	<g>
		<path fill-rule="evenodd" clip-rule="evenodd" d="M19.94,5.88c-0.05-1.06-0.22-1.79-0.46-2.43c-0.26-0.66-0.6-1.22-1.15-1.77
			s-1.11-0.9-1.77-1.15c-0.64-0.25-1.36-0.42-2.43-0.46C13.06,0.01,12.72,0,10,0S6.94,0.01,5.88,0.06C4.81,0.11,4.09,0.28,3.45,0.52
			c-0.66,0.26-1.22,0.6-1.77,1.15s-0.9,1.11-1.15,1.77C0.28,4.09,0.11,4.81,0.06,5.88C0.01,6.94,0,7.28,0,10
			c0,2.72,0.01,3.06,0.06,4.12c0.05,1.06,0.22,1.79,0.46,2.43c0.26,0.66,0.6,1.22,1.15,1.77s1.11,0.9,1.77,1.15
			c0.64,0.25,1.36,0.42,2.43,0.46C6.94,19.99,7.28,20,10,20s3.06-0.01,4.12-0.06c1.06-0.05,1.79-0.22,2.43-0.46
			c0.66-0.26,1.22-0.6,1.77-1.15s0.9-1.11,1.15-1.77c0.25-0.64,0.42-1.36,0.46-2.43C19.99,13.06,20,12.72,20,10
			C20,7.28,19.99,6.94,19.94,5.88z M18.14,14.04c-0.04,0.97-0.21,1.5-0.34,1.86c-0.18,0.47-0.4,0.8-0.75,1.15
			c-0.35,0.35-0.68,0.57-1.15,0.75c-0.35,0.14-0.88,0.3-1.86,0.34c-1.05,0.05-1.37,0.06-4.04,0.06s-2.99-0.01-4.04-0.06
			c-0.97-0.04-1.5-0.21-1.86-0.34c-0.47-0.18-0.8-0.4-1.15-0.75C2.6,16.7,2.39,16.36,2.2,15.9c-0.14-0.35-0.3-0.88-0.34-1.86
			C1.81,12.99,1.8,12.67,1.8,10s0.01-2.99,0.06-4.04C1.9,4.98,2.07,4.45,2.2,4.1c0.18-0.47,0.4-0.8,0.75-1.15
			C3.3,2.6,3.64,2.39,4.1,2.2c0.35-0.14,0.88-0.3,1.86-0.34C7.01,1.81,7.33,1.8,10,1.8s2.99,0.01,4.04,0.06
			c0.98,0.04,1.5,0.21,1.86,0.34c0.47,0.18,0.8,0.4,1.15,0.75C17.4,3.3,17.61,3.64,17.8,4.1c0.14,0.35,0.3,0.88,0.34,1.86
			C18.19,7.01,18.2,7.33,18.2,10S18.19,12.99,18.14,14.04z M10,4.86c-2.84,0-5.14,2.3-5.14,5.14c0,2.84,2.3,5.14,5.14,5.14
			s5.14-2.3,5.14-5.14C15.14,7.16,12.84,4.86,10,4.86z M10,13.33c-1.84,0-3.33-1.49-3.33-3.33c0-1.84,1.49-3.33,3.33-3.33
			c1.84,0,3.33,1.49,3.33,3.33C13.33,11.84,11.84,13.33,10,13.33z M15.34,3.46c-0.66,0-1.2,0.54-1.2,1.2c0,0.66,0.54,1.2,1.2,1.2
			c0.66,0,1.2-0.54,1.2-1.2C16.54,4,16,3.46,15.34,3.46z"/>
	</g>
</g>
</svg>
