<?xml version="1.0" encoding="utf-8"?>
<!-- Generator: Adobe Illustrator 17.1.0, SVG Export Plug-In . SVG Version: 6.00 Build 0)  -->
<!DOCTYPE svg PUBLIC "-//W3C//DTD SVG 1.1//EN" "http://www.w3.org/Graphics/SVG/1.1/DTD/svg11.dtd">
<svg version="1.1" id="Layer_1" xmlns="http://www.w3.org/2000/svg" xmlns:xlink="http://www.w3.org/1999/xlink" x="0px" y="0px"
	 viewBox="0 0 20 20" enable-background="new 0 0 20 20" xml:space="preserve">
<g id="property_1_">
	<g>
		<path fill-rule="evenodd" clip-rule="evenodd" d="M3,16c-1.1,0-2,0.9-2,2c0,1.1,0.9,2,2,2s2-0.9,2-2C5,16.9,4.1,16,3,16z M3,4
			c1.1,0,2-0.9,2-2c0-1.1-0.9-2-2-2S1,0.9,1,2C1,3.1,1.9,4,3,4z M8,3h11c0.55,0,1-0.45,1-1c0-0.55-0.45-1-1-1H8C7.45,1,7,1.45,7,2
			C7,2.55,7.45,3,8,3z M3,7c-1.66,0-3,1.34-3,3s1.34,3,3,3s3-1.34,3-3S4.66,7,3,7z M18,8H9c-1.1,0-2,0.9-2,2c0,1.1,0.9,2,2,2h9
			c1.1,0,2-0.9,2-2C20,8.9,19.1,8,18,8z M19,17H8c-0.55,0-1,0.45-1,1c0,0.55,0.45,1,1,1h11c0.55,0,1-0.45,1-1
			C20,17.45,19.55,17,19,17z"/>
	</g>
</g>
</svg>
