<?xml version="1.0" encoding="utf-8"?>
<!-- Generator: Adobe Illustrator 18.0.0, SVG Export Plug-In . SVG Version: 6.00 Build 0)  -->
<svg version="1.1" id="Layer_1" xmlns="http://www.w3.org/2000/svg" xmlns:xlink="http://www.w3.org/1999/xlink" x="0px" y="0px"
	 viewBox="0 0 20 20" enable-background="new 0 0 20 20" xml:space="preserve">
<g id="underline_5_">
	<g>
		<path fill-rule="evenodd" clip-rule="evenodd" d="M10,17c3.31,0,6-2.69,6-6V1c0-0.55-0.45-1-1-1s-1,0.45-1,1v10c0,2.21-1.79,4-4,4
			s-4-1.79-4-4V1c0-0.55-0.45-1-1-1S4,0.45,4,1v10C4,14.31,6.69,17,10,17z M16,18H4c-0.55,0-1,0.45-1,1c0,0.55,0.45,1,1,1h12
			c0.55,0,1-0.45,1-1C17,18.45,16.55,18,16,18z"/>
	</g>
</g>
</svg>
