<?xml version="1.0" encoding="utf-8"?>
<!-- Generator: Adobe Illustrator 18.0.0, SVG Export Plug-In . SVG Version: 6.00 Build 0)  -->
<svg version="1.1" id="Layer_1" xmlns="http://www.w3.org/2000/svg" xmlns:xlink="http://www.w3.org/1999/xlink" x="0px" y="0px"
	 viewBox="0 0 20 20" enable-background="new 0 0 20 20" xml:space="preserve">
<g id="twitter_1_">
	<g>
		<path fill-rule="evenodd" clip-rule="evenodd" d="M20,3.89c-0.74,0.32-1.53,0.54-2.36,0.64c0.85-0.5,1.5-1.29,1.8-2.23
			c-0.79,0.46-1.67,0.8-2.61,0.98C16.09,2.49,15.03,2,13.85,2c-2.27,0-4.1,1.81-4.1,4.04c0,0.32,0.04,0.62,0.11,0.92
			C6.44,6.79,3.42,5.18,1.39,2.74c-0.35,0.6-0.56,1.29-0.56,2.03c0,1.4,0.72,2.64,1.83,3.36C1.99,8.11,1.36,7.93,0.8,7.63
			c0,0.02,0,0.03,0,0.05c0,1.96,1.41,3.59,3.29,3.96c-0.34,0.09-0.71,0.14-1.08,0.14c-0.26,0-0.52-0.03-0.77-0.07
			c0.52,1.6,2.04,2.77,3.83,2.81c-1.4,1.08-3.17,1.73-5.1,1.73c-0.33,0-0.66-0.02-0.98-0.06C1.82,17.33,3.97,18,6.29,18
			c7.55,0,11.67-6.15,11.67-11.49c0-0.18,0-0.35-0.01-0.52C18.75,5.42,19.45,4.7,20,3.89z"/>
	</g>
</g>
</svg>
