<?xml version="1.0" encoding="utf-8"?>
<!-- Generator: Adobe Illustrator 18.0.0, SVG Export Plug-In . SVG Version: 6.00 Build 0)  -->
<svg version="1.1" id="Layer_1" xmlns="http://www.w3.org/2000/svg" xmlns:xlink="http://www.w3.org/1999/xlink" x="0px" y="0px"
	 viewBox="0 0 20 20" enable-background="new 0 0 20 20" xml:space="preserve">
<g id="google">
	<g>
		<path fill-rule="evenodd" clip-rule="evenodd" d="M18.89,8.03H9.62v3.96c0,0,3.7-0.01,5.21-0.01c-0.82,2.57-2.09,3.96-5.21,3.96
			c-3.16,0-5.63-2.66-5.63-5.94c0-3.28,2.47-5.94,5.63-5.94c1.67,0,2.75,0.61,3.74,1.46c0.79-0.82,0.73-0.94,2.75-2.91
			C14.4,1,12.12,0.02,9.62,0.02c-5.33,0-9.64,4.47-9.64,9.99c0,5.52,4.32,9.99,9.64,9.99C17.58,20,19.53,12.82,18.89,8.03z"/>
	</g>
</g>
</svg>
