<?xml version="1.0" encoding="utf-8"?>
<!-- Generator: Adobe Illustrator 17.1.0, SVG Export Plug-In . SVG Version: 6.00 Build 0)  -->
<!DOCTYPE svg PUBLIC "-//W3C//DTD SVG 1.1//EN" "http://www.w3.org/Graphics/SVG/1.1/DTD/svg11.dtd">
<svg version="1.1" id="Layer_1" xmlns="http://www.w3.org/2000/svg" xmlns:xlink="http://www.w3.org/1999/xlink" x="0px" y="0px"
	 viewBox="0 0 20 20" enable-background="new 0 0 20 20" xml:space="preserve">
<g id="timeline_bar_chart">
	<g>
		<path fill-rule="evenodd" clip-rule="evenodd" d="M9,15h2c0.55,0,1-0.45,1-1V3c0-0.55-0.45-1-1-1H9C8.45,2,8,2.45,8,3v11
			C8,14.55,8.45,15,9,15z M15,15h2c0.55,0,1-0.45,1-1V7c0-0.55-0.45-1-1-1h-2c-0.55,0-1,0.45-1,1v7C14,14.55,14.45,15,15,15z M3,15
			h2c0.55,0,1-0.45,1-1v-4c0-0.55-0.45-1-1-1H3c-0.55,0-1,0.45-1,1v4C2,14.55,2.45,15,3,15z M19,16H1c-0.55,0-1,0.45-1,1
			c0,0.55,0.45,1,1,1h18c0.55,0,1-0.45,1-1C20,16.45,19.55,16,19,16z"/>
	</g>
</g>
</svg>
