<?xml version="1.0" encoding="utf-8"?>
<!-- Generator: Adobe Illustrator 18.0.0, SVG Export Plug-In . SVG Version: 6.00 Build 0)  -->
<svg version="1.1" id="Layer_1" xmlns="http://www.w3.org/2000/svg" xmlns:xlink="http://www.w3.org/1999/xlink" x="0px" y="0px"
	 viewBox="0 0 20 20" enable-background="new 0 0 20 20" xml:space="preserve">
<g id="bold_1_">
	<g>
		<path fill-rule="evenodd" clip-rule="evenodd" d="M14.89,9.46C15.58,8.48,16,7.29,16,6c0-3.31-2.69-6-6-6H4C3.45,0,3,0.45,3,1v18
			c0,0.55,0.45,1,1,1h7c3.31,0,6-2.69,6-6C17,12.18,16.17,10.56,14.89,9.46z M7,4h3c1.1,0,2,0.9,2,2s-0.9,2-2,2H7V4z M11,16H7v-4h4
			c1.1,0,2,0.9,2,2S12.1,16,11,16z"/>
	</g>
</g>
</svg>
