<?xml version="1.0" encoding="utf-8"?>
<!-- Generator: Adobe Illustrator 18.0.0, SVG Export Plug-In . SVG Version: 6.00 Build 0)  -->
<svg version="1.1" id="Layer_1" xmlns="http://www.w3.org/2000/svg" xmlns:xlink="http://www.w3.org/1999/xlink" x="0px" y="0px"
	 viewBox="0 0 20 20" enable-background="new 0 0 20 20" xml:space="preserve">
<g id="kik_1_">
	<g>
		<path fill-rule="evenodd" clip-rule="evenodd" d="M18.85,9.89c-0.64,0-1.15,0.51-1.15,1.15c0,0.63,0.52,1.15,1.15,1.15
			c0.64,0,1.15-0.51,1.15-1.15C20,10.41,19.48,9.89,18.85,9.89z M9.57,8.78c0-0.01,0-0.02,0-0.03c0-0.58-0.46-1.05-1.03-1.05
			c-0.57,0-1.03,0.47-1.03,1.05c0,0.01,0,0.02,0,0.02l-0.01,0l0,5.19h0.01C7.51,14.54,7.97,15,8.54,15c0.56,0,1.02-0.46,1.03-1.03
			h0.01l0-5.18L9.57,8.78z M6.09,13.37L4.2,10.82l1.35-1.33L5.54,9.47c0.18-0.19,0.29-0.44,0.29-0.72c0-0.58-0.47-1.04-1.04-1.04
			c-0.31,0-0.58,0.13-0.77,0.34l0,0L2.09,9.93L2.08,6.1l-0.01,0c0-0.02,0-0.04,0-0.06C2.07,5.47,1.61,5,1.05,5
			C0.48,5,0.02,5.47,0.02,6.04c0,0.01,0,0.02,0,0.04L0,6.08l0,7.86l0.02,0c0,0.01,0,0.01,0,0.02c0,0.57,0.46,1.03,1.02,1.03
			c0.54,0,0.99-0.43,1.02-0.97l0.01,0v-1.36l0.53-0.49l1.72,2.3C4.5,14.79,4.83,15,5.21,15c0.57,0,1.03-0.47,1.03-1.05
			c0-0.21-0.06-0.41-0.17-0.57L6.09,13.37z M17.13,13.37l-1.89-2.55l1.35-1.33l-0.01-0.01c0.18-0.19,0.29-0.44,0.29-0.72
			c0-0.58-0.47-1.04-1.04-1.04c-0.31,0-0.58,0.13-0.77,0.34l0,0l-1.93,1.88L13.12,6.1l-0.01,0c0-0.02,0-0.04,0-0.06
			c0-0.58-0.46-1.04-1.02-1.04s-1.02,0.47-1.02,1.04c0,0.01,0,0.02,0,0.04l-0.02,0l0,7.86l0.02,0c0,0.01,0,0.01,0,0.02
			c0,0.57,0.46,1.03,1.02,1.03c0.54,0,0.99-0.43,1.02-0.97l0.01,0l0-1.36l0.53-0.49l1.72,2.3c0.18,0.31,0.51,0.52,0.89,0.52
			c0.57,0,1.03-0.47,1.03-1.05c0-0.21-0.06-0.41-0.17-0.57L17.13,13.37z"/>
	</g>
</g>
</svg>
