<?xml version="1.0" encoding="utf-8"?>
<!-- Generator: Adobe Illustrator 18.1.0, SVG Export Plug-In . SVG Version: 6.00 Build 0)  -->
<svg version="1.1" id="Layer_1" xmlns="http://www.w3.org/2000/svg" xmlns:xlink="http://www.w3.org/1999/xlink" x="0px" y="0px"
	 viewBox="0 0 20 20" enable-background="new 0 0 20 20" xml:space="preserve">
<g id="sort_numerical_desc">
	<g>
		<path fill-rule="evenodd" clip-rule="evenodd" d="M2.8,11.6c-0.13,0.17-0.29,0.3-0.47,0.41c-0.18,0.11-0.39,0.18-0.62,0.23
			C1.48,12.29,1.24,12.31,1,12.31v1.03h1.73v5.65h1.26v-8H3.05C3.01,11.23,2.93,11.44,2.8,11.6z M18,12.99
			c-0.28,0-0.53,0.11-0.71,0.29L15,15.58V2c0-0.55-0.45-1-1-1c-0.55,0-1,0.45-1,1v13.58l-2.29-2.29c-0.18-0.18-0.43-0.29-0.71-0.29
			c-0.55,0-1,0.45-1,1c0,0.28,0.11,0.53,0.29,0.71l4,4c0.18,0.18,0.43,0.29,0.71,0.29c0.28,0,0.53-0.11,0.71-0.29l4-4
			c0.18-0.18,0.29-0.43,0.29-0.71C19,13.44,18.55,12.99,18,12.99z M5.38,2.17C5.15,1.81,4.84,1.53,4.45,1.32
			c-0.39-0.21-0.89-0.31-1.5-0.31c-0.47,0-0.88,0.07-1.25,0.2C1.34,1.33,1.03,1.52,0.77,1.76C0.52,1.99,0.33,2.27,0.2,2.59
			C0.07,2.91,0,3.25,0,3.62c0,0.39,0.07,0.75,0.2,1.07C0.33,5.01,0.51,5.28,0.75,5.5C0.99,5.73,1.27,5.9,1.6,6.02
			c0.33,0.12,0.7,0.19,1.11,0.19c0.39,0,0.75-0.08,1.08-0.24c0.33-0.16,0.58-0.39,0.77-0.68l0.02,0.02
			c-0.02,0.26-0.06,0.54-0.1,0.84C4.44,6.45,4.35,6.74,4.23,7c-0.12,0.27-0.3,0.49-0.52,0.67c-0.22,0.18-0.53,0.27-0.9,0.27
			c-0.37,0-0.66-0.1-0.88-0.29C1.72,7.46,1.59,7.2,1.56,6.89h-1.4c0.02,0.31,0.1,0.6,0.25,0.85C0.55,8,0.74,8.22,0.98,8.4
			c0.23,0.18,0.5,0.33,0.8,0.43c0.3,0.1,0.63,0.15,0.97,0.15c0.61,0,1.11-0.12,1.53-0.36c0.41-0.24,0.75-0.55,1-0.94
			C5.53,7.3,5.71,6.87,5.82,6.41c0.11-0.47,0.17-0.93,0.17-1.39c0-0.55-0.04-1.08-0.13-1.57C5.76,2.96,5.6,2.53,5.38,2.17z
			 M4.35,4.22C4.29,4.41,4.19,4.59,4.07,4.74C3.94,4.89,3.78,5,3.58,5.09c-0.2,0.09-0.43,0.13-0.69,0.13
			c-0.25,0-0.47-0.05-0.66-0.14C2.04,5,1.89,4.88,1.77,4.73C1.64,4.58,1.55,4.41,1.49,4.22C1.43,4.03,1.4,3.82,1.4,3.61
			c0-0.2,0.03-0.4,0.09-0.59c0.06-0.19,0.15-0.36,0.28-0.5c0.12-0.15,0.28-0.26,0.47-0.35c0.19-0.08,0.41-0.13,0.66-0.13
			c0.26,0,0.49,0.04,0.69,0.13c0.2,0.09,0.36,0.2,0.48,0.35c0.13,0.14,0.22,0.31,0.29,0.5c0.07,0.19,0.1,0.39,0.1,0.59
			C4.45,3.82,4.42,4.03,4.35,4.22z"/>
	</g>
</g>
</svg>
