<?xml version="1.0" encoding="utf-8"?>
<!-- Generator: Adobe Illustrator 17.1.0, SVG Export Plug-In . SVG Version: 6.00 Build 0)  -->
<!DOCTYPE svg PUBLIC "-//W3C//DTD SVG 1.1//EN" "http://www.w3.org/Graphics/SVG/1.1/DTD/svg11.dtd">
<svg version="1.1" id="Layer_1" xmlns="http://www.w3.org/2000/svg" xmlns:xlink="http://www.w3.org/1999/xlink" x="0px" y="0px"
	 viewBox="0 0 20 20" enable-background="new 0 0 20 20" xml:space="preserve">
<g id="properties_1_">
	<g>
		<path fill-rule="evenodd" clip-rule="evenodd" d="M2,16c-1.1,0-2,0.9-2,2c0,1.1,0.9,2,2,2s2-0.9,2-2C4,16.9,3.1,16,2,16z M2,8
			c-1.1,0-2,0.9-2,2c0,1.1,0.9,2,2,2s2-0.9,2-2C4,8.9,3.1,8,2,8z M7,3h12c0.55,0,1-0.45,1-1c0-0.55-0.45-1-1-1H7C6.45,1,6,1.45,6,2
			C6,2.55,6.45,3,7,3z M2,0C0.9,0,0,0.9,0,2c0,1.1,0.9,2,2,2s2-0.9,2-2C4,0.9,3.1,0,2,0z M19,17H7c-0.55,0-1,0.45-1,1
			c0,0.55,0.45,1,1,1h12c0.55,0,1-0.45,1-1C20,17.45,19.55,17,19,17z M19,9H7c-0.55,0-1,0.45-1,1c0,0.55,0.45,1,1,1h12
			c0.55,0,1-0.45,1-1C20,9.45,19.55,9,19,9z"/>
	</g>
</g>
</svg>
