<?xml version="1.0" encoding="utf-8"?>
<!-- Generator: Adobe Illustrator 18.1.0, SVG Export Plug-In . SVG Version: 6.00 Build 0)  -->
<svg version="1.1" id="Layer_1" xmlns="http://www.w3.org/2000/svg" xmlns:xlink="http://www.w3.org/1999/xlink" x="0px" y="0px"
	 viewBox="0 0 20 20" enable-background="new 0 0 20 20" xml:space="preserve">
<g id="sort_ascending">
	<g>
		<path fill-rule="evenodd" clip-rule="evenodd" d="M8,15H1c-0.55,0-1,0.45-1,1c0,0.55,0.45,1,1,1h7c0.55,0,1-0.45,1-1
			C9,15.45,8.55,15,8,15z M8,7H5C4.45,7,4,7.45,4,8c0,0.55,0.45,1,1,1h3c0.55,0,1-0.45,1-1C9,7.45,8.55,7,8,7z M8,11H3
			c-0.55,0-1,0.45-1,1c0,0.55,0.45,1,1,1h5c0.55,0,1-0.45,1-1C9,11.45,8.55,11,8,11z M19,13c-0.28,0-0.53,0.11-0.71,0.29L16,15.59V2
			c0-0.55-0.45-1-1-1s-1,0.45-1,1v13.59l-2.29-2.29C11.53,13.11,11.28,13,11,13c-0.55,0-1,0.45-1,1c0,0.28,0.11,0.53,0.29,0.71l4,4
			C14.47,18.89,14.72,19,15,19s0.53-0.11,0.71-0.29l4-4C19.89,14.53,20,14.28,20,14C20,13.45,19.55,13,19,13z M8,3H7
			C6.45,3,6,3.45,6,4c0,0.55,0.45,1,1,1h1c0.55,0,1-0.45,1-1C9,3.45,8.55,3,8,3z"/>
	</g>
</g>
</svg>
