<?xml version="1.0" encoding="utf-8"?>
<!-- Generator: Adobe Illustrator 18.0.0, SVG Export Plug-In . SVG Version: 6.00 Build 0)  -->
<svg version="1.1" id="Layer_1" xmlns="http://www.w3.org/2000/svg" xmlns:xlink="http://www.w3.org/1999/xlink" x="0px" y="0px"
	 viewBox="0 0 20 20" enable-background="new 0 0 20 20" xml:space="preserve">
<g id="whatsapp_1_">
	<g>
		<path fill-rule="evenodd" clip-rule="evenodd" d="M17.08,2.91C15.2,1.03,12.7,0,10.04,0C4.55,0,0.09,4.45,0.08,9.91
			c0,1.75,0.46,3.45,1.33,4.95L0,20l5.28-1.38c1.45,0.79,3.09,1.21,4.76,1.21h0c5.49,0,9.95-4.45,9.95-9.91
			C19.99,7.27,18.96,4.78,17.08,2.91z M10.04,18.15L10.04,18.15c-1.49,0-2.94-0.4-4.21-1.15l-0.3-0.18l-3.13,0.82l0.84-3.04
			l-0.2-0.31c-0.83-1.31-1.27-2.83-1.26-4.38c0-4.54,3.71-8.24,8.28-8.24c2.21,0,4.29,0.86,5.85,2.42c1.56,1.56,2.42,3.63,2.42,5.83
			C18.31,14.46,14.6,18.15,10.04,18.15z M14.57,11.99c-0.25-0.12-1.47-0.72-1.7-0.81c-0.23-0.08-0.39-0.12-0.56,0.12
			c-0.17,0.25-0.64,0.81-0.79,0.97c-0.15,0.17-0.29,0.19-0.54,0.06c-0.25-0.12-1.05-0.39-2-1.23c-0.74-0.66-1.24-1.47-1.38-1.72
			C7.46,9.14,7.59,9.01,7.72,8.89C7.83,8.78,7.96,8.6,8.09,8.45S8.25,8.2,8.34,8.04c0.08-0.17,0.04-0.31-0.02-0.43
			C8.25,7.48,7.76,6.26,7.55,5.77c-0.2-0.48-0.41-0.42-0.56-0.43C6.84,5.33,6.68,5.33,6.51,5.33c-0.17,0-0.44,0.06-0.66,0.31
			C5.62,5.89,4.98,6.49,4.98,7.71c0,1.22,0.89,2.4,1.02,2.56c0.12,0.17,1.75,2.67,4.25,3.74c0.59,0.26,1.06,0.41,1.42,0.52
			c0.6,0.19,1.14,0.16,1.57,0.1c0.48-0.07,1.47-0.6,1.68-1.18c0.21-0.58,0.21-1.07,0.15-1.18C14.99,12.17,14.82,12.11,14.57,11.99z"
			/>
	</g>
</g>
</svg>
