<?xml version="1.0" encoding="utf-8"?>
<!-- Generator: Adobe Illustrator 18.0.0, SVG Export Plug-In . SVG Version: 6.00 Build 0)  -->
<svg version="1.1" id="Layer_1" xmlns="http://www.w3.org/2000/svg" xmlns:xlink="http://www.w3.org/1999/xlink" x="0px" y="0px"
	 viewBox="0 0 20 20" enable-background="new 0 0 20 20" xml:space="preserve">
<g id="facebook">
	<g>
		<path fill-rule="evenodd" clip-rule="evenodd" d="M18.89,0.01H1.1C0.49,0.01,0,0.5,0,1.11V18.9C0,19.51,0.49,20,1.1,20h9.57v-7.74
			H8.07V9.24h2.61V7.02c0-2.58,1.58-3.99,3.88-3.99c1.1,0,2.05,0.08,2.33,0.12v2.7l-1.6,0c-1.25,0-1.5,0.6-1.5,1.47v1.93h2.99
			l-0.39,3.02h-2.6V20h5.09c0.61,0,1.1-0.49,1.1-1.1V1.11C19.99,0.5,19.5,0.01,18.89,0.01z"/>
	</g>
</g>
</svg>
