<svg width="20" height="20" viewBox="0 0 20 20" fill="none" xmlns="http://www.w3.org/2000/svg">
<mask id="path-1-inside-1" fill="white">
<path fill-rule="evenodd" clip-rule="evenodd" d="M4 10C2.34315 10 1 8.65685 1 7C1 5.34315 2.34315 4 4 4C4.37489 4 4.73372 4.06877 5.06456 4.19437C5.44982 1.81599 7.51284 0 10 0C12.0922 0 13.8843 1.28508 14.63 3.10898C14.9082 3.03783 15.1997 3 15.5 3C17.433 3 19 4.567 19 6.5C19 8.433 17.433 10 15.5 10H10H4ZM4 12C4.55228 12 5 12.4477 5 13L5 18C5 18.5523 4.55228 19 4 19C3.44772 19 3 18.5523 3 18L3 13C3 12.4477 3.44772 12 4 12ZM13 13C13 12.4477 12.5523 12 12 12C11.4477 12 11 12.4477 11 13V19C11 19.5523 11.4477 20 12 20C12.5523 20 13 19.5523 13 19V13ZM16 12C16.5523 12 17 12.4477 17 13V16C17 16.5523 16.5523 17 16 17C15.4477 17 15 16.5523 15 16V13C15 12.4477 15.4477 12 16 12ZM9 13C9 12.4477 8.55228 12 8 12C7.44772 12 7 12.4477 7 13V16C7 16.5523 7.44771 17 8 17C8.55228 17 9 16.5523 9 16V13Z"/>
</mask>
<path fill-rule="evenodd" clip-rule="evenodd" d="M4 10C2.34315 10 1 8.65685 1 7C1 5.34315 2.34315 4 4 4C4.37489 4 4.73372 4.06877 5.06456 4.19437C5.44982 1.81599 7.51284 0 10 0C12.0922 0 13.8843 1.28508 14.63 3.10898C14.9082 3.03783 15.1997 3 15.5 3C17.433 3 19 4.567 19 6.5C19 8.433 17.433 10 15.5 10H10H4ZM4 12C4.55228 12 5 12.4477 5 13L5 18C5 18.5523 4.55228 19 4 19C3.44772 19 3 18.5523 3 18L3 13C3 12.4477 3.44772 12 4 12ZM13 13C13 12.4477 12.5523 12 12 12C11.4477 12 11 12.4477 11 13V19C11 19.5523 11.4477 20 12 20C12.5523 20 13 19.5523 13 19V13ZM16 12C16.5523 12 17 12.4477 17 13V16C17 16.5523 16.5523 17 16 17C15.4477 17 15 16.5523 15 16V13C15 12.4477 15.4477 12 16 12ZM9 13C9 12.4477 8.55228 12 8 12C7.44772 12 7 12.4477 7 13V16C7 16.5523 7.44771 17 8 17C8.55228 17 9 16.5523 9 16V13Z" fill="#5C7080"/>
<path d="M5.06456 4.19437L4.70963 5.12926C4.99052 5.2359 5.30446 5.2106 5.56464 5.06035C5.82482 4.91011 6.00366 4.65085 6.0517 4.35427L5.06456 4.19437ZM14.63 3.10898L13.7044 3.48742C13.8933 3.94954 14.3942 4.20151 14.8778 4.07779L14.63 3.10898ZM5 13L6 13V13H5ZM5 18L4 18V18H5ZM3 18L4 18L4 18L3 18ZM3 13L4 13V13H3ZM0 7C0 9.20914 1.79086 11 4 11V9C2.89543 9 2 8.10457 2 7H0ZM4 3C1.79086 3 0 4.79086 0 7H2C2 5.89543 2.89543 5 4 5V3ZM5.41949 3.25948C4.97703 3.0915 4.49804 3 4 3V5C4.25175 5 4.49041 5.04604 4.70963 5.12926L5.41949 3.25948ZM10 -1C7.01444 -1 4.53987 1.17961 4.07743 4.03447L6.0517 4.35427C6.35977 2.45237 8.01123 1 10 1V-1ZM15.5557 2.73054C14.6616 0.543731 12.5123 -1 10 -1V1C11.6722 1 13.1071 2.02642 13.7044 3.48742L15.5557 2.73054ZM15.5 2C15.1154 2 14.7407 2.04848 14.3822 2.14017L14.8778 4.07779C15.0757 4.02718 15.284 4 15.5 4V2ZM20 6.5C20 4.01472 17.9853 2 15.5 2V4C16.8807 4 18 5.11929 18 6.5H20ZM15.5 11C17.9853 11 20 8.98528 20 6.5H18C18 7.88071 16.8807 9 15.5 9V11ZM10 11H15.5V9H10V11ZM4 11H10V9H4V11ZM6 13C6 11.8954 5.10457 11 4 11V13H6ZM6 18L6 13L4 13L4 18L6 18ZM4 20C5.10457 20 6 19.1046 6 18H4V20ZM2 18C2 19.1046 2.89543 20 4 20V18L4 18L2 18ZM2 13L2 18L4 18L4 13L2 13ZM4 11C2.89543 11 2 11.8954 2 13H4V11ZM12 13H14C14 11.8954 13.1046 11 12 11V13ZM12 13V11C10.8954 11 10 11.8954 10 13H12ZM12 19V13H10V19H12ZM12 19H10C10 20.1046 10.8954 21 12 21V19ZM12 19V21C13.1046 21 14 20.1046 14 19H12ZM12 13V19H14V13H12ZM18 13C18 11.8954 17.1046 11 16 11V13H18ZM18 16V13H16V16H18ZM16 18C17.1046 18 18 17.1046 18 16H16V18ZM14 16C14 17.1046 14.8954 18 16 18V16H14ZM14 13V16H16V13H14ZM16 11C14.8954 11 14 11.8954 14 13H16V11ZM8 13H10C10 11.8954 9.10457 11 8 11V13ZM8 13V11C6.89543 11 6 11.8954 6 13H8ZM8 16V13H6V16H8ZM8 16H8H6C6 17.1046 6.89543 18 8 18V16ZM8 16H8V18C9.10457 18 10 17.1046 10 16H8ZM8 13V16H10V13H8Z" fill="#5C7080" mask="url(#path-1-inside-1)"/>
</svg>
