<svg xmlns="http://www.w3.org/2000/svg" viewBox="0 0 20 20">
  <path d="M10 0q-.663 0-1.305.084a1 1 0 0 0 .259 1.984 8 8 0 0 1 2.092 0 1 1 0 0 0 .259-1.984A10 10 0 0 0 10 0M5.13 3.652a1 1 0 1 0-1.218-1.586 10 10 0 0 0-1.846 1.846A1 1 0 1 0 3.652 5.13 8 8 0 0 1 5.13 3.652m10.958-1.586a1 1 0 0 0-1.218 1.586 8 8 0 0 1 1.478 1.478 1 1 0 1 0 1.585-1.218 10 10 0 0 0-1.845-1.846M2.068 8.954a1 1 0 1 0-1.984-.259 10 10 0 0 0 0 2.61 1 1 0 1 0 1.984-.259 8 8 0 0 1 0-2.092m17.848-.259a1 1 0 1 0-1.984.259 8 8 0 0 1 0 2.092 1 1 0 0 0 1.984.259 10 10 0 0 0 0-2.61M3.652 14.87a1 1 0 0 0-1.586 1.218 10 10 0 0 0 1.846 1.845 1 1 0 0 0 1.218-1.585 8 8 0 0 1-1.478-1.478m14.281 1.218a1 1 0 0 0-1.585-1.218 8 8 0 0 1-1.478 1.478 1 1 0 1 0 1.218 1.585 10 10 0 0 0 1.845-1.845m-8.98 1.844a1 1 0 0 0-.258 1.984 10 10 0 0 0 2.61 0 1 1 0 1 0-.259-1.984 8 8 0 0 1-2.092 0M10 7a3 3 0 1 1 0 6 3 3 0 0 1 0-6m5 3a5 5 0 1 0-10 0 5 5 0 0 0 10 0"/>
</svg>
