<svg width="20" height="20" viewBox="0 0 20 20" fill="none" xmlns="http://www.w3.org/2000/svg">
<path fill-rule="evenodd" clip-rule="evenodd" d="M13.9037 5.78668C16.3569 8.1324 16.9345 10.8852 17.0049 12.7267L8.39836 11.5442L6.83185 2.99922C8.67468 2.98711 11.4506 3.44096 13.9037 5.78668ZM8.12623 13.5247L17.0195 14.7467C18.0556 14.889 19.0105 14.2002 19.0119 13.1543C19.0147 11.0131 18.4692 7.38624 15.2853 4.3418C12.1015 1.29736 8.45383 0.914747 6.31489 1.01338C5.27013 1.06156 4.6247 2.04629 4.81329 3.07501L6.43199 11.9047C6.58767 12.7539 7.27091 13.4072 8.12623 13.5247ZM3.95546 8.99165C4.33698 8.59266 4.32282 7.95992 3.92382 7.5784C3.52483 7.19688 2.89209 7.21104 2.51057 7.61004C1.84251 8.3087 1.34396 9.11176 1.01508 9.96548C0.816637 10.4806 1.07337 11.0591 1.58852 11.2576C2.10366 11.456 2.68214 11.1993 2.88059 10.6841C3.11664 10.0714 3.4742 9.49496 3.95546 8.99165ZM12.8426 17.4896C13.2241 17.0906 13.21 16.4579 12.811 16.0764C12.412 15.6948 11.7793 15.709 11.3977 16.108C10.9165 16.6113 10.3567 16.9943 9.75507 17.2575C9.24932 17.4788 9.01873 18.0682 9.24003 18.574C9.46133 19.0797 10.0507 19.3103 10.5565 19.089C11.3946 18.7223 12.1746 18.1883 12.8426 17.4896ZM5.09226 19.2113C5.6074 19.4098 6.18588 19.1531 6.38433 18.6379C6.58277 18.1228 6.32604 17.5443 5.81089 17.3458C5.19813 17.1098 4.62173 16.7522 4.11842 16.271C3.61512 15.7897 3.23212 15.2299 2.96889 14.6283C2.74759 14.1225 2.1582 13.892 1.65245 14.1133C1.1467 14.3346 0.91611 14.9239 1.13741 15.4297C1.50416 16.2678 2.03815 17.0478 2.73681 17.7159C3.43547 18.3839 4.23853 18.8825 5.09226 19.2113Z" fill="#5F6B7C"/>
</svg>
