<svg width="20" height="20" viewBox="0 0 20 20" fill="none" xmlns="http://www.w3.org/2000/svg">
<g clip-path="url(#clip0_4577_8)">
<path fill-rule="evenodd" clip-rule="evenodd" d="M10 0C9.55823 0 9.12267 0.0287076 8.69517 0.084471C8.14753 0.155907 7.76148 0.657771 7.83292 1.20542C7.90435 1.75306 8.40622 2.13911 8.95386 2.06767C9.29581 2.02307 9.64496 2 10 2C10.355 2 10.7042 2.02307 11.0461 2.06767C11.5938 2.13911 12.0956 1.75306 12.1671 1.20542C12.2385 0.657771 11.8525 0.155907 11.3048 0.084471C10.8773 0.0287076 10.4418 0 10 0ZM5.13027 3.65232C5.56819 3.3158 5.65038 2.688 5.31386 2.25008C4.97734 1.81216 4.34953 1.72996 3.91162 2.06649C3.21922 2.59856 2.59856 3.21922 2.06649 3.91162C1.72996 4.34953 1.81216 4.97734 2.25008 5.31386C2.688 5.65038 3.3158 5.56819 3.65232 5.13027C4.07848 4.57571 4.57571 4.07848 5.13027 3.65232ZM16.0884 2.06649C15.6505 1.72996 15.0227 1.81216 14.6861 2.25008C14.3496 2.688 14.4318 3.3158 14.8697 3.65232C15.4243 4.07848 15.9215 4.57571 16.3477 5.13027C16.6842 5.56819 17.312 5.65038 17.7499 5.31386C18.1878 4.97734 18.27 4.34953 17.9335 3.91162C17.4014 3.21922 16.7808 2.59856 16.0884 2.06649ZM2.06767 8.95386C2.13911 8.40622 1.75306 7.90435 1.20542 7.83292C0.657771 7.76148 0.155907 8.14753 0.084471 8.69517C0.0287076 9.12267 0 9.55823 0 10C0 10.4418 0.0287076 10.8773 0.084471 11.3048C0.155907 11.8525 0.657771 12.2385 1.20542 12.1671C1.75306 12.0956 2.13911 11.5938 2.06767 11.0461C2.02307 10.7042 2 10.355 2 10C2 9.64496 2.02307 9.29581 2.06767 8.95386ZM19.9155 8.69517C19.8441 8.14753 19.3422 7.76148 18.7946 7.83292C18.2469 7.90435 17.8609 8.40622 17.9323 8.95386C17.9769 9.29581 18 9.64496 18 10C18 10.355 17.9769 10.7042 17.9323 11.0461C17.8609 11.5938 18.2469 12.0956 18.7946 12.1671C19.3422 12.2385 19.8441 11.8525 19.9155 11.3048C19.9713 10.8773 20 10.4418 20 10C20 9.55823 19.9713 9.12267 19.9155 8.69517ZM3.65232 14.8697C3.3158 14.4318 2.688 14.3496 2.25008 14.6861C1.81216 15.0227 1.72996 15.6505 2.06649 16.0884C2.59856 16.7808 3.21922 17.4014 3.91162 17.9335C4.34953 18.27 4.97734 18.1878 5.31386 17.7499C5.65038 17.312 5.56819 16.6842 5.13027 16.3477C4.57571 15.9215 4.07848 15.4243 3.65232 14.8697ZM17.9335 16.0884C18.27 15.6505 18.1878 15.0227 17.7499 14.6861C17.312 14.3496 16.6842 14.4318 16.3477 14.8697C15.9215 15.4243 15.4243 15.9215 14.8697 16.3477C14.4318 16.6842 14.3496 17.312 14.6861 17.7499C15.0227 18.1878 15.6505 18.27 16.0884 17.9335C16.7808 17.4014 17.4014 16.7808 17.9335 16.0884ZM8.95386 17.9323C8.40622 17.8609 7.90435 18.2469 7.83292 18.7946C7.76148 19.3422 8.14753 19.8441 8.69517 19.9155C9.12267 19.9713 9.55823 20 10 20C10.4418 20 10.8773 19.9713 11.3048 19.9155C11.8525 19.8441 12.2385 19.3422 12.1671 18.7946C12.0956 18.2469 11.5938 17.8609 11.0461 17.9323C10.7042 17.9769 10.355 18 10 18C9.64496 18 9.29581 17.9769 8.95386 17.9323ZM10 7C11.6569 7 13 8.34315 13 10C13 11.6569 11.6569 13 10 13C8.34315 13 7 11.6569 7 10C7 8.34315 8.34315 7 10 7ZM15 10C15 7.23858 12.7614 5 10 5C7.23858 5 5 7.23858 5 10C5 12.7614 7.23858 15 10 15C12.7614 15 15 12.7614 15 10Z" fill="#5F6B7C"/>
</g>
<defs>
<clipPath id="clip0_4577_8">
<rect width="20" height="20" fill="white"/>
</clipPath>
</defs>
</svg>
