<svg width="20" height="20" viewBox="0 0 20 20" fill="none" xmlns="http://www.w3.org/2000/svg">
<path d="M0 17.5C0 16.1193 1.11929 15 2.5 15C3.88071 15 5 16.1193 5 17.5C5 18.8807 3.88071 20 2.5 20C1.11929 20 0 18.8807 0 17.5Z" fill="black"/>
<path d="M14 0C13.4477 0 13 0.447716 13 1V4.76788L9.73687 2.88392C9.25858 2.60777 8.64699 2.77165 8.37085 3.24994C8.09471 3.72823 8.25858 4.33982 8.73687 4.61597L12.0001 6.49999L8.73685 8.38403C8.25855 8.66018 8.09468 9.27177 8.37082 9.75006C8.64696 10.2284 9.25855 10.3922 9.73685 10.1161L13 8.2321V12C13 12.5523 13.4477 13 14 13C14.5523 13 15 12.5523 15 12V8.23198L18.2632 10.116C18.7414 10.3921 19.353 10.2282 19.6292 9.74994C19.9053 9.27165 19.7414 8.66006 19.2632 8.38392L16.0001 6.49999L19.2631 4.61608C19.7414 4.33994 19.9053 3.72835 19.6292 3.25006C19.353 2.77177 18.7414 2.60789 18.2631 2.88403L15 4.768V1C15 0.447716 14.5523 0 14 0Z" fill="black"/>
</svg>
