<svg width="20" height="20" viewBox="0 0 20 20" fill="none" xmlns="http://www.w3.org/2000/svg">
<path d="M7 7.5C7 4.5 8.857 1.25 10 0C11.143 1.25 13 4.5 13 7.5C13 10.5 12.286 13.75 12 15H8C7.714 13.75 7 10.5 7 7.5ZM13.84 10L16 12L17 16L13 15.01C13.37 13.405 13.701 11.62 13.84 10ZM9.008 16H10.992C10.9987 16.14 11.0013 16.283 11 16.429C11 17.143 11 17.5 10 20C9 17.5 9 17.143 9 16.429C8.99867 16.283 9.00133 16.14 9.008 16ZM7 15.011L3 16L4 12L6.16 10C6.299 11.621 6.63 13.406 7 15.011ZM10 5C9.73478 5 9.48043 5.10536 9.29289 5.29289C9.10536 5.48043 9 5.73478 9 6C9 6.26522 9.10536 6.51957 9.29289 6.70711C9.48043 6.89464 9.73478 7 10 7C10.2652 7 10.5196 6.89464 10.7071 6.70711C10.8946 6.51957 11 6.26522 11 6C11 5.73478 10.8946 5.48043 10.7071 5.29289C10.5196 5.10536 10.2652 5 10 5Z" fill="black"/>
</svg>
