<svg width="20" height="20" viewBox="0 0 20 20" fill="none" xmlns="http://www.w3.org/2000/svg">
<path d="M10 5C12.121 2.879 16.308 2.076 18 2C17.924 3.692 17.121 7.879 15 10C13.808 11.192 12.457 11.823 11.252 12.384C10.81 12.591 10.387 12.788 10 13C9.797 13.111 9.403 13.302 9.014 13.49C8.57 13.705 8.134 13.916 8 14L6 12C6.158 11.748 7 10 7 10C7 10 8.37 6.63 10 5ZM15 6C15 5.73478 14.8946 5.48043 14.7071 5.29289C14.5196 5.10536 14.2652 5 14 5C13.7348 5 13.4804 5.10536 13.2929 5.29289C13.1054 5.48043 13 5.73478 13 6C13 6.26522 13.1054 6.51957 13.2929 6.70711C13.4804 6.89464 13.7348 7 14 7C14.2652 7 14.5196 6.89464 14.7071 6.70711C14.8946 6.51957 15 6.26522 15 6ZM3 17C3 17 3 15 5 13L7 15C5 17 3 17 3 17ZM14 15L10 19L8.702 14.767C9.735 14.207 10.583 13.805 11.345 13.445C12.62 12.841 13.652 12.353 14.899 11.43L14 15ZM1 10L5 6L8.557 5.101C7.634 6.348 7.145 7.381 6.542 8.655C6.182 9.417 5.78 10.265 5.22 11.298L1 10Z" fill="black"/>
</svg>
