<svg xmlns="http://www.w3.org/2000/svg" viewBox="0 0 20 20">
  <path d="M18 18H2v-2h16zM16 16H4l2.122-1.768a1 1 0 0 1 .64-.232h6.476a1 1 0 0 1 .64.232z"/>
  <circle cx="10" cy="12" r="1"/>
  <path d="M13.685 10.04c.4-.38.42-1.01.04-1.41-2.159-2.27-5.508-2.08-7.457.01A.996.996 0 1 0 7.728 10c1.19-1.28 3.208-1.39 4.538.01.39.39 1.02.41 1.42.03"/>
  <path d="M3.205 6.403c-.3.4-.3 1.1.2 1.4.4.3 1.1.3 1.399-.2 1.3-1.7 3.099-2.6 5.198-2.6 1.999 0 4.098 1 5.198 2.6.3.5.9.6 1.4.2.299-.2.399-.5.399-.8 0-.2-.1-.4-.2-.6-1.5-2.099-4.098-3.399-6.797-3.399-2.799-.09-5.098 1.2-6.797 3.4"/>
</svg>
