<svg xmlns="http://www.w3.org/2000/svg" viewBox="0 0 20 20">
  <path d="M13.75 0C14.4404 0 15 .55964 15 1.25v12.5c0 .6904-.5596 1.25-1.25 1.25h-7.5C5.55964 15 5 14.4404 5 13.75V1.25C5 .55964 5.55964 0 6.25 0h7.5ZM11.5 2c-.2761 0-.5.22386-.5.5v1c0 .27614.2239.5.5.5h1c.2761 0 .5-.22386.5-.5v-1c0-.27614-.2239-.5-.5-.5h-1ZM11 6.5v1c0 .27614.2239.5.5.5h1c.2761 0 .5-.22386.5-.5v-1c0-.27614-.2239-.5-.5-.5h-1c-.2761 0-.5.22386-.5.5Zm.5 3.5c-.2761 0-.5.2239-.5.5v1c0 .2761.2239.5.5.5h1c.2761 0 .5-.2239.5-.5v-1c0-.2761-.2239-.5-.5-.5h-1Z"/>
  <path d="M4 10.7259V13.75C4 14.9926 5.00736 16 6.25 16h7.5c1.2426 0 2.25-1.0074 2.25-2.25v-3.0241l3.6072 2.6185c.4668.3569.5265 1.0142.131 1.4425l-4.5011 4.8747c-.1987.2152-.4845.3384-.7847.3384H5.54764c-.30025 0-.58604-.1232-.78469-.3384L.26182 14.7869c-.3955-.4283-.33582-1.0856.13096-1.4425L4 10.7259Z"/>
</svg>
