<svg xmlns="http://www.w3.org/2000/svg" viewBox="0 0 20 20">
  <path d="M17.29 4.29521c.18-.17982.43-.28971.71-.28971.55 0 1 .44955 1 .999 0 .27972-.11.52947-.29.70929l-3 2.997c-.18.17982-.44.28971-.71.28971-.27 0-.52-.10989-.71-.28971l-3-2.997c-.18-.17982-.29-.42957-.29-.70929 0-.54946.45-.99901 1-.99901.28 0 .53.1099.71.28972L14 5.58392V.99959c0-.55208.4474-.99931.9995-.99959C15.552-.00027 16 .44712 16 .9996v4.58432l1.29-1.28871Z"/>
  <path d="M13.2674 0C13.0973.294 13 .63536 13 .9996v2.26988c-.296-.16936-.6383-.26398-1-.26398-1.1013 0-2 .89632-2 1.999 0 .54827.2177 1.05161.5832 1.41675l3.0096 3.00655.0098.00929c.3593.33999.8499.56341 1.3974.56341V13.75c0 .6904-.5596 1.25-1.25 1.25h-7.5C5.55964 15 5 14.4404 5 13.75V1.25C5 .55964 5.55964 0 6.25 0h7.0174Z"/>
  <path d="M4 10.7259.39278 13.3444c-.46678.3569-.52646 1.0142-.13096 1.4425l4.50113 4.8747c.19865.2152.48444.3384.78469.3384h8.90476c.3002 0 .586-.1232.7847-.3384l4.5011-4.8747c.3955-.4283.3358-1.0856-.131-1.4425L16 10.7259V13.75c0 1.2426-1.0074 2.25-2.25 2.25h-7.5C5.00736 16 4 14.9926 4 13.75v-3.0241Z"/>
</svg>
