<svg xmlns="http://www.w3.org/2000/svg" viewBox="0 0 20 20">
  <path d="M17.29 4.295a1.002 1.002 0 0 1 1.42 1.419l-3 2.997a1.015 1.015 0 0 1-1.42 0l-3-2.997a1.002 1.002 0 0 1 1.42-1.419L14 5.584V1a1 1 0 0 1 2 0v4.584z"/>
  <path d="M13.267 0A2 2 0 0 0 13 1v2.27a2.002 2.002 0 0 0-2.417 3.152l3.01 3.006.01.01c.359.34.85.563 1.397.563v3.749c0 .69-.56 1.25-1.25 1.25h-7.5C5.56 15 5 14.44 5 13.75V1.25C5 .56 5.56 0 6.25 0z"/>
  <path d="M4 10.726.393 13.344a.97.97 0 0 0-.131 1.443l4.5 4.875c.2.215.485.338.786.338h8.904c.3 0 .586-.123.785-.338l4.501-4.875a.97.97 0 0 0-.13-1.443L16 10.726v3.024A2.25 2.25 0 0 1 13.75 16h-7.5A2.25 2.25 0 0 1 4 13.75z"/>
</svg>
