<svg xmlns="http://www.w3.org/2000/svg" viewBox="0 0 20 20">
  <path d="M13.75 0C14.44 0 15 .56 15 1.25v12.5c0 .69-.56 1.25-1.25 1.25h-7.5C5.56 15 5 14.44 5 13.75V1.25C5 .56 5.56 0 6.25 0zM11.5 2a.5.5 0 0 0-.5.5v1a.5.5 0 0 0 .5.5h1a.5.5 0 0 0 .5-.5v-1a.5.5 0 0 0-.5-.5zM11 6.5v1a.5.5 0 0 0 .5.5h1a.5.5 0 0 0 .5-.5v-1a.5.5 0 0 0-.5-.5h-1a.5.5 0 0 0-.5.5m.5 3.5a.5.5 0 0 0-.5.5v1a.5.5 0 0 0 .5.5h1a.5.5 0 0 0 .5-.5v-1a.5.5 0 0 0-.5-.5z"/>
  <path d="M4 10.726v3.024A2.25 2.25 0 0 0 6.25 16h7.5A2.25 2.25 0 0 0 16 13.75v-3.024l3.607 2.618a.97.97 0 0 1 .131 1.443l-4.5 4.875a1.07 1.07 0 0 1-.786.338H5.548c-.3 0-.586-.123-.785-.338L.262 14.787a.97.97 0 0 1 .13-1.443z"/>
</svg>
