<svg xmlns="http://www.w3.org/2000/svg" viewBox="0 0 20 20">
  <path d="M13.917 17.209c1.01.454 2.543.928 2.873 1.643.31.722.186 1.148.186 1.148H6.026s-.13-.426.186-1.148 1.842-1.203 2.86-1.65.914-.722.948-1.093c0-.048.007-.097.007-.145a3.07 3.07 0 0 1-.839-1.237l-.007-.007c0-.007-.006-.014-.006-.02a1.8 1.8 0 0 1-.11-.337c-.234-.042-.372-.296-.426-.537a1.05 1.05 0 0 1-.138-.598c.034-.35.179-.509.337-.57v-.056c0-.44.034-1.065.117-1.478q.021-.177.075-.343c.151-.51.468-.963.887-1.28.426-.33 1.038-.501 1.58-.501.544 0 1.155.172 1.588.502a2.5 2.5 0 0 1 .963 1.622c.075.413.117 1.045.117 1.478v.062c.15.062.288.22.323.564.02.268-.083.502-.138.598-.048.234-.185.488-.42.537a3 3 0 0 1-.116.364 3.1 3.1 0 0 1-.818 1.224q-.002.084.007.158c.034.378-.103.653.914 1.1"/>
  <path d="M14.976 16.57c-.24-.099-.455-.186-.65-.273l-.007-.004a4 4 0 0 1-.194-.091c.224-.288.41-.609.554-.946l.001-.002.013-.033q.028-.065.052-.13l.011-.027.016-.04c.105-.092.19-.19.256-.284.129-.184.213-.38.265-.562.105-.227.225-.593.192-1.027l-.001-.011-.002-.011a1.85 1.85 0 0 0-.325-.91 10 10 0 0 0-.12-1.246 3 3 0 0 0-.106-.475l-.001-.006a3.54 3.54 0 0 0-.763-1.353c.27-.092.56-.139.83-.139.495 0 1.05.156 1.444.456a2.27 2.27 0 0 1 .875 1.475c.069.375.106.95.106 1.344v.056c.138.056.263.2.294.513.019.244-.075.456-.125.543-.044.213-.169.444-.381.488-.025.1-.056.206-.094.3a2.815 2.815 0 0 1-.756 1.144q-.002.076.006.144.006.065.007.127c.01.283.018.518.824.872.192.087.404.173.623.263.83.34 1.752.717 1.99 1.231.28.657.168 1.044.168 1.044h-2.081a4 4 0 0 0-.188-.542l-.005-.013-.006-.012c-.183-.397-.491-.681-.76-.88a5.6 5.6 0 0 0-.896-.522 17 17 0 0 0-.916-.4zM14 1c.55 0 1 .45 1 1 0 .28-.11.53-.29.7L10 7.41v.897a3.2 3.2 0 0 0-.69.4 3.5 3.5 0 0 0-1.343 2.259c-.07.37-.107.836-.122 1.237a1.84 1.84 0 0 0-.339.926c-.046.458.09.84.195 1.06.053.178.138.376.27.56q.083.121.21.242v.143l.053.052L6.71 16.71A1.003 1.003 0 0 1 5 16V7.41L.29 2.71A1.003 1.003 0 0 1 1 1z"/>
  <path d="M9.059 14.361c-.23-.044-.366-.296-.42-.535a1.05 1.05 0 0 1-.138-.598c.034-.35.179-.509.337-.57v-.056c0-.44.034-1.065.117-1.478q.021-.177.075-.343A2.5 2.5 0 0 1 10 9.44V13c0 .28-.11.53-.29.71z"/>
</svg>
