<svg xmlns="http://www.w3.org/2000/svg" viewBox="0 0 20 20">
  <path d="M6.84.804 6.5 2.5h-3a1 1 0 0 0-1 1v4.893l-1.58.451a.99.99 0 0 0-.691 1.192c.46 1.82 1.163 4.356 1.701 5.571q-.327.018-.68.018a.625.625 0 1 0 0 1.25c2.583 0 4.268-.68 5.202-1.146.687.466 1.88 1.146 3.548 1.146 1.65 0 2.837-.666 3.528-1.132l.005.003c.244.131.6.3 1.07.468.938.335 2.321.661 4.147.661a.625.625 0 1 0 0-1.25q-.484 0-.922-.031a1 1 0 0 0 .184-.334l1.67-5.168a1 1 0 0 0-.677-1.27l-1.505-.43V3.5a1 1 0 0 0-1-1h-3L13.16.804A1 1 0 0 0 12.18 0H7.82a1 1 0 0 0-.98.804M5 7.679l3.75-1.072V5H5zm6.25-1.072L15 7.68V5h-3.75zM6.205 16.95a.63.63 0 0 1 .658.042c.569.407 1.597 1.134 3.137 1.134s2.568-.727 3.137-1.134a.625.625 0 0 1 .724-.001l.007.005.045.029q.066.042.21.12c.194.104.493.247.9.392.811.29 2.053.589 3.727.589a.625.625 0 1 1 0 1.25c-1.826 0-3.21-.326-4.148-.661a8 8 0 0 1-1.069-.468l-.005-.003c-.691.466-1.878 1.132-3.528 1.132-1.667 0-2.861-.68-3.548-1.146-.934.467-2.619 1.146-5.202 1.146a.625.625 0 1 1 0-1.25c2.66 0 4.23-.787 4.955-1.176"/>
</svg>
