<svg xmlns="http://www.w3.org/2000/svg" viewBox="0 0 20 20">
  <path d="M9.5 19a9.5 9.5 0 1 0 0-19 9.5 9.5 0 0 0 0 19m0-2c.879 0 1.722-.151 2.506-.429l.644-1.982-1.152-1.585H7.674l-1.152 1.585.665 2.048A7.5 7.5 0 0 0 9.5 17m-6-2.999h2.213l1.219-1.677-1.038-3.247-2.337-.759L2 9.45v.05c0 1.689.558 3.247 1.5 4.501M17 9.5a7.47 7.47 0 0 1-1.5 4.501h-2.04l-1.339-1.842.976-3.05 2.432-.79 1.47 1.068zM3.225 5.391l.642 1.976 2.296.746 2.833-2.09V4.136L6.764 2.515a7.53 7.53 0 0 0-3.54 2.876M15.22 7.367l.613-1.887a7.53 7.53 0 0 0-3.602-2.967L9.996 4.137v1.879l2.867 2.117z"/>
</svg>
