<svg xmlns="http://www.w3.org/2000/svg" viewBox="0 0 20 20">
  <path d="M9.5 19a9.5 9.5 0 1 0 0-19 9.5 9.5 0 0 0 0 19m0-2a7.5 7.5 0 0 1-2.313-.363l-.665-2.048 1.152-1.585h3.824l1.152 1.585-.644 1.982A7.5 7.5 0 0 1 9.5 17m-6-2.999A7.47 7.47 0 0 1 2 9.5v-.05l1.557-1.132 2.337.76 1.038 3.246L5.712 14zM17 9.5a7.47 7.47 0 0 1-1.5 4.501h-2.04l-1.339-1.842.976-3.05 2.432-.79 1.47 1.068zM3.225 5.391a7.53 7.53 0 0 1 3.539-2.876l2.232 1.622v1.885L6.163 8.113l-2.296-.746zM15.22 7.367l-2.357.766-2.867-2.117v-1.88l2.235-1.623a7.53 7.53 0 0 1 3.602 2.967z"/>
</svg>
