<?xml version="1.0" encoding="utf-8"?>
<!-- Generator: Adobe Illustrator 17.1.0, SVG Export Plug-In . SVG Version: 6.00 Build 0)  -->
<!DOCTYPE svg PUBLIC "-//W3C//DTD SVG 1.1//EN" "http://www.w3.org/Graphics/SVG/1.1/DTD/svg11.dtd">
<svg version="1.1" id="Layer_1" xmlns:sketch="http://www.bohemiancoding.com/sketch/ns"
	 xmlns="http://www.w3.org/2000/svg" xmlns:xlink="http://www.w3.org/1999/xlink" x="0px" y="0px" viewBox="-1 -1 20 20"
	 enable-background="new -1 -1 20 20" xml:space="preserve">
<title>Shape</title>
<desc>Created with Sketch.</desc>
<g id="Page-1" sketch:type="MSPage">
	<g id="Artboard-1" sketch:type="MSArtboardGroup">
		<path id="Shape" sketch:type="MSShapeGroup" d="M10.5,4c0.8,0,1.6-0.4,2-1c2,1.2,3.3,3.3,3.5,5.7l0,0c0,0.5,0.5,0.9,1,0.9
			c0.6,0,1-0.5,1-1l0,0v0V8.5c-0.2-3.3-2.2-6.2-5.1-7.6C12.7-0.2,11.7-1,10.5-1C9.1-1,8,0.1,8,1.5C8,2.9,9.1,4,10.5,4L10.5,4z
			 M15.5,11c-1.4,0-2.5,1.1-2.5,2.5c0,0.4,0.1,0.7,0.2,1.1C12.1,15.5,10.6,16,9,16c-1.9,0-3.6-0.8-4.9-2l0,0
			c-0.2-0.2-0.5-0.4-0.8-0.4c-0.5,0-1,0.5-1,1c0,0.3,0.1,0.5,0.3,0.7C4.3,17,6.5,18,9,18c2.2,0,4.2-0.8,5.8-2.1
			C15,16,15.3,16,15.5,16c1.4,0,2.5-1.1,2.5-2.5C18,12.1,16.9,11,15.5,11L15.5,11z M4,9.5c0-1.1-0.7-2.1-1.7-2.4
			c0.5-1.9,1.9-3.5,3.6-4.4l0,0c0.3-0.2,0.6-0.5,0.6-0.9c0-0.5-0.4-1-1-1C5.3,0.8,5.1,0.9,4.9,1C2.5,2.2,0.7,4.6,0.2,7.4
			C-0.5,7.9-1,8.6-1,9.5c0,1.4,1.1,2.5,2.5,2.5S4,10.9,4,9.5L4,9.5z"/>
	</g>
</g>
</svg>
