<svg xmlns="http://www.w3.org/2000/svg" viewBox="0 0 20 20">
  <path d="M9 14.99c-.28 0-.53.11-.71.29L7 16.58v-5.59c0-.55-.45-1-1-1s-1 .45-1 1v5.59l-1.29-1.29a.97.97 0 0 0-.71-.3 1.003 1.003 0 0 0-.71 1.71l3 3c.18.18.43.29.71.29s.53-.11.71-.29l3-3c.18-.18.29-.43.29-.71a.99.99 0 0 0-1-1m8.88.23c-.08-.42-.22-.79-.42-1.12s-.47-.6-.8-.8-.76-.3-1.28-.3a2.33 2.33 0 0 0-1.72.71c-.21.22-.37.48-.49.78-.11.3-.17.62-.17.97 0 .27.04.54.13.8.08.26.22.5.4.7.19.21.43.38.71.5a2.14 2.14 0 0 0 1.72.02c.25-.12.47-.31.66-.58l.02.02c-.01.19-.04.4-.08.63-.04.24-.11.46-.21.67s-.23.38-.39.53a.92.92 0 0 1-.62.22c-.24 0-.44-.08-.6-.25s-.27-.36-.31-.59h-1.31c.04.29.12.56.24.79s.28.43.48.59c.19.16.42.28.67.36s.52.12.82.12c.49 0 .9-.1 1.23-.31.34-.21.61-.48.82-.82s.37-.71.47-1.13.15-.83.15-1.25q0-.645-.12-1.26m-1.42.63c-.05.15-.11.28-.2.4s-.2.21-.34.27-.3.1-.49.1c-.17 0-.33-.04-.46-.11s-.24-.17-.33-.29c-.08-.12-.15-.25-.19-.4s-.06-.31-.06-.47c0-.15.02-.3.07-.45s.11-.28.2-.39c.09-.12.2-.21.33-.28s.27-.11.44-.11.33.04.47.11.25.17.34.28a1.4 1.4 0 0 1 .28.86c.01.17-.02.33-.06.48M15.32 11H17V0h-1.25c-.05.34-.17.62-.34.85s-.39.42-.63.57c-.25.15-.52.25-.83.31-.3.06-.62.09-.94.09v1.41h2.31z"/>
</svg>
