<svg width="20" height="20" viewBox="0 0 20 20" fill="none" xmlns="http://www.w3.org/2000/svg">
<path fill-rule="evenodd" clip-rule="evenodd" d="M8.89 0.56L13.89 10.56C13.95 10.69 14 10.84 14 11C14 11.55 13.55 12 13 12C12.61 12 12.28 11.77 12.11 11.45L10.88 9H5.12L3.89 11.44C3.72 11.77 3.39 12 3 12C2.45 12 2 11.55 2 11C2 10.84 2.05 10.69 2.12 10.56L4.47 5.83L5.37 4.02L7.11 0.56C7.28 0.23 7.61 0 8 0C8.39 0 8.72 0.23 8.89 0.56ZM6.12012 7.00023L8.00012 3.24023L9.88012 7.00023H6.12012ZM17.29 11.29C17.47 11.11 17.72 11 18 11C18.55 11 19 11.45 19 12C19 12.28 18.89 12.53 18.71 12.71L11.71 19.71C11.53 19.89 11.28 20 11 20C10.72 20 10.47 19.89 10.29 19.71L7.29 16.71C7.11 16.53 7 16.28 7 16C7 15.45 7.45 15 8 15C8.28 15 8.53 15.11 8.71 15.29L11 17.59L17.29 11.29Z" fill="black"/>
</svg>
