<svg xmlns="http://www.w3.org/2000/svg" viewBox="0 0 20 20">
  <path d="M8 .5a.5.5 0 0 1 .5-.5c.433 0 .5.269.5.269.338-.453.819-.245 1.34-.02.548.236 1.14.492 1.66.02v2.494c-.52.414-1.124.2-1.682.002-.512-.182-.985-.35-1.318-.002V5.02Q9.494 5 10 5c1.422 0 2.775.119 4 .333V1.5a.5.5 0 0 1 .5-.5c.433 0 .5.269.5.269.338-.453.819-.245 1.34-.02.548.236 1.14.492 1.66.02v2.494c-.52.414-1.124.2-1.682.002-.512-.182-.985-.35-1.318-.002v1.772c2.989.692 5 1.984 5 3.465 0 .631-.365 1.228-1.016 1.759C18.704 8.662 14.788 7 10 7s-8.703 1.662-8.984 3.759C.366 10.228 0 9.63 0 9c0-.903.748-1.736 2.009-2.405A.5.5 0 0 1 2 6.5v-5a.5.5 0 0 1 .5-.5c.433 0 .5.269.5.269.338-.453.819-.245 1.34-.02.548.236 1.14.492 1.66.02v2.494c-.52.414-1.124.2-1.682.002-.512-.182-.985-.35-1.318-.002v2.38c1.35-.53 3.075-.907 5-1.063z"/>
  <path d="M17.868 11.469A1 1 0 0 0 18 11c0-.227-.1-.518-.432-.868-.337-.354-.872-.719-1.61-1.047C14.484 8.43 12.378 8 10 8s-4.484.43-5.958 1.085c-.738.328-1.273.693-1.61 1.047-.333.35-.432.641-.432.868 0 .134.035.291.132.469C3.962 12.401 6.807 13 10 13s6.037-.599 7.868-1.531"/>
  <path d="M10 14c2.856 0 5.488-.461 7.442-1.243C18.47 12.347 19.357 11.644 20 11v6c0 1.343-2.943 2.618-7 3v-1a3 3 0 0 0-6 0v1c-4.057-.382-7-1.657-7-3v-6c.72.71 1.626 1.384 2.558 1.757C4.512 13.539 7.144 14 10 14"/>
</svg>
