<svg width="20" height="20" viewBox="0 0 20 20" fill="none" xmlns="http://www.w3.org/2000/svg">
<path d="M15 7H5C4.20435 7 3.44129 7.31607 2.87868 7.87868C2.31607 8.44129 2 9.20435 2 10C2 10.7956 2.31607 11.5587 2.87868 12.1213C3.44129 12.6839 4.20435 13 5 13H15C15.7956 13 16.5587 12.6839 17.1213 12.1213C17.6839 11.5587 18 10.7956 18 10C18 9.20435 17.6839 8.44129 17.1213 7.87868C16.5587 7.31607 15.7956 7 15 7ZM5 5H15C16.3261 5 17.5979 5.52678 18.5355 6.46447C19.4732 7.40215 20 8.67392 20 10C20 11.3261 19.4732 12.5979 18.5355 13.5355C17.5979 14.4732 16.3261 15 15 15H5C3.67392 15 2.40215 14.4732 1.46447 13.5355C0.526784 12.5979 0 11.3261 0 10C0 8.67392 0.526784 7.40215 1.46447 6.46447C2.40215 5.52678 3.67392 5 5 5Z" fill="black"/>
</svg>
