<svg xmlns="http://www.w3.org/2000/svg" viewBox="0 0 20 20">
  <path d="M18 9h-4.46a5 5 0 0 0-.4-.14c-.19-.05-.51-.14-.96-.25s-.9-.23-1.37-.35-.89-.23-1.27-.33-.6-.16-.65-.17c-.53-.15-.95-.37-1.27-.66-.32-.28-.49-.68-.49-1.19 0-.36.09-.66.26-.9s.39-.43.65-.57q.39-.21.87-.3c.48-.09.63-.09.93-.09.89 0 1.63.19 2.21.57.45.3.75.76.89 1.38h2.63c-.06-.52-.2-.98-.42-1.4-.3-.57-.71-1.05-1.23-1.43a5.3 5.3 0 0 0-1.79-.87c-.7-.2-1.42-.3-2.19-.3-.66 0-1.31.08-1.96.25s-1.22.43-1.73.77-.92.79-1.23 1.32c-.31.52-.46 1.15-.46 1.87 0 .37.05.74.15 1.1s.28.7.53 1.02c.18.24.41.47.69.67H2c-.55 0-1 .45-1 1s.45 1 1 1h10.14c.02.01.05.02.07.02.3.11.58.29.84.55.25.26.38.67.38 1.21 0 .27-.06.53-.17.79q-.165.39-.54.69c-.25.2-.57.36-.97.49s-.88.19-1.44.19c-.52 0-1.01-.06-1.45-.17-.45-.11-.84-.29-1.19-.54s-.61-.56-.8-.95c-.05-.08-.09-.18-.12-.28H4.11c.09.43.22.82.4 1.18q.495.975 1.32 1.59c.55.41 1.2.72 1.94.92q1.11.3 2.37.3c.73 0 1.44-.08 2.14-.25s1.33-.43 1.88-.79.99-.83 1.33-1.39.51-1.25.51-2.05c0-.37-.06-.75-.18-1.12a3 3 0 0 0-.15-.39H18c.55 0 1-.45 1-1s-.45-1-1-1"/>
</svg>
