<svg xmlns="http://www.w3.org/2000/svg" viewBox="0 0 20 20">
  <path d="M16.024 7.96c.16-.19.34-.38.56-.55.21-.18.449-.36.709-.53.25-.18.5-.36.749-.56.25-.2.49-.41.73-.63.229-.22.439-.47.629-.74.18-.27.33-.56.44-.88S20 3.4 20 3c0-.32-.05-.65-.14-1s-.25-.68-.47-.97c-.22-.3-.509-.55-.869-.74-.36-.2-.809-.29-1.348-.29-.49 0-.93.1-1.299.29-.37.18-.69.44-.949.78-.26.33-.45.73-.58 1.2-.13.46-.2.96-.2 1.5h1.43c.01-.35.04-.67.09-.97s.14-.56.25-.78.259-.39.449-.52.43-.19.709-.19q.465 0 .75.18c.189.12.339.26.449.43s.18.36.22.56q.06.3.06.57c-.01.38-.1.72-.26 1.02-.15.3-.37.57-.63.83-.26.25-.54.49-.849.71-.31.22-.61.45-.889.68-.6.45-1.059.98-1.408 1.58-.35.61-.52 1.32-.53 2.13h5.984V8.57h-4.276c.06-.21.17-.42.33-.61M.224 6.63a1 1 0 1 1 1.563-1.248L5 9.4l3.213-4.017A1 1 0 1 1 9.776 6.63L6.28 11l3.495 4.369a1 1 0 1 1-1.563 1.249L5 12.6l-3.213 4.016A1 1 0 1 1 .224 15.37L3.72 11z"/>
</svg>
