<svg width="20" height="20" viewBox="0 0 20 20" fill="none" xmlns="http://www.w3.org/2000/svg">
<path fill-rule="evenodd" clip-rule="evenodd" d="M16.024 7.96C16.1838 7.77 16.3636 7.58 16.5834 7.41C16.7932 7.23 17.033 7.05 17.2927 6.88C17.5425 6.7 17.7922 6.52 18.042 6.32C18.2917 6.12 18.5315 5.91 18.7712 5.69C19.001 5.47 19.2108 5.22 19.4006 4.95C19.5804 4.68 19.7303 4.39 19.8402 4.07C19.9501 3.75 20 3.4 20 3C20 2.68 19.9501 2.35 19.8601 2C19.7702 1.65 19.6104 1.32 19.3906 1.03C19.1708 0.73 18.8811 0.48 18.5215 0.29C18.1618 0.09 17.7123 0 17.1728 0C16.6833 0 16.2438 0.1 15.8741 0.29C15.5045 0.47 15.1848 0.73 14.9251 1.07C14.6653 1.4 14.4755 1.8 14.3457 2.27C14.2158 2.73 14.1459 3.23 14.1459 3.77H15.5744C15.5844 3.42 15.6144 3.1 15.6643 2.8C15.7143 2.5 15.8042 2.24 15.9141 2.02C16.024 1.8 16.1738 1.63 16.3636 1.5C16.5535 1.37 16.7932 1.31 17.0729 1.31C17.3826 1.31 17.6324 1.37 17.8222 1.49C18.012 1.61 18.1618 1.75 18.2717 1.92C18.3816 2.09 18.4516 2.28 18.4915 2.48C18.5315 2.68 18.5515 2.87 18.5515 3.05C18.5415 3.43 18.4516 3.77 18.2917 4.07C18.1419 4.37 17.9221 4.64 17.6623 4.9C17.4026 5.15 17.1229 5.39 16.8132 5.61C16.5035 5.83 16.2038 6.06 15.9241 6.29C15.3247 6.74 14.8651 7.27 14.5155 7.87C14.1658 8.48 13.996 9.19 13.986 10H19.97V8.57H15.6943C15.7543 8.36 15.8641 8.15 16.024 7.96ZM0.224095 6.6309C0.0839925 6.45881 0 6.23921 0 6C0 5.44772 0.447715 5 1 5C1.31925 5 1.60356 5.14961 1.78665 5.38253L5 9.39922L8.21338 5.38249C8.39647 5.14959 8.68077 5 9 5C9.55229 5 10 5.44772 10 6C10 6.23923 9.916 6.45883 9.77588 6.63093L6.28062 11L9.77585 15.369C9.91599 15.5411 10 15.7608 10 16C10 16.5523 9.55229 17 9 17C8.68074 17 8.39642 16.8504 8.21334 16.6175L5 12.6008L1.78666 16.6175C1.60357 16.8504 1.31926 17 1 17C0.447715 17 0 16.5523 0 16C0 15.7608 0.0840117 15.5411 0.224143 15.369L3.71938 11L0.224095 6.6309Z" fill="black"/>
</svg>
