<svg xmlns="http://www.w3.org/2000/svg" viewBox="0 0 20 20">
  <path d="m9.71 5.3-4-4A1 1 0 0 0 5 1.01c-.28 0-.53.11-.71.29l-4 4a1.003 1.003 0 0 0 1.42 1.42L4 4.42V18c0 .55.45 1 1 1s1-.45 1-1V4.42l2.29 2.29a1 1 0 0 0 .71.3 1.003 1.003 0 0 0 .71-1.71M10 3.98q0 .015 0 0V4zm0 12.04q0-.015 0 0V16zm9-3.03c-.28 0-.53.11-.71.29L16 15.58V2c0-.55-.45-1-1-1s-1 .45-1 1v13.58l-2.29-2.29a1.003 1.003 0 0 0-1.42 1.42l4 4c.18.18.43.29.71.29s.53-.11.71-.29l4-4c.18-.18.29-.43.29-.71 0-.56-.45-1.01-1-1.01"/>
</svg>
