<svg xmlns="http://www.w3.org/2000/svg" viewBox="0 0 20 20">
  <path d="M15.146.854a.5.5 0 0 1 .708-.708l4 4a.5.5 0 0 1-.708.708l-.646-.647L17.207 5.5l1.647 1.646a.5.5 0 0 1-.708.708l-.646-.647-1.146 1.146-7.5 7.5a.5.5 0 0 1-.708 0l-.646-.646-2.646 2.647a.5.5 0 0 1-.708 0l-.646-.647-2.646 2.647a.5.5 0 0 1-.708-.708L2.793 16.5l-.647-.646a.5.5 0 0 1 0-.708L4.793 12.5l-.647-.646a.5.5 0 0 1 0-.708l7.5-7.5L12.794 2.5l-.647-.646a.5.5 0 0 1 .708-.708L14.5 2.793 15.793 1.5zM12.707 4 16 7.293l.793-.793L13.5 3.207zm2.586 4L12 4.707 5.207 11.5 8.5 14.793 9.793 13.5l-1.647-1.646a.501.501 0 0 1 .708-.708l1.646 1.647 1.293-1.293-1.647-1.646a.5.5 0 1 1 .708-.708l1.646 1.647L13.793 9.5l-1.647-1.646a.5.5 0 0 1 .708-.708L14.5 8.793zM3.207 15.5 4.5 16.793 6.793 14.5 5.5 13.207zM16.5 2.207 15.207 3.5 16.5 4.793 17.793 3.5z"/>
</svg>
