<svg xmlns="http://www.w3.org/2000/svg" viewBox="0 0 20 20">
  <path d="M19 1H1c-.6 0-1 .5-1 1v16c0 .5.4 1 1 1h8a5 5 0 0 1-.9-2H8v-1c-.364 0-.706-.098-1-.269V17H2v-3h4c0-.362.095-.704.264-1H2v-3h5v2.166l1-1V10h4v1.166l.129.128c.164-.433.475-.795.871-1.025V10h5v1.999c.628.836 1 1.875 1 3.001.364 0 .706.098 1 .269V2c0-.5-.5-1-1-1M7 9H2V6h5zm5 0H8V6h4zm6 0h-5V6h5z"/>
  <path d="M18 16.59V15c0-2.21-1.79-4-4-4-.55 0-1 .45-1 1s.45 1 1 1c1.1 0 2 .9 2 2v1.59l-.29-.3a1.003 1.003 0 0 0-1.42 1.42l2 2c.18.18.43.29.71.29s.53-.11.71-.29l2-2A1.003 1.003 0 0 0 19 16c-.28 0-.53.11-.71.3zm-9-2.18V16c0 2.21 1.79 4 4 4 .55 0 1-.45 1-1s-.45-1-1-1c-1.1 0-2-.9-2-2v-1.59l.29.3a1.003 1.003 0 0 0 1.42-1.42l-2-2A1 1 0 0 0 10 11c-.28 0-.53.11-.71.29l-2 2A1.003 1.003 0 0 0 8 15c.28 0 .53-.11.71-.3z"/>
</svg>
