<svg xmlns="http://www.w3.org/2000/svg" viewBox="0 0 20 20">
  <path d="M15 2c0-.55228.4477-1 1-1 1.66 0 3 1.34 3 3s-1.34 3-3 3h-1.59l.3.29c.18.18.29.43.29.71 0 .55-.45 1-1 1-.28 0-.53-.11-.71-.29l-2-2C11.11 6.53 11 6.28 11 6c0-.28.11-.53.29-.71l2-2c.18-.18.43-.29.71-.29.55 0 1 .45 1 1 0 .28-.11.53-.29.71l-.3.29H16c.55 0 1-.45 1-1s-.45-1-1-1c-.5523 0-1-.44772-1-1Z"/>
  <path d="m15.9324 8.51626 1.4791 1.47915c.7811.78109.7811 2.04739 0 2.82839l-4.5877 4.5877c-.781.7811-2.0473.7811-2.82839 0l-7.40962-7.4096A1.99997 1.99997 0 0 1 2 8.58769V4c0-1.10457.89543-2 2-2h4.58769a1.99997 1.99997 0 0 1 1.41421.58579l1.2891 1.28905-.7081.70805C10.2175 4.94829 10 5.45177 10 6c0 .54823.2175 1.05171.5829 1.41711l2 2C12.9483 9.7825 13.4518 10 14 10c.9239 0 1.704-.63061 1.9324-1.48374ZM3.99351 5.48864c0 .82574.66939 1.49513 1.49513 1.49513s1.49513-.66939 1.49513-1.49513-.66939-1.49513-1.49513-1.49513-1.49513.66939-1.49513 1.49513Z"/>
</svg>
