<svg xmlns="http://www.w3.org/2000/svg" viewBox="0 0 20 20">
  <path d="M15 2a1 1 0 0 1 1-1c1.66 0 3 1.34 3 3s-1.34 3-3 3h-1.59l.3.29a1.003 1.003 0 0 1-1.42 1.42l-2-2A1 1 0 0 1 11 6c0-.28.11-.53.29-.71l2-2a1.003 1.003 0 0 1 1.42 1.42l-.3.29H16c.55 0 1-.45 1-1s-.45-1-1-1a1 1 0 0 1-1-1"/>
  <path d="m15.932 8.516 1.48 1.48a2 2 0 0 1 0 2.828l-4.588 4.588a2 2 0 0 1-2.829 0l-7.41-7.41A2 2 0 0 1 2 8.588V4a2 2 0 0 1 2-2h4.588a2 2 0 0 1 1.414.586l1.289 1.289-.708.708A2 2 0 0 0 10 6c0 .548.218 1.052.583 1.417l2 2a2.004 2.004 0 0 0 3.35-.9M3.994 5.49a1.495 1.495 0 1 0 2.99 0 1.495 1.495 0 0 0-2.99 0"/>
</svg>
