<svg xmlns="http://www.w3.org/2000/svg" viewBox="0 0 20 20">
  <path d="M13.29 7.29a1.003 1.003 0 0 1 1.42 1.42l-.3.29H16c.55 0 1-.45 1-1s.45-1 1-1 1 .45 1 1c0 1.66-1.34 3-3 3h-1.59l.3.29a1.003 1.003 0 0 1-1.42 1.42l-2-2A1 1 0 0 1 11 10c0-.28.11-.53.29-.71zm3.42-.58a1.003 1.003 0 0 1-1.42-1.42l.3-.29H14c-.55 0-1 .45-1 1s-.45 1-1 1-1-.45-1-1c0-1.66 1.34-3 3-3h1.59l-.3-.29a1.003 1.003 0 0 1 1.42-1.42l2 2c.18.18.29.43.29.71s-.11.53-.29.71z"/>
  <path d="M10.894 3.477A4 4 0 0 0 10 6c0 .854.539 1.585 1.294 1.871l-.711.712A2 2 0 0 0 10 10c0 .548.218 1.052.583 1.417l2 2A2.003 2.003 0 0 0 16 12c.728 0 1.41-.193 1.997-.532-.015.493-.21.98-.585 1.356l-4.588 4.588a2 2 0 0 1-2.829 0l-7.41-7.41A2 2 0 0 1 2 8.588V4a2 2 0 0 1 2-2h4.588a2 2 0 0 1 1.414.586zm-6.9 2.012a1.495 1.495 0 1 0 2.99 0 1.495 1.495 0 0 0-2.99 0"/>
</svg>
