<svg xmlns="http://www.w3.org/2000/svg" viewBox="0 0 20 20">
  <path d="M13.29 7.29c.18-.18.43-.29.71-.29.55 0 1 .45 1 1 0 .28-.11.53-.29.71l-.3.29H16c.55 0 1-.45 1-1s.45-1 1-1 1 .45 1 1c0 1.66-1.34 3-3 3h-1.59l.3.29c.18.18.29.43.29.71 0 .55-.45 1-1 1-.28 0-.53-.11-.71-.29l-2-2c-.18-.18-.29-.43-.29-.71 0-.28.11-.53.29-.71l2-2Zm3.42-.58c-.18.18-.43.29-.71.29-.55 0-1-.45-1-1 0-.28.11-.53.29-.71l.3-.29H14c-.55 0-1 .45-1 1s-.45 1-1 1-1-.45-1-1c0-1.66 1.34-3 3-3h1.59l-.3-.29C15.11 2.53 15 2.28 15 2c0-.55.45-1 1-1 .28 0 .53.11.71.29l2 2c.18.18.29.43.29.71 0 .28-.11.53-.29.71l-2 2Z"/>
  <path d="M10.8935 3.47739C10.3346 4.16519 10 5.04286 10 6c0 .85408.539 1.58535 1.2944 1.87137l-.7115.71152C10.2175 8.94829 10 9.45177 10 10c0 .5482.2175 1.0517.5829 1.4171l2 2c.3654.3654.8689.5829 1.4171.5829 1.1023 0 2-.8977 2-2 .7276 0 1.4092-.1934 1.9965-.5316-.0144.4921-.2094.9799-.585 1.3554l-4.5877 4.5877c-.781.7811-2.0473.7811-2.82839 0l-7.40962-7.4096A1.99997 1.99997 0 0 1 2 8.58769V4c0-1.10457.89543-2 2-2h4.58769a1.99997 1.99997 0 0 1 1.41421.58579l.8916.8916ZM3.99351 5.48864c0 .82574.66939 1.49513 1.49513 1.49513s1.49513-.66939 1.49513-1.49513-.66939-1.49513-1.49513-1.49513-1.49513.66939-1.49513 1.49513Z"/>
</svg>
