<svg xmlns="http://www.w3.org/2000/svg" viewBox="0 0 20 20">
  <path d="M14.293 1.293c.39-.39 1.03-.39 1.42 0l2.98 2.966c.41.41.41 1.072 0 1.482l-2.98 2.966c-.39.39-1.03.39-1.42 0a1 1 0 0 1 0-1.413L16.592 5l-2.3-2.294a1 1 0 0 1 0-1.413"/>
  <path d="m11.713 1.293 2.98 2.966c.41.41.41 1.072 0 1.482l-2.98 2.966c-.39.39-1.03.39-1.42 0a1 1 0 0 1 0-1.413L12.593 5l-2.3-2.294a1 1 0 0 1 0-1.413c.39-.39 1.03-.39 1.42 0"/>
  <path d="m16.625 9.21.786.785a2 2 0 0 1 0 2.829l-4.587 4.588a2 2 0 0 1-2.829 0l-7.41-7.41A2 2 0 0 1 2 8.588V4a2 2 0 0 1 2-2h4.588A2 2 0 0 1 9 2.043c.011.497.206.99.585 1.37h.001L11.176 5l-1.59 1.586-.001.002a2 2 0 0 0 0 2.825c.78.782 2.053.782 2.834.002l.001-.002.709-.705a2.007 2.007 0 0 0 3.29.707l.001-.002zM3.994 5.488a1.495 1.495 0 1 0 2.99 0 1.495 1.495 0 0 0-2.99 0"/>
</svg>
