<svg xmlns="http://www.w3.org/2000/svg" viewBox="0 0 20 20">
  <path d="M15 1c.5523 0 1 .44772 1 1v2h2c.5523 0 1 .44772 1 1s-.4477 1-1 1h-2v2c0 .55228-.4477 1-1 1s-1-.44772-1-1V6h-2c-.5523 0-1-.44772-1-1s.4477-1 1-1h2V2c0-.55228.4477-1 1-1Z"/>
  <path d="M10.8091 3.39303C10.3182 3.75747 10 4.34158 10 5c0 1.10457.8954 2 2 2h1v1c0 1.10457.8954 2 2 2 .6584 0 1.2425-.31817 1.607-.80914l.8045.80455c.7811.78109.7811 2.04739 0 2.82839l-4.5877 4.5877c-.781.7811-2.0473.7811-2.82839 0l-7.40962-7.4096A1.99997 1.99997 0 0 1 2 8.58769V4c0-1.10457.89543-2 2-2h4.58769a1.99997 1.99997 0 0 1 1.41421.58579l.8072.80724ZM3.99351 5.48864c0 .82574.66939 1.49513 1.49513 1.49513s1.49513-.66939 1.49513-1.49513-.66939-1.49513-1.49513-1.49513-1.49513.66939-1.49513 1.49513Z"/>
</svg>
