<svg xmlns="http://www.w3.org/2000/svg" viewBox="0 0 20 20">
  <path d="M14.2925 1.29305c.39-.39073 1.03-.39073 1.42 0l2.98 2.96556c.41.41077.41 1.07201 0 1.48278l-2.98 2.96556c-.39.39073-1.03.39073-1.42 0-.39-.39073-.39-1.02192 0-1.41265L16.5925 5l-2.3-2.2943c-.39-.39073-.39-1.02192 0-1.41265Z"/>
  <path d="m11.7125 1.29305 2.98 2.96556c.41.41077.41 1.07201 0 1.48278l-2.98 2.96556c-.39.39073-1.03.39073-1.42 0-.39-.39073-.39-1.02192 0-1.41265L12.5925 5l-2.3-2.2943c-.39-.39073-.39-1.02192 0-1.41265s1.03-.39073 1.42 0Z"/>
  <path d="m16.6254 9.20927.7861.78614c.7811.78109.7811 2.04739 0 2.82839l-4.5877 4.5877c-.781.7811-2.0473.7811-2.82839 0l-7.40962-7.4096A1.99997 1.99997 0 0 1 2 8.58769V4c0-1.10457.89543-2 2-2h4.58769a1.9994 1.9994 0 0 1 .41278.04305c.01079.49646.20555.98967.58426 1.36909l.00154.00154L11.1765 5 9.58627 6.58632l-.00154.00154c-.77964.7811-.77964 2.04443 0 2.82553.78027.78171 2.05347.78211 2.83427.00129l.0013-.00129.7086-.70522c.0971.257.2491.49807.4558.70522.7802.78161 2.0532.78211 2.834.00154l.0016-.00154.2051-.20412ZM3.99351 5.48864c0 .82574.66939 1.49513 1.49513 1.49513s1.49513-.66939 1.49513-1.49513-.66939-1.49513-1.49513-1.49513-1.49513.66939-1.49513 1.49513Z"/>
</svg>
