<svg xmlns="http://www.w3.org/2000/svg" viewBox="0 0 20 20">
  <path d="M3 3c0-1.10457.89543-2 2-2h4.58769a2.00005 2.00005 0 0 1 1.41421.58579l7.4096 7.40962c.7811.78105.7811 2.04739 0 2.82839l-4.5877 4.5877c-.781.7811-2.0473.7811-2.8284 0L3.58579 9.0019A1.99997 1.99997 0 0 1 3 7.58769V3Zm3.48864-.00649c-.82574 0-1.49513.66939-1.49513 1.49513s.66939 1.49513 1.49513 1.49513 1.49513-.66939 1.49513-1.49513-.66939-1.49513-1.49513-1.49513Z"/>
  <path d="m2 4.68858-.73162 1.25853c-.26564.45694-.33762.99997-.20012 1.50962L3.78465 17.525c.28634 1.0613 1.38474 1.6911 2.45336 1.4067l4.78479-1.2733c-.2644-.1378-.5125-.3178-.7345-.5398L2.87868 9.70901A3 3 0 0 1 2 7.58769V4.68858Z"/>
</svg>
