<svg xmlns="http://www.w3.org/2000/svg" viewBox="0 0 20 20">
  <path d="M17.691 15.328c-.456-1.056-2.68-1.752-4.154-2.408-1.48-.656-1.272-1.048-1.328-1.592-.008-.072-.008-.152-.016-.232.504-.448.92-1.064 1.192-1.776 0 0 .016-.04.016-.048q.082-.228.152-.48c.337-.072.537-.44.609-.784.08-.136.232-.48.2-.864-.048-.496-.248-.728-.472-.824v-.088c0-.632-.056-1.544-.177-2.144a3.64 3.64 0 0 0-1.393-2.352C11.69 1.256 10.8 1 10.009 1s-1.68.256-2.313.736a3.64 3.64 0 0 0-1.393 2.352c-.112.6-.176 1.512-.176 2.144v.08c-.232.088-.44.32-.488.832-.032.384.12.728.2.864.08.352.28.728.633.784.04.168.096.328.152.48 0 .008.008.024.008.032l.008.016c.272.728.696 1.352 1.216 1.8 0 .072-.008.144-.016.208-.056.544.104.936-1.376 1.592-1.481.656-3.698 1.352-4.154 2.408S2 19 2 19h16s.147-2.616-.309-3.672"/>
  <path d="M1.34 15.15c-.148.302-.34.693-.34 3.85H0v-4c0-1.3.851-2.103 1.905-2.57 1.149-.51 1.168-.837 1.192-1.236l.012-.157q.012-.086.014-.182c-.455-.392-.826-.938-1.064-1.575l-.007-.014q0-.006-.004-.014l-.001-.005-.002-.009a4 4 0 0 1-.133-.42c-.308-.049-.484-.378-.554-.686a1.37 1.37 0 0 1-.175-.756c.042-.448.224-.651.428-.728v-.07c0-.553.056-1.351.154-1.876a3.186 3.186 0 0 1 1.218-2.058C3.536 2.224 4.313 2 5.007 2c.327 0 .673.05 1.005.147a4.5 4.5 0 0 0-.505 1.121 4.4 4.4 0 0 0-.139.612 14 14 0 0 0-.184 1.94c-.286.305-.45.729-.497 1.217v.009c-.045.541.12 1.007.254 1.277.064.227.167.479.33.707.102.141.238.287.41.406q.014.04.026.079c.017.056.034.11.064.17.264.688.647 1.311 1.128 1.818-.01.151-.03.186-.159.277-.13.092-.343.214-.686.366-.24.106-.538.228-.858.36-.545.223-1.157.474-1.664.721a7.4 7.4 0 0 0-1.222.725c-.358.271-.721.63-.924 1.098q-.022.05-.046.1M13.946 12.146h.002c.282.126.59.253.924.39h.003l.27.112c.43.177.888.37 1.32.579.427.208.857.447 1.223.724.359.271.75.73.953 1.2C18.792 15.5 19 16 19 19h1v-4c0-1.274-.875-2.111-1.905-2.57-1.123-.498-1.136-.822-1.15-1.209a3 3 0 0 0-.012-.184l-.007-.088v-.013l-.007-.102a4 4 0 0 0 1.043-1.554s.014-.035.014-.042c.05-.133.091-.273.133-.42.294-.063.47-.385.532-.686.07-.119.204-.42.176-.756-.043-.434-.218-.637-.414-.721v-.077c0-.553-.049-1.351-.154-1.876a3.186 3.186 0 0 0-1.219-2.058C16.478 2.224 15.7 2 15.008 2c-.327 0-.672.05-1.004.146.219.35.39.727.506 1.122.056.187.106.392.138.606.112.574.17 1.346.186 1.97.273.301.433.713.48 1.19v.012c.045.537-.118 1-.251 1.271a2.2 2.2 0 0 1-.32.696c-.097.14-.228.285-.395.406l-.01.03a5.65 5.65 0 0 1-1.19 2.025v.04l.001.018q.001.077.01.153c.033.039.195.198.788.461"/>
</svg>
