<svg xmlns="http://www.w3.org/2000/svg" viewBox="0 0 20 20">
  <path d="M13 11.988v-4H4v-1l1-3h6V2.003a36 36 0 0 0-1-.015c-3.593 0-5.332.488-5.332.488-.67.188-1.424.864-1.674 1.503l-.004.009H3l-1 3H1a1 1 0 1 0 0 2h.333l-.28.84-.053.16v7.5a1.5 1.5 0 1 0 3 0v-.5h12v.5a1.5 1.5 0 1 0 3 0v-4.5h-5a1 1 0 0 1-1-1m-8.5 1a1.5 1.5 0 1 1 0-3 1.5 1.5 0 0 1 0 3M19.83 2.782a2.4 2.4 0 0 0-.592-.853q-.415-.396-1.09-.663Q17.47 1 16.457 1q-.785 0-1.418.253a3.2 3.2 0 0 0-1.084.703q-.449.45-.698 1.065t-.264 1.353h2.096q0-.369.085-.69t.264-.56.456-.383.663-.143q.57 0 .89.3.322.3.321.93.015.368-.135.614t-.392.45a9 9 0 0 1-.527.41 3.5 3.5 0 0 0-.542.485q-.256.28-.45.676-.191.397-.234.984v.614h1.924v-.519q.056-.409.278-.683.22-.273.506-.484a14 14 0 0 1 .606-.424q.32-.211.584-.512.264-.3.442-.724.178-.423.178-1.079 0-.395-.178-.854m-4.54 6.099v2.103h2.237V8.881z"/>
</svg>
