<svg xmlns="http://www.w3.org/2000/svg" viewBox="0 0 20 20">
  <path d="M16 0c2.21 0 4 1.79 4 4 0 1.11-.46 2.09-1.18 2.82l.01.01-3 3-.01-.01a4.05 4.05 0 0 1-2.064 1.107l-.932-.931L17.41 5.41c.37-.36.59-.86.59-1.41 0-1.1-.9-2-2-2-.55 0-1.05.22-1.41.58L10 7.17l-.927-.926A4.05 4.05 0 0 1 10.18 4.18l-.01-.01 3-3 .01.01C13.91.46 14.89 0 16 0m-5.296 7.876L13.29 5.29a1.003 1.003 0 1 1 1.42 1.42l-2.586 2.586zM8.583 9.997l-.7-.7L2.59 14.59c-.37.36-.59.86-.59 1.41 0 1.1.9 2 2 2 .55 0 1.05-.22 1.41-.58l1-1 4.298-4.298-.705-.705L6.71 14.71a1.004 1.004 0 1 1-1.42-1.42zm-.934-.934L3.293 4.707a1 1 0 0 1 1.414-1.414l12 12a1 1 0 0 1-1.414 1.414l-4.356-4.356c.04.21.063.423.063.649 0 1.11-.46 2.09-1.18 2.82l.01.01-3 3-.01-.01C6.09 19.54 5.11 20 4 20c-2.21 0-4-1.79-4-4 0-1.11.46-2.09 1.18-2.82l-.01-.01 3-3 .01.01C4.91 9.46 5.89 9 7 9c.225 0 .438.023.649.063"/>
</svg>
