<?xml version="1.0" encoding="UTF-8"?>
<svg width="20px" height="20px" viewBox="0 0 20 20" version="1.1" xmlns="http://www.w3.org/2000/svg" xmlns:xlink="http://www.w3.org/1999/xlink">
    <!-- Generator: Sketch 64 (93537) - https://sketch.com -->
    <title>virus - 20px</title>
    <desc>Created with Sketch.</desc>
    <g id="virus---20px" stroke="none" stroke-width="1" fill="none" fill-rule="evenodd">
        <g id="pt-icon-virus" transform="translate(0.000000, 0.500000)" stroke="#000000">
            <g id="arms" stroke-linecap="round" stroke-linejoin="round" stroke-width="2">
                <g id="Group-7" transform="translate(15.480647, 6.688727)">
                    <line x1="1" y1="2" x2="2.41421356" y2="3.41421356" id="Line" transform="translate(1.707107, 2.707107) rotate(-45.000000) translate(-1.707107, -2.707107) "></line>
                    <line x1="2.01935275" y1="2.81127345" x2="5.01935275" y2="2.81127345" id="Line-3" transform="translate(3.519353, 2.811273) rotate(90.000000) translate(-3.519353, -2.811273) "></line>
                </g>
                <g id="Group-3" transform="translate(0.000000, 6.853553)">
                    <line x1="1.85355339" y1="2" x2="3.26776695" y2="3.41421356" id="Line" transform="translate(2.560660, 2.707107) rotate(-45.000000) translate(-2.560660, -2.707107) "></line>
                    <line x1="-0.5" y1="2.64644661" x2="2.5" y2="2.64644661" id="Line-3" transform="translate(1.000000, 2.646447) rotate(90.000000) translate(-1.000000, -2.646447) "></line>
                </g>
                <g id="Group" transform="translate(8.000000, 0.000000)">
                    <line x1="1" y1="2.16666667" x2="3" y2="2.16666667" id="Line" transform="translate(2.000000, 2.166667) rotate(270.000000) translate(-2.000000, -2.166667) "></line>
                    <line x1="0.5" y1="0.5" x2="3.5" y2="0.5" id="Line-3"></line>
                </g>
                <g id="Group-4" transform="translate(2.000000, 13.939340)">
                    <line x1="2.64644661" y1="1.41421356" x2="4.06066017" y2="6.21724894e-15" id="Line" transform="translate(3.353553, 0.707107) scale(-1, -1) translate(-3.353553, -0.707107) "></line>
                    <line x1="0.5" y1="2.06066017" x2="3.5" y2="2.06066017" id="Line-3" transform="translate(2.000000, 2.060660) rotate(45.000000) translate(-2.000000, -2.060660) "></line>
                </g>
                <g id="Group-2" transform="translate(2.000000, 0.500000)">
                    <line x1="2.5" y1="4.41421356" x2="3.91421356" y2="3" id="Line" transform="translate(3.207107, 3.707107) scale(1, -1) translate(-3.207107, -3.707107) "></line>
                    <line x1="0.5" y1="2.5" x2="3.5" y2="2.5" id="Line-3" transform="translate(2.000000, 2.500000) scale(-1, 1) rotate(45.000000) translate(-2.000000, -2.500000) "></line>
                </g>
                <g id="Group-5" transform="translate(8.000000, 15.833333)">
                    <line x1="1" y1="1" x2="3" y2="1" id="Line" transform="translate(2.000000, 1.000000) rotate(90.000000) translate(-2.000000, -1.000000) "></line>
                    <line x1="0.5" y1="2.66666667" x2="3.5" y2="2.66666667" id="Line-3"></line>
                </g>
                <g id="Group-4" transform="translate(16.000000, 15.939340) scale(-1, 1) translate(-16.000000, -15.939340) translate(13.500000, 13.939340)">
                    <line x1="2.64644661" y1="1.41421356" x2="4.06066017" y2="6.21724894e-15" id="Line" transform="translate(3.353553, 0.707107) scale(-1, -1) translate(-3.353553, -0.707107) "></line>
                    <line x1="0.5" y1="2.06066017" x2="3.5" y2="2.06066017" id="Line-3" transform="translate(2.000000, 2.060660) rotate(45.000000) translate(-2.000000, -2.060660) "></line>
                </g>
                <g id="Group-2" transform="translate(16.500000, 3.000000) scale(-1, 1) translate(-16.500000, -3.000000) translate(14.500000, 0.500000)">
                    <line x1="2.5" y1="4.41421356" x2="3.91421356" y2="3" id="Line" transform="translate(3.207107, 3.707107) scale(1, -1) translate(-3.207107, -3.707107) "></line>
                    <line x1="0.5" y1="2.5" x2="3.5" y2="2.5" id="Line-3" transform="translate(2.000000, 2.500000) scale(-1, 1) rotate(45.000000) translate(-2.000000, -2.500000) "></line>
                </g>
            </g>
            <path d="M10,3.5 C11.6568542,3.5 13.1568542,4.17157288 14.2426407,5.25735931 C15.3284271,6.34314575 16,7.84314575 16,9.5 C16,11.1568542 15.3284271,12.6568542 14.2426407,13.7426407 C13.1568542,14.8284271 11.6568542,15.5 10,15.5 C8.34314575,15.5 6.84314575,14.8284271 5.75735931,13.7426407 C4.67157288,12.6568542 4,11.1568542 4,9.5 C4,7.84314575 4.67157288,6.34314575 5.75735931,5.25735931 C6.84314575,4.17157288 8.34314575,3.5 10,3.5 Z M12.5,10 C11.9477153,10 11.4477153,10.2238576 11.0857864,10.5857864 C10.7238576,10.9477153 10.5,11.4477153 10.5,12 C10.5,12.5522847 10.7238576,13.0522847 11.0857864,13.4142136 C11.4477153,13.7761424 11.9477153,14 12.5,14 C13.0522847,14 13.5522847,13.7761424 13.9142136,13.4142136 C14.2761424,13.0522847 14.5,12.5522847 14.5,12 C14.5,11.4477153 14.2761424,10.9477153 13.9142136,10.5857864 C13.5522847,10.2238576 13.0522847,10 12.5,10 Z M8,5 C7.30964406,5 6.68464406,5.27982203 6.23223305,5.73223305 C5.77982203,6.18464406 5.5,6.80964406 5.5,7.5 C5.5,8.19035594 5.77982203,8.81535594 6.23223305,9.26776695 C6.68464406,9.72017797 7.30964406,10 8,10 C8.69035594,10 9.31535594,9.72017797 9.76776695,9.26776695 C10.220178,8.81535594 10.5,8.19035594 10.5,7.5 C10.5,6.80964406 10.220178,6.18464406 9.76776695,5.73223305 C9.31535594,5.27982203 8.69035594,5 8,5 Z" id="base" fill="#000000"></path>
        </g>
    </g>
</svg>