<svg xmlns="http://www.w3.org/2000/svg" viewBox="0 0 20 20">
  <path d="M4 9C2.34 9 1 7.66 1 6s1.34-3 3-3h1.59l-.3-.29C5.11 2.53 5 2.28 5 2c0-.55.45-1 1-1 .28 0 .53.11.71.29l2 2c.18.18.29.43.29.71 0 .28-.11.53-.29.71l-2 2C6.53 6.89 6.28 7 6 7c-.55 0-1-.45-1-1 0-.28.11-.53.29-.71l.3-.29H4c-.55 0-1 .45-1 1s.45 1 1 1c.55228 0 1 .44771 1 1 0 .55228-.44772 1-1 1Zm9.5001 7c-.8211 0-1.6002-.1799-2.3-.5026l-2.9439 2.9439c-.7449.7449-1.95263.7449-2.69753 0-.7449-.7449-.74489-1.9526.00001-2.6975l2.94392-2.9439c-.32256-.6998-.50248-1.4788-.50248-2.2999 0-3.03757 2.46248-5.5 5.49998-5.5.9737 0 1.8883.25303 2.6817.69692l-3.7424 3.74237c-.5858.58581-.5858 1.53551 0 2.12131.5858.5858 1.5355.5858 2.1213 0l3.7424-3.74239c.444.79337.697 1.70803.697 2.68179 0 3.0376-2.4624 5.5-5.5 5.5Z"/>
</svg>
