<svg xmlns="http://www.w3.org/2000/svg" viewBox="0 0 20 20">
  <path d="M2 1h4c.55228 0 1 .44772 1 1 0 .23976-.08438.45982-.22507.63209L4.08069 6H6c.55228 0 1 .44772 1 1s-.44772 1-1 1H2c-.55228 0-1-.44772-1-1 0-.24172.08576-.4634.22851-.63629L3.9194 3H2c-.55228 0-1-.44772-1-1s.44772-1 1-1Zm11.5001 15c-.8211 0-1.6002-.1799-2.3-.5026l-2.9439 2.9439c-.7449.7449-1.95263.7449-2.69753 0-.7449-.7449-.74489-1.9526.00001-2.6975l2.94392-2.9439c-.32256-.6998-.50248-1.4788-.50248-2.2999 0-3.03757 2.46248-5.5 5.49998-5.5.9737 0 1.8883.25303 2.6817.69692l-3.7424 3.74237c-.5858.58581-.5858 1.53551 0 2.12131.5858.5858 1.5355.5858 2.1213 0l3.7424-3.74239c.444.79337.697 1.70803.697 2.68179 0 3.0376-2.4624 5.5-5.5 5.5Z"/>
</svg>
