<svg width="28" height="33" viewBox="0 0 28 33" xmlns="http://www.w3.org/2000/svg">
  <title>
    Blueprint
  </title>
  <g fill="none" fill-rule="evenodd">
    <path fill="#00B46F" d="M21 12.292l7 4.15v8.142l-7 3.99-7-3.99v-8.14"/>
    <path fill="#2294D9" d="M14 0l7 4.15v8.142l-7 3.99-7-3.99v-8.14"/>
    <path fill="#2294D9" d="M21 4.15l7 4.15v8.143l-7 3.99-7-3.99V8.3"/>
    <path fill="#F85551" d="M7 4.15l7 4.15v8.143l-7 3.99-7-3.99V8.3"/>
    <path fill="#F85551" d="M7 12.292l7 4.15v8.142l-7 3.99-7-3.99v-8.14"/>
    <path fill="#00B46F" d="M14 16.283l7 4.15v8.142l-7 3.99-7-3.99v-8.142"/>
    <g>
      <path d="M21 4.15L14 8.3 7 4.15 14 0l7 4.15zm7 4.15l-7 4.152-7-4.15 7-4.15 7 4.15z" fill="#30B2E9"/>
      <path fill="#00AB64" d="M14 24.424v-8.14l-7 4.15v8.14"/>
      <path fill="#00CE8E" d="M21 20.433l-7 3.99-7-3.99 7-4.15"/>
      <path d="M14 24.424l-7-3.99 7-4.15v8.14z" fill="#00C783"/>
      <path d="M14 8.3L7 4.15 14 0v8.3z" fill="#2CAEE7"/>
      <path fill="#FB716C" d="M14 8.3l-7 4.152-7-4.15 7-4.15"/>
      <path fill="#1F8ED6" d="M28 16.443l-7 3.99-7-4.15 7-3.83"/>
      <path d="M6.892 28.506L0 24.516l6.892-4.152v8.142z" fill="#F64743"/>
      <path fill="#F96560" d="M7 12.452v-8.3l7 4.15v7.98"/>
      <path fill="#B71D1D" d="M14 16.283V8.3l-7 4.152v7.98"/>
      <path d="M14 16.283l-7-3.83L14 8.3v7.983z" fill="#B21A1A"/>
      <path d="M28 24.584l-7-4.15 7-3.99v8.14z" fill-opacity=".2" fill="#10161A" style="mix-blend-mode:soft-light"/>
      <path d="M21 28.575v-8.142l-7 3.99v8.143l7-3.99zm7-3.99v-8.142l-7 3.99v8.142l7-3.99z" fill="#007233"/>
      <path d="M28 24.584l-7-4.15 7-3.99v8.14z" fill="#00682C"/>
      <path fill="#0759BA" d="M28 16.443V8.3l-7 4.152v7.98"/>
      <path d="M28 16.443l-7-3.99L28 8.3v8.143z" fill="#0860BF"/>
      <path d="M0 8.3l7 3.992 7-3.99-6.84 4.23L7 20.4c0 .003 0 0 0 0l-.16-7.87L0 8.3z" fill="#FEBCB7" opacity=".78"/>
      <path fill="#4EDCF8" opacity=".78" d="M14 8.3l7 3.992 7-3.99-6.84 4.23-.16 7.9-.16-7.9"/>
      <path d="M7 20.433l7 3.832 7-3.832-6.84 4.07L14 32.56c0 .003 0 0 0 0l-.16-8.056L7 20.434z" fill="#00F3C9" opacity=".78"/>
    </g>
  </g>
</svg>
