<svg width="70" height="70" viewBox="0 0 70 70" xmlns="http://www.w3.org/2000/svg">
    <title>
        Artboard 2 Copy 5
    </title>
    <defs>
        <linearGradient x1="21.157%" y1="6.442%" x2="90.979%" y2="97.719%" id="a">
            <stop stop-color="#E8F5FD" offset="0%"/>
            <stop stop-color="#D8EEFC" offset="100%"/>
        </linearGradient>
    </defs>
    <g fill="none" fill-rule="evenodd">
        <g>
            <g transform="translate(4 4)">
                <circle stroke="#137CBD" stroke-width="2" cx="31" cy="31" r="31"/>
                <circle stroke="#137CBD" stroke-width="2" fill="url(#a)" cx="31" cy="31" r="25"/>
                <circle fill="#137CBD" cx="31" cy="17" r="5"/>
                <path d="M31.035 23.5c2-.004 5.048-.32 7.483-.5 2.051-.152 5.194-.5 5.982-.5.788 0 1.387.437 1.5 1 .113.563 0 1-1 1.5s-8.5 0-10.5 1.5 2.907 20.163 3 21c.093.837.5 1.5-1 1.5S34 45.5 34 45.5s-.937-5.078-2-8c-.246-.676-.87-.949-.982-.993-.113.044-.737.317-.983.993-1.062 2.922-2 8-2 8s-1 3.5-2.5 3.5-1.093-.663-1-1.5c.093-.837 5-19.5 3-21s-9.5-1-10.5-1.5-1.112-.937-1-1.5c.113-.563.712-1 1.5-1s3.931.348 5.983.5c2.434.18 7.46.496 7.517.5z" fill="#137CBD"/>
            </g>
        </g>
    </g>
</svg>
