<svg xmlns="http://www.w3.org/2000/svg" viewBox="0 0 16 16">
  <path d="M2.673 10.758a1.4 1.4 0 0 1 .093.234c.127.442.012.932-.362 1.212-.441.332-1.075.246-1.349-.233a8 8 0 1 1 14.014-.225c-.259.488-.889.594-1.341.277-.382-.269-.513-.755-.4-1.2a1.3 1.3 0 0 1 .085-.238 6 6 0 1 0-10.74.173m2.464-1.862a1.8 1.8 0 0 1 .076.404c.03.415-.096.831-.43 1.078-.444.328-1.08.237-1.314-.264a5 5 0 0 1-.24-.62l-.004-.011a5 5 0 1 1 9.574-.08l-.003.011q-.095.32-.23.625c-.226.504-.861.606-1.31.285-.338-.241-.47-.654-.448-1.07a1.7 1.7 0 0 1 .07-.405 3 3 0 0 0-.216-2.233 3 3 0 0 0-5.525 2.28M8 7a1 1 0 0 1 1 1v3.586l2.707 2.707a1 1 0 0 1-1.414 1.414L8 13.414l-2.293 2.293a1 1 0 0 1-1.414-1.414L7 11.586V8a1 1 0 0 1 1-1"/>
</svg>
