<svg width="16" height="16" viewBox="0 0 16 16" fill="none" xmlns="http://www.w3.org/2000/svg">
<path fill-rule="evenodd" clip-rule="evenodd" d="M4 3.83094C4 1.71781 5.7931 0 8 0C10.2069 0 11.9927 1.71781 12 3.83094C12 5.95125 8 11.5 8 11.5C8 11.5 4 5.95125 4 3.83094ZM6 4C6 5.104 6.896 6 8 6C9.104 6 10 5.104 10 4C10 2.896 9.104 2 8 2C6.896 2 6 2.896 6 4ZM11.0458 8.07952C10.9948 8.16438 10.9438 8.24843 10.8931 8.33151L14.1035 10.0229L10.8179 14.452H4.68195L1.84457 10.0503L5.10793 8.33099C5.05723 8.24809 5.00635 8.16421 4.95544 8.07952C4.74792 7.73434 4.53647 7.37017 4.33314 7L0.40941 9.06725C0.218745 9.1677 0.0787429 9.34702 0.0245117 9.56024C-0.0297195 9.77346 0.00696397 10.0004 0.125363 10.184L3.65128 15.6538C3.79066 15.87 4.02604 16 4.2782 16H11.1901C11.4247 16 11.6458 15.8874 11.7881 15.6956L15.8457 10.2258C15.981 10.0435 16.0307 9.80886 15.9814 9.58517C15.9321 9.36148 15.789 9.17178 15.5906 9.06725L11.6679 7.00053C11.4646 7.37052 11.2533 7.73451 11.0458 8.07952Z" fill="black"/>
</svg>
