<svg xmlns="http://www.w3.org/2000/svg" viewBox="0 0 16 16">
  <path d="M15.993.883A1 1 0 0 0 15 0h-3l-.117.007A1 1 0 0 0 11 1l.007.117A1 1 0 0 0 12 2h2v12h-2l-.117.007A1 1 0 0 0 12 16h3l.117-.007A1 1 0 0 0 16 15V1zM5 1a1 1 0 0 0-1-1H1L.883.007A1 1 0 0 0 0 1v14l.007.117A1 1 0 0 0 1 16h3l.117-.007A1 1 0 0 0 5 15l-.007-.117A1 1 0 0 0 4 14H2V2h2l.117-.007A1 1 0 0 0 5 1"/>
  <path d="M4.347 5.86q-.266.046-.547.047v.703h1.344v3.86h.977V5h-.727a.84.84 0 0 1-.203.422 1.2 1.2 0 0 1-.367.281q-.21.11-.477.157M11.462 5.27q-.354-.264-.918-.264t-.925.263a1.8 1.8 0 0 0-.557.662q-.195.4-.27.88-.069.481-.068.933 0 .45.067.933.075.481.271.887.203.4.557.662.36.255.925.256.564 0 .918-.256.36-.263.556-.662a2.9 2.9 0 0 0 .271-.887q.075-.482.075-.933 0-.45-.075-.933a2.8 2.8 0 0 0-.27-.88 1.7 1.7 0 0 0-.557-.662m-.452 4.34a.7.7 0 0 1-.466.157.7.7 0 0 1-.474-.158 1.2 1.2 0 0 1-.293-.436 2.8 2.8 0 0 1-.15-.647 6 6 0 0 1-.046-.782q0-.414.045-.775.045-.369.15-.647.114-.277.294-.436a.7.7 0 0 1 .474-.166.68.68 0 0 1 .466.166q.188.157.294.436.113.278.158.647.045.361.045.775t-.045.782q-.045.37-.158.647-.105.27-.294.436M7.082 9.445H8.17V10.5H7.082z"/>
</svg>
