<svg xmlns="http://www.w3.org/2000/svg" viewBox="0 0 16 16">
  <path d="M15 0a1 1 0 0 1 .993.883L16 1v14a1 1 0 0 1-.883.993L15 16h-3a1 1 0 0 1-.117-1.993L12 14h2V2h-2a1 1 0 0 1-.993-.883L11 1a1 1 0 0 1 .883-.993L12 0zM4 0a1 1 0 0 1 .117 1.993L4 2H2v12h2a1 1 0 0 1 .993.883L5 15a1 1 0 0 1-.883.993L4 16H1a1 1 0 0 1-.993-.883L0 15V1A1 1 0 0 1 .883.007L1 0zm6.904 5q.384 0 .68.112.296.113.5.312.204.2.312.476t.108.604q0 .344-.152.636a1.3 1.3 0 0 1-.456.492v.016l.08.04q.083.046.168.124.128.116.232.284a1.67 1.67 0 0 1 .24.872q0 .375-.128.68a1.52 1.52 0 0 1-.896.852 2 2 0 0 1-.68.116q-.64 0-1.096-.304a1.36 1.36 0 0 1-.584-.864q-.016-.08.064-.104l.696-.16.033-.002q.045.004.063.058.088.24.288.408t.536.168q.384 0 .592-.228a.83.83 0 0 0 .208-.58q0-.416-.24-.652t-.648-.236h-.232l-.035-.005q-.045-.015-.045-.075v-.632l.005-.035q.015-.045.075-.045h.216l.138-.009a.73.73 0 0 0 .438-.207q.216-.216.216-.576a.75.75 0 0 0-.192-.532q-.192-.204-.536-.204-.304 0-.48.152a.8.8 0 0 0-.248.408q-.024.072-.096.056l-.68-.16-.034-.012q-.042-.024-.03-.084a1.35 1.35 0 0 1 .516-.828q.204-.156.48-.244A2 2 0 0 1 10.904 5m-6.152.088.035.005q.045.015.045.075v5.28l-.005.035q-.015.045-.075.045h-.736l-.035-.005q-.045-.015-.045-.075V6.16H3.92l-.832.584-.032.016Q3 6.779 3 6.696V5.88l.006-.04a.16.16 0 0 1 .05-.072l.872-.632.04-.027a.24.24 0 0 1 .104-.021zM7.344 5q.384 0 .68.12t.5.324.312.48.108.596q0 .367-.136.676-.136.308-.376.596l-1.584 1.92v.016h2.016l.035.005q.045.015.045.075v.64l-.005.035q-.015.045-.075.045H5.808l-.035-.005q-.045-.015-.045-.075v-.6l.004-.04a.13.13 0 0 1 .036-.064l1.92-2.392.1-.133a2 2 0 0 0 .156-.267 1 1 0 0 0 .096-.432.74.74 0 0 0-.188-.512Q7.664 5.8 7.32 5.8q-.329 0-.512.184a.83.83 0 0 0-.224.496q-.015.08-.088.064L5.792 6.4l-.034-.012q-.042-.024-.03-.084a1.425 1.425 0 0 1 .94-1.192A1.9 1.9 0 0 1 7.344 5"/>
</svg>
