<svg xmlns="http://www.w3.org/2000/svg" viewBox="0 0 16 16">
  <path d="M15 0a1 1 0 0 1 .993.883L16 1v14a1 1 0 0 1-.883.993L15 16h-3a1 1 0 0 1-.117-1.993L12 14h2V2h-2a1 1 0 0 1-.993-.883L11 1a1 1 0 0 1 .883-.993L12 0zM4 0a1 1 0 0 1 .117 1.993L4 2H2v12h2a1 1 0 0 1 .993.883L5 15a1 1 0 0 1-.883.993L4 16H1a1 1 0 0 1-.993-.883L0 15V1A1 1 0 0 1 .883.007L1 0zm6.5 4a.5.5 0 0 1 .5.5V5a1 1 0 0 1 .993.883L12 6v5a1 1 0 0 1-.883.993L11 12H5a1 1 0 0 1-.993-.883L4 11V6a1 1 0 0 1 .883-.993L5 5v-.5a.5.5 0 0 1 1 0V5h4v-.5a.5.5 0 0 1 .5-.5m.5 3H5v4h6z"/>
</svg>
