<svg xmlns="http://www.w3.org/2000/svg" viewBox="0 0 16 16">
  <path d="M15 0a1 1 0 0 1 .993.883L16 1v14a1 1 0 0 1-.883.993L15 16h-3a1 1 0 0 1-.117-1.993L12 14h2V2h-2a1 1 0 0 1-.993-.883L11 1a1 1 0 0 1 .883-.993L12 0zM4 0a1 1 0 0 1 .117 1.993L4 2H2v12h2a1 1 0 0 1 .993.883L5 15a1 1 0 0 1-.883.993L4 16H1a1 1 0 0 1-.993-.883L0 15V1A1 1 0 0 1 .883.007L1 0zm1.61 5q.771 0 1.343.637.573.637.573 1.716 0 1.257-.773 2.252-.772.995-2.437 1.609v-.465l.233-.095a3.1 3.1 0 0 0 1.274-1.017q.55-.757.55-1.577a.5.5 0 0 0-.057-.26q-.027-.056-.074-.056-.046 0-.149.075-.297.214-.744.214-.54 0-.944-.433A1.45 1.45 0 0 1 4 6.572q0-.633.465-1.102Q4.931 5 5.61 5m4.474 0q.772 0 1.344.637T12 7.353q0 1.257-.772 2.252T8.79 11.214v-.465l.233-.095a3.1 3.1 0 0 0 1.274-1.017q.549-.757.549-1.577a.5.5 0 0 0-.056-.26q-.029-.056-.075-.056-.045 0-.149.075-.297.214-.744.214-.54 0-.944-.433a1.45 1.45 0 0 1-.405-1.028q0-.633.466-1.102Q9.405 5 10.084 5"/>
</svg>
