<svg xmlns="http://www.w3.org/2000/svg" viewBox="0 0 16 16">
  <path d="M5.816 8.371q-.001 2.273 1.814 2.274 1.91 0 2.089-2.86l.12-2.331a5.3 5.3 0 0 0-1.337-.165q-1.272 0-1.979.828-.707.83-.707 2.254M16 7.133q0 1.395-.446 2.55-.445 1.156-1.253 1.802a2.9 2.9 0 0 1-1.868.642q-.783 0-1.356-.41a2 2 0 0 1-.773-1.111h-.12q-.485.76-1.198 1.14a3.35 3.35 0 0 1-1.605.38q-1.615 0-2.541-1.023-.927-1.024-.926-2.77 0-2.01 1.229-3.264Q6.37 3.816 8.44 3.816q.753 0 1.669.13.916.132 1.63.367l-.218 4.536v.234q0 1.561 1.031 1.562.782 0 1.241-.996.462-.995.463-2.537 0-1.669-.695-2.931a4.76 4.76 0 0 0-1.97-1.947q-1.277-.683-2.934-.682-2.107 0-3.67.858a5.74 5.74 0 0 0-2.382 2.455q-.823 1.593-.822 3.7 0 2.832 1.535 4.353t4.409 1.52q2.19.002 4.567-.877v1.6q-2.08.84-4.527.839-3.668-.001-5.717-1.945Q.001 12.108 0 8.625q0-2.547 1.11-4.532a7.56 7.56 0 0 1 3.076-3.038Q6.153 0 8.64 0q2.15.001 3.827.878a6.3 6.3 0 0 1 2.607 2.504q.927 1.623.926 3.75"/>
</svg>
