<svg width="16" height="16" viewBox="0 0 16 16" fill="none" xmlns="http://www.w3.org/2000/svg">
<path d="M1 13H2V13.5C2 13.7761 2.22386 14 2.5 14C2.77614 14 3 13.7761 3 13.5V2.5C3 2.22386 2.77614 2 2.5 2C2.22386 2 2 2.22386 2 2.5V3H1V13Z" fill="#111418"/>
<path d="M15 3L14 3L14 2.5C14 2.22386 13.7761 2 13.5 2C13.2239 2 13 2.22386 13 2.5L13 13.5C13 13.7761 13.2239 14 13.5 14C13.7761 14 14 13.7761 14 13.5L14 13L15 13L15 3Z" fill="#111418"/>
<path d="M3 6L4.78885 6.89443C4.92771 6.96385 5.08082 7 5.23607 7H10.7639C10.9192 7 11.0723 6.96385 11.2111 6.89443L13 6V10L11.2111 9.10557C11.0723 9.03615 10.9192 9 10.7639 9H5.23607C5.08082 9 4.92771 9.03615 4.78885 9.10557L3 10V6Z" fill="#111418"/>
<path d="M0 8C0 7.44772 0.447715 7 1 7H2V9H1C0.447715 9 0 8.55228 0 8V8Z" fill="#111418"/>
<path d="M16 8C16 8.55228 15.5523 9 15 9L14 9L14 7L15 7C15.5523 7 16 7.44772 16 8V8Z" fill="#111418"/>
<rect x="6" y="6" width="4" height="4" rx="1" fill="#111418"/>
</svg>
