<svg xmlns="http://www.w3.org/2000/svg" viewBox="0 0 16 16">
  <path transform="scale(.8)" d="M10.01 9.05a.16.16 0 0 1-.08-.02l-5.9-3.4a.17.17 0 0 1-.02-.29h.03l5.86-3.4a.2.2 0 0 1 .17 0l5.9 3.4a.18.18 0 0 1 0 .3L10.1 9.03a.16.16 0 0 1-.08.03m-.86 8.26a.16.16 0 0 1-.08-.03l-5.86-3.38a.17.17 0 0 1-.1-.15V6.94c0-.06.03-.11.08-.14a.19.19 0 0 1 .2 0l5.85 3.37c.05.03.08.1.08.16v6.8c0 .06-.03.1-.08.14a.17.17 0 0 1-.1.03m1.67 0a.17.17 0 0 1-.17-.16v-6.76c0-.05.03-.13.08-.14l5.86-3.4a.19.19 0 0 1 .2 0c.03.04.06.1.06.16v6.74c0 .06-.03.13-.08.16l-5.87 3.38a.15.15 0 0 1-.1.03m-7 .76c-.1 0-.2-.03-.3-.1L.8 16.43a1.7 1.7 0 0 1-.8-1.38V4.97c0-.54.34-1.12.8-1.37L3.54 2a.58.58 0 0 1 .57 1L1.37 4.61c-.1.08-.18.2-.2.35v10.07c0 .11.12.31.2.37l2.74 1.57a.57.57 0 0 1-.28 1.1zM16.17 1.92c.1 0 .2.03.29.1L19.2 3.6c.46.27.8.85.8 1.38v10.06c0 .54-.33 1.1-.8 1.37L16.47 18a.58.58 0 1 1-.58-1l2.74-1.58a.6.6 0 0 0 .2-.4V4.98a.55.55 0 0 0-.2-.37l-2.73-1.6a.57.57 0 0 1 .28-1.1z"/>
</svg>
