<svg xmlns="http://www.w3.org/2000/svg" viewBox="0 0 16 16">
  <path d="M8.002 16a6.8 6.8 0 0 1-2.732-.556 7.1 7.1 0 0 1-2.221-1.509 7.1 7.1 0 0 1-1.498-2.239A6.9 6.9 0 0 1 1 8.955q0-.41.285-.698a.94.94 0 0 1 .692-.287q.407 0 .692.287t.285.698q0 2.12 1.469 3.598Q5.89 14.031 8 14.031t3.577-1.48q1.47-1.482 1.47-3.607 0-2.12-1.477-3.598-1.476-1.478-3.58-1.478h-.121l.49.496q.242.244.239.577a.82.82 0 0 1-.238.578.8.8 0 0 1-.588.248.78.78 0 0 1-.588-.24l-1.93-1.945a.97.97 0 0 1-.294-.7q0-.401.294-.697L7.184.24A.78.78 0 0 1 7.772 0q.345.004.588.259a.8.8 0 0 1 .233.583q-.001.339-.244.583l-.47.474h.11q1.459 0 2.732.556 1.274.555 2.225 1.51a7.1 7.1 0 0 1 1.503 2.233A6.9 6.9 0 0 1 15 8.945q0 1.466-.551 2.751a7.1 7.1 0 0 1-1.498 2.239 7.1 7.1 0 0 1-2.219 1.51 6.75 6.75 0 0 1-2.73.555"/>
  <path d="M10 8H9v3h1zM9 7a1 1 0 0 0-1 1v3a1 1 0 0 0 1 1h1a1 1 0 0 0 1-1V8a1 1 0 0 0-1-1zM5.5 7a.5.5 0 0 0 0 1H6v3.5a.5.5 0 0 0 1 0V8a1 1 0 0 0-1-1z"/>
</svg>
