<svg xmlns="http://www.w3.org/2000/svg" viewBox="0 0 16 16">
  <path d="M7.004 4.385Q6.487 4 5.662 4t-1.353.385q-.517.373-.814.967-.286.582-.396 1.285A10 10 0 0 0 3 8q0 .66.099 1.363.11.703.396 1.296.297.583.814.967.528.375 1.353.374.825 0 1.342-.374.528-.384.814-.967.297-.593.396-1.296.11-.704.11-1.363 0-.66-.11-1.363a4 4 0 0 0-.396-1.285 2.5 2.5 0 0 0-.814-.967m-.66 6.34q-.274.231-.682.231-.418 0-.693-.23a1.8 1.8 0 0 1-.429-.638 4 4 0 0 1-.22-.945A9 9 0 0 1 4.254 8q0-.604.066-1.132.066-.539.22-.945.165-.406.429-.637.274-.242.693-.242.407 0 .682.242.274.23.429.637.165.407.231.945.066.529.066 1.132 0 .605-.066 1.143a3.7 3.7 0 0 1-.231.945 1.6 1.6 0 0 1-.429.637m4.457-5.468q-.39.069-.801.069v1.028h1.968V12h1.43V4h-1.064q-.069.366-.298.617a1.7 1.7 0 0 1-.537.412 2.4 2.4 0 0 1-.698.228"/>
</svg>
