<svg xmlns="http://www.w3.org/2000/svg" viewBox="0 0 16 16">
  <path d="M3 2h10c.5523 0 1 .44772 1 1v4h1c.5523 0 1 .44772 1 1 0 .55229-.4477 1-1 1h-1v4c0 .5523-.4477 1-1 1H3c-.55228 0-1-.4477-1-1V9H1c-.55229 0-1-.44771-1-1 0-.55228.44771-1 1-1h1V3c0-.55228.44772-1 1-1Zm5.85355 3.14645c-.19526-.19527-.51184-.19527-.7071 0-.19527.19526-.19527.51184 0 .7071L10.2929 8l-2.14645 2.1464c-.19527.1953-.19527.5119 0 .7072.19526.1952.51184.1952.7071 0l2.50005-2.50005c.1952-.19526.1952-.51184 0-.7071l-2.50005-2.5Zm-4.2071 0c-.19527.19526-.19526.51184 0 .7071L6.7929 7.99999 4.64645 10.1464c-.19527.1953-.19527.5119 0 .7072.19526.1952.51184.1952.7071 0l2.5-2.50005a.49791.49791 0 0 0 .14416-.30564.5031.5031 0 0 0-.00109-.10617.4979.4979 0 0 0-.14307-.29531l-2.5-2.49998c-.19526-.19527-.51184-.19526-.7071 0Z"/>
</svg>
