<?xml version="1.0" encoding="UTF-8"?>
<svg width="16px" height="16px" viewBox="0 0 16 16" version="1.1" xmlns="http://www.w3.org/2000/svg" xmlns:xlink="http://www.w3.org/1999/xlink">
    <title>bp3-icon-modal-filled</title>
    <defs>
        <path d="M15,1 L1,1 C0.45,1 0,1.45 0,2 L0,14 C0,14.55 0.45,15 1,15 L15,15 C15.55,15 16,14.55 16,14 L16,2 C16,1.45 15.55,1 15,1 Z M16,5 L0,5 L0,3 L16,3 L16,5 Z M13,3 L11,3 L11,1 L13,1 L13,3 Z" id="path-1"></path>
    </defs>
    <g id="bp3-icon-modal-filled" stroke="none" stroke-width="1" fill="none" fill-rule="evenodd">
        <mask id="mask-2" fill="white">
            <use xlink:href="#path-1"></use>
        </mask>
        <g fill-rule="nonzero"></g>
        <g id="16-Light-/-Icon-/-Default" mask="url(#mask-2)" fill="#5C7080">
            <rect id="Rectangle" x="0" y="0" width="16" height="16"></rect>
        </g>
    </g>
</svg>