<?xml version="1.0" encoding="UTF-8"?>
<svg width="16px" height="16px" viewBox="0 0 16 16" version="1.1" xmlns="http://www.w3.org/2000/svg" xmlns:xlink="http://www.w3.org/1999/xlink">
    <title>bp3-data-connection</title>
    <defs>
        <path d="M2.27373675e-13,9.52 C0.888659091,10.161 2.30789799,10.6534377 4.00264044,10.8736396 L4,11 C4,13.0792915 5.05768242,14.911548 6.66438081,15.9881031 C6.44669773,15.9958495 6.22477847,16 6,16 C2.78457143,16 0.154220408,15.1506939 0.00653947522,14.0937796 L2.27373675e-13,14 L2.27373675e-13,9.52 Z M10,6 C12.7625,6 15,8.2375 15,11 C15,13.7625 12.7625,16 10,16 C7.2375,16 5,13.7625 5,11 C5,8.2375 7.2375,6 10,6 Z M11.0044759,7.00919596 L7,11.9602051 L9.53116862,11.9602051 L9.02034505,15.0120443 L13.025472,10.0497233 L10.4956868,10.0497233 L11.0044759,7.00919596 Z M12,3.52 L12.0006859,5.34165389 C11.3749342,5.1203964 10.7015272,5 10,5 C7.06284929,5 4.61862277,7.11045939 4.10104483,9.89765379 L3.85218052,9.86729796 C1.68420805,9.58883265 0.119471953,8.90200816 0.00653947522,8.09377959 L2.27373675e-13,8 L2.27373675e-13,3.52 C1.22,4.4 3.44,5 6,5 C8.56,5 10.78,4.4 12,3.52 Z M6,0 C9.31,0 12,0.9 12,2 C12,3.1 9.31,4 6,4 C2.68,4 2.27373675e-13,3.1 2.27373675e-13,2 C2.27373675e-13,0.9 2.68,0 6,0 Z" id="path-1"></path>
    </defs>
    <g id="bp3-data-connection" stroke="none" stroke-width="1" fill="none" fill-rule="evenodd">
        <g id="🎨-color" transform="translate(1.000000, 0.000000)">
            <mask id="mask-2" fill="white">
                <use xlink:href="#path-1"></use>
            </mask>
            <g id="Mask" fill-rule="nonzero"></g>
            <g id="Group" mask="url(#mask-2)">
                <g transform="translate(-1.000000, 0.000000)" id="🎨-color">
                    <rect id="Rectangle" fill="#5C7080" x="0" y="0" width="16" height="16"></rect>
                </g>
            </g>
        </g>
    </g>
</svg>