<svg xmlns="http://www.w3.org/2000/svg" viewBox="0 0 16 16">
  <path d="M5 3a3 3 0 0 1 6 0 5 5 0 0 1 1.425 1.67L13 4.382V3a1 1 0 1 1 2 0v2a1 1 0 0 1-.553.894l-1.46.731q.012.186.013.375v1h2a1 1 0 1 1 0 2h-2a5 5 0 0 1-.21 1.439l1.581.633A1 1 0 0 1 15 13v2a1 1 0 1 1-2 0v-1.323l-1.167-.467A4.99 4.99 0 0 1 8 15a4.99 4.99 0 0 1-3.833-1.79L3 13.677V15a1 1 0 1 1-2 0v-2a1 1 0 0 1 .629-.928l1.581-.633A5 5 0 0 1 3 10H1a1 1 0 1 1 0-2h2V7q0-.189.014-.375l-1.461-.73A1 1 0 0 1 1 5V3a1 1 0 0 1 2 0v1.382l.575.288A5 5 0 0 1 5 3m0 6v1a3 3 0 1 0 6 0V7a3 3 0 0 0-6 0z"/>
</svg>
