<svg xmlns="http://www.w3.org/2000/svg" viewBox="0 0 16 16">
  <path d="M13.929.629a1 1 0 0 0-1.04-.623l-9 1a1 1 0 0 0-.747.48L.431 6.005A.5.5 0 0 0 0 6.5v3a.5.5 0 0 0 .5.5h2.798c.341 0 .672.116.938.329l1.952 1.561A.5.5 0 0 0 6.5 12H10a.5.5 0 0 0 .4-.2l.9-1.2a1.5 1.5 0 0 1 1.2-.6h3a.5.5 0 0 0 .5-.5v-4a.5.5 0 0 0-.308-.462zM12.36 2.094l-.006-.016-3.166.352 1.121 3.083zm.467 1.166-1.649 2.748 2.51-.594zM9.603 6.496 8.166 2.543l-3.563.396L2.766 6H3.5a.5.5 0 0 1 .367.16L6.218 8.7h1.914l1.452-2.177zM2.5 16a2.5 2.5 0 1 0 0-5 2.5 2.5 0 0 0 0 5m11 0a2.5 2.5 0 1 0 0-5 2.5 2.5 0 0 0 0 5"/>
</svg>
