<svg xmlns="http://www.w3.org/2000/svg" viewBox="0 0 16 16">
  <path d="m13.929.629 1.763 4.41A.5.5 0 0 1 16 5.5v4a.5.5 0 0 1-.5.5h-3a1.5 1.5 0 0 0-1.2.6l-.9 1.2a.5.5 0 0 1-.4.2H6.5a.5.5 0 0 1-.312-.11L4.236 10.33A1.5 1.5 0 0 0 3.298 10H.5a.5.5 0 0 1-.5-.5v-3a.5.5 0 0 1 .431-.495l2.711-4.52a1 1 0 0 1 .748-.479l9-1a1 1 0 0 1 1.038.623M12.36 2.094l-.006-.016-3.166.352 1.121 3.083zm.467 1.166-1.649 2.748 2.51-.594zM9.603 6.496 8.166 2.543l-3.563.396L2.766 6H3.5a.5.5 0 0 1 .367.16L6.218 8.7h1.914l1.452-2.177zM2.5 16a2.5 2.5 0 1 1 0-5 2.5 2.5 0 0 1 0 5m11 0a2.5 2.5 0 1 1 0-5 2.5 2.5 0 0 1 0 5"/>
</svg>
