<svg xmlns="http://www.w3.org/2000/svg" viewBox="0 0 16 16">
  <path d="M10 1h3a1 1 0 0 1 1 1v2h-4zM2.25 4a.25.25 0 0 0-.25.25V9H.883a.5.5 0 0 0-.429.757l1.072 1.787c.207.344.477.638.791.87A10 10 0 0 1 1 12.5a.5.5 0 0 0 0 1c2.067 0 3.414-.543 4.161-.917.55.373 1.505.917 2.839.917 1.32 0 2.27-.533 2.822-.905l.004.002c.196.105.48.24.856.374.75.268 1.857.529 3.318.529a.5.5 0 0 0 0-1q-.488 0-.916-.039c.47-.328.848-.79 1.07-1.347l.572-1.428A.5.5 0 0 0 15.26 9H4V4.25A.25.25 0 0 0 3.75 4zm2.714 9.56a.5.5 0 0 1 .527.033c.455.325 1.277.907 2.509.907s2.054-.582 2.51-.907a.5.5 0 0 1 .579-.001l.006.004.036.023q.051.034.168.097c.154.082.394.197.72.313.649.232 1.642.471 2.981.471a.5.5 0 0 1 0 1c-1.46 0-2.568-.261-3.318-.53a6 6 0 0 1-.856-.373l-.004-.002c-.552.372-1.502.905-2.822.905-1.334 0-2.289-.544-2.839-.917-.747.374-2.094.917-4.161.917a.5.5 0 0 1 0-1c2.129 0 3.384-.63 3.964-.94M14 5h-4v3h3a1 1 0 0 0 1-1zM5 2a1 1 0 0 1 1-1h3v3H5zm4 3H5v2a1 1 0 0 0 1 1h3z"/>
</svg>
