<svg xmlns="http://www.w3.org/2000/svg" viewBox="0 0 16 16">
  <path d="M11.586 6a1 1 0 0 1 .707.293l1.414 1.414a1 1 0 0 1 .293.707V15a1 1 0 0 1-1 1H7a1 1 0 0 1-1-1V7a1 1 0 0 1 1-1zM8 9a.5.5 0 0 0 0 1h4a.5.5 0 0 0 0-1zm0 2a.5.5 0 0 0 0 1h4a.5.5 0 0 0 0-1zm0 2a.5.5 0 0 0 0 1h4a.5.5 0 0 0 0-1zM8.09.91c.5 0 .91.408.91.908V2.5H5v-.682c0-.5.41-.909.91-.909h-.2C6.017.364 6.326 0 7 0s.982.364 1.29.91z"/>
  <path d="M10 2h1.09c.5 0 .91.41.91.91V5H6a1 1 0 0 0-1 1v8H2.91c-.5 0-.91-.409-.91-.909V2.91c0-.5.41-.909.91-.909H4v1.5h6z"/>
</svg>
