<svg width="16" height="16" viewBox="0 0 16 16" fill="none" xmlns="http://www.w3.org/2000/svg">
<path fill-rule="evenodd" clip-rule="evenodd" d="M11.5858 6C11.851 6 12.1054 6.10536 12.2929 6.29289L13.7071 7.70711C13.8946 7.89464 14 8.149 14 8.41421V15C14 15.5523 13.5523 16 13 16H7C6.44772 16 6 15.5523 6 15V7C6 6.44772 6.44772 6 7 6H11.5858ZM8 9C7.72386 9 7.5 9.22386 7.5 9.5C7.5 9.77614 7.72386 10 8 10H12C12.2761 10 12.5 9.77614 12.5 9.5C12.5 9.22386 12.2761 9 12 9H8ZM8 11C7.72386 11 7.5 11.2239 7.5 11.5C7.5 11.7761 7.72386 12 8 12H12C12.2761 12 12.5 11.7761 12.5 11.5C12.5 11.2239 12.2761 11 12 11H8ZM8 13C7.72386 13 7.5 13.2239 7.5 13.5C7.5 13.7761 7.72386 14 8 14H12C12.2761 14 12.5 13.7761 12.5 13.5C12.5 13.2239 12.2761 13 12 13H8Z" fill="#5F6B7C"/>
<path d="M8.09089 0.909091C8.59089 0.909091 8.99998 1.31818 8.99998 1.81818V2.5H4.99998V1.81818C4.99998 1.31818 5.40907 0.909091 5.90907 0.909091H5.70907C6.01816 0.363636 6.32732 0 7.00005 0C7.67278 0 7.98179 0.363636 8.29089 0.909091H8.09089Z" fill="#5F6B7C"/>
<path d="M10 2.00022H11.0909C11.5909 2.00022 12 2.40931 12 2.90931V5H6C5.44772 5 5 5.44772 5 6V14.0002H2.90909C2.40909 14.0002 2 13.5911 2 13.0911V2.90931C2 2.40931 2.40909 2.00022 2.90909 2.00022H4V3.50022H10V2.00022Z" fill="#5F6B7C"/>
</svg>
