<svg width="16" height="16" viewBox="0 0 16 16" fill="none" xmlns="http://www.w3.org/2000/svg">
<path d="M12 4C14.21 4 16 5.79 16 8C16 8.22827 15.9809 8.45206 15.9442 8.66986C15.8078 8.27979 15.4366 8 15 8H7C6.44772 8 6 8.44771 6 9V12H3.5C1.57 12 0 10.43 0 8.5C0 7.1 0.83 5.89 2.02 5.33C2.01 5.22 2 5.11 2 5C2 2.24 4.24 0 7 0C9.42 0 11.44 1.72 11.9 4.01C11.93 4 11.97 4 12 4Z" fill="black"/>
<path d="M7 9H15V12H7V9ZM10 10.5C10 10.7761 10.2239 11 10.5 11H13.5C13.7761 11 14 10.7761 14 10.5C14 10.2239 13.7761 10 13.5 10H10.5C10.2239 10 10 10.2239 10 10.5ZM9 10.5C9 10.2239 8.77614 10 8.5 10C8.22386 10 8 10.2239 8 10.5C8 10.7761 8.22386 11 8.5 11C8.77614 11 9 10.7761 9 10.5Z" fill="black"/>
<path d="M7 13H15V16H7V13ZM10.5 14C10.2239 14 10 14.2239 10 14.5C10 14.7761 10.2239 15 10.5 15H13.5C13.7761 15 14 14.7761 14 14.5C14 14.2239 13.7761 14 13.5 14H10.5ZM9 14.5C9 14.2239 8.77614 14 8.5 14C8.22386 14 8 14.2239 8 14.5C8 14.7761 8.22386 15 8.5 15C8.77614 15 9 14.7761 9 14.5Z" fill="black"/>
</svg>
