<?xml version="1.0" encoding="UTF-8"?>
<svg xmlns="http://www.w3.org/2000/svg" xmlns:xlink="http://www.w3.org/1999/xlink" width="16px" height="16px" viewBox="0 0 16 16" version="1.1">
<title>pt-icon-color-picker</title>
<g id="Page-1">
<path style=" stroke:none;fill-rule:nonzero;fill:#000000;fill-opacity:1;" d="M 15.441406 1.132812 C 14.761719 0.0195312 13.3125 -0.332031 12.199219 0.34375 L 10.046875 1.652344 L 9.898438 1.410156 C 9.46875 0.703125 8.550781 0.480469 7.84375 0.910156 C 7.140625 1.339844 6.917969 2.257812 7.347656 2.964844 L 7.640625 3.445312 L 2.46875 6.613281 C 1.992188 6.902344 1.222656 7.9375 0.996094 8.25 C 0.875 8.417969 0.863281 8.640625 0.972656 8.816406 L 1.988281 10.484375 C 2.09375 10.660156 2.296875 10.757812 2.5 10.726562 C 2.878906 10.667969 4.15625 10.457031 4.628906 10.167969 L 9.800781 7 L 10.09375 7.480469 C 10.523438 8.1875 11.441406 8.410156 12.148438 7.980469 C 12.851562 7.550781 13.078125 6.632812 12.648438 5.925781 L 12.5 5.683594 L 14.652344 4.375 C 15.765625 3.699219 16.117188 2.246094 15.441406 1.132812 Z M 4.097656 9.292969 L 4.070312 6.84375 L 7.566406 4.691406 C 7.59375 5.042969 7.703125 5.394531 7.902344 5.71875 C 8.097656 6.042969 8.363281 6.300781 8.660156 6.492188 Z M 4.097656 9.292969 "/>
<path style=" stroke:none;fill-rule:nonzero;fill:#000000;fill-opacity:1;" d="M 2.15625 11.316406 C 2.082031 11.257812 1.972656 11.257812 1.898438 11.316406 C 1.832031 11.371094 0.214844 12.679688 0.214844 14.058594 C 0.214844 15.199219 0.960938 16 2.027344 16 C 3.125 16 3.921875 15.183594 3.921875 14.058594 C 3.921875 12.746094 2.226562 11.375 2.15625 11.316406 Z M 2.273438 15.484375 C 2.257812 15.488281 2.242188 15.492188 2.222656 15.492188 C 2.132812 15.492188 2.050781 15.429688 2.027344 15.335938 C 1.996094 15.226562 2.0625 15.117188 2.171875 15.089844 C 2.210938 15.078125 3.027344 14.851562 3.027344 14.03125 C 3.027344 13.917969 3.121094 13.828125 3.234375 13.828125 C 3.347656 13.828125 3.4375 13.917969 3.4375 14.03125 C 3.4375 14.945312 2.675781 15.382812 2.273438 15.484375 Z M 2.273438 15.484375 "/>
</g>
</svg>
