<svg width="16" height="16" viewBox="0 0 16 16" xmlns="http://www.w3.org/2000/svg">
<path fill-rule="evenodd" clip-rule="evenodd" d="M8 16C12.4183 16 16 12.4183 16 8C16 3.58172 12.4183 0 8 0C3.58172 0 0 3.58172 0 8C0 12.4183 3.58172 16 8 16ZM11.7 5.71L9.41 8L11.71 10.29C11.89 10.47 12 10.72 12 11C12 11.55 11.55 12 11 12C10.72 12 10.47 11.89 10.29 11.7L8 9.41L5.71 11.71C5.53 11.89 5.28 12 5 12C4.45 12 4 11.55 4 11C4 10.72 4.11 10.47 4.3 10.29L6.59 8L4.29 5.71C4.11 5.53 4 5.28 4 5C4 4.45 4.45 4 5 4C5.28 4 5.53 4.11 5.71 4.29L8 6.59L10.29 4.29C10.47 4.11 10.72 4 11 4C11.55 4 12 4.45 12 5C12 5.28 11.89 5.53 11.7 5.71Z"/>
</svg>
