<svg xmlns="http://www.w3.org/2000/svg" viewBox="0 0 16 16">
  <path d="M2 1a1 1 0 0 1 1-1h7l5 5v10a1 1 0 0 1-1 1h-2.518A2.5 2.5 0 0 0 12 14.5q-.002-.267-.053-.5H13V6H9V2H4v8.514a2.6 2.6 0 0 0-.492.5A2.34 2.34 0 0 0 2 10.046zM7.491 15.988 7.5 16h-.018zM1.5 11a1.42 1.42 0 0 0-1.035.426c-.262.268-.41.626-.46 1.008L0 12.467V14.5c0 .76.655 1.5 1.5 1.5A1.5 1.5 0 0 0 3 14.5a.5.5 0 0 0-1 0 .5.5 0 0 1-.5.5c-.26 0-.5-.26-.5-.5v-1.964a.75.75 0 0 1 .18-.412A.42.42 0 0 1 1.5 12c.173 0 .264.048.321.104.066.064.146.197.184.466a.5.5 0 1 0 .99-.14c-.057-.406-.2-.773-.474-1.04-.28-.275-.642-.39-1.021-.39"/>
  <path d="M4 12.5c0-.76.655-1.5 1.5-1.5A1.5 1.5 0 0 1 7 12.5a.5.5 0 0 1-1 0 .5.5 0 0 0-.5-.5c-.26 0-.5.26-.5.5 0 .092.028.154.129.236.126.103.31.188.575.308l.027.011c.23.104.533.239.773.434.274.225.496.55.496 1.011 0 .76-.655 1.5-1.5 1.5A1.5 1.5 0 0 1 4 14.5a.5.5 0 0 1 1 0 .5.5 0 0 0 .5.5c.26 0 .5-.26.5-.5 0-.092-.028-.154-.129-.236-.126-.103-.31-.188-.575-.308l-.027-.011c-.23-.104-.533-.239-.773-.434C4.222 13.286 4 12.96 4 12.5M9.5 11c-.845 0-1.5.74-1.5 1.5 0 .46.222.786.496 1.01.24.196.543.331.773.435l.027.011c.266.12.45.205.575.308.1.082.129.144.129.236 0 .24-.24.5-.5.5a.5.5 0 0 1-.5-.5.5.5 0 0 0-1 0A1.5 1.5 0 0 0 9.5 16c.845 0 1.5-.74 1.5-1.5 0-.46-.222-.786-.496-1.01-.24-.196-.543-.331-.773-.435l-.027-.011c-.266-.12-.45-.205-.575-.308-.1-.082-.129-.144-.129-.236 0-.24.24-.5.5-.5a.5.5 0 0 1 .5.5.5.5 0 0 0 1 0A1.5 1.5 0 0 0 9.5 11"/>
</svg>
