<svg xmlns="http://www.w3.org/2000/svg" viewBox="0 0 16 16">
  <path d="M3.97822.12353c.36683-.18778.8038-.15993 1.14505.07298l2.36782 1.61608c.31794.217.50891.58232.50891.97353v.66791l-.74897.3054C6.48675 4.07108 6 4.81757 6 5.63192v.95226l-.313-.21363c-.64269-.43865-1.47064-.49232-2.16444-.13718L1.00173 7.52376l-.49282-.33635C.19097 6.97041 0 6.60509 0 6.21388V2.88305c0-.44317.24457-.84831.63176-1.0465L3.97822.12353Zm3.65039 4.56188 3.95449-1.6125c.2652-.10814.5631-.09551.8186.03471l3.0455 1.55236c.3388.17268.5528.52567.5528.91179v4.79633c0 .4168-.249.7917-.6286.9465l-3.9545 1.6125c-.2652.1081-.5631.0955-.8186-.0347L7.55279 11.34C7.214 11.1673 7 10.8144 7 10.4282V5.63192c0-.41685.24895-.7917.62861-.94651Z"/>
  <path d="M6 7.7949v2.6333c0 .7548.41838 1.456 1.09867 1.8028L8 12.6904v.4265c0 .4432-.24457.8484-.63175 1.0466l-3.34647 1.713c-.36683.1877-.8038.1599-1.14505-.073L.50891 14.1874C.19097 13.9704 0 13.6051 0 13.2139V9.88305c0-.44317.24457-.84831.63176-1.0465l3.34646-1.71302c.36683-.18778.8038-.15993 1.14505.07298L6 7.7949Z"/>
</svg>
