<svg xmlns="http://www.w3.org/2000/svg" viewBox="0 0 16 16">
    <path d="M8.74 9.203 6.8 7.263l5.022-5.021 1.94 1.94zM5 11.008l1.093-3.033 1.942 1.941zM13.657.4c.251-.243.597-.4.975-.4.763 0 1.376.62 1.368 1.367 0 .385-.15.723-.401.974l-1.132 1.132-1.942-1.94zM8.496.284 10.96 1.69 6.301 6.349l-4.495-2.81L7.504.284a1 1 0 0 1 .992 0"/>
    <path d="m1.056 4.25 4.52 2.824-.193.193a1 1 0 0 0-.256.44L4.059 10.67a1 1 0 0 0 1.28 1.28l2.161-.777v4.542l-5.996-3.426A1 1 0 0 1 1 11.42V4.58a1 1 0 0 1 .056-.33M8.5 15.714v-4.912a1 1 0 0 0 .314-.258l5.655-5.655.05-.054.46-.46q.021.101.021.205v6.84a1 1 0 0 1-.504.868z"/>
</svg>
