<svg width="16" height="16" viewBox="0 0 16 16" fill="none" xmlns="http://www.w3.org/2000/svg">
<path fill-rule="evenodd" clip-rule="evenodd" d="M8.08761 1.12458C8.23179 1.20696 10.5 2.5 10.5 2.5C10.5 2.5 8.5 4 8.5 4.5L8 7.5L7.61851 7.86304L1.76232 4.20292L7.14941 1.12458C7.44009 0.958475 7.79693 0.958475 8.08761 1.12458ZM14.237 6.6131V11.6539C14.237 11.9932 14.0552 12.3065 13.7606 12.4749L8.09126 15.7145V8.68266C8.09126 8.68266 8.97592 9.4925 9.49999 9.49993C10.0241 9.50735 12.0821 8.66199 12.0414 8.68266C12.9869 8.20991 13.7352 7.06225 14.237 6.6131ZM1.05314 4.87457L7.14576 8.68245V15.7143L1.4764 12.4747C1.18181 12.3063 1 11.993 1 11.6537V5.18713C1 5.07902 1.01846 4.97355 1.05314 4.87457Z" fill="#5F6B7C"/>
<path d="M14.9941 1.45161C15.1105 1.57291 15.3309 1.80245 15.5469 2.02716C16.0998 2.60256 15.4555 3.22135 15.4555 3.22135C15.4555 3.22135 15.4555 3.22135 15.4555 3.22135V3.22135L11.7445 6.78549C11.6431 6.88287 11.5223 6.95777 11.3901 7.00532L9.25044 7.77436C9.0877 7.83286 8.93245 7.67121 8.99747 7.51096L9.85223 5.40412C9.90508 5.27386 9.9848 5.15621 10.0862 5.05884L13.7972 1.4947C13.7972 1.4947 13.7972 1.4947 13.7972 1.4947C13.7972 1.4947 14.4415 0.875909 14.9941 1.45161Z" fill="#5F6B7C"/>
</svg>
