<svg xmlns="http://www.w3.org/2000/svg" viewBox="0 0 16 16">
  <path d="M3.978.124a1.12 1.12 0 0 1 1.145.073l2.368 1.616c.318.217.509.582.509.973v.668l-.749.305A2.02 2.02 0 0 0 6 5.632v.952l-.313-.213a2.12 2.12 0 0 0-2.164-.138l-2.521 1.29-.493-.336A1.18 1.18 0 0 1 0 6.214V2.883c0-.443.245-.848.632-1.046zm3.65 4.561 3.955-1.612a.98.98 0 0 1 .819.035l3.045 1.552c.339.173.553.526.553.912v4.796c0 .417-.249.792-.629.947l-3.954 1.612a.98.98 0 0 1-.819-.035L7.553 11.34A1.02 1.02 0 0 1 7 10.428V5.632c0-.417.249-.792.629-.947"/>
  <path d="M6 7.795v2.633c0 .755.418 1.456 1.099 1.803l.901.46v.426c0 .443-.245.848-.632 1.047l-3.346 1.713a1.12 1.12 0 0 1-1.145-.074L.509 14.188A1.18 1.18 0 0 1 0 13.214v-3.33c0-.444.245-.85.632-1.047l3.346-1.713a1.12 1.12 0 0 1 1.145.073z"/>
</svg>
