<svg xmlns="http://www.w3.org/2000/svg" viewBox="0 0 16 16">
  <path d="M3.62 3.056C4.102 2.25 5 2 6 2a1 1 0 0 1 0 2c-.44 0-.615.065-.67.097a.7.7 0 0 0-.03.17c-.012.153-.005.342.01.612l.008.118c.03.48.074 1.18-.112 1.854-.113.412-.305.801-.596 1.149.29.348.483.737.596 1.149.186.674.142 1.375.112 1.854l-.007.118a5 5 0 0 0-.01.613.7.7 0 0 0 .028.169c.056.032.23.097.671.097a1 1 0 1 1 0 2c-1 0-1.897-.25-2.38-1.056a2.4 2.4 0 0 1-.313-1.05 6.5 6.5 0 0 1 .007-.89l.002-.023c.033-.573.056-.96-.038-1.301-.072-.26-.224-.535-.725-.786a1 1 0 0 1 0-1.788c.501-.251.653-.526.725-.786.094-.34.071-.728.038-1.301l-.002-.023a6.5 6.5 0 0 1-.007-.89c.025-.313.097-.692.312-1.05m1.687 8.828q.001 0 .016.015-.018-.014-.016-.015m0-7.768q-.002 0 .016-.015-.015.016-.016.015M12.38 3.056C11.898 2.25 11 2 10 2a1 1 0 0 0 0 2c.44 0 .615.065.67.097a.7.7 0 0 1 .03.17c.012.153.005.342-.01.612l-.008.118c-.03.48-.074 1.18.112 1.854.113.412.305.801.595 1.149-.29.348-.482.737-.595 1.149-.186.674-.142 1.375-.112 1.854l.007.118c.016.27.023.46.01.613a.7.7 0 0 1-.028.169c-.056.032-.23.097-.671.097a1 1 0 1 0 0 2c1 0 1.897-.25 2.38-1.056.216-.358.288-.737.313-1.05.025-.31.008-.629-.007-.89l-.002-.023c-.033-.573-.056-.96.038-1.301.072-.26.224-.535.725-.786a1 1 0 0 0 0-1.788c-.501-.251-.653-.526-.725-.786-.094-.34-.071-.728-.038-1.301l.002-.023c.015-.261.032-.58.007-.89a2.4 2.4 0 0 0-.312-1.05m-1.687 8.828q-.001 0-.016.015.018-.014.016-.015m0-7.768q.002 0-.016-.015.015.016.016.015"/>
</svg>
