<svg xmlns="http://www.w3.org/2000/svg" viewBox="0 0 16 16">
  <path d="M5 4c-.55 0-1 .45-1 1s.45 1 1 1 1-.45 1-1-.45-1-1-1M4 7c-.55 0-1 .45-1 1s.45 1 1 1 1-.45 1-1-.45-1-1-1m4-2c.55 0 1-.45 1-1s-.45-1-1-1-1 .45-1 1 .45 1 1 1m-2 6c0 1.1.9 2 2 2s2-.9 2-2c0-.53-2-5-2-5s-2 4.47-2 5M8 0C3.58 0 0 3.58 0 8s3.58 8 8 8 8-3.58 8-8-3.58-8-8-8m0 14c-3.31 0-6-2.69-6-6s2.69-6 6-6 6 2.69 6 6-2.69 6-6 6m4-9c0-.55-.45-1-1-1s-1 .45-1 1 .45 1 1 1 1-.45 1-1m0 2c-.55 0-1 .45-1 1s.45 1 1 1 1-.45 1-1-.45-1-1-1"/>
</svg>
