<svg xmlns="http://www.w3.org/2000/svg" viewBox="0 0 16 16">
  <path d="M13 2c0 1.1-2.69 2-6 2-3.32 0-6-.9-6-2s2.68-2 6-2c3.31 0 6 .9 6 2"/>
  <path d="M1 8V3.52C2.22 4.4 4.44 5 7 5s4.78-.6 6-1.48V6a5 5 0 0 0-7.999 3.886C2.671 9.61 1 8.867 1 8M1 9.52c.902.65 2.35 1.148 4.078 1.363a5 5 0 0 0 6.75 3.772l.352.353C11.137 15.6 9.206 16 7 16c-3.31 0-6-.9-6-2z"/>
  <path d="m14.29 15.71-2.256-2.265A4.002 4.002 0 0 1 6 10v-.028a4 4 0 1 1 7.445 2.063l2.265 2.255a1.003 1.003 0 0 1-1.42 1.42M10 12a2 2 0 1 0-2-2.028V10a2 2 0 0 0 2 2"/>
</svg>
