<svg width="16" height="16" viewBox="0 0 16 16" fill="none" xmlns="http://www.w3.org/2000/svg">
<path fill-rule="evenodd" clip-rule="evenodd" d="M15 0H1C0.4 0 0 0.5 0 1V13C0 13.6 0.4 14 1 14H5.12555C5.04358 13.6805 5 13.3454 5 13C4.26167 13 3.61512 12.5972 3.26865 12H2V10H3.26411C3.35144 9.84744 3.45861 9.70718 3.58289 9.58289L4.16579 9H2V7H6C6 7 6.58003 7 7 7H10C10 7 10.5743 7 11 7H14V8.35169C14.6226 9.05668 15 9.98352 15 11C15.364 11 15.7056 11.0979 16 11.2687V1C16 0.5 15.6 0 15 0ZM6 6H2V4H6V6ZM10 6H7V4H10V6ZM14 6H11V4H14V6Z" fill="#5F6B7C"/>
<path fill-rule="evenodd" clip-rule="evenodd" d="M9.71 10.29L7.71 8.29C7.53 8.11 7.28 8 7 8C6.72 8 6.47 8.11 6.29 8.29L4.29 10.29C4.11 10.47 4 10.72 4 11C4 11.55 4.45 12 5 12C5.28 12 5.53 11.89 5.71 11.71L6 11.41V13C6 14.66 7.34 16 9 16C9.55 16 10 15.55 10 15C10 14.45 9.55 14 9 14C8.45 14 8 13.55 8 13V11.41L8.29 11.71C8.47 11.89 8.72 12 9 12C9.55 12 10 11.55 10 11C10 10.72 9.89 10.47 9.71 10.29Z" fill="#5F6B7C"/>
<path fill-rule="evenodd" clip-rule="evenodd" d="M10.29 13.71L12.29 15.71C12.47 15.89 12.72 16 13 16C13.28 16 13.53 15.89 13.71 15.71L15.71 13.71C15.89 13.53 16 13.28 16 13C16 12.45 15.55 12 15 12C14.72 12 14.47 12.11 14.29 12.29L14 12.59V11C14 9.34 12.66 8 11 8C10.45 8 10 8.45 10 9C10 9.55 10.45 10 11 10C11.55 10 12 10.45 12 11V12.59L11.71 12.29C11.53 12.11 11.28 12 11 12C10.45 12 10 12.45 10 13C10 13.28 10.11 13.53 10.29 13.71Z" fill="#5F6B7C"/>
</svg>
