<svg xmlns="http://www.w3.org/2000/svg" viewBox="0 0 16 16">
  <path d="M7 4c3.31 0 6-.9 6-2s-2.69-2-6-2C3.68 0 1 .9 1 2s2.68 2 6 2"/>
  <path d="M1 3.52V8c0 .867 1.672 1.61 4.001 1.886A5 5 0 0 1 13 6V3.52C11.78 4.4 9.56 5 7 5s-4.78-.6-6-1.48M1 9.52c.902.65 2.35 1.148 4.078 1.363a5 5 0 0 0 6.75 3.772l.352.353C11.137 15.6 9.206 16 7 16c-3.31 0-6-.9-6-2z"/>
  <path d="m12.034 13.445 2.256 2.265a1.003 1.003 0 0 0 1.42-1.42l-2.265-2.255A4 4 0 0 0 14 10c0-1.014-.378-1.94-1-2.646a4 4 0 1 0-.966 6.09m-3.793-2.493a2 2 0 1 0 3.517-1.903 2 2 0 0 0-3.517 1.903"/>
</svg>
