<svg xmlns="http://www.w3.org/2000/svg" viewBox="0 0 16 16">
  <path d="M7 4c3.31 0 6-.9 6-2s-2.69-2-6-2C3.68 0 1 .9 1 2s2.68 2 6 2"/>
  <path d="M1 3.52V8c0 .55.67 1.049 1.755 1.411l1.828-1.828A2 2 0 0 1 6 7c.548 0 1.052.218 1.417.583l.59.59A2 2 0 0 1 8 8c0-.527.18-1.044.568-1.432S9.473 6 10 6a4.97 4.97 0 0 1 3 1.005V3.52C11.78 4.4 9.56 5 7 5s-4.78-.6-6-1.48M1 9.52c.327.236.725.451 1.182.64A2.003 2.003 0 0 0 4.1 12.997a5.02 5.02 0 0 0 1.867 2.973C3.148 15.806 1 14.983 1 14z"/>
  <path d="M14 11c0-2.2-1.8-4-4-4-.6 0-1 .4-1 1s.4 1 1 1c1.1 0 2 .9 2 2v.59l-.29-.3a1.003 1.003 0 0 0-1.42 1.42l2 2c.18.18.43.29.71.29s.53-.11.71-.29l2-2A1.003 1.003 0 0 0 15 11c-.28 0-.53.11-.71.3l-.29.29zM4.71 11.71a1.003 1.003 0 0 1-1.42-1.42l2-2C5.47 8.11 5.72 8 6 8s.53.11.71.29l2 2A1.003 1.003 0 0 1 8 12c-.28 0-.53-.11-.71-.3L7 11.41V12c0 1.1.9 2 2 2 .6 0 1 .4 1 1s-.4 1-1 1c-2.2 0-4-1.8-4-4v-.59z"/>
</svg>
