<svg xmlns="http://www.w3.org/2000/svg" viewBox="0 0 16 16">
  <path d="M.594 15.394q.594.606 1.56.606.653 0 1.202-.295c.377-.197.61-.33.936-.62v.729H6v-4.52q0-1.601-.683-2.44Q4.648 8 3.282 8a4.5 4.5 0 0 0-1.633.295q-.757.295-1.367.7l.624 1.195q.49-.31.995-.528a2.7 2.7 0 0 1 1.054-.217q.372 0 .624.124a.9.9 0 0 1 .401.326q.164.202.223.482.075.264.09.559a12 12 0 0 0-1.946.357q-.802.233-1.337.575a2.2 2.2 0 0 0-.772.823Q0 13.157 0 13.763q0 1.01.594 1.631m2.911-1.01a1.5 1.5 0 0 1-.802.218q-.461 0-.757-.233-.297-.233-.297-.746 0-.279.133-.528.134-.248.446-.435.312-.202.817-.357a7.5 7.5 0 0 1 1.247-.249v1.71q-.416.403-.787.62M9.64 15.755q.548.245 1.079.245.64 0 1.234-.276T13 14.928q.453-.522.719-1.272.28-.766.281-1.731 0-.873-.203-1.578a3.4 3.4 0 0 0-.594-1.195 2.54 2.54 0 0 0-.953-.766 2.9 2.9 0 0 0-1.281-.276q-.594 0-1.172.26c-.375.174-.677.399-1 .675V5H7v10.816h1.797v-.62c.3.294.465.374.772.524zm1.985-1.854q-.515.644-1.281.643-.345 0-.75-.137c-.184-.065-.37-.246-.559-.43q-.118-.116-.238-.223V10.5c.583-.562 1.146-.935 1.687-.935q.876 0 1.266.629.39.628.39 1.761 0 1.287-.515 1.946M13.707 1.257a3.6 3.6 0 0 1-.707.069v1.028h1.737V8H16V0h-.94q-.06.366-.262.617a1.55 1.55 0 0 1-.475.412 2 2 0 0 1-.616.228"/>
</svg>
