<svg xmlns="http://www.w3.org/2000/svg" viewBox="0 0 16 16">
  <path d="M14.22 6a1 1 0 0 1 .97.757l.5 2A1 1 0 0 1 14.72 10H8a1 1 0 0 1-1-1V5.303a1 1 0 0 1 .168-.555l1.535-2.303A1 1 0 0 1 9.535 2H12a1 1 0 0 1 1 1v3zm-3.89-2L9 6h2V4zM1.722 1.111A1 1 0 0 1 3.064.425L5.99 1.596a1 1 0 0 1 .523 1.376L6 4 3 3 2 8h3l-2.237 2.11a.94.94 0 0 1-.948.221C.782 9.973.045 9.424.002 8.124A.9.9 0 0 1 .03 7.88L.25 7zM3 13.5A2.5 2.5 0 0 1 5.5 11h8a2.5 2.5 0 0 1 0 5h-8A2.5 2.5 0 0 1 3 13.5m2 0a.5.5 0 0 1 .5-.5h8a.5.5 0 0 1 0 1h-8a.5.5 0 0 1-.5-.5"/>
</svg>
