<?xml version="1.0" encoding="UTF-8" standalone="no"?>
<!-- Uploaded to: SVG Repo, www.svgrepo.com, Transformed by: SVG Repo Mixer Tools -->

<svg
   fill="#000000"
   height="64"
   width="64"
   version="1.1"
   viewBox="-8.68 -8.68 451.45 451.45"
   enable-background="new 0 0 434.094 434.094"
   stroke="#000000"
   stroke-width="0.00434094"
   id="svg1"
   sodipodi:docname="excavator-svgrepo-com.svg"
   inkscape:version="1.3.2 (091e20e, 2023-11-25)"
   xmlns:inkscape="http://www.inkscape.org/namespaces/inkscape"
   xmlns:sodipodi="http://sodipodi.sourceforge.net/DTD/sodipodi-0.dtd"
   xmlns="http://www.w3.org/2000/svg"
   xmlns:svg="http://www.w3.org/2000/svg">
  <defs
     id="defs1" />
  <sodipodi:namedview
     id="namedview1"
     pagecolor="#ffffff"
     bordercolor="#000000"
     borderopacity="0.25"
     inkscape:showpageshadow="2"
     inkscape:pageopacity="0.0"
     inkscape:pagecheckerboard="0"
     inkscape:deskcolor="#d1d1d1"
     showgrid="false"
     inkscape:zoom="13.506124"
     inkscape:cx="30.578721"
     inkscape:cy="35.835596"
     inkscape:window-width="2560"
     inkscape:window-height="1387"
     inkscape:window-x="1512"
     inkscape:window-y="25"
     inkscape:window-maximized="1"
     inkscape:current-layer="SVGRepo_iconCarrier" />
  <g
     id="SVGRepo_iconCarrier"
     style="display:inline;stroke-width:0.00705391;stroke-dasharray:none">
    <path
       d="M 4.5401808,276.0221 C 12.547182,263.65916 24.40101,256.14071 37.475517,254.94427 V 180.8935 c 0,-7.49389 4.191755,-14.1092 10.332638,-16.30429 l 76.112095,-27.21702 8.25723,-58.199412 c 1.16807,-8.231966 7.26803,-14.26746 14.41915,-14.26746 h 90.66804 l 56.43487,-47.705503 c 1.97953,-1.673948 4.28879,-2.742164 6.71498,-3.105059 l 78.34462,-0.253703 c 6.8401,-1.02456 13.37384,3.678049 15.65504,11.28108 l 44.30744,147.700437 c 0.52967,1.76672 0.8021,3.60439 0.81964,5.43932 l 0.75183,66.06301 c 0.33092,29.07787 -17.12595,54.56365 -41.50709,60.59778 -3.56387,0.88132 -7.14878,1.30834 -10.70445,1.30834 -18.88334,0 -36.91195,-12.03961 -46.16537,-31.8637 l -26.40977,-56.58005 c -2.13271,-4.5689 -2.36187,-10.02459 -0.61971,-14.81451 1.74101,-4.78992 5.26162,-8.39021 9.5586,-9.77766 L 405.96985,166.88121 370.73577,49.427828 307.83222,47.369103 275.79952,74.446964 V 254.75599 h 11.7112 c 14.51853,0 27.86663,7.75173 36.61846,21.26611 8.75297,13.51575 11.49953,30.61268 7.53579,46.9088 l -6.26015,25.73952 c -7.49254,30.8023 -31.8912,52.31535 -59.33341,52.31535 H 62.59795 c -27.442212,0 -51.840885,-21.51305 -59.3334179,-52.31535 L -2.9967713,322.9309 C -6.9605171,306.63478 -4.21397,289.53648 4.5401808,276.0221 Z m 345.4414592,-55.68229 17.60418,37.71502 c 4.85939,10.41069 15.19553,15.9646 25.13412,13.50346 10.77578,-2.66713 18.48931,-13.92911 18.34315,-26.78046 l -0.50043,-43.99199 z M 66.706676,254.75599 H 122.2459 V 173.6438 L 66.706676,193.50473 Z M 210.11595,99.010486 v 69.723344 l 36.45242,13.62898 V 99.010486 Z m 36.45242,119.168284 -55.52751,-20.76133 c -6.05085,-2.26196 -10.15608,-8.82677 -10.15608,-16.24017 V 99.010486 h -21.89296 l -7.51593,52.971574 v 102.77393 h 95.09131 v -36.57722 z m -221.443601,95.44104 6.261323,25.73952 c 3.941516,16.20333 16.776343,27.51988 31.213018,27.51988 h 203.47347 c 14.43667,0 27.2715,-11.31655 31.21304,-27.51988 l 6.26013,-25.73952 c 1.43935,-5.91818 0.44198,-12.12694 -2.73603,-17.03419 -3.17918,-4.90724 -8.02571,-7.72309 -13.29783,-7.72309 H 41.159823 c -5.272145,0 -10.118659,2.81448 -13.297857,7.72309 -3.179176,4.90725 -4.176546,11.11601 -2.737197,17.03419 z"
       id="path1"
       style="display:inline;stroke-width:0.00890907;stroke-dasharray:none"
       inkscape:label="path1"
       sodipodi:nodetypes="ccscccscccccccscscccccccccscccssccccsccccccccccccccccsccccccccssscccsscc" />
    <circle
       style="fill:#000000;stroke-width:0.00897773;stroke-dasharray:none"
       id="path3"
       cx="-239.11597"
       cy="323.85928"
       r="20.614922"
       transform="scale(-1,1)" />
    <circle
       style="display:inline;fill:#000000;stroke-width:0.00897773;stroke-dasharray:none"
       id="path3-4"
       cx="-164.88609"
       cy="323.85928"
       r="20.614922"
       transform="scale(-1,1)" />
    <circle
       style="display:inline;fill:#000000;stroke-width:0.00897773;stroke-dasharray:none"
       id="path3-0"
       cx="-90.656181"
       cy="323.85928"
       r="20.614922"
       transform="scale(-1,1)" />
  </g>
</svg>
