<svg width="16" height="16" viewBox="0 0 16 16" fill="none" xmlns="http://www.w3.org/2000/svg">
<path fill-rule="evenodd" clip-rule="evenodd" d="M8 0C3.58172 0 0 3.58172 0 8C0 12.4183 3.58172 16 8 16H16V8C16 3.58172 12.4183 0 8 0ZM6 9C6.55229 9 7 9.44772 7 10V12.4907C7 12.7722 7.22816 13.0004 7.50962 13.0004C7.68962 13.0004 7.85627 12.9054 7.94804 12.7506L10.9342 7.71139C10.9773 7.63872 11 7.55579 11 7.47131C11 7.21121 10.7892 7.00037 10.5291 7.00037H10C9.44771 7.00037 9 6.55265 9 6.00037V3.50962C9 3.22816 8.77184 3 8.49038 3C8.31038 3 8.14373 3.09496 8.05196 3.24981L5.06579 8.28897C5.02273 8.36165 5 8.44458 5 8.52906C5 8.78915 5.21085 9 5.47094 9H6Z" fill="#111418"/>
</svg>
