<svg xmlns="http://www.w3.org/2000/svg" viewBox="0 0 16 16">
  <path d="M11.693 2.693a.5.5 0 0 0 .654.047L15.44.42c.093-.07.21.047.14.14l-2.32 3.093a.5.5 0 0 0 .047.654l.34.34a.5.5 0 0 1 0 .707l-1.47 1.47a.5.5 0 0 0-.142.423l.93 6.506a.5.5 0 0 1-.142.424l-.59.59a.5.5 0 0 1-.54.11L7.275 13.11a.2.2 0 0 0-.274.185v2.011a.5.5 0 0 1-.658.475l-1.923-.641a.5.5 0 0 1-.332-.573l.392-1.962a.2.2 0 0 0-.055-.18L4 12l-.424-.424a.2.2 0 0 0-.181-.055l-1.962.392a.5.5 0 0 1-.573-.332L.22 9.658A.5.5 0 0 1 .693 9h2.01a.2.2 0 0 0 .186-.274l-1.768-4.42a.5.5 0 0 1 .111-.54l.59-.59a.5.5 0 0 1 .424-.14l6.506.929a.5.5 0 0 0 .424-.142l1.47-1.47a.5.5 0 0 1 .707 0z"/>
</svg>
