<svg xmlns="http://www.w3.org/2000/svg" viewBox="0 0 16 16">
  <path d="M1 5.326q.411 0 .8-.069.388-.069.697-.228a1.7 1.7 0 0 0 .537-.412q.23-.25.297-.617h1.063v8H2.966V6.354H1zM12.172 4.01q.825 0 1.342.385.528.375.814.968.297.583.396 1.287.11.704.11 1.364t-.11 1.364q-.099.704-.396 1.298-.285.583-.814.968-.517.375-1.342.374-.825 0-1.353-.374a2.74 2.74 0 0 1-.814-.968 4.6 4.6 0 0 1-.396-1.298 10 10 0 0 1-.099-1.364q0-.66.099-1.364.11-.704.396-1.287.297-.594.814-.968.528-.385 1.353-.385m0 6.963q.407 0 .682-.231.274-.242.429-.638.165-.407.231-.946t.066-1.144-.066-1.133a3.7 3.7 0 0 0-.231-.946 1.5 1.5 0 0 0-.429-.638 1 1 0 0 0-.682-.242q-.418 0-.693.242a1.66 1.66 0 0 0-.429.638 4 4 0 0 0-.22.946q-.066.528-.066 1.133t.066 1.144.22.946q.165.396.429.638.274.231.693.231M8.089 10.5H6.5v1.543h1.589z"/>
</svg>
