<svg width="16" height="16" viewBox="0 0 16 16" fill="none" xmlns="http://www.w3.org/2000/svg">
<path fill-rule="evenodd" clip-rule="evenodd" d="M8 2C8.4089 2 8.77661 2.24895 8.92848 2.62861L12.92 12.6075C12.9715 12.728 13 12.8607 13 13C13 13.5523 12.5523 14 12 14C11.5707 14 11.2047 13.7295 11.0629 13.3497L10.123 11H5.87703L4.93713 13.3498C4.79532 13.7296 4.42924 14 4 14C3.44772 14 3 13.5523 3 13C3 12.8607 3.02849 12.728 3.07995 12.6075L7.07152 2.62861C7.22339 2.24895 7.5911 2 8 2ZM6.67703 9H9.32297L8 5.69258L6.67703 9Z" fill="black"/>
</svg>
