<svg xmlns="http://www.w3.org/2000/svg" viewBox="0 0 16 16">
  <path d="M8.002 16a6.8 6.8 0 0 1-2.732-.556 7.1 7.1 0 0 1-2.221-1.509 7.2 7.2 0 0 1-1.498-2.237A6.9 6.9 0 0 1 1 8.947q0-1.468.551-2.748a7.1 7.1 0 0 1 1.503-2.234 7.2 7.2 0 0 1 2.225-1.51A6.8 6.8 0 0 1 8.01 1.9h.111l-.47-.474a.8.8 0 0 1-.244-.583q0-.339.233-.583A.8.8 0 0 1 8.228 0a.78.78 0 0 1 .588.24l1.93 1.945a.97.97 0 0 1 .294.7q0 .402-.294.697l-1.93 1.946a.78.78 0 0 1-.588.24.8.8 0 0 1-.588-.249.82.82 0 0 1-.238-.578.78.78 0 0 1 .238-.577l.491-.496h-.12q-2.105 0-3.581 1.478T2.954 8.944t1.469 3.604Q5.89 14.031 8 14.031t3.577-1.478q1.47-1.477 1.47-3.598 0-.41.284-.698a.94.94 0 0 1 .692-.287q.407 0 .692.287t.285.698q0 1.455-.551 2.741a7.1 7.1 0 0 1-1.498 2.239 7.1 7.1 0 0 1-2.219 1.51 6.75 6.75 0 0 1-2.73.555"/>
  <path d="M9 7h1a1 1 0 0 1 1 1v3a1 1 0 0 1-1 1H9a1 1 0 0 1-1-1V8a1 1 0 0 1 1-1m1 1H9v3h1zM5 7.5a.5.5 0 0 1 .5-.5H6a1 1 0 0 1 1 1v3.5a.5.5 0 0 1-1 0V8h-.5a.5.5 0 0 1-.5-.5"/>
</svg>
