<svg xmlns="http://www.w3.org/2000/svg" viewBox="0 0 16 16">
  <path d="M8.12 4.74H6.98c.33-1.29.75-2.24 1.28-2.84.33-.37.64-.56.95-.56.06 0 .11.02.15.05q.06.06.06.15c0 .05-.04.15-.13.29s-.13.28-.13.4c0 .18.07.33.2.46.14.13.31.19.52.19.22 0 .41-.08.56-.23.15-.16.23-.37.23-.63 0-.3-.11-.55-.34-.74S9.74 1 9.24 1c-.78 0-1.49.22-2.12.67-.64.45-1.24 1.2-1.81 2.23-.2.36-.38.59-.56.69s-.46.15-.85.15l-.26.9h1.08l-1.59 6.12c-.27 1.01-.44 1.63-.54 1.86-.14.34-.34.63-.62.87-.11.1-.24.15-.4.15a.15.15 0 0 1-.11-.04l-.04-.05c0-.03.04-.08.12-.16q.12-.12.12-.36c0-.18-.06-.33-.19-.44q-.18-.18-.54-.18c-.28 0-.51.08-.68.23-.16.14-.25.32-.25.53 0 .22.1.42.31.59s.53.25.97.25c.7 0 1.32-.18 1.87-.54.54-.36 1.02-.92 1.42-1.67.41-.75.82-1.96 1.25-3.63l.91-3.54h1.1zm5.43 1.52c.2-.15.41-.23.62-.23q.12 0 .45.09t.57.09c.23 0 .42-.08.57-.23.16-.16.24-.36.24-.61 0-.26-.08-.47-.23-.62s-.37-.23-.66-.23c-.25 0-.5.06-.72.18-.23.12-.51.38-.86.78-.26.3-.64.81-1.15 1.55-.2-.91-.55-1.75-1.05-2.51l-2.72.46-.06.29q.3-.06.51-.06c.27 0 .49.11.67.34.28.36.67 1.45 1.17 3.26-.39.52-.66.85-.8 1.01-.24.26-.44.42-.59.5-.12.06-.25.09-.41.09-.11 0-.3-.06-.56-.18q-.27-.12-.48-.12c-.27 0-.48.08-.66.25-.17.17-.26.38-.26.64 0 .25.08.44.24.6.16.15.37.23.64.23.26 0 .5-.05.73-.16s.52-.34.86-.69c.35-.35.82-.9 1.43-1.67.23.73.44 1.25.61 1.58s.37.57.59.71c.22.15.5.22.83.22.32 0 .65-.11.98-.34.44-.3.88-.81 1.34-1.53l-.26-.15c-.31.43-.54.7-.69.8-.1.07-.22.1-.35.1q-.24 0-.48-.3c-.27-.34-.62-1.27-1.06-2.8.4-.68.73-1.13 1-1.34"/>
</svg>
