<svg width="16" height="16" viewBox="0 0 16 16" fill="none" xmlns="http://www.w3.org/2000/svg">
<path d="M7 11C7 10.4477 6.55228 10 6 10H4.8C4.35817 10 4 9.64183 4 9.2C4 9.06869 4.03232 8.9394 4.09412 8.82353L8.58824 0.397058C8.71858 0.15266 8.97302 0 9.25 0C9.66421 0 10 0.335787 10 0.75V5C10 5.55229 10.4477 6 11 6H12.2C12.6418 6 13 6.35818 13 6.8C13 6.93132 12.9677 7.06061 12.9059 7.17648L8.41176 15.603C8.28142 15.8473 8.02698 16 7.75 16C7.33579 16 7 15.6642 7 15.25V11Z" fill="#111418"/>
</svg>
