<svg xmlns="http://www.w3.org/2000/svg" viewBox="0 0 16 16">
  <path d="M12.444 6C10.544 6 9 7.494 9 9.331 9 11.175 12.444 16 12.444 16s3.443-4.825 3.443-6.669C15.881 7.494 14.345 6 12.445 6m.056 5a1.5 1.5 0 1 1 .001-3.001A1.5 1.5 0 0 1 12.5 11"/>
  <path d="M0 6c0-3.315 2.685-6 6-6a6 6 0 0 1 5.923 5.036 4.6 4.6 0 0 0-1.454.433A4.505 4.505 0 0 0 6 1.5 4.504 4.504 0 0 0 1.5 6a4.504 4.504 0 0 0 6.58 3.99c.093.425.265.913.488 1.435A6 6 0 0 1 6 12c-3.315 0-6-2.685-6-6"/>
  <path d="M6.75 3.75v1.943l1.283 1.275a.752.752 0 0 1-1.065 1.065l-1.5-1.5A.75.75 0 0 1 5.25 6V3.75c0-.412.338-.75.75-.75s.75.338.75.75"/>
</svg>
