<svg xmlns="http://www.w3.org/2000/svg" viewBox="0 0 16 16">
  <path d="M12 6c-1.3 0-2.4.84-2.82 2H9c-1.62 0-3-.96-3.63-2.34C6.33 5.16 7 4.16 7 3c0-1.66-1.34-3-3-3S1 1.34 1 3c0 1.3.84 2.4 2 2.81v4.37C1.84 10.6 1 11.7 1 13c0 1.66 1.34 3 3 3s3-1.34 3-3c0-1.3-.84-2.4-2-2.82V8.43A5.9 5.9 0 0 0 9 10h.18A2.996 2.996 0 0 0 15 9c0-1.66-1.34-3-3-3m-8 8c-.55 0-1-.45-1-1s.45-1 1-1 1 .45 1 1-.45 1-1 1M4 4c-.55 0-1-.45-1-1s.45-1 1-1 1 .45 1 1-.45 1-1 1m8 6c-.55 0-1-.45-1-1s.45-1 1-1 1 .45 1 1-.45 1-1 1"/>
</svg>
