<svg xmlns="http://www.w3.org/2000/svg" viewBox="0 0 20 20">
  <path d="m12.75 7-.002-.01Q12.874 7 13 7c0 .755.26 1.539.86 2.14q.062.06.125.116A18 18 0 0 1 13.89 12h3.83c.17-.64.28-1.31.28-2q0-.37-.04-.732A2.92 2.92 0 0 0 19 7q.264 0 .526-.049C19.834 7.912 20 8.937 20 10c0 5.52-4.48 10-10 10S0 15.52 0 10 4.48 0 10 0c1.06 0 2.084.165 3.043.472Q13 .737 13 1c-1.049 0-1.88.5-2.398 1.204A1.1 1.1 0 0 0 10 2C8.93 2 7.75 4.05 7.25 7zm.14 5c.07-.64.11-1.31.11-2s-.04-1.36-.12-2H7.11a18.4 18.4 0 0 0 0 4zM6.24 7c.31-1.99.92-3.66 1.72-4.73A8 8 0 0 0 2.61 7zM2 10c0-.69.11-1.36.28-2h3.83a18.4 18.4 0 0 0 0 4H2.28c-.17-.64-.28-1.31-.28-2m4.24 3H2.61c.94 2.31 2.9 4.08 5.35 4.73-.8-1.07-1.41-2.74-1.72-4.73M10 18c-1.07 0-2.25-2.05-2.75-5h5.5c-.5 2.95-1.68 5-2.75 5m3.76-5c-.32 1.99-.93 3.66-1.72 4.73A8 8 0 0 0 17.39 13z"/>
  <path d="M13 5c-.6 0-1-.4-1-1 0-.5.4-1 1-1h2V1c0-.6.4-1 1-1 .5 0 1 .4 1 1v2h2c.5 0 1 .4 1 1s-.5 1-1 1h-2v2c0 .6-.5 1-1 1-.6 0-1-.4-1-1V5z"/>
</svg>
