<svg width="16" height="16" viewBox="0 0 16 16" fill="none" xmlns="http://www.w3.org/2000/svg">
<path d="M8.60198 3.12132C8.21146 3.51184 8.21146 4.14501 8.60198 4.53554L11.4304 7.36396C11.8209 7.75449 12.4541 7.75449 12.8446 7.36396L15.6731 4.53554C16.0636 4.14501 16.0636 3.51184 15.6731 3.12132L12.8446 0.292893C12.4541 -0.0976311 11.8209 -0.097631 11.4304 0.292893L8.60198 3.12132Z" fill="#111418"/>
<path fill-rule="evenodd" clip-rule="evenodd" d="M0 1.0048C0 0.452518 0.447715 0.00480282 1 0.00480282H6C6.55228 0.00480282 7 0.452518 7 1.0048V6.0048C7 6.55709 6.55228 7.0048 6 7.0048H1C0.447715 7.0048 0 6.55709 0 6.0048V1.0048ZM2 5.0048V2.0048H5V5.0048H2Z" fill="#111418"/>
<path fill-rule="evenodd" clip-rule="evenodd" d="M10 9.0048C9.44772 9.0048 9 9.45252 9 10.0048V15.0048C9 15.5571 9.44771 16.0048 10 16.0048H15C15.5523 16.0048 16 15.5571 16 15.0048V10.0048C16 9.45252 15.5523 9.0048 15 9.0048H10ZM11 11.0048V14.0048H14V11.0048H11Z" fill="#111418"/>
<path fill-rule="evenodd" clip-rule="evenodd" d="M0 10.0048C0 9.45252 0.447715 9.0048 1 9.0048H6C6.55228 9.0048 7 9.45252 7 10.0048V15.0048C7 15.5571 6.55228 16.0048 6 16.0048H1C0.447715 16.0048 0 15.5571 0 15.0048V10.0048ZM2 14.0048V11.0048H5V14.0048H2Z" fill="#111418"/>
</svg>
