<svg width="16" height="16" viewBox="0 0 16 16" fill="none" xmlns="http://www.w3.org/2000/svg">
<path fill-rule="evenodd" clip-rule="evenodd" d="M14.06 8C14.02 8.23 13.94 8.44 13.81 8.61C13.68 8.78 13.52 8.91 13.33 9.02C13.15 9.13 12.94 9.2 12.71 9.25C12.48 9.29 12.25 9.32 12 9.32V10.35H13.74V16H15V8H14.06ZM7 2C6.44 2 6 2.45 6 3V7H2V3C2 2.45 1.55 2 1 2C0.44 2 0 2.45 0 3V13C0 13.55 0.45 14 1 14C1.56 14 2 13.55 2 13V9H6V13C6 13.55 6.45 14 7 14C7.56 14 8 13.55 8 13V3C8 2.46 7.55 2 7 2Z" fill="black"/>
</svg>
