<svg xmlns="http://www.w3.org/2000/svg" viewBox="0 0 16 16">
  <path d="M3.62917 14.4961.13431 8.49614c-.17908-.30743-.17908-.68485 0-.99228l3.49486-6C3.81065 1.19229 4.14841 1 4.5142 1h6.9716c.3658 0 .7035.19229.885.50386l3.4949 6c.1791.30743.1791.68485 0 .99228l-3.4949 5.99996c-.1815.3116-.5192.5039-.885.5039H4.5142c-.3658 0-.70354-.1923-.88503-.5039ZM10.0069 11.5H5.99306L3.95439 8l2.03867-3.5h4.01384L12.0456 8l-2.0387 3.5ZM5.10574 13h5.78856l2.9123-5-2.9123-5H5.10574L2.19336 8l2.91238 5ZM8 9c.56296 0 1.01934-.44772 1.01934-1S8.56296 7 8 7c-.56296 0-1.01934.44772-1.01934 1S7.43704 9 8 9Z"/>
</svg>
