<svg xmlns="http://www.w3.org/2000/svg" viewBox="0 0 16 16">
  <path d="M6.432 2q.141.211.324.394L8.42 4H3.66L1.95 8H4c.55 0 1 .45 1 1v1h6.557c.693 0 1.363-.262 1.837-.736l.103-.102.85-1.14a2.56 2.56 0 0 0 .623-1.682V5.058L16 7.46V13c0 .55-.45 1-1 1H1c-.55 0-1-.45-1-1V7.46l2.08-4.85C2.23 2.25 2.59 2 3 2zm9.048-2c.31 0 .52.26.52.57 0 .16-.06.3-.17.41l-2.86 2.73v2.63c0 .16-.06.3-.17.41l-.82 1.1c-.1.1-.25.17-.41.17-.31 0-.57-.26-.57-.57V3.71L8.17.98A.57.57 0 0 1 8 .57c0-.31.26-.57.57-.57z"/>
</svg>
