<svg width="16" height="16" viewBox="0 0 16 16" fill="none" xmlns="http://www.w3.org/2000/svg">
<path d="M8.00016 13C10.7616 13 13.0002 10.7614 13.0002 8C13.0002 5.23858 10.7616 3 8.00016 3C5.99632 3 4.2678 4.17877 3.4702 5.88073C3.43646 5.95271 3.36483 6 3.28533 6H1.55823C1.42444 6 1.32841 5.87111 1.3715 5.74445C2.31015 2.98511 4.92333 1 8.00016 1C11.8662 1 15.0002 4.13401 15.0002 8C15.0002 11.866 11.8662 15 8.00016 15C4.92333 15 2.31015 13.0149 1.3715 10.2556C1.32841 10.1289 1.42444 10 1.55823 10H3.28533C3.36483 10 3.43646 10.0473 3.4702 10.1193C4.2678 11.8212 5.99632 13 8.00016 13Z" fill="#111418"/>
<path d="M8.70287 5.29C8.5231 5.11 8.27341 5 7.99376 5C7.43446 5 6.98502 5.45 6.98502 6C6.98502 6.28 7.09488 6.53 7.27466 6.71L7.56429 7H0.998752C0.449438 7 0 7.45 0 8C0 8.55 0.449438 9 0.998752 9H7.58427L7.29463 9.29C7.11486 9.47 7.00499 9.72 7.00499 10C7.00499 10.55 7.45443 11 8.00375 11C8.2834 11 8.53308 10.89 8.71286 10.71L10.7104 8.71C10.8901 8.53 11 8.28 11 8C11 7.72 10.8901 7.47 10.7104 7.29L8.70287 5.29Z" fill="#111418"/>
</svg>
