<svg xmlns="http://www.w3.org/2000/svg" viewBox="0 0 16 16">
  <path d="M8 7c-.55 0-1 .45-1 1s.45 1 1 1 1-.45 1-1-.46-1-1-1m4.988.976v-.042a.4.4 0 0 0-.107-.216 7.6 7.6 0 0 0-1.087-1.082c-.83-.703-1.78-1.292-2.824-1.527a4.3 4.3 0 0 0-1.818-.024 5.6 5.6 0 0 0-1.593.595c-.781.427-1.5 1.01-2.125 1.665-.112.12-.225.246-.33.379a.43.43 0 0 0 0 .558c.318.403.699.758 1.086 1.082.831.703 1.78 1.292 2.824 1.527a4.4 4.4 0 0 0 1.831.024c.556-.108 1.087-.325 1.593-.595a8.7 8.7 0 0 0 2.118-1.665c.113-.12.232-.246.338-.379A.4.4 0 0 0 13 8.06V8c-.012-.012-.012-.018-.012-.024M8 10c-1.107 0-2-.893-2-2s.893-2 2-2 2 .893 2 2-.893 2-2 2M7 1a1 1 0 0 0-1-1H1a1 1 0 0 0-1 1v5a1 1 0 0 0 2 0V2h4a1 1 0 0 0 1-1m2 0a1 1 0 0 1 1-1h5a1 1 0 0 1 1 1v5a1 1 0 1 1-2 0V2h-4a1 1 0 0 1-1-1m0 14a1 1 0 0 0 1 1h5a1 1 0 0 0 1-1v-5a1 1 0 1 0-2 0v4h-4a1 1 0 0 0-1 1m-2 0a1 1 0 0 1-1 1H1a1 1 0 0 1-1-1v-5a1 1 0 0 1 2 0v4h4a1 1 0 0 1 1 1"/>
</svg>
