<?xml version="1.0" encoding="utf-8"?>
<svg version="1.1" id="Layer_1" xmlns="http://www.w3.org/2000/svg" xmlns:xlink="http://www.w3.org/1999/xlink" x="0px" y="0px"
	 viewBox="0 0 16 16" style="enable-background:new 0 0 16 16;" xml:space="preserve">
<path fill-rule="evenodd" clip-rule="evenodd" d="M16,8c0-0.4-0.2-0.7-0.5-0.8l0,0l-7-4l0,0C8.3,3.1,8.2,3,8,3S7.7,3.1,7.5,3.2l0,0l-7,4l0,0C0.2,7.3,0,7.6,0,8
	s0.2,0.7,0.5,0.8l0,0l7,4l0,0C7.7,12.9,7.8,13,8,13s0.3-0.1,0.5-0.2l0,0l7-4l0,0C15.8,8.7,16,8.4,16,8z M13.6,8.6L13.6,8.6l-5.2,3
	l0,0c-0.1,0.1-0.2,0.1-0.4,0.1s-0.3,0-0.4-0.1l0,0l-5.3-3l0,0C2.2,8.5,2,8.3,2,8s0.2-0.5,0.4-0.6l0,0l5.3-3l0,0
	C7.7,4.3,7.9,4.3,8,4.3s0.3,0,0.4,0.1l0,0l5.3,3l0,0C13.8,7.5,14,7.7,14,8S13.8,8.5,13.6,8.6z"/>
</svg>
