<svg xmlns="http://www.w3.org/2000/svg" viewBox="0 0 16 16">
  <path d="m.55 4.89 7 3c.14.07.29.11.45.11s.31-.04.45-.11l7-3a.998.998 0 0 0-.06-1.81L8.4.08a1.006 1.006 0 0 0-.79 0l-6.99 3a.992.992 0 0 0-.07 1.81M15 11c-.16 0-.31.04-.45.11L8 14l-6.55-2.9c-.14-.06-.29-.1-.45-.1-.55 0-1 .45-1 1 0 .39.23.73.55.89l7 3c.14.07.29.11.45.11s.31-.04.45-.11l7-3c.32-.16.55-.5.55-.89 0-.55-.45-1-1-1m0-4c-.16 0-.31.04-.45.11L8 10 1.45 7.11A1 1 0 0 0 1 7c-.55 0-1 .45-1 1 0 .39.23.73.55.89l7 3c.14.07.29.11.45.11s.31-.04.45-.11l7-3c.32-.16.55-.5.55-.89 0-.55-.45-1-1-1"/>
</svg>
