<svg width="16" height="16" viewBox="0 0 16 16" fill="none" xmlns="http://www.w3.org/2000/svg">
<path d="M7 7C7 6.44772 6.55228 6 6 6H1C0.447715 6 0 6.44772 0 7V9C0 9.55228 0.447715 10 1 10H6C6.55228 10 7 9.55228 7 9V7Z" fill="black"/>
<path d="M7 1C7 0.447715 6.55228 0 6 0H1C0.447715 0 0 0.447715 0 1V3C0 3.55228 0.447715 4 1 4H6C6.55228 4 7 3.55228 7 3V1Z" fill="black"/>
<path d="M7 13C7 12.4477 6.55228 12 6 12H1C0.447715 12 0 12.4477 0 13V15C0 15.5523 0.447715 16 1 16H6C6.55228 16 7 15.5523 7 15V13Z" fill="black"/>
<path d="M16 1C16 0.447715 15.5523 0 15 0H10C9.44772 0 9 0.447715 9 1V15C9 15.5523 9.44772 16 10 16H15C15.5523 16 16 15.5523 16 15V1Z" fill="black"/>
</svg>
