<svg xmlns="http://www.w3.org/2000/svg" viewBox="0 0 16 16">
  <path d="M0 2a1 1 0 0 1 1-1h6a1 1 0 0 1 1 1v4h3V4L9.854 2.854A.5.5 0 0 1 10.207 2h3.586a.5.5 0 0 1 .353.854L13 4v2c1.833 1 4.4 3.6 0 6l1.488 1.488a.3.3 0 0 1-.212.512h-.982a.53.53 0 0 1-.444-.253c-.898-1.423-2.854-3.06-4.701-.004a.52.52 0 0 1-.443.257h-.412a.53.53 0 0 1-.444-.253c-.898-1.423-2.854-3.06-4.701-.004a.52.52 0 0 1-.443.257H0zm1 5h3V2H1zm6 0V2H5v5z"/>
  <path d="M4.5 16a1.5 1.5 0 1 0 0-3 1.5 1.5 0 0 0 0 3m0-1a.5.5 0 1 1 0-1 .5.5 0 0 1 0 1M12 14.5a1.5 1.5 0 1 1-3 0 1.5 1.5 0 0 1 3 0m-1 0a.5.5 0 1 0-1 0 .5.5 0 0 0 1 0"/>
</svg>
