<svg xmlns="http://www.w3.org/2000/svg" viewBox="0 0 16 16">
  <path d="M0 2v12h1.706a.52.52 0 0 0 .443-.257c1.847-3.056 3.803-1.42 4.701.004a.53.53 0 0 0 .444.253h.412a.52.52 0 0 0 .443-.257c1.847-3.056 3.803-1.42 4.701.004a.53.53 0 0 0 .444.253h.982a.3.3 0 0 0 .212-.512L13 12c4.4-2.4 1.833-5 0-6V4l1.146-1.146A.5.5 0 0 0 13.793 2h-3.586a.5.5 0 0 0-.353.854L11 4v2H8V2a1 1 0 0 0-1-1H1a1 1 0 0 0-1 1m1 5h3V2H1zm6 0H5V2h2z"/>
  <path d="M4.5 16a1.5 1.5 0 1 0 0-3 1.5 1.5 0 0 0 0 3m0-1a.5.5 0 1 0 0-1 .5.5 0 0 0 0 1M10.5 16a1.5 1.5 0 1 0 0-3 1.5 1.5 0 0 0 0 3m0-1a.5.5 0 1 0 0-1 .5.5 0 0 0 0 1"/>
</svg>
