<svg width="16" height="16" viewBox="0 0 16 16" fill="none" xmlns="http://www.w3.org/2000/svg">
<path d="M7 1C7 0.447715 7.44772 0 8 0V0C8.55228 0 9 0.447715 9 1V15C9 15.5523 8.55228 16 8 16V16C7.44772 16 7 15.5523 7 15V1Z" fill="#5F6B7C"/>
<path d="M1 3C1 2.44772 1.44772 2 2 2H14C14.5523 2 15 2.44772 15 3V3C15 3.55228 14.5523 4 14 4H2C1.44772 4 1 3.55228 1 3V3Z" fill="#5F6B7C"/>
<rect x="2" y="1" width="1" height="5" rx="0.5" fill="#5F6B7C"/>
<rect x="13" y="1" width="1" height="5" rx="0.5" fill="#5F6B7C"/>
<rect x="1" y="5" width="3" height="1" rx="0.5" fill="#5F6B7C"/>
<rect x="12" y="5" width="3" height="1" rx="0.5" fill="#5F6B7C"/>
</svg>
