<svg xmlns="http://www.w3.org/2000/svg" viewBox="0 0 16 16">
  <path d="M3 3a1 1 0 1 0 0 2 1 1 0 0 0 0-2m3 1q0 .07-.003.14c.255.081.538.209.832.41.406.28.8.676 1.171 1.225.37-.549.765-.945 1.171-1.224a3.1 3.1 0 0 1 .832-.411L10 4a3 3 0 1 1 .773 2.01 1.04 1.04 0 0 0-.47.19c-.291.2-.752.672-1.227 1.8.475 1.128.936 1.6 1.227 1.8.183.126.336.173.47.19a3 3 0 1 1-.77 1.87 3.1 3.1 0 0 1-.832-.41c-.406-.28-.8-.676-1.171-1.225-.37.549-.765.945-1.171 1.224-.294.202-.577.33-.832.411Q6 11.93 6 12a3 3 0 1 1-.773-2.01c.134-.017.287-.064.47-.19.291-.2.752-.672 1.227-1.8-.475-1.128-.936-1.6-1.227-1.8a1.04 1.04 0 0 0-.47-.19A3 3 0 1 1 6 4m6 0a1 1 0 1 1 2 0 1 1 0 0 1-2 0m-9 7a1 1 0 1 0 0 2 1 1 0 0 0 0-2m9 1a1 1 0 1 1 2 0 1 1 0 0 1-2 0"/>
</svg>
