<svg xmlns="http://www.w3.org/2000/svg" viewBox="0 0 16 16">
  <path d="M3 2a1 1 0 1 0 0 2 1 1 0 0 0 0-2m0-2c1.385 0 2.551.94 2.896 2.215q.253.066.51.158c1.076.394 2.237 1.242 2.575 2.93.161.809.664 1.211 1.293 1.443a3 3 0 1 1 0 2.508c-.629.232-1.132.634-1.293 1.442-.338 1.69-1.499 2.537-2.575 2.93a5 5 0 0 1-.51.159A3.001 3.001 0 0 1 0 13a3 3 0 0 1 5.726-1.254c.629-.232 1.132-.634 1.293-1.442.216-1.076.765-1.81 1.413-2.304-.648-.493-1.197-1.228-1.413-2.304-.161-.808-.664-1.21-1.293-1.442A3 3 0 1 1 3 0m1 13a1 1 0 1 0-2 0 1 1 0 0 0 2 0m8-5a1 1 0 1 0 2 0 1 1 0 0 0-2 0"/>
</svg>
