<svg xmlns="http://www.w3.org/2000/svg" viewBox="0 0 16 16">
  <path d="M13 3H15C15.5523 3 16 3.44772 16 4C16 4.55228 15.5523 5 15 5H13V7C13 7.55228 12.5523 8 12 8C11.4477 8 11 7.55228 11 7V5H9C8.44771 5 8 4.55228 8 4C8 3.44772 8.44771 3 9 3H11V1C11 0.447715 11.4477 0 12 0C12.5523 0 13 0.447715 13 1V3ZM10 1.0167V2H9C7.89543 2 7 2.89543 7 4C7 5.10457 7.89543 6 9 6H10V7C10 7.27866 10.057 7.54401 10.1599 7.78503L8.45 8.64C8.31 8.71 8.16 8.75 8 8.75C7.84 8.75 7.69 8.71 7.55 8.64L0.55 5.14C0.23 4.98 0 4.64 0 4.25C0 3.84 0.25 3.48 0.62 3.33L7.61 0.33C7.73 0.28 7.86 0.25 8 0.25C8.14 0.25 8.27 0.28 8.4 0.33L10 1.0167ZM10.9101 8.67719C11.2236 8.88136 11.5979 9 12 9C13.0586 9 13.925 8.17761 13.9954 7.13688L14.55 6.86C14.69 6.79 14.84 6.75 15 6.75C15.55 6.75 16 7.2 16 7.75C16 8.14 15.77 8.48 15.45 8.64L8.45 12.14C8.31 12.21 8.16 12.25 8 12.25C7.84 12.25 7.69 12.21 7.55 12.14L0.55 8.64C0.23 8.48 0 8.14 0 7.75C0 7.2 0.45 6.75 1 6.75C1.16 6.75 1.31 6.79 1.45 6.86L8 10.13L10.9101 8.67719ZM15 10.25C15.55 10.25 16 10.7 16 11.25C16 11.64 15.77 11.98 15.45 12.14L8.45 15.64C8.31 15.71 8.16 15.75 8 15.75C7.84 15.75 7.69 15.71 7.55 15.64L0.55 12.14C0.23 11.98 0 11.64 0 11.25C0 10.7 0.45 10.25 1 10.25C1.16 10.25 1.31 10.29 1.45 10.35L8 13.63L14.55 10.36C14.69 10.29 14.84 10.25 15 10.25Z" />
</svg>
