<svg xmlns="http://www.w3.org/2000/svg" viewBox="0 0 16 16">
  <path d="M6 0H1C.45 0 0 .45 0 1v5c0 .55.45 1 1 1h5c.55 0 1-.45 1-1V1c0-.55-.45-1-1-1m5 14c0-.55-.45-1-1-1s-1 .45-1 1v1c0 .55.45 1 1 1h1c.55 0 1-.45 1-1s-.45-1-1-1M6 9H1c-.55 0-1 .45-1 1v5c0 .55.45 1 1 1h5c.55 0 1-.45 1-1v-5c0-.55-.45-1-1-1m9 4c-.55 0-1 .45-1 1-.55 0-1 .45-1 1s.45 1 1 1h1c.55 0 1-.45 1-1v-1c0-.55-.45-1-1-1m-4-4h-1c-.55 0-1 .45-1 1v1c0 .55.45 1 1 1s1-.45 1-1c.55 0 1-.45 1-1s-.45-1-1-1m4-9h-5c-.55 0-1 .45-1 1v5c0 .55.45 1 1 1h5c.55 0 1-.45 1-1V1c0-.55-.45-1-1-1m0 9h-1c-.55 0-1 .45-1 1s.45 1 1 1c0 .55.45 1 1 1s1-.45 1-1v-1c0-.55-.45-1-1-1"/>
</svg>
