<svg xmlns="http://www.w3.org/2000/svg" viewBox="0 0 16 16">
  <path d="M2.76 7h1.26V0h-.94c-.04.21-.12.39-.25.54q-.195.225-.48.36c-.18.09-.39.16-.62.2s-.46.06-.71.06v.9h1.74zm-.59 7.17c.18-.12.37-.25.58-.37a11 11 0 0 0 1.24-.83c.2-.16.37-.33.52-.51.15-.19.28-.39.37-.61s.14-.47.14-.74c0-.22-.04-.45-.12-.7-.08-.26-.21-.49-.4-.69-.18-.21-.43-.39-.72-.52-.3-.14-.68-.21-1.12-.21-.41 0-.77.07-1.08.2-.32.14-.58.32-.8.56-.22.23-.38.51-.49.84-.11.32-.16.67-.16 1.05h1.19c.01-.24.03-.47.08-.67.05-.21.11-.39.21-.54.09-.15.22-.27.38-.36s.35-.13.59-.13q.39 0 .63.12c.16.08.29.18.38.3q.135.18.18.39c.03.14.05.27.05.4-.01.27-.08.5-.22.71s-.32.4-.53.57c-.22.18-.45.34-.71.49s-.51.31-.74.47q-.75.465-1.17 1.11c-.3.41-.44.91-.45 1.48h5v-1H1.43c.05-.15.14-.29.27-.43.14-.13.29-.26.47-.38M15.01 1.99h-7c-.55 0-1 .45-1 1v1c0 .55.45 1 1 1h7c.55 0 1-.45 1-1v-1c0-.55-.44-1-1-1m0 9h-7c-.55 0-1 .45-1 1v1c0 .55.45 1 1 1h7c.55 0 1-.45 1-1v-1c0-.55-.44-1-1-1"/>
</svg>
