<svg width="16" height="16" viewBox="0 0 16 16" fill="none" xmlns="http://www.w3.org/2000/svg">
<path d="M2 8C2 8.55228 2.44772 9 3 9C3.55228 9 4 8.55228 4 8C4 7.44772 3.55228 7 3 7C2.44772 7 2 7.44772 2 8ZM5.82929 7H10.1707C10.5825 5.83481 11.6938 5 13 5C14.6569 5 16 6.34315 16 8C16 9.65685 14.6569 11 13 11C11.6938 11 10.5825 10.1652 10.1707 9H5.82929C5.41746 10.1652 4.30622 11 3 11C1.34315 11 0 9.65685 0 8C0 6.34315 1.34315 5 3 5C4.30622 5 5.41746 5.83481 5.82929 7ZM13 7C12.4477 7 12 7.44772 12 8C12 8.55228 12.4477 9 13 9C13.5523 9 14 8.55228 14 8C14 7.44772 13.5523 7 13 7Z" fill="black"/>
</svg>
