<svg xmlns="http://www.w3.org/2000/svg" viewBox="0 0 16 16">
  <path d="M14 3a1 1 0 1 0-2 0 1 1 0 0 0 2 0m-3.726 1.254c-.629.232-1.132.634-1.293 1.442C8.765 6.772 8.216 7.506 7.568 8c.648.493 1.197 1.228 1.413 2.304.161.808.664 1.21 1.293 1.442a3 3 0 1 1-.17 2.039 5 5 0 0 1-.51-.158c-1.076-.394-2.237-1.242-2.575-2.93-.161-.809-.664-1.211-1.293-1.443a3 3 0 1 1 0-2.508c.629-.232 1.132-.634 1.293-1.442.338-1.69 1.499-2.537 2.575-2.93q.256-.094.51-.159A3.001 3.001 0 0 1 16 3a3 3 0 0 1-5.726 1.254M13 14a1 1 0 1 0 0-2 1 1 0 0 0 0 2M4 8a1 1 0 1 0-2 0 1 1 0 0 0 2 0"/>
</svg>
