<svg width="16" height="16" viewBox="0 0 16 16" fill="none" xmlns="http://www.w3.org/2000/svg">
<path fill-rule="evenodd" clip-rule="evenodd" d="M5 0H15C15.55 0 16 0.45 16 1V11C16 11.55 15.55 12 15 12H8V10H14V3H6V8H4V1C4 0.45 4.45 0 5 0ZM7.5 5H12.5C12.78 5 13 4.78 13 4.5C13 4.22 12.78 4 12.5 4H7.5C7.22 4 7 4.22 7 4.5C7 4.78 7.22 5 7.5 5ZM7.5 7H9.5C9.78 7 10 6.78 10 6.5C10 6.22 9.78 6 9.5 6H7.5C7.22 6 7 6.22 7 6.5C7 6.78 7.22 7 7.5 7ZM11 8.5C11 8.78 10.835 9 10.625 9H8.375C8.165 9 8 8.78 8 8.5C8 8.22 8.165 8 8.375 8H10.625C10.835 8 11 8.22 11 8.5ZM5 14C5 14.55 5.45 15 6 15C6.55 15 7 14.55 7 14V10C7 9.45 6.55 9 6 9H2C1.45 9 1 9.45 1 10C1 10.55 1.45 11 2 11H3.59L0.3 14.29C0.11 14.47 0 14.72 0 15C0 15.55 0.45 16 1 16C1.28 16 1.53 15.89 1.71 15.71L5 12.41V14Z" fill="black"/>
</svg>
