<svg xmlns="http://www.w3.org/2000/svg" viewBox="0 0 16 16">
  <path d="M5 0h10c.55 0 1 .45 1 1v10c0 .55-.45 1-1 1H8v-2h6V3H6v5H4V1c0-.55.45-1 1-1m2.5 5h5c.28 0 .5-.22.5-.5s-.22-.5-.5-.5h-5c-.28 0-.5.22-.5.5s.22.5.5.5m0 2h2c.28 0 .5-.22.5-.5S9.78 6 9.5 6h-2c-.28 0-.5.22-.5.5s.22.5.5.5M11 8.5c0 .28-.165.5-.375.5h-2.25C8.165 9 8 8.78 8 8.5s.165-.5.375-.5h2.25c.21 0 .375.22.375.5M5 14c0 .55.45 1 1 1s1-.45 1-1v-4c0-.55-.45-1-1-1H2c-.55 0-1 .45-1 1s.45 1 1 1h1.59L.3 14.29c-.19.18-.3.43-.3.71a1.003 1.003 0 0 0 1.71.71L5 12.41z"/>
</svg>
