<svg xmlns="http://www.w3.org/2000/svg" viewBox="0 0 16 16">
  <path d="M8 16c-4.41 0-8-3.582-8-8.005S3.59 0 8 0c.94 0 1.86.16 2.74.48.52.19.79.76.6 1.281s-.76.79-1.28.6a6.007 6.007 0 0 0-8.05 5.644 6.007 6.007 0 0 0 8.05 5.643.997.997 0 0 1 1.28.6 1 1 0 0 1-.6 1.282c-.88.32-1.8.47-2.74.47"/>
  <path d="M15.71 7.295c.18.18.29.43.29.71s-.11.53-.29.71l-3 3.002a1.003 1.003 0 0 1-1.71-.71c0-.28.11-.53.3-.71l1.29-1.291H5c-.55 0-1-.45-1-1.001s.45-1 1-1h7.59l-1.3-1.291a1.003 1.003 0 0 1 1.42-1.42z"/>
</svg>
