<svg xmlns="http://www.w3.org/2000/svg" viewBox="0 0 16 16">
  <path d="M10 2v1H5V2c0-.55.45-1 1-1h-.22c.34-.6.98-1 1.72-1s1.38.4 1.72 1H9c.55 0 1 .45 1 1"/>
  <path d="M12 2c.55 0 1 .45 1 1v12c0 .55-.45 1-1 1H3c-.55 0-1-.45-1-1V3c0-.55.45-1 1-1h1v2h7V2zm-1.459 9.455-.225-.129c-.25.352-.434.567-.55.661a.5.5 0 0 1-.276.086c-.125 0-.25-.086-.376-.24-.208-.284-.492-1.048-.842-2.31.317-.557.575-.926.792-1.098a.77.77 0 0 1 .493-.189c.066 0 .183.026.358.069.167.051.326.068.45.068.184 0 .335-.06.451-.188a.67.67 0 0 0 .184-.49c0-.214-.058-.386-.184-.506-.125-.129-.292-.189-.525-.189q-.3.002-.576.146c-.175.094-.409.309-.684.635-.209.24-.509.67-.918 1.27a5.9 5.9 0 0 0-.81-2.042l-2.16.377-.042.232c.159-.034.3-.051.41-.051.216 0 .391.094.533.283q.326.438.926 2.678c-.308.42-.525.695-.642.824-.192.206-.342.343-.467.403a.65.65 0 0 1-.326.078c-.092 0-.242-.052-.442-.155a1 1 0 0 0-.375-.094.7.7 0 0 0-.518.206.73.73 0 0 0-.2.523c0 .198.067.36.192.49.125.128.292.188.509.188q.31 0 .584-.128c.183-.086.409-.275.684-.558s.65-.739 1.135-1.365c.183.592.35 1.021.484 1.296.133.266.292.464.467.584s.392.18.659.18q.388 0 .776-.283c.334-.25.684-.661 1.051-1.262"/>
</svg>
