<svg xmlns="http://www.w3.org/2000/svg" viewBox="0 0 16 16">
  <path d="M9 1c.55 0 1 .45 1 1v1H5V2c0-.55.45-1 1-1h-.22c.34-.6.98-1 1.72-1s1.38.4 1.72 1z"/>
  <path d="M11 2h1c.55 0 1 .45 1 1v12c0 .55-.45 1-1 1H3c-.55 0-1-.45-1-1V3c0-.55.45-1 1-1h1v2h7zm-.684 9.326.225.129c-.367.6-.717 1.013-1.051 1.262Q9.102 13 8.714 13c-.267 0-.484-.06-.66-.18-.174-.12-.333-.318-.466-.584a10 10 0 0 1-.484-1.296q-.724.94-1.135 1.365c-.275.283-.5.472-.684.558a1.35 1.35 0 0 1-.584.128c-.217 0-.384-.06-.51-.188a.68.68 0 0 1-.191-.49.73.73 0 0 1 .2-.523.7.7 0 0 1 .518-.206c.108 0 .233.034.375.094q.302.155.442.155a.65.65 0 0 0 .326-.078c.125-.06.275-.197.467-.403q.177-.194.642-.824-.6-2.24-.926-2.678c-.142-.19-.317-.283-.534-.283-.108 0-.25.017-.409.051l.042-.232 2.16-.377c.393.618.668 1.304.81 2.043.41-.601.71-1.03.918-1.27.275-.327.509-.542.684-.636q.276-.144.576-.146c.233 0 .4.06.525.189.126.12.184.292.184.506a.67.67 0 0 1-.184.49.58.58 0 0 1-.45.188 1.6 1.6 0 0 1-.45-.068 2 2 0 0 0-.36-.069.77.77 0 0 0-.492.189c-.217.172-.475.54-.792 1.099.35 1.261.634 2.025.842 2.309.126.154.25.24.376.24a.5.5 0 0 0 .275-.086c.117-.094.3-.309.55-.66"/>
</svg>
