<svg xmlns="http://www.w3.org/2000/svg" viewBox="0 0 16 16">
  <path d="M15.916 12.41c-.06-.06-3.373-2-3.483-2.05a.8.8 0 0 0-.32-.08c-.15 0-.34.11-.57.32-.23.22-.941 1.19-1.152 1.4-.21.22-.38.32-.52.32a.7.7 0 0 1-.25-.06c-.1-.04-1.161-.58-3.363-2.52-2.202-1.929-2.492-3.199-2.502-3.549 0-.14.11-.31.32-.52.22-.21.45-.41.7-.6s.491-.4.701-.62c.22-.23.32-.42.32-.57 0-.109-.03-.209-.08-.319-.05-.1-2.051-3.41-2.121-3.48-.15-.15-.741-.08-1.041.08-2.392 1.3-2.582 3.04-2.552 3.73.04.71.49 4.459 4.163 7.948C8.73 16.17 11.903 16 12.113 16c.69 0 2.822-.38 3.723-2.55.13-.32.25-.87.08-1.04"/>
  <path d="m15.71 4.3-2-2A.97.97 0 0 0 13 2a1.003 1.003 0 0 0-.71 1.71l.29.29H9c-.55 0-1 .45-1 1s.45 1 1 1h3.59l-.29.29a1.003 1.003 0 0 0 1.42 1.42l2-2c.18-.18.29-.43.29-.71s-.12-.52-.3-.7"/>
</svg>
