<svg xmlns="http://www.w3.org/2000/svg" viewBox="0 0 16 16">
  <path d="M4.293.293a1 1 0 0 1 1.414 1.414L4.414 3l1.293 1.293a1 1 0 0 1-1.414 1.414L3 4.414 1.707 5.707A1 1 0 0 1 .293 4.293L1.586 3 .293 1.707A1 1 0 0 1 1.707.293L3 1.586z"/>
  <path d="M14.29 4.71 13 3.41V6a3 3 0 0 1-3 3H4a1 1 0 0 0-1 1v5a1 1 0 1 1-2 0v-5a3 3 0 0 1 3-3h6a1 1 0 0 0 1-1V3.41L9.71 4.7c-.18.19-.43.3-.71.3a1.003 1.003 0 0 1-.71-1.71l3-3c.18-.18.43-.29.71-.29s.53.11.71.29l3 3a1.003 1.003 0 0 1-1.42 1.42M16 13a3 3 0 1 1-6 0 3 3 0 0 1 6 0m-2 0a1 1 0 1 1-2 0 1 1 0 0 1 2 0"/>
</svg>
