<?xml version="1.0" encoding="utf-8"?>
<!-- Generator: Adobe Illustrator 18.0.0, SVG Export Plug-In . SVG Version: 6.00 Build 0)  -->
<svg version="1.1" id="Layer_1" xmlns="http://www.w3.org/2000/svg" xmlns:xlink="http://www.w3.org/1999/xlink" x="0px" y="0px"
	 viewBox="0 0 16 16" enable-background="new 0 0 16 16" xml:space="preserve">
<g id="list:_detail_view_1_">
	<g>
		<path fill-rule="evenodd" clip-rule="evenodd" d="M6,13H1c-0.55,0-1,0.45-1,1v1c0,0.55,0.45,1,1,1h5c0.55,0,1-0.45,1-1v-1
			C7,13.45,6.55,13,6,13z M6,7H1C0.45,7,0,7.45,0,8v1c0,0.55,0.45,1,1,1h5c0.55,0,1-0.45,1-1V8C7,7.45,6.55,7,6,7z M6,1H1
			C0.45,1,0,1.45,0,2v1c0,0.55,0.45,1,1,1h5c0.55,0,1-0.45,1-1V2C7,1.45,6.55,1,6,1z M15,1h-5C9.45,1,9,1.45,9,2v13
			c0,0.55,0.45,1,1,1h5c0.55,0,1-0.45,1-1V2C16,1.45,15.55,1,15,1z"/>
	</g>
</g>
</svg>
