<?xml version="1.0" encoding="utf-8"?>
<!-- Generator: Adobe Illustrator 17.1.0, SVG Export Plug-In . SVG Version: 6.00 Build 0)  -->
<!DOCTYPE svg PUBLIC "-//W3C//DTD SVG 1.1//EN" "http://www.w3.org/Graphics/SVG/1.1/DTD/svg11.dtd">
<svg version="1.1" id="Layer_1" xmlns="http://www.w3.org/2000/svg" xmlns:xlink="http://www.w3.org/1999/xlink" x="0px" y="0px"
	 viewBox="0 0 16 16" enable-background="new 0 0 16 16" xml:space="preserve">
<g id="people_1_">
	<g>
		<path d="M12.52,13.62c-0.36-0.86-2.13-1.42-3.31-1.96c-1.18-0.53-1.02-0.85-1.06-1.3c0-0.05,0-0.12,0-0.18
			c0.4-0.37,0.73-0.87,0.95-1.45c0,0,0.01-0.03,0.01-0.04C9.16,8.56,9.2,8.43,9.23,8.3C9.5,8.25,9.65,7.95,9.71,7.67
			C9.78,7.55,9.9,7.28,9.87,6.96C9.84,6.56,9.68,6.37,9.5,6.29c0-0.02,0-0.05,0-0.07c0-0.51-0.05-1.26-0.14-1.74
			c-0.02-0.13-0.05-0.27-0.09-0.4C9.1,3.47,8.73,2.94,8.25,2.56c-0.5-0.39-1.21-0.6-1.84-0.6s-1.34,0.21-1.84,0.6
			C4.09,2.94,3.72,3.47,3.55,4.07C3.51,4.2,3.48,4.34,3.46,4.48C3.37,4.96,3.32,5.71,3.32,6.22c0,0.02,0,0.04,0,0.06
			C3.14,6.36,2.97,6.55,2.93,6.96C2.9,7.28,3.03,7.55,3.09,7.67c0.06,0.28,0.22,0.59,0.5,0.64C3.62,8.44,3.67,8.58,3.71,8.7
			c0,0.01,0.01,0.02,0.01,0.02v0.01c0.22,0.59,0.56,1.1,0.97,1.46c0,0.06-0.01,0.12-0.01,0.17c-0.04,0.44,0.08,0.76-1.09,1.3
			c-1.18,0.53-2.95,1.1-3.31,1.96c-0.36,0.86-0.22,1.36-0.22,1.36h12.68C12.74,14.98,12.89,14.48,12.52,13.62z M12.74,14.98h0.8
			H12.74L12.74,14.98z M15.76,13.96c-0.27-0.64-1.6-1.07-2.48-1.47c-0.88-0.4-0.76-0.64-0.79-0.97c0-0.05-0.01-0.09-0.01-0.14
			c0.3-0.27,0.55-0.65,0.71-1.09c0,0,0.01-0.02,0.01-0.03c0.03-0.09,0.06-0.19,0.09-0.29c0.2-0.04,0.32-0.27,0.36-0.48
			c0.05-0.08,0.14-0.29,0.12-0.53c-0.03-0.3-0.15-0.44-0.28-0.5c0-0.02,0-0.04,0-0.05c0-0.39-0.04-0.94-0.1-1.31
			c-0.01-0.1-0.04-0.2-0.07-0.3c-0.13-0.45-0.4-0.85-0.77-1.13c-0.38-0.29-0.91-0.45-1.38-0.45c-0.3,0-0.62,0.09-0.91,0.21
			c0.02,0.28,0.03,0.56,0.03,0.79c0,0.02,0,0.05,0,0.07c0.18,0.08,0.34,0.27,0.38,0.67c0.03,0.31-0.1,0.59-0.16,0.7
			c-0.06,0.28-0.22,0.58-0.49,0.63C9.99,8.44,9.95,8.57,9.9,8.69c0,0.01-0.01,0.04-0.01,0.04C9.7,9.24,9.41,9.67,9.08,10.02
			c0.02,0.08,0.05,0.17,0.07,0.25c0,0.01,0,0.01,0.01,0.02v0.01c0.16,0.44,0.42,0.82,0.73,1.1c0,0.04,0,0.09-0.01,0.13
			c0,0.03,0,0.05-0.01,0.08c0.05,0.02,0.08,0.04,0.13,0.07c1.18,0.53,2.95,1.1,3.31,1.96C13.67,14.5,13.53,15,13.53,15h2.39
			C15.93,14.98,16.04,14.6,15.76,13.96z"/>
	</g>
</g>
</svg>
