<?xml version="1.0" encoding="utf-8"?>
<!-- Generator: Adobe Illustrator 17.1.0, SVG Export Plug-In . SVG Version: 6.00 Build 0)  -->
<!DOCTYPE svg PUBLIC "-//W3C//DTD SVG 1.1//EN" "http://www.w3.org/Graphics/SVG/1.1/DTD/svg11.dtd">
<svg version="1.1" id="Layer_1" xmlns="http://www.w3.org/2000/svg" xmlns:xlink="http://www.w3.org/1999/xlink" x="0px" y="0px"
	 viewBox="0 0 16 16" enable-background="new 0 0 16 16" xml:space="preserve">
<g id="list_3_">
	<g>
		<path d="M1,1C0.45,1,0,1.45,0,2v1c0,0.55,0.45,1,1,1h14c0.55,0,1-0.45,1-1V2c0-0.55-0.45-1-1-1H1z"/>
	</g>
	<g>
		<path d="M0,15c0,0.55,0.45,1,1,1h14c0.55,0,1-0.45,1-1v-1c0-0.55-0.45-1-1-1H1c-0.55,0-1,0.45-1,1V15z"/>
	</g>
	<g>
		<path d="M0,9c0,0.55,0.45,1,1,1h14c0.55,0,1-0.45,1-1V8c0-0.55-0.45-1-1-1H1C0.45,7,0,7.45,0,8V9z"/>
	</g>
</g>
</svg>
