<?xml version="1.0" encoding="utf-8"?>
<!-- Generator: Adobe Illustrator 18.0.0, SVG Export Plug-In . SVG Version: 6.00 Build 0)  -->
<svg version="1.1" id="Layer_1" xmlns="http://www.w3.org/2000/svg" xmlns:xlink="http://www.w3.org/1999/xlink" x="0px" y="0px"
	 viewBox="0 0 16 16" enable-background="new 0 0 16 16" xml:space="preserve">
<g id="italics_2_">
	<g>
		<path fill-rule="evenodd" clip-rule="evenodd" d="M11,0H7C6.45,0,6,0.45,6,1c0,0.55,0.45,1,1,1h1L5,14H4c-0.55,0-1,0.45-1,1
			c0,0.55,0.45,1,1,1h4c0.55,0,1-0.45,1-1c0-0.55-0.45-1-1-1H7l3-12h1c0.55,0,1-0.45,1-1C12,0.45,11.55,0,11,0z"/>
	</g>
</g>
</svg>
