<?xml version="1.0" encoding="utf-8"?>
<!-- Generator: Adobe Illustrator 18.0.0, SVG Export Plug-In . SVG Version: 6.00 Build 0)  -->
<svg version="1.1" id="Layer_1" xmlns="http://www.w3.org/2000/svg" xmlns:xlink="http://www.w3.org/1999/xlink" x="0px" y="0px"
	 viewBox="0 0 16 16" enable-background="new 0 0 16 16" xml:space="preserve">
<g id="snippet">
	<g>
		<path fill-rule="evenodd" clip-rule="evenodd" d="M3,13H2V3h1c0.55,0,1-0.45,1-1S3.55,1,3,1H1C0.45,1,0,1.45,0,2v12
			c0,0.55,0.45,1,1,1h2c0.55,0,1-0.45,1-1S3.55,13,3,13z M11,4H5C4.45,4,4,4.45,4,5c0,0.55,0.45,1,1,1h2v5c0,0.55,0.45,1,1,1
			s1-0.45,1-1V6h2c0.55,0,1-0.45,1-1C12,4.45,11.55,4,11,4z M15,1h-2c-0.55,0-1,0.45-1,1s0.45,1,1,1h1v10h-1c-0.55,0-1,0.45-1,1
			s0.45,1,1,1h2c0.55,0,1-0.45,1-1V2C16,1.45,15.55,1,15,1z"/>
	</g>
</g>
</svg>
