<?xml version="1.0" encoding="utf-8"?>
<!-- Generator: Adobe Illustrator 18.1.0, SVG Export Plug-In . SVG Version: 6.00 Build 0)  -->
<svg version="1.1" id="Layer_1" xmlns="http://www.w3.org/2000/svg" xmlns:xlink="http://www.w3.org/1999/xlink" x="0px" y="0px"
	 viewBox="0 0 16 16" enable-background="new 0 0 16 16" xml:space="preserve">
<g id="sort_ascending_1_">
	<g>
		<path fill-rule="evenodd" clip-rule="evenodd" d="M6,7H3C2.45,7,2,7.45,2,8c0,0.55,0.45,1,1,1h3c0.55,0,1-0.45,1-1
			C7,7.45,6.55,7,6,7z M6,11H1c-0.55,0-1,0.45-1,1c0,0.55,0.45,1,1,1h5c0.55,0,1-0.45,1-1C7,11.45,6.55,11,6,11z M6,3H5
			C4.45,3,4,3.45,4,4c0,0.55,0.45,1,1,1h1c0.55,0,1-0.45,1-1C7,3.45,6.55,3,6,3z M15,10c-0.28,0-0.53,0.11-0.71,0.29L13,11.59V2
			c0-0.55-0.45-1-1-1s-1,0.45-1,1v9.59l-1.29-1.29C9.53,10.11,9.28,10,9,10c-0.55,0-1,0.45-1,1c0,0.28,0.11,0.53,0.29,0.71l3,3
			C11.47,14.89,11.72,15,12,15s0.53-0.11,0.71-0.29l3-3C15.89,11.53,16,11.28,16,11C16,10.45,15.55,10,15,10z"/>
	</g>
</g>
</svg>
