<?xml version="1.0" encoding="utf-8"?>
<!-- Generator: Adobe Illustrator 17.1.0, SVG Export Plug-In . SVG Version: 6.00 Build 0)  -->
<!DOCTYPE svg PUBLIC "-//W3C//DTD SVG 1.1//EN" "http://www.w3.org/Graphics/SVG/1.1/DTD/svg11.dtd">
<svg version="1.1" id="Layer_1" xmlns:sketch="http://www.bohemiancoding.com/sketch/ns"
	 xmlns="http://www.w3.org/2000/svg" xmlns:xlink="http://www.w3.org/1999/xlink" x="0px" y="0px" viewBox="0 0 16 16"
	 enable-background="new 0 0 16 16" xml:space="preserve">
<title>Shape</title>
<desc>Created with Sketch.</desc>
<g id="Page-1" sketch:type="MSPage">
	<g id="Artboard-1" transform="translate(0.000000, -3.000000)" sketch:type="MSArtboardGroup">
		<path id="Shape" sketch:type="MSShapeGroup" d="M8.02,9.98c-0.55,0-1,0.45-1,1c0,0.55,0.45,1,1,1s1-0.45,1-1S8.56,9.98,8.02,9.98
			L8.02,9.98z M16,10.95v-0.02v-0.01V10.9v-0.02l0,0c-0.02-0.14-0.08-0.26-0.17-0.36c-0.51-0.67-1.12-1.26-1.74-1.8
			c-1.33-1.17-2.85-2.15-4.52-2.54C8.6,5.95,7.62,5.94,6.66,6.14c-0.9,0.18-1.75,0.54-2.55,0.99c-1.25,0.71-2.4,1.68-3.4,2.77
			c-0.18,0.2-0.36,0.41-0.53,0.63c-0.22,0.29-0.22,0.64,0,0.93c0.51,0.67,1.12,1.26,1.74,1.8c1.33,1.17,2.85,2.15,4.52,2.54
			c0.97,0.23,1.95,0.24,2.93,0.04c0.89-0.18,1.74-0.54,2.55-0.99c1.25-0.71,2.4-1.68,3.39-2.77c0.18-0.2,0.37-0.41,0.54-0.63
			c0.09-0.1,0.15-0.23,0.17-0.36l0,0v-0.02v-0.02v-0.01v-0.02v-0.03C16,10.97,16,10.96,16,10.95L16,10.95z M8.02,13.98
			c-1.66,0-3-1.34-3-3s1.34-3,3-3s3,1.34,3,3S9.68,13.98,8.02,13.98L8.02,13.98z"/>
	</g>
</g>
</svg>
