<?xml version="1.0" encoding="utf-8"?>
<!-- Generator: Adobe Illustrator 18.1.0, SVG Export Plug-In . SVG Version: 6.00 Build 0)  -->
<svg version="1.1" id="Layer_1" xmlns="http://www.w3.org/2000/svg" xmlns:xlink="http://www.w3.org/1999/xlink" x="0px" y="0px"
	 viewBox="0 0 16 16" enable-background="new 0 0 16 16" xml:space="preserve">
<g id="add_to_folder">
	<g>
		<path fill-rule="evenodd" clip-rule="evenodd" d="M10,10h4c0.55,0,1-0.45,1-1c0-0.55-0.45-1-1-1h-1.59l3.29-3.29
			C15.89,4.53,16,4.28,16,4c0-0.55-0.45-1-1-1c-0.28,0-0.53,0.11-0.71,0.29L11,6.59V5c0-0.55-0.45-1-1-1S9,4.45,9,5v4
			C9,9.55,9.45,10,10,10z M7,3.59L5.71,2.29C5.53,2.11,5.28,2,5,2H1C0.45,2,0,2.45,0,3v3h7V3.59z M7,10V7H0v7c0,0.55,0.45,1,1,1h14
			c0.55,0,1-0.45,1-1v-2H9C7.9,12,7,11.1,7,10z"/>
	</g>
</g>
</svg>
