<?xml version="1.0" encoding="utf-8"?>
<!-- Generator: Adobe Illustrator 17.1.0, SVG Export Plug-In . SVG Version: 6.00 Build 0)  -->
<!DOCTYPE svg PUBLIC "-//W3C//DTD SVG 1.1//EN" "http://www.w3.org/Graphics/SVG/1.1/DTD/svg11.dtd">
<svg version="1.1" id="Layer_1" xmlns="http://www.w3.org/2000/svg" xmlns:xlink="http://www.w3.org/1999/xlink" x="0px" y="0px"
	 viewBox="0 0 16 16" enable-background="new 0 0 16 16" xml:space="preserve">
<g id="sort_alphabetical_1_">
	<g>
		<path fill-rule="evenodd" clip-rule="evenodd" d="M6.87,9.92V8.99h-6.5v1.06h4.6L-0.02,15v1h7.01v-1.06h-5.1L6.87,9.92z M15,9.99
			c-0.28,0-0.53,0.11-0.71,0.29L13,11.57V1.99c0-0.55-0.45-1-1-1s-1,0.45-1,1v9.59l-1.29-1.29C9.53,10.1,9.28,9.99,9,9.99
			c-0.55,0-1,0.45-1,1c0,0.28,0.11,0.53,0.29,0.71l3,3c0.18,0.18,0.43,0.29,0.71,0.29s0.53-0.11,0.71-0.29l3-3
			c0.18-0.18,0.29-0.43,0.29-0.71C16,10.43,15.55,9.99,15,9.99z M2.82-0.01L0,7h1.33l0.69-1.86h2.93L5.63,7h1.38L4.18-0.01H2.82z
			 M2.36,4.21l1.11-3.02h0.03l1.1,3.02H2.36z"/>
	</g>
</g>
</svg>
