<?xml version="1.0" encoding="utf-8"?>
<!-- Generator: Adobe Illustrator 18.0.0, SVG Export Plug-In . SVG Version: 6.00 Build 0)  -->
<svg version="1.1" id="Layer_1" xmlns="http://www.w3.org/2000/svg" xmlns:xlink="http://www.w3.org/1999/xlink" x="0px" y="0px"
	 viewBox="0 0 16 16" enable-background="new 0 0 16 16" xml:space="preserve">
<g id="google_2_">
	<g>
		<path fill-rule="evenodd" clip-rule="evenodd" d="M15.12,6.42H7.71v3.17c0,0,2.96,0,4.17,0c-0.65,2.05-1.67,3.17-4.17,3.17
			c-2.53,0-4.51-2.13-4.51-4.75s1.98-4.75,4.51-4.75c1.34,0,2.2,0.49,3,1.17c0.63-0.66,0.58-0.75,2.2-2.33
			C11.54,0.8,9.71,0.01,7.71,0.01C3.45,0.01,0,3.59,0,8.01C0,12.42,3.45,16,7.71,16C14.08,16,15.64,10.25,15.12,6.42z"/>
	</g>
</g>
</svg>
