<?xml version="1.0" encoding="utf-8"?>
<!-- Generator: Adobe Illustrator 17.1.0, SVG Export Plug-In . SVG Version: 6.00 Build 0)  -->
<!DOCTYPE svg PUBLIC "-//W3C//DTD SVG 1.1//EN" "http://www.w3.org/Graphics/SVG/1.1/DTD/svg11.dtd">
<svg version="1.1" id="Layer_1" xmlns="http://www.w3.org/2000/svg" xmlns:xlink="http://www.w3.org/1999/xlink" x="0px" y="0px"
	 viewBox="0 0 16 16" enable-background="new 0 0 16 16" xml:space="preserve">
<g id="timeline_bar_chart_1_">
	<g>
		<path d="M12,10.99h1c0.55,0,1-0.45,1-1v-4c0-0.55-0.45-1-1-1h-1c-0.55,0-1,0.45-1,1v4C11,10.54,11.45,10.99,12,10.99z M7,10.99h1
			c0.55,0,1-0.45,1-1v-7c0-0.55-0.45-1-1-1H7c-0.55,0-1,0.45-1,1v7C6,10.54,6.45,10.99,7,10.99z M14,11.99H1c-0.55,0-1,0.45-1,1
			s0.45,1,1,1h13c0.55,0,1-0.45,1-1S14.55,11.99,14,11.99z M2,10.99h1c0.55,0,1-0.45,1-1v-2c0-0.55-0.45-1-1-1H2c-0.55,0-1,0.45-1,1
			v2C1,10.54,1.45,10.99,2,10.99z"/>
	</g>
</g>
</svg>
