<?xml version="1.0" encoding="utf-8"?>
<!-- Generator: Adobe Illustrator 18.0.0, SVG Export Plug-In . SVG Version: 6.00 Build 0)  -->
<svg version="1.1" id="Layer_1" xmlns="http://www.w3.org/2000/svg" xmlns:xlink="http://www.w3.org/1999/xlink" x="0px" y="0px"
	 viewBox="0 0 16 16" enable-background="new 0 0 16 16" xml:space="preserve">
<g id="linkedin_2_">
	<g>
		<path fill-rule="evenodd" clip-rule="evenodd" d="M0.41,15.39h3.12V5.61H0.41V15.39z M12.04,5.52c-1.79,0-2.91,0.96-3.11,1.63
			V5.61h-3.5c0.05,0.81,0,9.77,0,9.77h3.5V10.1c0-0.29-0.01-0.59,0.08-0.8c0.24-0.59,0.76-1.2,1.69-1.2c1.22,0,1.77,0.9,1.77,2.23
			v5.06H16V9.95C16,6.93,14.26,5.52,12.04,5.52z M1.91,1C0.76,1,0,1.73,0,2.7c0,0.95,0.73,1.69,1.86,1.69h0.02
			c1.17,0,1.9-0.75,1.9-1.7C3.76,1.73,3.06,1,1.91,1z"/>
	</g>
</g>
</svg>
