<?xml version="1.0" encoding="utf-8"?>
<!-- Generator: Adobe Illustrator 18.0.0, SVG Export Plug-In . SVG Version: 6.00 Build 0)  -->
<svg version="1.1" id="Layer_1" xmlns="http://www.w3.org/2000/svg" xmlns:xlink="http://www.w3.org/1999/xlink" x="0px" y="0px"
	 viewBox="0 0 16 16" enable-background="new 0 0 16 16" xml:space="preserve">
<g id="twitter">
	<g>
		<path fill-rule="evenodd" clip-rule="evenodd" d="M16,3.54c-0.59,0.26-1.22,0.44-1.89,0.52c0.68-0.41,1.2-1.05,1.44-1.82
			c-0.63,0.38-1.34,0.65-2.08,0.8C12.87,2.4,12.02,2,11.08,2C9.26,2,7.79,3.47,7.79,5.28c0,0.26,0.03,0.51,0.08,0.75
			C5.15,5.89,2.73,4.59,1.11,2.6C0.83,3.09,0.67,3.65,0.67,4.25c0,1.14,0.58,2.14,1.46,2.73C1.59,6.97,1.09,6.82,0.64,6.57
			c0,0.01,0,0.03,0,0.04c0,1.59,1.13,2.92,2.63,3.22C3,9.91,2.71,9.95,2.41,9.95c-0.21,0-0.42-0.02-0.62-0.06
			c0.42,1.3,1.63,2.25,3.07,2.28c-1.12,0.88-2.54,1.4-4.08,1.4c-0.26,0-0.53-0.02-0.78-0.05C1.45,14.46,3.18,15,5.03,15
			c6.04,0,9.34-5,9.34-9.34c0-0.14,0-0.28-0.01-0.42C15,4.77,15.56,4.2,16,3.54z"/>
	</g>
</g>
</svg>
