<?xml version="1.0" encoding="utf-8"?>
<!-- Generator: Adobe Illustrator 17.1.0, SVG Export Plug-In . SVG Version: 6.00 Build 0)  -->
<!DOCTYPE svg PUBLIC "-//W3C//DTD SVG 1.1//EN" "http://www.w3.org/Graphics/SVG/1.1/DTD/svg11.dtd">
<svg version="1.1" id="Layer_1" xmlns="http://www.w3.org/2000/svg" xmlns:xlink="http://www.w3.org/1999/xlink" x="0px" y="0px"
	 viewBox="0 0 16 16" enable-background="new 0 0 16 16" xml:space="preserve">
<g id="sort_1_">
	<g>
		<path fill-rule="evenodd" clip-rule="evenodd" d="M5.99,6.99h-5c-0.55,0-1,0.45-1,1s0.45,1,1,1h5c0.55,0,1-0.45,1-1
			S6.54,6.99,5.99,6.99z M5.99,10.99h-5c-0.55,0-1,0.45-1,1s0.45,1,1,1h5c0.55,0,1-0.45,1-1S6.54,10.99,5.99,10.99z M14.99,9.99
			c-0.28,0-0.53,0.11-0.71,0.29l-1.29,1.29V1.99c0-0.55-0.45-1-1-1s-1,0.45-1,1v9.59L9.7,10.29C9.52,10.1,9.27,9.99,8.99,9.99
			c-0.55,0-1,0.45-1,1c0,0.28,0.11,0.53,0.29,0.71l3,3c0.18,0.18,0.43,0.29,0.71,0.29s0.53-0.11,0.71-0.29l3-3
			c0.18-0.18,0.29-0.43,0.29-0.71C15.99,10.44,15.54,9.99,14.99,9.99z M5.99,2.99h-5c-0.55,0-1,0.45-1,1s0.45,1,1,1h5
			c0.55,0,1-0.45,1-1S6.54,2.99,5.99,2.99z"/>
	</g>
</g>
</svg>
