<?xml version="1.0" encoding="utf-8"?>
<!-- Generator: Adobe Illustrator 18.1.0, SVG Export Plug-In . SVG Version: 6.00 Build 0)  -->
<svg version="1.1" id="Layer_1" xmlns="http://www.w3.org/2000/svg" xmlns:xlink="http://www.w3.org/1999/xlink" x="0px" y="0px"
	 viewBox="0 0 16 16" enable-background="new 0 0 16 16" xml:space="preserve">
<g id="sort_alphabetical_desc_1_">
	<g>
		<path fill-rule="evenodd" clip-rule="evenodd" d="M7,5.93H1.9l4.98-5.02v-0.93h-6.5v1.06h4.6L0,5.99v1h7V5.93z M15,9.98
			c-0.28,0-0.53,0.11-0.71,0.29L13,11.57V1.99c0-0.55-0.45-1-1-1c-0.55,0-1,0.45-1,1v9.58l-1.29-1.29
			c-0.18-0.18-0.43-0.29-0.71-0.29c-0.55,0-1,0.45-1,1c0,0.28,0.11,0.53,0.29,0.71l3,3c0.18,0.18,0.43,0.29,0.71,0.29
			c0.28,0,0.53-0.11,0.71-0.29l3-3c0.18-0.18,0.29-0.43,0.29-0.71C16,10.43,15.55,9.98,15,9.98z M2.83,8.99l-2.81,7H0v0h0.02l0,0.01
			h1.32l0-0.01h4.3l0,0.01h1.38L4.2,8.99H2.83z M5.64,15.99h-4.3l0.68-1.85h2.93L5.64,15.99z M2.38,13.21l1.11-3.01h0.03l1.1,3.01
			H2.38z"/>
	</g>
</g>
</svg>
