<?xml version="1.0" encoding="utf-8"?>
<!-- Generator: Adobe Illustrator 18.0.0, SVG Export Plug-In . SVG Version: 6.00 Build 0)  -->
<svg version="1.1" id="Layer_1" xmlns="http://www.w3.org/2000/svg" xmlns:xlink="http://www.w3.org/1999/xlink" x="0px" y="0px"
	 viewBox="0 0 16 16" enable-background="new 0 0 16 16" xml:space="preserve">
<g id="instagram_5_">
	<g>
		<path fill-rule="evenodd" clip-rule="evenodd" d="M15.95,4.7c-0.04-0.85-0.17-1.43-0.37-1.94c-0.2-0.53-0.48-0.97-0.92-1.42
			c-0.44-0.44-0.89-0.72-1.42-0.92c-0.51-0.2-1.09-0.33-1.94-0.37C10.45,0.01,10.17,0,8,0S5.55,0.01,4.7,0.05
			C3.85,0.09,3.27,0.22,2.76,0.42C2.23,0.62,1.79,0.9,1.34,1.34C0.9,1.79,0.62,2.23,0.42,2.76C0.22,3.27,0.09,3.85,0.05,4.7
			C0.01,5.55,0,5.83,0,8c0,2.17,0.01,2.45,0.05,3.3c0.04,0.85,0.17,1.43,0.37,1.94c0.2,0.53,0.48,0.97,0.92,1.42
			c0.44,0.44,0.89,0.72,1.42,0.92c0.51,0.2,1.09,0.33,1.94,0.37C5.55,15.99,5.83,16,8,16s2.45-0.01,3.3-0.05
			c0.85-0.04,1.43-0.17,1.94-0.37c0.53-0.2,0.97-0.48,1.42-0.92c0.44-0.44,0.72-0.89,0.92-1.42c0.2-0.51,0.33-1.09,0.37-1.94
			C15.99,10.45,16,10.17,16,8C16,5.83,15.99,5.55,15.95,4.7z M14.51,11.23c-0.04,0.78-0.17,1.2-0.28,1.49
			c-0.15,0.37-0.32,0.64-0.6,0.92c-0.28,0.28-0.55,0.45-0.92,0.6c-0.28,0.11-0.71,0.24-1.49,0.28c-0.84,0.04-1.1,0.05-3.23,0.05
			s-2.39-0.01-3.23-0.05c-0.78-0.04-1.2-0.17-1.49-0.28c-0.37-0.15-0.64-0.32-0.92-0.6c-0.28-0.28-0.45-0.55-0.6-0.92
			c-0.11-0.28-0.24-0.71-0.28-1.49C1.45,10.39,1.44,10.14,1.44,8s0.01-2.39,0.05-3.23c0.04-0.78,0.17-1.2,0.28-1.49
			c0.15-0.37,0.32-0.64,0.6-0.92c0.28-0.28,0.55-0.45,0.92-0.6c0.28-0.11,0.71-0.24,1.49-0.28C5.61,1.45,5.86,1.44,8,1.44
			s2.39,0.01,3.23,0.05c0.78,0.04,1.2,0.17,1.49,0.28c0.37,0.15,0.64,0.32,0.92,0.6c0.28,0.28,0.45,0.55,0.6,0.92
			c0.11,0.28,0.24,0.71,0.28,1.49c0.04,0.84,0.05,1.1,0.05,3.23S14.55,10.39,14.51,11.23z M8,3.89C5.73,3.89,3.89,5.73,3.89,8
			S5.73,12.11,8,12.11c2.27,0,4.11-1.84,4.11-4.11S10.27,3.89,8,3.89z M8,10.67c-1.47,0-2.67-1.19-2.67-2.67
			c0-1.47,1.19-2.67,2.67-2.67S10.67,6.53,10.67,8C10.67,9.47,9.47,10.67,8,10.67z M12.27,2.77c-0.53,0-0.96,0.43-0.96,0.96
			c0,0.53,0.43,0.96,0.96,0.96s0.96-0.43,0.96-0.96C13.23,3.2,12.8,2.77,12.27,2.77z"/>
	</g>
</g>
</svg>
