<?xml version="1.0" encoding="utf-8"?>
<!-- Generator: Adobe Illustrator 17.1.0, SVG Export Plug-In . SVG Version: 6.00 Build 0)  -->
<!DOCTYPE svg PUBLIC "-//W3C//DTD SVG 1.1//EN" "http://www.w3.org/Graphics/SVG/1.1/DTD/svg11.dtd">
<svg version="1.1" id="Layer_1" xmlns="http://www.w3.org/2000/svg" xmlns:xlink="http://www.w3.org/1999/xlink" x="0px" y="0px"
	 viewBox="0 0 16 16" enable-background="new 0 0 16 16" xml:space="preserve">
<g id="sort_numerical_1_">
	<g>
		<path d="M2.73,7h1.26V0H3.05C3.01,0.21,2.93,0.39,2.8,0.54C2.67,0.69,2.51,0.81,2.32,0.9C2.14,0.99,1.93,1.06,1.7,1.1
			C1.47,1.14,1.24,1.16,0.99,1.16v0.9h1.74V7z M4.49,10.01C4.3,9.69,4.04,9.44,3.71,9.26C3.39,9.08,2.97,8.99,2.46,8.99
			c-0.39,0-0.74,0.06-1.05,0.17c-0.3,0.11-0.56,0.28-0.77,0.48c-0.21,0.21-0.37,0.45-0.48,0.73C0.05,10.65,0,10.95,0,11.28
			c0,0.35,0.05,0.66,0.16,0.94s0.26,0.52,0.46,0.71c0.2,0.2,0.44,0.35,0.71,0.46c0.28,0.11,0.59,0.16,0.93,0.16
			c0.33,0,0.63-0.07,0.9-0.21s0.49-0.34,0.65-0.6l0.02,0.02c-0.02,0.22-0.05,0.47-0.09,0.74c-0.04,0.27-0.11,0.52-0.21,0.75
			s-0.25,0.43-0.44,0.59s-0.44,0.24-0.75,0.24S1.79,15,1.61,14.83s-0.29-0.39-0.31-0.67H0.12c0.01,0.28,0.08,0.53,0.21,0.75
			c0.12,0.22,0.28,0.42,0.48,0.58c0.19,0.16,0.42,0.29,0.67,0.37c0.25,0.09,0.52,0.13,0.81,0.13c0.51,0,0.93-0.11,1.28-0.32
			s0.62-0.49,0.84-0.82c0.21-0.34,0.36-0.71,0.46-1.12c0.09-0.41,0.14-0.82,0.14-1.22c0-0.49-0.04-0.95-0.11-1.37
			C4.81,10.7,4.68,10.33,4.49,10.01z M3.63,11.81c-0.05,0.17-0.13,0.32-0.24,0.45s-0.24,0.24-0.41,0.31
			c-0.16,0.08-0.36,0.12-0.57,0.12c-0.21,0-0.4-0.04-0.55-0.12c-0.16-0.08-0.29-0.18-0.39-0.31s-0.18-0.28-0.23-0.45
			c-0.05-0.17-0.08-0.35-0.08-0.53c0-0.18,0.03-0.35,0.08-0.52c0.05-0.17,0.13-0.31,0.23-0.44c0.1-0.13,0.23-0.23,0.39-0.3
			C2.01,9.94,2.2,9.9,2.41,9.9c0.22,0,0.41,0.04,0.57,0.12c0.16,0.08,0.3,0.18,0.41,0.3c0.11,0.12,0.19,0.27,0.24,0.44
			c0.05,0.17,0.08,0.34,0.08,0.52C3.71,11.46,3.69,11.64,3.63,11.81z M13.99,9.99c-0.28,0-0.53,0.11-0.71,0.29l-1.29,1.29V1.99
			c0-0.55-0.45-1-1-1s-1,0.45-1,1v9.59l-1.29-1.3C8.52,10.1,8.27,9.99,7.99,9.99c-0.55,0-1,0.45-1,1c0,0.28,0.11,0.53,0.29,0.71l3,3
			c0.18,0.18,0.43,0.29,0.71,0.29s0.53-0.11,0.71-0.29l3-3c0.18-0.18,0.29-0.43,0.29-0.71C14.99,10.43,14.55,9.99,13.99,9.99z"/>
	</g>
</g>
</svg>
