<?xml version="1.0" encoding="utf-8"?>
<!-- Generator: Adobe Illustrator 18.0.0, SVG Export Plug-In . SVG Version: 6.00 Build 0)  -->
<svg version="1.1" id="Layer_1" xmlns="http://www.w3.org/2000/svg" xmlns:xlink="http://www.w3.org/1999/xlink" x="0px" y="0px"
	 viewBox="0 0 16 16" enable-background="new 0 0 16 16" xml:space="preserve">
<g id="bold_2_">
	<g>
		<path fill-rule="evenodd" clip-rule="evenodd" d="M12.15,7.12C12.68,6.38,13,5.48,13,4.5C13,2.01,10.99,0,8.5,0H3
			C2.45,0,2,0.45,2,1v14c0,0.55,0.45,1,1,1h6c2.76,0,5-2.24,5-5C14,9.43,13.28,8.04,12.15,7.12z M5,3h3.5C9.33,3,10,3.67,10,4.5
			C10,5.33,9.33,6,8.5,6H5V3z M9,13H5V9h4c1.1,0,2,0.9,2,2S10.1,13,9,13z"/>
	</g>
</g>
</svg>
