<?xml version="1.0" encoding="utf-8"?>
<!-- Generator: Adobe Illustrator 18.1.0, SVG Export Plug-In . SVG Version: 6.00 Build 0)  -->
<svg version="1.1" id="Layer_1" xmlns="http://www.w3.org/2000/svg" xmlns:xlink="http://www.w3.org/1999/xlink" x="0px" y="0px"
	 viewBox="0 0 16 16" enable-background="new 0 0 16 16" xml:space="preserve">
<g id="sort_numerical_desc_1_">
	<g>
		<path fill-rule="evenodd" clip-rule="evenodd" d="M3.81,9.55C3.67,9.69,3.52,9.81,3.33,9.91c-0.19,0.09-0.39,0.16-0.62,0.2
			C2.48,10.15,2.24,10.17,2,10.17v0.9h1.74v4.94H5V9.01H4.06C4.02,9.22,3.94,9.4,3.81,9.55z M5.5,1.02
			C5.31,0.71,5.05,0.46,4.72,0.27C4.39,0.09,3.98,0,3.47,0C3.08,0,2.73,0.06,2.43,0.17C2.12,0.29,1.86,0.45,1.65,0.66
			C1.43,0.87,1.27,1.11,1.16,1.39S1,1.97,1,2.3c0,0.35,0.05,0.66,0.16,0.94c0.11,0.28,0.26,0.52,0.46,0.71
			c0.2,0.2,0.44,0.35,0.71,0.46c0.28,0.11,0.59,0.16,0.93,0.16c0.33,0,0.63-0.07,0.9-0.21c0.27-0.14,0.49-0.34,0.65-0.6l0.02,0.02
			C4.81,4.01,4.79,4.25,4.75,4.52C4.71,4.78,4.64,5.03,4.54,5.27C4.44,5.5,4.29,5.7,4.1,5.86C3.91,6.01,3.66,6.09,3.35,6.09
			c-0.31,0-0.55-0.08-0.73-0.26C2.43,5.67,2.33,5.44,2.3,5.17H1.13c0.01,0.28,0.08,0.53,0.21,0.75C1.46,6.14,1.62,6.33,1.81,6.5
			c0.19,0.16,0.42,0.29,0.67,0.38C2.74,6.96,3.01,7.01,3.3,7.01c0.51,0,0.93-0.11,1.28-0.32C4.92,6.48,5.2,6.2,5.41,5.86
			c0.21-0.34,0.36-0.71,0.46-1.12C5.96,4.33,6,3.93,6,3.52c0-0.49-0.04-0.95-0.11-1.38C5.82,1.72,5.68,1.34,5.5,1.02z M4.64,2.82
			C4.59,2.99,4.51,3.14,4.4,3.28s-0.24,0.24-0.4,0.31C3.83,3.67,3.64,3.7,3.42,3.7c-0.21,0-0.4-0.04-0.55-0.12
			C2.71,3.5,2.58,3.4,2.48,3.27C2.37,3.14,2.3,2.99,2.25,2.82C2.19,2.65,2.17,2.48,2.17,2.29c0-0.18,0.03-0.35,0.08-0.52
			C2.3,1.6,2.37,1.46,2.48,1.33c0.1-0.13,0.23-0.23,0.39-0.3c0.16-0.07,0.34-0.11,0.55-0.11c0.22,0,0.41,0.04,0.57,0.12
			c0.16,0.08,0.3,0.18,0.4,0.3C4.51,1.46,4.59,1.6,4.64,1.77c0.05,0.17,0.08,0.34,0.08,0.52C4.72,2.48,4.69,2.65,4.64,2.82z M15,10
			c-0.28,0-0.53,0.11-0.71,0.29L13,11.59V1.99c0-0.55-0.45-1-1-1s-1,0.45-1,1v9.59l-1.29-1.29C9.53,10.11,9.28,10,9,10
			c-0.55,0-1,0.45-1,1c0,0.28,0.11,0.53,0.29,0.71l3,3c0.18,0.18,0.43,0.29,0.71,0.29s0.53-0.11,0.71-0.29l3-3
			C15.89,11.53,16,11.28,16,11C16,10.45,15.55,10,15,10z"/>
	</g>
</g>
</svg>
