<?xml version="1.0" encoding="utf-8"?>
<!-- Generator: Adobe Illustrator 17.1.0, SVG Export Plug-In . SVG Version: 6.00 Build 0)  -->
<!DOCTYPE svg PUBLIC "-//W3C//DTD SVG 1.1//EN" "http://www.w3.org/Graphics/SVG/1.1/DTD/svg11.dtd">
<svg version="1.1" id="Layer_1" xmlns="http://www.w3.org/2000/svg" xmlns:xlink="http://www.w3.org/1999/xlink" x="0px" y="0px"
	 viewBox="0 0 16 16" enable-background="new 0 0 16 16" xml:space="preserve">
<g id="Shape_49">
	<g>
		<path fill-rule="evenodd" clip-rule="evenodd" d="M15.71,8.29l-8-8C7.53,0.11,7.28,0,7,0H1C0.45,0,0,0.45,0,1v6
			c0,0.28,0.11,0.53,0.29,0.71l8,8l0.01-0.01C8.49,15.88,8.72,16,9,16c0.28,0,0.53-0.11,0.71-0.29l6-6C15.89,9.53,16,9.28,16,9
			C16,8.72,15.89,8.47,15.71,8.29z M4,6C2.9,6,2,5.1,2,4c0-1.1,0.9-2,2-2s2,0.9,2,2C6,5.1,5.1,6,4,6z"/>
	</g>
</g>
</svg>
