<?xml version="1.0" encoding="utf-8"?>
<!-- Generator: Adobe Illustrator 18.0.0, SVG Export Plug-In . SVG Version: 6.00 Build 0)  -->
<svg version="1.1" id="Layer_1" xmlns="http://www.w3.org/2000/svg" xmlns:xlink="http://www.w3.org/1999/xlink" x="0px" y="0px"
	 viewBox="0 0 16 16" enable-background="new 0 0 16 16" xml:space="preserve">
<g id="facebook_2_">
	<g>
		<path fill-rule="evenodd" clip-rule="evenodd" d="M15.12,0H0.89C0.4,0,0.01,0.4,0.01,0.88v14.23c0,0.49,0.4,0.88,0.88,0.88h7.66
			V9.8H6.46V7.39h2.08V5.61c0-2.07,1.26-3.19,3.1-3.19c0.88,0,1.64,0.07,1.86,0.1v2.16l-1.28,0c-1,0-1.2,0.48-1.2,1.18v1.54h2.39
			L13.12,9.8h-2.08v6.19h4.08c0.49,0,0.88-0.4,0.88-0.88V0.88C16,0.4,15.6,0,15.12,0z"/>
	</g>
</g>
</svg>
