<?xml version="1.0" encoding="utf-8"?>
<!-- Generator: Adobe Illustrator 18.0.0, SVG Export Plug-In . SVG Version: 6.00 Build 0)  -->
<svg version="1.1" id="Layer_1" xmlns="http://www.w3.org/2000/svg" xmlns:xlink="http://www.w3.org/1999/xlink" x="0px" y="0px"
	 viewBox="0 0 16 16" enable-background="new 0 0 16 16" xml:space="preserve">
<g id="underline_6_">
	<g>
		<path fill-rule="evenodd" clip-rule="evenodd" d="M8,13c2.76,0,5-2.24,5-5V1c0-0.55-0.45-1-1-1s-1,0.45-1,1v7c0,1.66-1.34,3-3,3
			S5,9.66,5,8V1c0-0.55-0.45-1-1-1S3,0.45,3,1v7C3,10.76,5.24,13,8,13z M13,14H3c-0.55,0-1,0.45-1,1c0,0.55,0.45,1,1,1h10
			c0.55,0,1-0.45,1-1C14,14.45,13.55,14,13,14z"/>
	</g>
</g>
</svg>
