<?xml version="1.0" encoding="utf-8"?>
<!-- Generator: Adobe Illustrator 18.0.0, SVG Export Plug-In . SVG Version: 6.00 Build 0)  -->
<svg version="1.1" id="Layer_1" xmlns="http://www.w3.org/2000/svg" xmlns:xlink="http://www.w3.org/1999/xlink" x="0px" y="0px"
	 viewBox="0 0 16 16" enable-background="new 0 0 16 16" xml:space="preserve">
<g id="kik_2_">
	<g>
		<path fill-rule="evenodd" clip-rule="evenodd" d="M15.08,7.92c-0.51,0-0.92,0.41-0.92,0.92c0,0.51,0.41,0.92,0.92,0.92
			S16,9.34,16,8.83C16,8.33,15.59,7.92,15.08,7.92z M7.65,7.03c0-0.01,0-0.02,0-0.02c0-0.46-0.37-0.84-0.82-0.84
			C6.37,6.17,6,6.54,6,7c0,0.01,0,0.01,0,0.02H6l0,4.15h0.01C6.01,11.63,6.38,12,6.83,12c0.45,0,0.82-0.37,0.82-0.83h0.01l0-4.15
			H7.65z M4.87,10.69L3.36,8.65l1.08-1.07L4.43,7.58C4.58,7.43,4.66,7.22,4.66,7c0-0.46-0.37-0.84-0.83-0.84
			c-0.24,0-0.46,0.11-0.62,0.28l0,0L1.67,7.95L1.66,4.88l-0.01,0c0-0.02,0-0.03,0-0.05C1.66,4.37,1.29,4,0.84,4
			C0.38,4,0.02,4.37,0.02,4.84c0,0.01,0,0.02,0,0.03L0,4.86l0,6.29l0.02,0c0,0.01,0,0.01,0,0.02c0,0.46,0.36,0.83,0.82,0.83
			c0.43,0,0.79-0.35,0.81-0.78l0.01,0l0-1.08l0.42-0.39l1.38,1.84C3.6,11.83,3.86,12,4.17,12c0.46,0,0.83-0.38,0.83-0.84
			c0-0.17-0.05-0.33-0.13-0.46L4.87,10.69z M13.7,10.69l-1.51-2.04l1.08-1.07l-0.01-0.01C13.4,7.43,13.49,7.22,13.49,7
			c0-0.46-0.37-0.84-0.83-0.84c-0.24,0-0.46,0.11-0.62,0.28l0,0L10.5,7.95l-0.01-3.06l-0.01,0c0-0.02,0-0.03,0-0.05
			C10.48,4.37,10.12,4,9.67,4C9.21,4,8.85,4.37,8.85,4.84c0,0.01,0,0.02,0,0.03l-0.02,0l0,6.29l0.02,0c0,0.01,0,0.01,0,0.02
			c0,0.46,0.36,0.83,0.82,0.83c0.43,0,0.79-0.35,0.81-0.78l0.01,0l0-1.08l0.42-0.39l1.38,1.84C12.43,11.83,12.69,12,13,12
			c0.46,0,0.83-0.38,0.83-0.84c0-0.17-0.05-0.33-0.13-0.46L13.7,10.69z"/>
	</g>
</g>
</svg>
