<?xml version="1.0" encoding="utf-8"?>
<!-- Generator: Adobe Illustrator 18.0.0, SVG Export Plug-In . SVG Version: 6.00 Build 0)  -->
<svg version="1.1" id="Layer_1" xmlns="http://www.w3.org/2000/svg" xmlns:xlink="http://www.w3.org/1999/xlink" x="0px" y="0px"
	 viewBox="0 0 16 16" enable-background="new 0 0 16 16" xml:space="preserve">
<g id="snippet_group">
	<g>
		<path fill-rule="evenodd" clip-rule="evenodd" d="M3,14H2V6h1c0.55,0,1-0.45,1-1c0-0.55-0.45-1-1-1H1C0.45,4,0,4.45,0,5v10
			c0,0.55,0.45,1,1,1h2c0.55,0,1-0.45,1-1C4,14.45,3.55,14,3,14z M5,2h1c0.55,0,1-0.45,1-1c0-0.55-0.45-1-1-1H4C3.45,0,3,0.45,3,1v2
			h2V2z M11,4H9C8.45,4,8,4.45,8,5c0,0.55,0.45,1,1,1h1v8H9c-0.55,0-1,0.45-1,1c0,0.55,0.45,1,1,1h2c0.55,0,1-0.45,1-1V5
			C12,4.45,11.55,4,11,4z M9,8c0-0.55-0.45-1-1-1H4C3.45,7,3,7.45,3,8c0,0.55,0.45,1,1,1h1v3c0,0.55,0.45,1,1,1s1-0.45,1-1V9h1
			C8.55,9,9,8.55,9,8z M15,0h-2c-0.55,0-1,0.45-1,1c0,0.55,0.45,1,1,1h1v8h-1v2h2c0.55,0,1-0.45,1-1V1C16,0.45,15.55,0,15,0z"/>
	</g>
</g>
</svg>
