<?xml version="1.0" encoding="utf-8"?>
<!-- Generator: Adobe Illustrator 18.0.0, SVG Export Plug-In . SVG Version: 6.00 Build 0)  -->
<svg version="1.1" id="Layer_1" xmlns="http://www.w3.org/2000/svg" xmlns:xlink="http://www.w3.org/1999/xlink" x="0px" y="0px"
	 viewBox="0 0 16 16" enable-background="new 0 0 16 16" xml:space="preserve">
<g id="whatsapp_2_">
	<g>
		<path fill-rule="evenodd" clip-rule="evenodd" d="M13.67,2.33C12.17,0.83,10.17,0,8.04,0C3.65,0,0.08,3.56,0.08,7.93
			c0,1.4,0.37,2.76,1.06,3.96L0.01,16l4.22-1.1c1.16,0.63,2.47,0.96,3.8,0.97h0c4.39,0,7.96-3.56,7.96-7.93
			C16,5.82,15.17,3.82,13.67,2.33z M8.04,14.52L8.04,14.52c-1.19,0-2.35-0.32-3.37-0.92l-0.24-0.14l-2.5,0.65l0.67-2.43l-0.16-0.25
			c-0.66-1.05-1.01-2.26-1.01-3.51c0-3.63,2.97-6.59,6.62-6.59c1.77,0,3.43,0.69,4.68,1.93s1.94,2.9,1.94,4.66
			C14.65,11.57,11.69,14.52,8.04,14.52z M11.67,9.59c-0.2-0.1-1.18-0.58-1.36-0.64c-0.18-0.07-0.32-0.1-0.45,0.1
			c-0.13,0.2-0.51,0.64-0.63,0.78C9.12,9.95,9,9.97,8.8,9.87c-0.2-0.1-0.84-0.31-1.6-0.98C6.61,8.36,6.21,7.71,6.09,7.51
			c-0.12-0.2-0.01-0.31,0.09-0.4c0.09-0.09,0.2-0.23,0.3-0.35c0.1-0.12,0.13-0.2,0.2-0.33C6.74,6.3,6.71,6.18,6.66,6.08
			c-0.05-0.1-0.45-1.07-0.61-1.47C5.89,4.23,5.72,4.28,5.6,4.27C5.48,4.27,5.35,4.27,5.22,4.27c-0.13,0-0.35,0.05-0.53,0.25
			c-0.18,0.2-0.7,0.68-0.7,1.65c0,0.98,0.71,1.92,0.81,2.05c0.1,0.13,1.4,2.13,3.4,2.99c0.47,0.2,0.85,0.33,1.13,0.42
			c0.48,0.15,0.91,0.13,1.25,0.08c0.38-0.06,1.18-0.48,1.34-0.94c0.17-0.46,0.17-0.86,0.12-0.94C12,9.74,11.87,9.69,11.67,9.59z"/>
	</g>
</g>
</svg>
