<svg xmlns="http://www.w3.org/2000/svg" viewBox="0 0 16 16">
  <path d="M8 0q-.53 0-1.044.068a1 1 0 1 0 .26 1.983 6 6 0 0 1 1.569 0A1 1 0 0 0 9.044.068 8 8 0 0 0 8 0M4.348 3.24a1 1 0 1 0-1.219-1.587A8 8 0 0 0 1.653 3.13 1 1 0 0 0 3.24 4.348c.32-.416.693-.79 1.109-1.109m8.523-1.587a1 1 0 1 0-1.219 1.586c.416.32.79.693 1.109 1.109a1 1 0 1 0 1.586-1.219 8 8 0 0 0-1.476-1.476m3.061 5.303a1 1 0 1 0-1.983.26 6 6 0 0 1 0 1.569 1 1 0 0 0 1.983.259 8 8 0 0 0 0-2.088m-13.881.26a1 1 0 0 0-1.983-.26 8 8 0 0 0 0 2.088 1 1 0 1 0 1.983-.26 6 6 0 0 1 0-1.569m1.188 4.436a1 1 0 1 0-1.586 1.219 8 8 0 0 0 1.476 1.476 1 1 0 0 0 1.219-1.586 6 6 0 0 1-1.109-1.109m11.108 1.219a1 1 0 0 0-1.586-1.219c-.32.416-.693.79-1.109 1.109a1 1 0 1 0 1.219 1.586 8 8 0 0 0 1.476-1.476m-5.303 3.061a1 1 0 1 0-.26-1.983 6 6 0 0 1-1.569 0 1 1 0 0 0-.259 1.983 8 8 0 0 0 2.088 0M8 6a2 2 0 1 1 0 4 2 2 0 0 1 0-4m4 2a4 4 0 1 0-8 0 4 4 0 0 0 8 0"/>
</svg>
