<svg width="16" height="16" viewBox="0 0 16 16" fill="none" xmlns="http://www.w3.org/2000/svg">
<path fill-rule="evenodd" clip-rule="evenodd" d="M13.6392 9.78088L7.17698 8.81948L5.92735 2.4068C7.37526 2.49337 9.34624 2.97737 11.1312 4.68416C12.9162 6.39095 13.4879 8.3383 13.6392 9.78088ZM6.88267 10.7977L13.6997 11.8119C14.7512 11.9683 15.7236 11.2652 15.6755 10.2032C15.5941 8.40337 15.0057 5.62178 12.5134 3.23865C10.0211 0.855528 7.21599 0.392152 5.41432 0.391357C4.35127 0.390889 3.69232 1.39375 3.89565 2.43718L5.2139 9.20202C5.37597 10.0337 6.04456 10.673 6.88267 10.7977ZM3.91344 7.69109C4.29513 7.29192 4.28095 6.65892 3.88179 6.27723C3.48262 5.89554 2.84961 5.90971 2.46793 6.30888C1.94296 6.85789 1.55099 7.48921 1.29246 8.16035C1.09392 8.67572 1.35077 9.25445 1.86614 9.45298C2.38151 9.65151 2.96024 9.39466 3.15877 8.87929C3.32444 8.44922 3.57535 8.04466 3.91344 7.69109ZM10.587 14.0724C10.9687 13.6732 10.9545 13.0402 10.5554 12.6586C10.1562 12.2769 9.5232 12.291 9.14151 12.6902C8.80342 13.0438 8.4105 13.3125 7.98827 13.4973C7.4823 13.7187 7.25161 14.3083 7.47301 14.8143C7.6944 15.3203 8.28405 15.551 8.79001 15.3296C9.44891 15.0412 10.0621 14.6214 10.587 14.0724ZM3.22083 11.6514C2.99943 11.1455 2.40979 10.9148 1.90382 11.1362C1.39785 11.3576 1.16716 11.9472 1.38856 12.4532C1.67687 13.1121 2.0967 13.7252 2.64571 14.2502C3.19472 14.7752 3.82604 15.1671 4.49718 15.4257C5.01254 15.6242 5.59127 15.3673 5.7898 14.852C5.98834 14.3366 5.73149 13.7579 5.21612 13.5594C4.78605 13.3937 4.38149 13.1428 4.02792 12.8047C3.67434 12.4666 3.40558 12.0737 3.22083 11.6514Z" fill="#5F6B7C"/>
</svg>
