<svg width="16" height="16" viewBox="0 0 16 16" fill="none" xmlns="http://www.w3.org/2000/svg">
<path d="M8 3C5.23858 3 3 5.23858 3 8C3 8.55228 2.55228 9 2 9C1.44772 9 1 8.55228 1 8C1 4.13401 4.13401 1 8 1C9.71915 1 11.6191 1.41599 13 2.56747V2C13 1.44772 13.4477 1 14 1C14.5523 1 15 1.44772 15 2V5C15 5.55228 14.5523 6 14 6H11C10.4477 6 10 5.55228 10 5C10 4.44772 10.4477 4 11 4H11.5858C10.7017 3.33416 9.417 3 8 3Z" fill="black"/>
<path d="M8 13C10.7614 13 13 10.7614 13 8C13 7.44772 13.4477 7 14 7C14.5523 7 15 7.44772 15 8C15 11.866 11.866 15 8 15C6.28085 15 4.38092 14.584 3 13.4325V14C3 14.5523 2.55228 15 2 15C1.44772 15 1 14.5523 1 14V11C1 10.4477 1.44771 10 2 10H5C5.55229 10 6 10.4477 6 11C6 11.5523 5.55229 12 5 12H4.4142C5.29827 12.6658 6.583 13 8 13Z" fill="black"/>
</svg>
