<svg width="16" height="16" viewBox="0 0 16 16" fill="none" xmlns="http://www.w3.org/2000/svg">
<path d="M0 14C1.93129e-07 12.8954 0.89543 12 2 12C3.10457 12 4 12.8954 4 14C4 15.1046 3.10457 16 2 16C0.89543 16 -1.93129e-07 15.1046 0 14Z" fill="black"/>
<path d="M11 0C10.4477 -9.65646e-08 10 0.447715 10 1L10 3.76789L7.60289 2.38392C7.12459 2.10777 6.513 2.27165 6.23686 2.74994C5.96072 3.22823 6.12459 3.83982 6.60289 4.11597L9.0001 5.5L6.60289 6.88403C6.12459 7.16018 5.96072 7.77177 6.23686 8.25006C6.513 8.72835 7.12459 8.89223 7.60288 8.61608L10 7.23211L10 10C10 10.5523 10.4477 11 11 11C11.5523 11 12 10.5523 12 10L12 7.23199L14.3971 8.61597C14.8754 8.89211 15.487 8.72823 15.7631 8.24994C16.0393 7.77165 15.8754 7.16006 15.3971 6.88392L13.0001 5.5L15.3971 4.11608C15.8754 3.83994 16.0393 3.22835 15.7631 2.75006C15.487 2.27177 14.8754 2.10789 14.3971 2.38403L12 3.76801L12 1C12 0.447715 11.5523 9.65646e-08 11 0Z" fill="black"/>
</svg>
