<svg width="16" height="16" viewBox="0 0 16 16" fill="none" xmlns="http://www.w3.org/2000/svg">
<path d="M6.00001 12C4.39749 7.45933 4.4148 4.46549 7.99999 0C11.5852 4.48473 11.6018 7.48025 10 12H6.00001ZM9 5C9 4.44772 8.55228 4 8 4C7.44771 4 7 4.44772 7 5C7 5.55228 7.44771 6 8 6C8.55228 6 9 5.55228 9 5ZM2 13.0224L3 9L4 8C4.07641 9.31711 4.63537 10.9542 4.94611 11.8643L5 12.0224L2 13.0224ZM11 12.0224L11.0539 11.8643C11.3646 10.9542 11.9236 9.31711 12 8L13 9L14 13.0224L11 12.0224ZM7 13.0001L9 13C9 14.5 8.5 15.5 8 16C7.5 15.5 7 14.5001 7 13.0001Z" fill="black"/>
</svg>
