<svg width="16" height="16" viewBox="0 0 16 16" fill="none" xmlns="http://www.w3.org/2000/svg">
<path d="M7.30294 15.71C7.48282 15.89 7.73267 16 8.0025 16C8.27233 16 8.53217 15.89 8.71206 15.71L11.7102 12.72C11.8901 12.53 12 12.28 12 12.01C12 11.46 11.5503 11.01 11.0006 11.01C10.7208 11.01 10.471 11.12 10.2911 11.3L9.00187 12.59C9.00187 11.3933 9 10.1967 9 9.00003L15 9.00003C15.5523 9.00003 16 8.55231 16 8.00003C16 7.44774 15.5523 7.00003 15 7.00003L9 7.00003L9 5.00003L15 5.00003C15.5523 5.00003 16 4.55231 16 4.00003L16 2.00003C16 1.44774 15.5523 1.00003 15 1.00003L1 1.00003C0.447716 1.00003 1.2722e-06 1.44774 1.22392e-06 2.00003L1.04907e-06 4.00003C1.00079e-06 4.55231 0.447716 5.00003 1 5.00003L7 5.00003L7 7.00003L1 7.00003C0.447716 7.00003 7.47662e-07 7.44774 6.9938e-07 8.00003C6.51097e-07 8.55231 0.447715 9.00003 1 9.00003L7 9.00003L7 12.5858L7.00312 12.5858L7.00312 12.59L5.71393 11.3C5.53404 11.12 5.2842 11.01 5.01437 11.01C4.46471 11.01 4.01499 11.46 4.01499 12.01C4.01499 12.29 4.12492 12.54 4.30481 12.72L7.30294 15.71Z" fill="#5F6B7C"/>
</svg>
