<svg xmlns="http://www.w3.org/2000/svg" viewBox="0 0 16 16">
  <path d="M15 15H1v-2h14zM13 13H3l1.707-1.707A1 1 0 0 1 5.414 11h5.172a1 1 0 0 1 .707.293zM5.199 6.154c-.33.44-.24 1.07.2 1.4s1.07.239 1.4-.2c.32-.43 1.96-.53 2.43.04.35.419.98.479 1.409.13.42-.35.48-.98.13-1.41-1.33-1.59-4.5-1.39-5.57.04"/>
  <path d="M2.303 4.278c-.4.39-.4 1.02-.02 1.409.38.39 1.02.41 1.42.03 2.339-2.289 6.258-2.289 8.598 0 .39.39 1.03.38 1.41-.02s.38-1.03-.02-1.41C10.58 1.24 5.422 1.24 2.303 4.278"/>
  <circle cx="8" cy="9" r="1"/>
</svg>
