<svg width="16" height="16" viewBox="0 0 16 16" fill="none" xmlns="http://www.w3.org/2000/svg">
<rect x="15" y="15" width="14" height="2" transform="rotate(-180 15 15)" fill="#111418"/>
<path d="M13 13L3 13L4.70711 11.2929C4.89464 11.1054 5.149 11 5.41421 11H10.5858C10.851 11 11.1054 11.1054 11.2929 11.2929L13 13Z" fill="#111418"/>
<path fill-rule="evenodd" clip-rule="evenodd" d="M5.1989 6.15377C4.86895 6.59356 4.95894 7.22327 5.39886 7.55311C5.83879 7.88296 6.46868 7.793 6.79863 7.35321C7.11858 6.92341 8.7583 6.82346 9.22822 7.39319C9.57816 7.81299 10.2081 7.87296 10.638 7.52313C11.0579 7.17329 11.1179 6.54359 10.768 6.11379C9.43818 4.52453 6.26872 4.72444 5.1989 6.15377Z" fill="#111418"/>
<path fill-rule="evenodd" clip-rule="evenodd" d="M2.3025 4.27763C1.90256 4.66744 1.90256 5.29715 2.2825 5.68697C2.66244 6.07678 3.30233 6.09677 3.70226 5.71695C6.04187 3.42802 9.96121 3.42802 12.3008 5.71695C12.6907 6.10677 13.3306 6.09677 13.7106 5.69696C14.0905 5.29715 14.0905 4.66744 13.6906 4.28762C10.5811 1.23905 5.42197 1.23905 2.3025 4.27763Z" fill="#111418"/>
<circle cx="8" cy="9" r="1" fill="#111418"/>
</svg>
