<svg xmlns="http://www.w3.org/2000/svg" viewBox="0 0 16 16">
  <path d="M11 0c.5523 0 1 .44771 1 1v10c0 .5523-.4477 1-1 1H5c-.55228 0-1-.4477-1-1V1c0-.55229.44772-1 1-1h6Zm-1 2.66667C10 2.3 9.7 2 9.33333 2h-.66666C8.3 2 8 2.3 8 2.66667v.66666C8 3.7 8.3 4 8.66667 4h.66666C9.7 4 10 3.7 10 3.33333v-.66666Zm0 3.66666v-.66666C10 5.3 9.7 5 9.33333 5h-.66666C8.3 5 8 5.3 8 5.66667v.66666C8 6.7 8.3 7 8.66667 7h.66666C9.7 7 10 6.7 10 6.33333Zm0 2.33334C10 8.3 9.7 8 9.33333 8h-.66666C8.3 8 8 8.3 8 8.66667v.66666C8 9.7 8.3 10 8.66667 10h.66666C9.7 10 10 9.7 10 9.33333v-.66666Z"/>
  <path d="M.4463 10.3585 3 8.65965V11c0 1.1046.89543 2 2 2h6c1.1046 0 2-.8954 2-2V8.65965l2.5537 1.69885c.5084.3382.5977 1.0478.189 1.5011L12.307 15.669c-.1901.2107-.4608.331-.7449.331H4.43787c-.28408 0-.55482-.1203-.74486-.331l-3.4357-3.8094c-.40874-.4533-.3194-1.1629.189-1.5011Z"/>
</svg>
