<svg xmlns="http://www.w3.org/2000/svg" viewBox="0 0 16 16">
  <path d="M11 0a1 1 0 0 1 1 1v10a1 1 0 0 1-1 1H5a1 1 0 0 1-1-1V1a1 1 0 0 1 1-1zm-1 2.667C10 2.3 9.7 2 9.333 2h-.666C8.3 2 8 2.3 8 2.667v.666C8 3.7 8.3 4 8.667 4h.666C9.7 4 10 3.7 10 3.333zm0 3.666v-.666C10 5.3 9.7 5 9.333 5h-.666C8.3 5 8 5.3 8 5.667v.666C8 6.7 8.3 7 8.667 7h.666C9.7 7 10 6.7 10 6.333m0 2.334C10 8.3 9.7 8 9.333 8h-.666C8.3 8 8 8.3 8 8.667v.666c0 .367.3.667.667.667h.666C9.7 10 10 9.7 10 9.333z"/>
  <path d="M.446 10.359 3 8.659V11a2 2 0 0 0 2 2h6a2 2 0 0 0 2-2V8.66l2.554 1.698a1 1 0 0 1 .189 1.502l-3.436 3.809c-.19.21-.46.331-.745.331H4.438c-.284 0-.555-.12-.745-.331l-3.436-3.81a1 1 0 0 1 .19-1.5"/>
</svg>
