<svg xmlns="http://www.w3.org/2000/svg" viewBox="0 0 16 16">
  <path d="M14.29 4.296a1.002 1.002 0 0 1 1.42 1.419l-3 2.996a1.015 1.015 0 0 1-1.42 0l-3-2.997a1.002 1.002 0 0 1 1.42-1.419L11 5.586V1a1 1 0 0 1 2 0v4.584z"/>
  <path d="m7.583 6.422 3.01 3.006.01.01c.359.34.85.563 1.397.563V11a1 1 0 0 1-1 1H5a1 1 0 0 1-1-1V1a1 1 0 0 1 1-1h5.268A2 2 0 0 0 10 1v2.27a2.002 2.002 0 0 0-2.417 3.152"/>
  <path d="M13 9.736q.23-.13.417-.317l.29-.29 1.847 1.23a1 1 0 0 1 .189 1.5l-3.436 3.81c-.19.21-.46.331-.745.331H4.438c-.284 0-.555-.12-.745-.331l-3.436-3.81a1 1 0 0 1 .19-1.5L3 8.659V11a2 2 0 0 0 2 2h6a2 2 0 0 0 2-2z"/>
</svg>
