<svg xmlns="http://www.w3.org/2000/svg" viewBox="0 0 16 16">
  <path d="M14.29 4.29571c.18-.17982.43-.28971.71-.28971.55 0 1 .44955 1 .999 0 .27972-.11.52947-.29.70929l-3 2.997c-.18.17982-.44.28971-.71.28971-.27 0-.52-.10989-.71-.28971l-3-2.997C8.11 5.53447 8 5.28472 8 5.005c0-.54945.45-.999 1-.999.28 0 .53.10989.71.28971L11 5.58442V1.0001c0-.5521.4474-.99932.9995-.9996C12.552.00023 13 .44762 13 1.0001v4.58432l1.29-1.28871Z"/>
  <path d="M7.58325 6.42175 10.5928 9.4283l.0098.00929c.3593.33999.8499.56341 1.3974.56341V11c0 .5523-.4477 1-1 1H5c-.55228 0-1-.4477-1-1V1c0-.55229.44772-1 1-1h5.2677C10.0974.29411 10 .63566 10 1.0001v2.26988c-.29602-.16936-.63831-.26398-1-.26398-1.10134 0-2 .89632-2 1.999 0 .54827.21774 1.05161.58325 1.41675Z"/>
  <path d="M13 9.73576c.1521-.08665.2927-.19305.4168-.31701l.2895-.28923 1.8474 1.22898c.5084.3382.5977 1.0478.189 1.5011L12.307 15.669c-.1901.2107-.4608.331-.7449.331H4.43787c-.28408 0-.55482-.1203-.74486-.331l-3.4357-3.8094c-.40874-.4533-.3194-1.1629.189-1.5011L3 8.65965V11c0 1.1046.89543 2 2 2h6c1.1046 0 2-.8954 2-2V9.73576Z"/>
</svg>
