<svg xmlns="http://www.w3.org/2000/svg" viewBox="0 0 16 16">
  <path d="M3 1c0-.55-.45-1-1-1S1 .45 1 1v3h2zm0 4H1c-.55 0-1 .45-1 1v2c0 .55.45 1 1 1h2c.55 0 1-.45 1-1V6c0-.55-.45-1-1-1m12-4c0-.55-.45-1-1-1s-1 .45-1 1v2h2zM9 1c0-.55-.45-1-1-1S7 .45 7 1v6h2zM1 15c0 .55.45 1 1 1s1-.45 1-1v-5H1zM15 4h-2c-.55 0-1 .45-1 1v2c0 .55.45 1 1 1h2c.55 0 1-.45 1-1V5c0-.55-.45-1-1-1m-2 11c0 .55.45 1 1 1s1-.45 1-1V9h-2zM9 8H7c-.55 0-1 .45-1 1v2c0 .55.45 1 1 1h2c.55 0 1-.45 1-1V9c0-.55-.45-1-1-1m-2 7c0 .55.45 1 1 1s1-.45 1-1v-2H7z"/>
</svg>
