<svg xmlns="http://www.w3.org/2000/svg" viewBox="0 0 16 16">
  <path d="M13.843 15.163c.232.53.138.837.138.837H6.017s-.088-.308.138-.837c.226-.53 1.338-.88 2.079-1.206.735-.332.66-.53.685-.8 0-.03.006-.068.006-.105a2.2 2.2 0 0 1-.61-.892v-.006s-.006-.006-.006-.012c-.025-.074-.056-.16-.075-.24-.176-.031-.276-.222-.314-.394a.8.8 0 0 1-.1-.437c.025-.253.131-.37.244-.419v-.037c0-.313.032-.775.088-1.07A1.835 1.835 0 0 1 8.85 8.37c.315-.24.76-.37 1.156-.37s.842.13 1.156.37c.301.233.534.56.64.935.026.08.045.166.057.246.057.295.088.75.088 1.064v.043c.113.05.214.167.232.413a.75.75 0 0 1-.1.437c-.038.172-.132.357-.301.387a2 2 0 0 1-.076.24l-.006.025a2.35 2.35 0 0 1-.597.892v.111c.025.277-.075.474.666.8s1.853.67 2.079 1.2"/>
  <path d="M14.853 15h1.13s.083-.27-.12-.732c-.16-.373-.82-.641-1.411-.88a15 15 0 0 1-.409-.17c-.565-.25-.57-.412-.577-.61q-.001-.045-.005-.09v-.097c.22-.2.401-.469.522-.781 0 0 .005-.016.005-.022q.042-.105.066-.21c.149-.026.231-.188.264-.339a.66.66 0 0 0 .088-.382c-.016-.215-.104-.318-.203-.36v-.039c0-.274-.028-.673-.077-.931a1.598 1.598 0 0 0-.61-1.034 1.74 1.74 0 0 0-1.285-.3c.236.285.42.622.529.996.038.124.065.248.083.36.048.257.079.578.093.867a1.736 1.736 0 0 1 .08 1.624 1.7 1.7 0 0 1-.217.453 1.4 1.4 0 0 1-.176.209q-.12.307-.292.585l.202.083c.285.117.64.261.9.387.226.11.475.245.698.414.213.161.476.408.63.764q.052.12.091.235M12.14 14.12l.09.037ZM11 1c.55 0 1 .45 1 1 0 .28-.11.53-.29.7L8 6.41v1.374a2.8 2.8 0 0 0-.833 1.589 7 7 0 0 0-.092.86 1.64 1.64 0 0 0-.25.739l-.001.004c-.02.217.006.413.046.573L5.71 12.71A1.003 1.003 0 0 1 4 12V6.41L.29 2.71A1.003 1.003 0 0 1 1 1z"/>
</svg>
