<svg xmlns="http://www.w3.org/2000/svg" viewBox="0 0 16 16">
  <path d="M5.44.804A1 1 0 0 1 6.42 0h3.16a1 1 0 0 1 .98.804L10.8 2H13a1 1 0 0 1 1 1v3.714l1.005.287a1 1 0 0 1 .677 1.27l-1.208 3.74a1 1 0 0 1-.308.457q.392.031.834.032a.5.5 0 0 1 0 1c-1.46 0-2.568-.261-3.318-.53a6 6 0 0 1-.856-.373l-.004-.002c-.552.372-1.502.905-2.822.905-1.334 0-2.289-.544-2.839-.917-.747.374-2.094.917-4.161.917a.5.5 0 0 1 0-1q.283 0 .544-.014l-.005-.012C1.127 11.54.596 9.647.23 8.215a.99.99 0 0 1 .69-1.192L2 6.714V3a1 1 0 0 1 1-1h2.2zM4 6.143l3-.857V4H4zm5-.857 3 .857V4H9zm-4.036 8.273a.5.5 0 0 1 .527.034c.455.325 1.277.907 2.509.907s2.054-.582 2.51-.907a.5.5 0 0 1 .579-.001l.006.004.036.023q.051.034.168.097c.154.082.394.197.72.313.649.232 1.642.471 2.981.471a.5.5 0 0 1 0 1c-1.46 0-2.568-.261-3.318-.53a6 6 0 0 1-.856-.373l-.004-.002c-.552.372-1.502.905-2.822.905-1.334 0-2.289-.544-2.839-.917-.747.374-2.094.917-4.161.917a.5.5 0 0 1 0-1c2.129 0 3.384-.63 3.964-.94"/>
</svg>
