<svg xmlns="http://www.w3.org/2000/svg" viewBox="0 0 16 16">
  <path d="M5.44.804 5.2 2H3a1 1 0 0 0-1 1v3.714l-1.08.309a.99.99 0 0 0-.69 1.192c.366 1.432.897 3.324 1.309 4.26l.005.01Q1.282 12.5 1 12.5a.5.5 0 0 0 0 1c2.067 0 3.414-.543 4.161-.917.55.373 1.505.917 2.839.917 1.32 0 2.27-.533 2.822-.905l.004.002c.196.105.48.24.856.374.75.268 1.857.529 3.318.529a.5.5 0 0 0 0-1q-.442-.001-.834-.032a1 1 0 0 0 .308-.458l1.208-3.74a1 1 0 0 0-.677-1.269L14 6.714V3a1 1 0 0 0-1-1h-2.2L10.56.804A1 1 0 0 0 9.58 0H6.42a1 1 0 0 0-.98.804M4 6.143l3-.857V4H4zm5-.857 3 .857V4H9zm-4.036 8.273a.5.5 0 0 1 .527.034c.455.325 1.277.907 2.509.907s2.054-.582 2.51-.907a.5.5 0 0 1 .579-.001l.006.004.036.023q.051.034.168.097c.154.082.394.197.72.313.649.232 1.642.471 2.981.471a.5.5 0 0 1 0 1c-1.46 0-2.568-.261-3.318-.53a6 6 0 0 1-.856-.373l-.004-.002c-.552.372-1.502.905-2.822.905-1.334 0-2.289-.544-2.839-.917-.747.374-2.094.917-4.161.917a.5.5 0 0 1 0-1c2.129 0 3.384-.63 3.964-.94"/>
</svg>
