<svg width="16" height="16" viewBox="0 0 16 16" fill="none" xmlns="http://www.w3.org/2000/svg">
<path fill-rule="evenodd" clip-rule="evenodd" d="M1 6H15C15.55 6 16 5.55 16 5C16 4.45 15.55 4 15 4H1C0.45 4 0 4.45 0 5C0 5.55 0.45 6 1 6ZM5 9H1C0.45 9 0 9.45 0 10C0 10.55 0.45 11 1 11H5C5.55 11 6 10.55 6 10C6 9.45 5.55 9 5 9ZM12 12C12 11.72 11.89 11.47 11.71 11.29L11.41 11H15C15.55 11 16 10.55 16 10C16 9.45 15.55 9 15 9H11.41L11.7 8.71C11.89 8.53 12 8.28 12 8C12 7.45 11.55 7 11 7C10.72 7 10.47 7.11 10.29 7.29L8.29 9.29C8.11 9.47 8 9.72 8 10C8 10.28 8.11 10.53 8.29 10.71L10.29 12.71C10.47 12.89 10.72 13 11 13C11.55 13 12 12.55 12 12Z" fill="#111418"/>
</svg>
