<svg xmlns="http://www.w3.org/2000/svg" viewBox="0 0 16 16">
  <path d="M15 7.5a7.5 7.5 0 1 1-15 0 7.5 7.5 0 0 1 15 0M7.5 13c.694 0 1.357-.128 1.969-.363l.342-1.053-1.132-1.557H6.34L5.202 11.59l.341 1.052A5.5 5.5 0 0 0 7.5 13m5.499-5.39a5.48 5.48 0 0 1-1.253 3.386H10.62L9.466 9.408l-.002.001.687-2.113 1.67-.542zm-9.74 3.392h1.135L5.54 9.424 4.854 7.31l-1.711-.556-1.142.83a5.48 5.48 0 0 0 1.258 3.418M8 4.963l1.883 1.369 1.628-.53.48-1.477a5.5 5.5 0 0 0-2.89-2.088L8 3.037zM5.899 2.237l1.101.8v1.926L5.105 6.34l-1.653-.537-.469-1.442A5.5 5.5 0 0 1 5.9 2.237"/>
</svg>
