<svg xmlns="http://www.w3.org/2000/svg" viewBox="0 0 16 16">
  <path d="M6 11.99c-.28 0-.53.11-.71.29l-.29.3V8.99c0-.55-.45-1-1-1s-1 .45-1 1v3.59l-.29-.29c-.18-.18-.43-.3-.71-.3a1.003 1.003 0 0 0-.71 1.71l2 2c.18.18.43.29.71.29s.53-.11.71-.29l2-2A1.003 1.003 0 0 0 6 11.99m7.91-.08q-.09-.54-.33-.96c-.16-.28-.37-.51-.64-.69-.27-.17-.61-.26-1.03-.26-.28 0-.54.06-.78.17q-.345.165-.6.45c-.17.19-.3.41-.39.67a2.5 2.5 0 0 0-.04 1.52 1.623 1.623 0 0 0 .89 1.03c.22.11.45.16.68.16.26 0 .5-.05.7-.15s.38-.26.53-.5l.02.02c-.01.16-.03.34-.07.54-.03.2-.09.4-.17.57-.08.18-.18.33-.31.45s-.29.19-.5.19a.63.63 0 0 1-.48-.21c-.13-.14-.21-.31-.25-.5H10.1c.03.25.1.48.19.68.1.2.22.37.38.5.16.14.33.24.54.31s.42.1.65.1q.585 0 .99-.27c.27-.18.49-.41.66-.7s.29-.61.37-.97.12-.72.12-1.07q0-.54-.09-1.08m-1.14.54c-.04.13-.09.24-.16.34a.8.8 0 0 1-.27.24q-.165.09-.39.09a.75.75 0 0 1-.37-.09.8.8 0 0 1-.26-.25c-.07-.1-.12-.22-.15-.35s-.05-.26-.05-.4c0-.13.02-.26.05-.39.04-.13.09-.24.16-.34s.16-.18.26-.24.22-.09.35-.09c.14 0 .26.03.37.09s.2.14.28.24a1.32 1.32 0 0 1 .23.74c0 .15-.02.28-.05.41m-1.56-4.47H13V0h-1.42c-.05.3-.16.56-.31.76-.16.21-.35.37-.58.5s-.49.21-.78.26c-.3.05-.6.07-.91.06V2.8h2.21z"/>
</svg>
