<svg xmlns="http://www.w3.org/2000/svg" viewBox="0 0 16 16">
  <path d="M6 .5a.5.5 0 0 1 .816-.387C7.154-.111 7.652.04 8.182.2 8.811.39 9.486.596 10 .21V2.83c-.51.315-1.085.128-1.618-.046-.538-.176-1.035-.338-1.382.046v1.193Q7.492 4 8 4c1.06 0 2.074.077 3 .218V.5a.5.5 0 0 1 .816-.387c.338-.224.836-.073 1.366.088.629.19 1.304.395 1.818.01V2.83c-.51.315-1.085.128-1.618-.046-.538-.176-1.035-.338-1.382.046V4.4c2.391.52 4 1.489 4 2.599 0 .552-.398 1.07-1.091 1.514C14.366 7.088 11.479 6 8 6 4.52 6 1.634 7.088 1.092 8.514.397 8.069 0 7.552 0 7c0-.528.364-1.024 1.002-1.455L1 5.5v-5a.5.5 0 0 1 .816-.387C2.154-.111 2.652.04 3.182.2 3.811.39 4.486.596 5 .21V2.83c-.51.315-1.085.128-1.618-.046-.538-.176-1.035-.338-1.382.046v2.186c1.042-.443 2.428-.77 4-.921z"/>
  <path d="M14 8.985c-.005-.081-.046-.232-.262-.45-.234-.238-.623-.497-1.182-.737C11.44 7.32 9.83 7 8 7s-3.44.32-4.556.798c-.56.24-.948.5-1.182.737-.216.218-.257.369-.262.45C3.466 9.607 5.61 10 8 10s4.534-.393 6-1.015"/>
  <path d="M14.008 10.058C12.422 10.653 10.298 11 8 11s-4.422-.348-6.008-.942C1.22 9.768.525 9.439 0 8.985V13c0 1.398 2.55 2.667 6 3v-1a2 2 0 1 1 4 0v1c3.45-.333 6-1.602 6-3V8.985c-.525.454-1.22.783-1.992 1.073"/>
</svg>
