<svg xmlns="http://www.w3.org/2000/svg" viewBox="0 0 16 16">
  <path d="M14 7H8.65c-.38-.09-.73-.18-1.04-.26s-.49-.13-.54-.14c-.43-.11-.79-.29-1.05-.52-.27-.23-.4-.55-.4-.95q0-.435.21-.72c.21-.285.32-.34.54-.46q.33-.165.72-.24c.26-.05.52-.07.77-.07.74 0 1.36.15 1.84.46.32.2.55.5.68.9h2.22c-.06-.33-.17-.64-.32-.92-.25-.45-.59-.84-1.02-1.15s-.93-.54-1.49-.7S8.59 2 7.95 2c-.55 0-1.1.07-1.63.2-.54.13-1.02.34-1.45.62q-.63.42-1.02 1.05t-.39 1.5c0 .3.04.59.13.88q.12.39.39.75H2c-.55 0-1 .45-1 1s.45 1 1 1h7.13c.25.07.49.14.71.22.25.09.48.23.7.44.21.21.32.53.32.97 0 .21-.05.43-.14.63-.09.21-.24.39-.45.55q-.315.24-.81.39t-1.2.15c-.44 0-.84-.05-1.21-.14s-.7-.24-.99-.43c-.29-.2-.51-.45-.67-.76-.01 0-.01-.01-.02-.02H3.14a3.68 3.68 0 0 0 1.39 2.03c.46.34 1 .58 1.62.74.61.15 1.27.23 1.97.23.61 0 1.2-.07 1.79-.2.58-.13 1.11-.34 1.56-.63q.69-.435 1.11-1.11c.28-.45.42-1 .42-1.64q0-.45-.15-.9c-.05-.19-.13-.36-.22-.52H14c.55 0 1-.45 1-1s-.45-1-1-1"/>
</svg>
