<svg xmlns="http://www.w3.org/2000/svg" viewBox="0 0 16 16">
  <path d="M6.2 4.4a1 1 0 0 1 1.6 1.2L5.25 9l2.55 3.4a1 1 0 0 1-1.6 1.2L4 10.667 1.8 13.6a1 1 0 0 1-1.6-1.2L2.75 9 .2 5.6a1 1 0 0 1 1.6-1.2L4 7.333zm6.954 9.544.016-.014c.18-.14.36-.28.57-.42l.63-.45c.21-.16.41-.33.61-.51s.37-.38.52-.59.28-.45.37-.7.13-.54.13-.85c0-.25-.04-.51-.12-.79-.07-.29-.2-.55-.39-.79a2.2 2.2 0 0 0-.73-.6c-.29-.15-.66-.23-1.11-.23-.4 0-.76.08-1.07.23-.31.16-.58.37-.79.62-.22.27-.38.59-.49.96s-.16.77-.16 1.2h1.19c.01-.27.03-.53.08-.77.04-.24.11-.45.21-.62.09-.18.22-.32.38-.42s.35-.15.59-.15c.26 0 .47.05.63.14.15.09.28.21.37.35q.135.21.18.45c.03.16.05.31.05.45-.01.31-.08.58-.22.82-.14.23-.32.45-.53.65-.22.21-.46.39-.71.57q-.39.27-.75.54c-.5.36-.89.78-1.17 1.27S11.01 15.35 11 16h4.99v-1.14h-3.55c.05-.17.14-.33.27-.49.126-.145.28-.281.444-.426"/>
</svg>
