<svg width="17" height="16" viewBox="0 0 17 16" fill="none" xmlns="http://www.w3.org/2000/svg">
<path fill-rule="evenodd" clip-rule="evenodd" d="M14.154 5.94406L14.17 5.93L14.17 5.92999C14.35 5.78999 14.53 5.65 14.74 5.51L15.37 5.06C15.58 4.9 15.78 4.73 15.98 4.55C16.18 4.37 16.35 4.17 16.5 3.96C16.65 3.75 16.78 3.51 16.87 3.26C16.96 3.01 17 2.72 17 2.41C17 2.16 16.96 1.9 16.88 1.62C16.81 1.33 16.68 1.07 16.49 0.83C16.31 0.59 16.06 0.39 15.76 0.23C15.47 0.08 15.1 0 14.65 0C14.25 0 13.89 0.08 13.58 0.23C13.27 0.39 13 0.6 12.79 0.85C12.57 1.12 12.41 1.44 12.3 1.81C12.19 2.18 12.14 2.58 12.14 3.01H13.33C13.34 2.74 13.36 2.48 13.41 2.24C13.45 2 13.52 1.79 13.62 1.62C13.71 1.44 13.84 1.3 14 1.2C14.16 1.1 14.35 1.05 14.59 1.05C14.85 1.05 15.06 1.1 15.22 1.19C15.37 1.28 15.5 1.4 15.59 1.54C15.68 1.68 15.74 1.83 15.77 1.99C15.8 2.15 15.82 2.3 15.82 2.44C15.81 2.75 15.74 3.02 15.6 3.26C15.46 3.49 15.28 3.71 15.07 3.91C14.85 4.12 14.61 4.3 14.36 4.48C14.1 4.66 13.85 4.84 13.61 5.02C13.11 5.38 12.72 5.8 12.44 6.29C12.16 6.78 12.01 7.35 12 8H16.99V6.86H13.44C13.49 6.69 13.58 6.53 13.71 6.37C13.8359 6.2247 13.99 6.08878 14.154 5.94406ZM7.19998 4.4C7.38884 4.14819 7.68523 4 7.99998 4C8.82403 4 9.29441 4.94076 8.79998 5.6L6.24998 9L8.79998 12.4C9.29441 13.0592 8.82403 14 7.99998 14C7.68523 14 7.38884 13.8518 7.19998 13.6L4.99998 10.6667L2.79998 13.6C2.61113 13.8518 2.31474 14 1.99998 14C1.17594 14 0.705557 13.0592 1.19998 12.4L3.74998 9L1.19998 5.6C0.705557 4.94076 1.17594 4 1.99998 4C2.31474 4 2.61113 4.14819 2.79998 4.4L4.99998 7.33333L7.19998 4.4Z" fill="black"/>
</svg>
