<svg xmlns="http://www.w3.org/2000/svg" viewBox="0 0 16 16">
  <path d="M11.146.146a.5.5 0 0 1 .708 0l4 4a.5.5 0 0 1-.708.708l-.646-.647L13.207 5.5l1.647 1.646a.5.5 0 0 1-.708.708l-.646-.647-1.147 1.147-5.5 5.5a.5.5 0 0 1-.707 0l-.646-.647-1.646 1.647a.5.5 0 0 1-.708 0l-.646-.647-1.646 1.647a.5.5 0 0 1-.708-.708L1.793 13.5l-.647-.646a.5.5 0 0 1 0-.708L2.793 10.5l-.647-.646a.5.5 0 0 1 0-.708l5.5-5.5L8.794 2.5l-.647-.646a.5.5 0 1 1 .708-.708L10.5 2.793 11.793 1.5l-.647-.646a.5.5 0 0 1 0-.708M11.293 8 8 4.707 3.207 9.5 6.5 12.793 7.793 11.5 6.146 9.854a.5.5 0 1 1 .708-.708L8.5 10.793 9.793 9.5 8.146 7.854a.5.5 0 1 1 .708-.708L10.5 8.793zM8.707 4 12 7.293l.793-.793L9.5 3.207zm-6.5 8.5L3.5 13.793 4.793 12.5 3.5 11.207zm11.586-9L12.5 2.207 11.207 3.5 12.5 4.793z"/>
</svg>
