<svg xmlns="http://www.w3.org/2000/svg" viewBox="0 0 16 16">
  <path d="M15 0H1C.4 0 0 .5 0 1v12c0 .6.4 1 1 1h4.126A4 4 0 0 1 5 13a2 2 0 0 1-1.731-1H2v-2h1.264q.132-.23.319-.417L4.166 9H2V7h12v1.352c.623.705 1 1.632 1 2.648.364 0 .706.098 1 .269V1c0-.5-.4-1-1-1M6 6H2V4h4zm4 0H7V4h3zm4 0h-3V4h3z"/>
  <path d="m9.71 10.29-2-2A1 1 0 0 0 7 8c-.28 0-.53.11-.71.29l-2 2a1.003 1.003 0 0 0 1.42 1.42l.29-.3V13c0 1.66 1.34 3 3 3 .55 0 1-.45 1-1s-.45-1-1-1-1-.45-1-1v-1.59l.29.3a1.003 1.003 0 0 0 1.42-1.42"/>
  <path d="m10.29 13.71 2 2c.18.18.43.29.71.29s.53-.11.71-.29l2-2a1.003 1.003 0 0 0-1.42-1.42l-.29.3V11c0-1.66-1.34-3-3-3-.55 0-1 .45-1 1s.45 1 1 1 1 .45 1 1v1.59l-.29-.3a1.003 1.003 0 0 0-1.42 1.42"/>
</svg>
