<svg xmlns="http://www.w3.org/2000/svg" viewBox="0 0 16 16">
  <path d="M11.29.28998c.39-.39006 1.03-.39006 1.42 0l2.98 2.96046c.41.41007.41 1.07017 0 1.48024l-2.98 2.96046c-.39.39006-1.03.39006-1.42 0-.39-.39006-.39-1.02016 0-1.41022l2.3-2.29036-2.3-2.29036c-.39-.39006-.39-1.02016 0-1.41022Z"/>
  <path d="M13.61 8.23122c.57.78012.51 1.89028-.2 2.60038l-4.58 4.5807c-.78.7802-2.05.7802-2.83 0L.59 10.0015C.21 9.62144 0 9.11136 0 8.58128V4.00056c0-1.10017.9-2.00031 2-2.00031h4.28c.08.15003.18.29005.31.42007l1.59 1.58024-1.59 1.58025c-.38.38006-.59.89014-.59 1.42022s.21 1.04016.59 1.42022c.38.37006.87.58009 1.41.58009.54 0 1.04-.21003 1.42-.58009l.71-.71011c.1.26004.25.50008.46.71011.38.37006.87.58009 1.41.58009.54 0 1.04-.21003 1.42-.58009l.19-.19003ZM3.49 6.99103c.83 0 1.5-.6701 1.5-1.50023 0-.83013-.67-1.50024-1.5-1.50024s-1.5.67011-1.5 1.50024.67 1.50023 1.5 1.50023Z"/>
  <path d="m8.71.28998 2.98 2.96046c.41.41007.41 1.07017 0 1.48024L8.71 7.69114c-.39.39006-1.03.39006-1.42 0-.39-.39006-.39-1.02016 0-1.41022l2.3-2.29036-2.3-2.29036C6.9 1.31014 6.9.68004 7.29.28998c.39-.39006 1.03-.39006 1.42 0Z"/>
</svg>
