<svg xmlns="http://www.w3.org/2000/svg" viewBox="0 0 16 16">
  <path d="M10.29 6.29c.18-.18.43-.29.71-.29.55 0 1 .45 1 1 0 .28-.11.53-.29.71l-.3.29H13c.55 0 1-.45 1-1s.45-1 1-1 1 .45 1 1c0 1.66-1.34 3-3 3h-1.59l.3.29c.18.18.29.43.29.71 0 .55-.45 1-1 1-.28 0-.53-.11-.71-.29l-2-2C8.11 9.53 8 9.28 8 9c0-.28.11-.53.29-.71l2-2Zm3.42-.58c-.18.18-.43.29-.71.29-.55 0-1-.45-1-1 0-.28.11-.53.29-.71l.3-.29H11c-.55 0-1 .45-1 1s-.45 1-1 1-1-.45-1-1c0-1.66 1.34-3 3-3h1.59l-.3-.29C12.11 1.53 12 1.28 12 1c0-.55.45-1 1-1 .28 0 .53.11.71.29l2 2c.18.18.29.43.29.71 0 .28-.11.53-.29.71l-2 2Z"/>
  <path d="M7.8884 2.48369C7.33259 3.17054 7 4.04578 7 5c0 .85408.53895 1.58535 1.29442 1.87137l-.71153.71152C7.2175 7.94829 7 8.45177 7 9c0 .54823.2175 1.0517.58289 1.4171l2 2C9.94829 12.7825 10.4518 13 11 13c.0861 0 .1709-.0055.2541-.0161l-2.42721 2.4272c-.78105.7811-2.04738.7811-2.82843 0L.58579 9.99846A2 2 0 0 1 0 8.58425V4c0-1.10457.89543-2 2-2h4.58425a2 2 0 0 1 1.30415.48369ZM1.99258 5.48702c0 .82536.66909 1.49444 1.49444 1.49444.82536 0 1.49444-.66908 1.49444-1.49444 0-.82535-.66908-1.49444-1.49444-1.49444-.82535 0-1.49444.66909-1.49444 1.49444Z"/>
</svg>
