<svg xmlns="http://www.w3.org/2000/svg" viewBox="0 0 16 16">
  <path d="M12 1a1 1 0 0 1 1-1c1.66 0 3 1.34 3 3s-1.34 3-3 3h-1.59l.3.29a1.003 1.003 0 0 1-1.42 1.42l-2-2A1 1 0 0 1 8 5c0-.28.11-.53.29-.71l2-2a1.003 1.003 0 0 1 1.42 1.42l-.3.29H13c.55 0 1-.45 1-1s-.45-1-1-1a1 1 0 0 1-1-1"/>
  <path d="m12.932 7.519.48.48a2 2 0 0 1 0 2.828L8.826 15.41a2 2 0 0 1-2.829 0L.586 9.998A2 2 0 0 1 0 8.584V4a2 2 0 0 1 2-2h4.584a2 2 0 0 1 1.414.586l.291.29-.706.707A2 2 0 0 0 7 5c0 .548.218 1.052.583 1.417l2 2a2.004 2.004 0 0 0 3.349-.898M1.992 5.487a1.494 1.494 0 1 0 2.99 0 1.494 1.494 0 0 0-2.99 0"/>
</svg>
