<svg xmlns="http://www.w3.org/2000/svg" viewBox="0 0 16 16">
  <path d="M11.29.29c.39-.39 1.03-.39 1.42 0l2.98 2.96c.41.41.41 1.07 0 1.48l-2.98 2.961c-.39.39-1.03.39-1.42 0a.996.996 0 0 1 0-1.41l2.3-2.29-2.3-2.29a.996.996 0 0 1 0-1.411"/>
  <path d="M13.61 8.231c.57.78.51 1.89-.2 2.6l-4.58 4.581c-.78.78-2.05.78-2.83 0l-5.41-5.41c-.38-.38-.59-.89-.59-1.42V4c0-1.1.9-2 2-2h4.28c.08.15.18.29.31.42L8.18 4 6.59 5.58a2.007 2.007 0 0 0 0 2.84c.38.37.87.58 1.41.58s1.04-.21 1.42-.58l.71-.71A1.998 1.998 0 0 0 12 9.001c.54 0 1.04-.21 1.42-.58zM3.49 6.991c.83 0 1.5-.67 1.5-1.5s-.67-1.5-1.5-1.5-1.5.67-1.5 1.5.67 1.5 1.5 1.5"/>
  <path d="m8.71.29 2.98 2.96c.41.41.41 1.07 0 1.48L8.71 7.692c-.39.39-1.03.39-1.42 0a.996.996 0 0 1 0-1.41l2.3-2.29-2.3-2.29a.996.996 0 0 1 0-1.411c.39-.39 1.03-.39 1.42 0"/>
</svg>
