<svg xmlns="http://www.w3.org/2000/svg" viewBox="0 0 16 16">
  <path d="M10.29 6.29a1.003 1.003 0 0 1 1.42 1.42l-.3.29H13c.55 0 1-.45 1-1s.45-1 1-1 1 .45 1 1c0 1.66-1.34 3-3 3h-1.59l.3.29a1.003 1.003 0 0 1-1.42 1.42l-2-2A1 1 0 0 1 8 9c0-.28.11-.53.29-.71zm3.42-.58a1.003 1.003 0 0 1-1.42-1.42l.3-.29H11c-.55 0-1 .45-1 1s-.45 1-1 1-1-.45-1-1c0-1.66 1.34-3 3-3h1.59l-.3-.29A1.003 1.003 0 0 1 13.71.29l2 2c.18.18.29.43.29.71s-.11.53-.29.71z"/>
  <path d="M7.888 2.484A4 4 0 0 0 7 5c0 .854.539 1.585 1.294 1.871l-.711.712A2 2 0 0 0 7 9c0 .548.218 1.052.583 1.417l2 2a2 2 0 0 0 1.671.567L8.827 15.41a2 2 0 0 1-2.829 0L.586 9.998A2 2 0 0 1 0 8.584V4a2 2 0 0 1 2-2h4.584a2 2 0 0 1 1.304.484M1.993 5.487a1.494 1.494 0 1 0 2.988 0 1.494 1.494 0 0 0-2.988 0"/>
</svg>
