<svg xmlns="http://www.w3.org/2000/svg" viewBox="0 0 16 16">
  <path d="M12 0c.5523 0 1 .44771 1 1v2h2c.5523 0 1 .44772 1 1s-.4477 1-1 1h-2v2c0 .55228-.4477 1-1 1s-1-.44772-1-1V5H9c-.55228 0-1-.44772-1-1s.44771-1 1-1h2V1c0-.55229.4477-1 1-1Z"/>
  <path d="M7.79204 2.40586C7.31079 2.7711 7 3.34925 7 4c0 1.10457.89543 2 2 2h1v1c0 1.10457.8954 2 2 2 .6506 0 1.2287-.31066 1.5939-.79174.5926.78369.5317 1.90414-.1828 2.61864l-4.58421 4.5842c-.78105.7811-2.04738.7811-2.82843 0L.58579 9.99846A2 2 0 0 1 0 8.58425V4c0-1.10457.89543-2 2-2h4.58425c.43853 0 .8622.14402 1.20779.40586ZM1.99258 5.48702c0 .82536.66909 1.49444 1.49444 1.49444.82536 0 1.49444-.66908 1.49444-1.49444 0-.82535-.66908-1.49444-1.49444-1.49444-.82535 0-1.49444.66909-1.49444 1.49444Z"/>
</svg>
