<svg xmlns="http://www.w3.org/2000/svg" viewBox="0 0 16 16">
  <path d="M12 1c0-.55229.4477-1 1-1 1.66 0 3 1.34 3 3s-1.34 3-3 3h-1.59l.3.29c.18.18.29.43.29.71 0 .55-.45 1-1 1-.28 0-.53-.11-.71-.29l-2-2C8.11 5.53 8 5.28 8 5c0-.28.11-.53.29-.71l2-2c.18-.18.43-.29.71-.29.55 0 1 .45 1 1 0 .28-.11.53-.29.71l-.3.29H13c.55 0 1-.45 1-1s-.45-1-1-1c-.5523 0-1-.44772-1-1Z"/>
  <path d="m12.9316 7.51897.4795.47949c.7811.78105.7811 2.04734 0 2.82844l-4.58421 4.5842c-.78105.7811-2.04738.7811-2.82843 0L.58579 9.99846A2 2 0 0 1 0 8.58425V4c0-1.10457.89543-2 2-2h4.58425a1.99997 1.99997 0 0 1 1.41421.58579l.29077.29076-.70634.70634C7.2175 3.94829 7 4.45177 7 5c0 .54823.2175 1.05171.58289 1.41711l2 2C9.94829 8.7825 10.4518 9 11 9c.9229 0 1.7024-.62928 1.9316-1.48103ZM1.99258 5.48702c0 .82536.66909 1.49444 1.49444 1.49444.82536 0 1.49444-.66908 1.49444-1.49444 0-.82535-.66908-1.49444-1.49444-1.49444-.82535 0-1.49444.66909-1.49444 1.49444Z"/>
</svg>
