<svg xmlns="http://www.w3.org/2000/svg" viewBox="0 0 16 16">
  <path d="M4 0h4.58425a2 2 0 0 1 1.41421.58579l5.41264 5.41267c.7811.78105.7811 2.04738 0 2.82843l-4.5842 4.58421c-.7811.7811-2.04739.7811-2.82844 0L2.58579 7.99846A1.99997 1.99997 0 0 1 2 6.58425V2c0-1.10457.89543-2 2-2Zm-.00742 3.49258c0 .82843.67158 1.5 1.5 1.5.82843 0 1.5-.67157 1.5-1.5 0-.82842-.67157-1.5-1.5-1.5-.82842 0-1.5.67158-1.5 1.5Z"/>
  <path d="M.26262 5.17591 1 3.81889v2.76537c0 .79564.31607 1.55871.87868 2.12132l5.41268 5.41272c.3121.3121.67586.541 1.06375.6868l-3.9459 1.1234c-1.04568.2977-2.12051-.3616-2.4007-1.4727L.0668 6.7563c-.13456-.53355-.06412-1.10203.19582-1.58039Z"/>
</svg>
