<svg width="16" height="16" viewBox="0 0 16 16" fill="none" xmlns="http://www.w3.org/2000/svg">
<path d="M7 4C7 3.44769 7.44775 3 8 3C8.55225 3 9 3.44769 9 4V6C9 6.55231 8.55225 7 8 7C7.44775 7 7 6.55231 7 6V4Z" fill="black"/>
<path d="M10 7H12C12.5522 7 13 7.44769 13 8C13 8.55231 12.5522 9 12 9H10C9.44775 9 9 8.55231 9 8C9 7.44769 9.44775 7 10 7Z" fill="black"/>
<path d="M4 7H6C6.55225 7 7 7.44769 7 8C7 8.55231 6.55225 9 6 9H4C3.44775 9 3 8.55231 3 8C3 7.44769 3.44775 7 4 7Z" fill="black"/>
<path d="M8 9C8.55225 9 9 9.44769 9 10V12C9 12.5523 8.55225 13 8 13C7.44775 13 7 12.5523 7 12V10C7 9.44769 7.44775 9 8 9Z" fill="black"/>
<path d="M16 8C16 12.4183 12.4183 16 8 16C3.58167 16 0 12.4183 0 8C0 3.58173 3.58167 0 8 0C12.4183 0 16 3.58173 16 8ZM14 8C14 4.68628 11.3137 2 8 2C4.68628 2 2 4.68628 2 8C2 11.3137 4.68628 14 8 14C11.3137 14 14 11.3137 14 8Z" fill="black"/>
</svg>
