<svg xmlns="http://www.w3.org/2000/svg" viewBox="0 0 16 16">
  <path d="M11.328 10.238c1.015.413 2.16.878 2.439 1.516.303.69.248 2.67.235 3.143L14 15H2s-.113-2.465.232-3.253c.28-.638 1.424-1.104 2.44-1.517.238-.097.47-.191.682-.284.985-.436 1-.722 1.02-1.067q.003-.061.008-.127 0-.039.004-.079.003-.039.004-.078a3.35 3.35 0 0 1-.916-1.351l-.008-.008q0-.005-.003-.01-.003-.007-.004-.012a3 3 0 0 1-.113-.368c-.262-.045-.412-.323-.472-.585-.053-.105-.173-.36-.15-.646.037-.382.195-.555.375-.623v-.06c0-.48.037-1.163.127-1.613.015-.128.045-.248.083-.375a2.8 2.8 0 0 1 .96-1.396C6.742 1.188 7.41 1 8.003 1s1.261.195 1.741.548a2.76 2.76 0 0 1 1.043 1.77c.083.451.128 1.142.128 1.614V5c.165.068.315.24.353.615.022.293-.09.548-.15.653-.053.255-.203.533-.458.586a3 3 0 0 1-.113.36c-.007.007-.015.037-.015.037-.202.533-.51.998-.893 1.336 0 .06 0 .12.008.173q.006.078.008.15c.011.335.021.618.99 1.043.212.093.444.187.683.285"/>
  <path d="M4.5 7.521a1.6 1.6 0 0 1-.282-.308 2 2 0 0 1-.279-.593c-.304-.652-.29-1.486.153-2.074.023-.628.065-1.278.244-1.884a4 4 0 0 1 .177-.473A2.9 2.9 0 0 0 3.497 2c-.543 0-1.156.179-1.596.502a2.53 2.53 0 0 0-.956 1.624 9.5 9.5 0 0 0-.117 1.479v.062c-.152.062-.29.22-.323.564-.021.268.082.502.137.598.048.234.186.489.42.537.027.11.062.227.103.33a3.098 3.098 0 0 0 .832 1.259q.002.084-.007.158-.006.072-.007.139c-.01.306-.02.565-.908.955C.281 10.556 0 11.046 0 12v3h1s-.16-2.356 0-3 .572-1.184 1.108-1.59c.61-.46 1.333-.753 2.04-1.039l.213-.087c.857-.35.7-.644.421-1.164A5 5 0 0 1 4.5 7.52M11.5 7.521a1.6 1.6 0 0 0 .282-.308c.136-.193.224-.401.278-.593.305-.652.292-1.486-.152-2.074-.024-.628-.065-1.278-.244-1.884a4 4 0 0 0-.177-.473c.327-.125.684-.189 1.016-.189.543 0 1.156.179 1.596.502a2.53 2.53 0 0 1 .956 1.624c.076.412.117 1.045.117 1.479v.062c.151.062.289.22.323.564.021.268-.082.502-.137.598-.048.234-.186.489-.42.537-.027.11-.062.227-.103.33a3.098 3.098 0 0 1-.832 1.259q-.002.084.006.158.006.072.008.139c.01.306.02.565.907.955C15.72 10.556 16 11.046 16 12v3h-1s.16-2.356 0-3-.572-1.184-1.108-1.59c-.61-.46-1.333-.753-2.04-1.039l-.213-.087c-.857-.35-.7-.644-.421-1.164a5 5 0 0 0 .283-.599"/>
</svg>
