<svg xmlns="http://www.w3.org/2000/svg" viewBox="0 0 16 16">
  <path d="M4.448 9h.573q.037-.066.079-.13A9 9 0 0 1 5.183 8h-.995A10.4 10.4 0 0 1 4 6c0-.717.068-1.391.188-2h3.624q.098.495.146 1.042A3.4 3.4 0 0 1 8.46 5q.252 0 .502.037A11 11 0 0 0 8.829 4h1.755q.223.508.33 1.068l.176-.028a3 3 0 0 1 .5 0q.17 0 .336.018A6.001 6.001 0 0 0 0 6a6 6 0 0 0 5.672 5.991 4 4 0 0 1-.202-.441 2 2 0 0 1-.24-.26 1.8 1.8 0 0 1-.26-.55 2 2 0 0 1-.185-.92l-.012-.025A6 6 0 0 1 4.448 9M3.171 8H1.416A5 5 0 0 1 1 6c0-.711.148-1.388.416-2h1.755C3.06 4.626 3 5.299 3 6s.06 1.374.17 2M2 9H3.4c.18.618.412 1.167.685 1.62A5 5 0 0 1 2 9m2.448-6h3.104a6 6 0 0 0-.325-.795C6.737 1.225 6.246 1 6 1s-.737.225-1.227 1.205q-.179.358-.325.795m4.15 0H10a5 5 0 0 0-2.086-1.62c.273.453.506 1.002.685 1.62M4.087 1.38A6.8 6.8 0 0 0 3.401 3H2a5 5 0 0 1 2.086-1.62M13.476 16s.118-.385-.172-1.046c-.228-.533-1.172-.915-2.015-1.257a22 22 0 0 1-.584-.243c-.808-.356-.816-.588-.825-.872q-.002-.062-.007-.128v-.139c.314-.284.573-.669.745-1.115 0 0 .008-.023.008-.03q.06-.15.095-.3c.212-.04.33-.27.377-.485.054-.093.149-.3.125-.547-.024-.307-.15-.453-.29-.515v-.054c0-.392-.04-.961-.11-1.33a2 2 0 0 0-.071-.308 2.3 2.3 0 0 0-.8-1.17C9.558 6.162 9.001 6 8.506 6s-1.052.162-1.445.462A2.3 2.3 0 0 0 6.19 7.93c-.07.369-.11.946-.11 1.338v.046c-.14.062-.274.208-.306.523a1 1 0 0 0 .126.547c.047.215.173.453.393.492.02.083.05.172.078.253l.016.047c0 .008.008.015.008.015v.008c.172.454.44.846.761 1.115l-.004.072q-.003.03-.004.06l-.007.105c-.016.287-.028.523-.848.894-.176.078-.37.156-.568.237-.847.345-1.802.735-2.031 1.27C3.41 15.616 3.52 16 3.52 16zm2.503-1.25h-1.413a4 4 0 0 0-.116-.294c-.192-.445-.52-.753-.787-.955-.278-.21-.59-.38-.873-.517a21 21 0 0 0-1.122-.483l-.02-.008-.235-.097q.216-.347.366-.731c.089-.087.162-.177.22-.26.132-.192.217-.391.271-.568.117-.251.24-.64.199-1.105a2 2 0 0 0-.299-.925 9 9 0 0 0-.116-1.083 3.4 3.4 0 0 0-.104-.45 3.5 3.5 0 0 0-.661-1.246A2 2 0 0 1 11.63 6c.432 0 .92.141 1.264.404.33.256.584.612.7 1.023.028.087.049.182.062.27.062.322.097.82.097 1.164v.047c.123.053.233.181.254.45a.8.8 0 0 1-.11.478c-.041.189-.144.391-.33.425a2 2 0 0 1-.082.262c0 .007-.007.027-.007.027-.151.39-.378.727-.653.976v.121q.005.057.006.111v.002c.008.247.015.451.722.762.158.07.332.14.51.213.739.299 1.565.634 1.764 1.1.254.579.151.915.151.915"/>
</svg>
