<svg xmlns="http://www.w3.org/2000/svg" viewBox="0 0 16 16">
  <path d="M3.5 9a3.5 3.5 0 1 1 0 7 3.5 3.5 0 0 1 0-7m9.5 1a3 3 0 1 1 0 6 3 3 0 0 1 0-6m-9.5 1a1.5 1.5 0 1 0 0 3 1.5 1.5 0 0 0 0-3m9.5 1a1 1 0 1 0 0 2 1 1 0 0 0 0-2M5 0c1.46 0 2.527.668 3 2l.815 3.255a79 79 0 0 1 2.186.195L11 2h2l.001 3.688q1.048.142 2.013.312c.623.11.986.479.986 1v3.354a4.001 4.001 0 0 0-6.873 1.645H7.999l-.026-.002A4.5 4.5 0 0 0 .659 9.01l-.654.001v-.829C.003 7.386.002 6.423 0 6.022 0 5.5.376 4.99 1 4.99V1a1 1 0 0 1 1-1zm1 2H3v2.99c1.29.024 2.554.069 3.781.135z"/>
</svg>
