<svg xmlns="http://www.w3.org/2000/svg" viewBox="0 0 16 16">
  <path d="M10.507 9.75v-3.5c0-.089.023-.171.051-.25h-7.55c-.176 0-.061-.824 0-1l.729-1.63c.06-.177.095-.37.27-.37h4.5V1.01c-.166-.003-.32-.01-.5-.01-2.72 0-4.036.402-4.036.402-.508.155-1.079.711-1.268 1.237L1.94 4.756H.887c-.483 0-.88.423-.88.939s.397.939.88.939h.376L1.008 7c-.034.685 0 1.436 0 2v5c0 .657.384 1 1 1s1-.343 1-1v-1h10v1c0 .657.383 1 1 1s1-.343 1-1v-3.5h-3.75a.75.75 0 0 1-.75-.75m-5.5.25h-2V8h2zM15.34.826a2.8 2.8 0 0 0-.932-.598q-.58-.24-1.445-.241-.67 0-1.213.228-.542.229-.926.636c-.384.407-.456.592-.598.963a3.5 3.5 0 0 0-.218 1.144V3h1.789c.003-.208.023-.405.069-.588q.074-.29.225-.506.153-.216.39-.345.239-.13.567-.13.488 0 .762.272.275.27.275.839.012.333-.116.555a1.7 1.7 0 0 1-.335.408 7 7 0 0 1-.452.37q-.243.185-.463.438a2.6 2.6 0 0 0-.384.611q-.165.358-.2.889V6h1.645v-.1q.048-.371.237-.618.189-.246.433-.438t.518-.383a2.413 2.413 0 0 0 .878-1.117q.153-.383.152-.975A2.24 2.24 0 0 0 15.34.826M12.007 7v2h2V7z"/>
</svg>
