<svg xmlns="http://www.w3.org/2000/svg" viewBox="0 0 16 16">
  <path d="M11.998.005a3.996 3.996 0 0 1 3.997 3.998c0 1.109-.46 2.088-1.19 2.808l.02.02-.999 1-.02-.02a3.97 3.97 0 0 1-2.052 1.114l-.93-.929 1.583-1.595 1-1-.01-.01c.36-.36.6-.849.6-1.398 0-1.1-.9-2-2-2-.55 0-1.039.24-1.399.6l-.01-.01L8 5.172l-.924-.925A4.04 4.04 0 0 1 8.19 2.194l-.02-.02 1-1 .02.02A3.93 3.93 0 0 1 11.997.005M2.293 2.293a1 1 0 0 1 1.414 0l10 10a1 1 0 0 1-1.414 1.414L8.936 10.35q.061.318.063.648c0 1.1-.46 2.089-1.189 2.808l.02.02-1 1-.02-.02a3.93 3.93 0 0 1-2.807 1.189 3.996 3.996 0 0 1-3.998-3.997c0-1.1.46-2.09 1.19-2.809l-.02-.02.999-1 .02.02a3.93 3.93 0 0 1 2.808-1.188q.334.001.649.064L2.293 3.707a1 1 0 0 1 0-1.414m5.71 7.124.704.704-3.295 3.296-.01-.01c-.36.36-.85.6-1.4.6-1.099 0-1.998-.9-1.998-2 0-.55.24-1.039.6-1.399l-.01-.01 3.295-3.295.694.695-2.29 2.29a1.002 1.002 0 0 0 1.42 1.42zm.702-3.54 1.419 1.418 1.584-1.584a1.002 1.002 0 0 0-1.42-1.42z"/>
</svg>
