<svg xmlns="http://www.w3.org/2000/svg" viewBox="0 0 16 16">
  <path d="M3 1a1 1 0 0 1 .894.553c.102.202.393.607.779.957.419.381.72.49.827.49.108 0 .408-.109.827-.49.386-.35.677-.755.779-.957a1 1 0 0 1 1.788 0c.102.202.393.607.779.957.419.381.72.49.827.49.108 0 .408-.109.827-.49.386-.35.677-.755.779-.957a1 1 0 0 1 1.788 0c.173.344.38.75.637 1.072.277.347.437.375.469.375a1 1 0 1 1 0 2c-.968 0-1.642-.64-2.03-1.125l-.076-.097a6 6 0 0 1-.221.212C12.175 4.442 11.393 5 10.5 5c-.892 0-1.675-.558-2.173-1.01A6 6 0 0 1 8 3.67q-.158.165-.327.32C7.175 4.442 6.393 5 5.5 5c-.892 0-1.675-.558-2.173-1.01a6 6 0 0 1-.221-.212l-.075.097C2.64 4.36 1.968 5 1 5a1 1 0 0 1 0-2c.032 0 .191-.028.47-.375.256-.321.463-.728.636-1.072A1 1 0 0 1 3 1m0 5a1 1 0 0 1 .894.553c.102.202.393.607.779.957.419.381.72.49.827.49.108 0 .408-.109.827-.49.386-.35.677-.755.779-.957a1 1 0 0 1 1.788 0c.102.202.393.607.779.957.419.381.72.49.827.49.108 0 .408-.109.827-.49.386-.35.677-.755.779-.957a1 1 0 0 1 1.788 0c.173.344.38.75.637 1.072.277.347.437.375.469.375a1 1 0 1 1 0 2c-.968 0-1.642-.639-2.03-1.125l-.076-.097a6 6 0 0 1-.221.212c-.498.452-1.28 1.01-2.173 1.01-.892 0-1.675-.558-2.173-1.01A6 6 0 0 1 8 8.67q-.158.165-.327.32C7.175 9.442 6.393 10 5.5 10c-.892 0-1.675-.558-2.173-1.01a6 6 0 0 1-.221-.212l-.075.097C2.64 9.36 1.968 10 1 10a1 1 0 0 1 0-2c.032 0 .191-.028.47-.375.256-.321.463-.728.636-1.072A1 1 0 0 1 3 6m.894 5.553a1 1 0 0 0-1.788 0c-.173.344-.38.75-.637 1.072-.278.347-.437.375-.469.375a1 1 0 1 0 0 2c.968 0 1.642-.639 2.03-1.125l.076-.097q.108.109.221.212C3.825 14.442 4.607 15 5.5 15c.892 0 1.675-.558 2.173-1.01q.17-.155.327-.32.158.165.327.32c.498.452 1.28 1.01 2.173 1.01.892 0 1.675-.558 2.173-1.01q.113-.104.221-.212l.075.097C13.36 14.36 14.032 15 15 15a1 1 0 1 0 0-2c-.032 0-.191-.028-.47-.375-.256-.321-.463-.728-.636-1.072a1 1 0 0 0-1.788 0c-.102.202-.393.607-.779.957-.419.381-.72.49-.827.49-.108 0-.408-.109-.827-.49-.386-.35-.677-.755-.779-.957a1 1 0 0 0-1.788 0c-.102.202-.393.607-.779.957-.419.381-.72.49-.827.49-.108 0-.408-.109-.827-.49-.386-.35-.677-.755-.779-.957"/>
</svg>
