<svg xmlns="http://www.w3.org/2000/svg" viewBox="0 0 16 16">
  <path d="M1 0h4c.55228 0 1 .44771 1 1 0 .23976-.08438.45982-.22507.63209L3.08069 5H5c.55228 0 1 .44772 1 1s-.44772 1-1 1H1c-.55229 0-1-.44772-1-1 0-.24172.08576-.4634.22851-.63629L2.9194 2H1c-.55229 0-1-.44772-1-1 0-.55229.44771-1 1-1Zm8.58463 12.5734-2.97967 2.9797c-.59592.5959-1.5621.5959-2.15802 0-.59592-.596-.59592-1.5621 0-2.1581l2.97968-2.9796c-.78432-1.66828-.48719-3.71879.8914-5.09738 1.38546-1.38546 3.44958-1.67866 5.12228-.87959l-3.001 3.00094c-.58575.58578-.58575 1.53553 0 2.12132.5858.58581 1.5356.58581 2.1214 0l3.0009-3.00093c.799 1.67269.5058 3.73674-.8796 5.12224-1.3786 1.3786-3.4291 1.6757-5.09737.8914Z"/>
</svg>
