<svg xmlns="http://www.w3.org/2000/svg" viewBox="0 0 16 16">
  <path d="m7.71 3.71-2 2C5.53 5.89 5.28 6 5 6c-.55 0-1-.45-1-1 0-.28.11-.53.29-.71l.3-.29H3c-.55 0-1 .45-1 1s.45 1 1 1c.55228 0 1 .44771 1 1 0 .55228-.44772 1-1 1-1.66 0-3-1.34-3-3s1.34-3 3-3h1.59l-.3-.29C4.11 1.53 4 1.28 4 1c0-.55.45-1 1-1 .28 0 .53.11.71.29l2 2c.18.18.29.43.29.71 0 .28-.11.53-.29.71Zm1.87463 8.8634-2.97967 2.9797c-.59592.5959-1.5621.5959-2.15802 0-.59592-.596-.59592-1.5621 0-2.1581l2.97968-2.9796c-.78432-1.66828-.48719-3.71879.8914-5.09738 1.38546-1.38546 3.44958-1.67866 5.12228-.87959l-3.001 3.00094c-.58575.58578-.58575 1.53553 0 2.12132.5858.58581 1.5356.58581 2.1214 0l3.0009-3.00093c.799 1.67269.5058 3.73674-.8796 5.12224-1.3786 1.3786-3.4291 1.6757-5.09737.8914Z"/>
</svg>
