<svg xmlns="http://www.w3.org/2000/svg" viewBox="0 0 16 16">
  <path d="M0 3.5C0 1.57 1.57 0 3.5 0S7 1.57 7 3.5 5.43 7 3.5 7 0 5.43 0 3.5Zm3-2v2.21l1.56 1.56c.1.09.23.14.36.14.12 0 .25-.05.35-.14.19-.2.19-.51 0-.71L4 3.29V1.5c0-.28-.22-.5-.5-.5s-.5.22-.5.5Zm6.58463 11.0734-2.97967 2.9797c-.59592.5959-1.5621.5959-2.15802 0-.59592-.596-.59592-1.5621 0-2.1581l2.97968-2.9796c-.78432-1.66828-.48719-3.71879.8914-5.09738 1.38546-1.38546 3.44958-1.67866 5.12228-.87959l-3.001 3.00094c-.58575.58578-.58575 1.53553 0 2.12132.5858.58581 1.5356.58581 2.1214 0l3.0009-3.00093c.799 1.67269.5058 3.73674-.8796 5.12224-1.3786 1.3786-3.4291 1.6757-5.09737.8914Z"/>
</svg>
