<?xml version="1.0" encoding="UTF-8"?>
<svg width="24px" height="24px" viewBox="0 0 24 24" version="1.1" xmlns="http://www.w3.org/2000/svg" xmlns:xlink="http://www.w3.org/1999/xlink">
    <!-- Generator: Sketch 48.1 (47250) - http://www.bohemiancoding.com/sketch -->
    <title>core-active</title>
    <desc>Created with Sketch.</desc>
    <defs></defs>
    <g id="Page-1" stroke="none" stroke-width="1" fill="none" fill-rule="evenodd">
        <g id="nav_icons-exports" transform="translate(-24.000000, -24.000000)">
            <g id="core" transform="translate(29.000000, 28.000000)">
                <path d="M7.5467889,1.55144376 C7.21454951,1.3344711 6.78545049,1.3344711 6.4532111,1.55144376 L1.4532111,4.81674989 C1.17045369,5.00140779 1,5.31630706 1,5.65402039 L1,10.3459796 C1,10.6836929 1.17045369,10.9985922 1.4532111,11.1832501 L6.4532111,14.4485562 C6.78545049,14.6655289 7.21454951,14.6655289 7.5467889,14.4485562 L12.5467889,11.1832501 C12.8295463,10.9985922 13,10.6836929 13,10.3459796 L13,5.65402039 C13,5.31630706 12.8295463,5.00140779 12.5467889,4.81674989 L7.5467889,1.55144376 Z" id="Polygon-2" stroke="#FFFFFF" stroke-width="2" opacity="0.599999964"></path>
                <polygon id="Polygon-2" fill="#FFFFFF" points="7 3.59999847 11 6.2 11 9.8 7 12.4000015 3 9.8 3 6.2"></polygon>
            </g>
        </g>
    </g>
</svg>