<?xml version="1.0" encoding="UTF-8"?>
<svg width="24px" height="24px" viewBox="0 0 24 24" version="1.1" xmlns="http://www.w3.org/2000/svg" xmlns:xlink="http://www.w3.org/1999/xlink">
    <!-- Generator: Sketch 48.1 (47250) - http://www.bohemiancoding.com/sketch -->
    <title>icons-active</title>
    <desc>Created with Sketch.</desc>
    <defs></defs>
    <g id="Page-1" stroke="none" stroke-width="1" fill="none" fill-rule="evenodd">
        <g id="nav_icons-exports" transform="translate(-168.000000, -24.000000)" fill="#FFFFFF">
            <g id="icons-active" transform="translate(172.000000, 28.000000)">
                <path d="M8,12.4376941 L3.05572809,15 L4,9.57294902 L4.4408921e-16,5.72949017 L5.52786405,4.9376941 L8,0 L10.472136,4.9376941 L16,5.72949017 L12,9.57294902 L12.9442719,15 L8,12.4376941 Z M8,10.0686095 L10.1189737,11.1667406 L9.71428571,8.84086162 L11.4285714,7.19366497 L9.05948684,6.8543238 L8,4.73816918 L6.94051316,6.8543238 L4.57142857,7.19366497 L6.28571429,8.84086162 L5.88102632,11.1667406 L8,10.0686095 Z" id="Combined-Shape"></path>
                <polygon id="Star" opacity="0.600000024" points="8 10.5 5.06107374 12.045085 5.62235871 8.77254249 3.24471742 6.45491503 6.53053687 5.97745751 8 3 9.46946313 5.97745751 12.7552826 6.45491503 10.3776413 8.77254249 10.9389263 12.045085"></polygon>
            </g>
        </g>
    </g>
</svg>