<?xml version="1.0" encoding="UTF-8"?>
<svg width="24px" height="24px" viewBox="0 0 24 24" version="1.1" xmlns="http://www.w3.org/2000/svg" xmlns:xlink="http://www.w3.org/1999/xlink">
    <!-- Generator: Sketch 48.1 (47250) - http://www.bohemiancoding.com/sketch -->
    <title>labs-active</title>
    <desc>Created with Sketch.</desc>
    <defs></defs>
    <g id="Page-1" stroke="none" stroke-width="1" fill="none" fill-rule="evenodd">
        <g id="nav_icons-exports" transform="translate(-120.000000, -24.000000)" fill="#FFFFFF">
            <g id="labs" transform="translate(125.000000, 30.000000)">
                <path d="M5,3 L5,1 L4.5,1 C4.22385763,1 4,0.776142375 4,0.5 C4,0.223857625 4.22385763,5.07265313e-17 4.5,0 L9.5,0 C9.77614237,-5.07265313e-17 10,0.223857625 10,0.5 C10,0.776142375 9.77614237,1 9.5,1 L9,1 L9,3 L12.9270664,8.89059961 C13.5397713,9.80965698 13.2914236,11.0513957 12.3723662,11.6641006 C12.0438312,11.8831239 11.6578158,12 11.2629658,12 L2.73703418,12 C1.63246468,12 0.737034184,11.1045695 0.737034184,10 C0.737034184,9.60515003 0.853910239,9.21913464 1.07293359,8.89059961 L5,3 Z" id="Combined-Shape" opacity="0.600000024"></path>
                <path d="M12.2811229,7.91722734 L12.9300377,8.89059961 C13.5427426,9.80965698 13.2943949,11.0513957 12.3753375,11.6641006 C12.0468025,11.8831239 11.6607871,12 11.2659371,12 L2.74000549,12 C1.63543599,12 0.740005493,11.1045695 0.740005493,10 C0.740005493,9.60515003 0.856881548,9.21913464 1.0759049,8.89059961 L3.32609814,5.51530976 C4.68900362,5.30571125 6.08129468,5.68036697 7.50297131,6.63927692 C8.75810905,7.48585768 10.3508262,7.91184115 12.2811229,7.91722734 Z" id="Combined-Shape"></path>
            </g>
        </g>
    </g>
</svg>