<svg width="70" height="70" viewBox="0 0 70 70" xmlns="http://www.w3.org/2000/svg" xmlns:xlink="http://www.w3.org/1999/xlink">
    <title>
        Artboard 2 Copy 4
    </title>
    <defs>
        <circle id="a" cx="21" cy="13" r="3"/>
        <filter x="-50%" y="-50%" width="200%" height="200%" filterUnits="objectBoundingBox" id="b">
            <feOffset dx="-1" dy="-2" in="SourceAlpha" result="shadowOffsetInner1"/>
            <feComposite in="shadowOffsetInner1" in2="SourceAlpha" operator="arithmetic" k2="-1" k3="1" result="shadowInnerInner1"/>
            <feColorMatrix values="0 0 0 0 0.815686275 0 0 0 0 0.898039216 0 0 0 0 0.949019608 0 0 0 1 0" in="shadowInnerInner1"/>
        </filter>
        <circle id="c" cx="15.5" cy="6.5" r="2.5"/>
        <filter x="-50%" y="-50%" width="200%" height="200%" filterUnits="objectBoundingBox" id="d">
            <feOffset dx="-1" dy="-2" in="SourceAlpha" result="shadowOffsetInner1"/>
            <feComposite in="shadowOffsetInner1" in2="SourceAlpha" operator="arithmetic" k2="-1" k3="1" result="shadowInnerInner1"/>
            <feColorMatrix values="0 0 0 0 0.815686275 0 0 0 0 0.898039216 0 0 0 0 0.949019608 0 0 0 1 0" in="shadowInnerInner1"/>
        </filter>
        <circle id="e" cx="27" cy="4" r="4"/>
        <filter x="-50%" y="-50%" width="200%" height="200%" filterUnits="objectBoundingBox" id="f">
            <feOffset dx="-1" dy="-2" in="SourceAlpha" result="shadowOffsetInner1"/>
            <feComposite in="shadowOffsetInner1" in2="SourceAlpha" operator="arithmetic" k2="-1" k3="1" result="shadowInnerInner1"/>
            <feColorMatrix values="0 0 0 0 0.815686275 0 0 0 0 0.898039216 0 0 0 0 0.949019608 0 0 0 1 0" in="shadowInnerInner1"/>
        </filter>
    </defs>
    <g fill="none" fill-rule="evenodd">
        <g>
            <g transform="translate(13 1)">
                <path d="M37.267 51.27C40.312 55.788 42.676 59.35 43 60c1 2 .069.142.069.142.578 2.683-1.197 4.858-3.963 4.858H4.51C1.743 65 .16 62.854.97 60.225L1.5 58.5S7.008 51.05 11 45l.084-.139c.967.025 1.948.079 2.93.17 3.416.317 10.301 6.239 18.313 6.239h4.94z" fill="#BAE1FB"/>
                <path d="M29.009 37.57l13.303 20.087C45.362 62.265 43.365 66 37.83 66H6.188c-5.526 0-7.53-3.74-4.48-8.343l13.301-20.086V20h14v17.57z" stroke="#137CBD" stroke-width="2"/>
                <rect stroke="#137CBD" stroke-width="2" fill="#FFF" x="12" y="16" width="20" height="5" rx="2.5"/>
                <rect fill="#137CBD" x="15" y="24" width="4" height="2" rx="1"/>
                <rect fill="#137CBD" x="15" y="28" width="5" height="2" rx="1"/>
                <rect fill="#137CBD" x="15" y="32" width="4" height="2" rx="1"/>
                <g>
                    <use fill="#FFF" xlink:href="#a"/>
                    <use fill="#000" filter="url(#b)" xlink:href="#a"/>
                    <use stroke="#137CBD" stroke-width="2" xlink:href="#a"/>
                </g>
                <g>
                    <use fill="#FFF" xlink:href="#c"/>
                    <use fill="#000" filter="url(#d)" xlink:href="#c"/>
                    <use stroke="#137CBD" stroke-width="2" xlink:href="#c"/>
                </g>
                <g>
                    <use fill="#FFF" xlink:href="#e"/>
                    <use fill="#000" filter="url(#f)" xlink:href="#e"/>
                    <use stroke="#137CBD" stroke-width="2" xlink:href="#e"/>
                </g>
                <circle fill="#BAE1FA" cx="26" cy="45" r="3"/>
                <circle fill="#BAE1FA" cx="20.5" cy="39.5" r="2.5"/>
                <circle fill="#BAE1FA" cx="24" cy="28" r="2"/>
                <path d="M27 21.5v16.25s13.817 21.25 14.909 24C43 64.5 39 65.5 39 65.5s4.392-.175 5.183-1.25C44.74 63.492 44 59.5 44 59.5L29.78 36.75l-.506-16L27 21.5z" fill-opacity=".15" fill="#137CBD"/>
            </g>
        </g>
    </g>
</svg>
