<svg width="70" height="70" viewBox="0 0 70 70" xmlns="http://www.w3.org/2000/svg" xmlns:xlink="http://www.w3.org/1999/xlink">
    <title>
        Artboard 2
    </title>
    <defs>
        <linearGradient x1="50%" y1="1.367%" x2="50%" y2="100%" id="a">
            <stop stop-color="#FFF" offset="0%"/>
            <stop stop-color="#DEF0FB" offset="37.281%"/>
            <stop stop-color="#E1F2FC" offset="37.596%"/>
            <stop stop-color="#D0E9F9" offset="89.545%"/>
            <stop stop-color="#FBFBFB" offset="89.953%"/>
            <stop stop-color="#FFF" offset="100%"/>
        </linearGradient>
        <path d="M15.363 0C12.073-.037 2.715 12.14 1.867 22.19.88 33.882 9.856 65.227 9.856 65.227s3.582 1.427 5.378 1.427c1.846 0 5.546-1.427 5.546-1.427s8.795-31.31 7.821-43.037C27.77 12.175 18.652.037 15.363 0z" id="b"/>
        <filter x="-50%" y="-50%" width="200%" height="200%" filterUnits="objectBoundingBox" id="c">
            <feOffset dx="-2" dy="-2" in="SourceAlpha" result="shadowOffsetInner1"/>
            <feComposite in="shadowOffsetInner1" in2="SourceAlpha" operator="arithmetic" k2="-1" k3="1" result="shadowInnerInner1"/>
            <feColorMatrix values="0 0 0 0 0.0745098039 0 0 0 0 0.48627451 0 0 0 0 0.741176471 0 0 0 0.15 0" in="shadowInnerInner1"/>
        </filter>
    </defs>
    <g fill="none" fill-rule="evenodd">
        <g>
            <g transform="rotate(45 32.243 62.142)">
                <g>
                    <path d="M15.224 66.826c2.533-2.761 3.77 1.71 3.768 3.7-.002 1.604-.704 4.739-2.179 6.977-1.475 2.239-2.856 3.819-2.856 3.819s-.193-2.05-1.13-4.892c-.937-2.842-1.711-4.516-1.71-5.904.003-2.356 1.257-6.116 4.107-3.7z" stroke="#137CBD" stroke-width="2" fill="#D9EDFA"/>
                    <path d="M15.155 67.635c2.02 0 1.969 1.965 1.969 3.333 0 1.009-1.159 5.857-1.969 5.857s-2.424-5.136-2.424-6.272c0-1.24.405-2.918 2.424-2.918z" fill="#FFF"/>
                </g>
                <path d="M9.306 60.484s-2.387.906-3.171 3.088C5.287 65.93 6.288 76.284 4.41 74.1 2.533 71.915-.495 64.29.31 56.8c.808-7.49 7.121-10.743 7.121-10.743l1.874 14.428z" stroke="#137CBD" stroke-width="2" fill="#C7E5F8"/>
                <path d="M20.82 60.484s2.386.906 3.17 3.088c.848 2.357-.153 12.712 1.725 10.527 1.878-2.184 4.906-9.81 4.098-17.3-.807-7.49-7.12-10.743-7.12-10.743l-1.874 14.428z" stroke="#137CBD" stroke-width="2" fill="#C8E5F9"/>
                <g>
                    <use fill="url(#a)" xlink:href="#b"/>
                    <use fill="#000" filter="url(#c)" xlink:href="#b"/>
                    <use stroke="#137CBD" stroke-width="2" xlink:href="#b"/>
                </g>
                <path d="M1.989 21.88s9.209 2.553 13.635 2.553c4.466 0 13.04-2.552 13.04-2.552" stroke="#137CBD" stroke-width="2"/>
                <ellipse stroke="#137CBD" stroke-width="2" fill="#FFF" cx="15.224" cy="24.405" rx="5.373" ry="5.857"/>
                <ellipse fill="#137CBD" cx="15.224" cy="24.405" rx="2.687" ry="2.929"/>
                <path d="M8.523 60.524c.39.215 12.97 0 12.97 0" stroke="#137CBD" stroke-width="2"/>
                <path d="M15.321 46.624c1.116 0 2.213 2.167 2.213 6.546 0 4.4-1.042 18.835-2.213 18.835-1.17 0-2.41-14.181-2.41-18.835 0-4.126 1.294-6.546 2.41-6.546z" stroke="#137CBD" stroke-width="2" fill="#B4D8EF"/>
            </g>
        </g>
    </g>
</svg>
